<?xml version="1.0" encoding="UTF-8"?>
<svg width="20px" height="19px" viewBox="0 0 20 19" version="1.1" xmlns="http://www.w3.org/2000/svg" xmlns:xlink="http://www.w3.org/1999/xlink">
    <!-- Generator: Sketch 47.1 (45422) - http://www.bohemiancoding.com/sketch -->
    <title>bar_kecheng</title>
    <desc>Created with Sketch.</desc>
    <defs></defs>
    <g id="Page-1" stroke="none" stroke-width="1" fill="none" fill-rule="evenodd">
        <g id="Artboard" transform="translate(-185.000000, -40.000000)" stroke="#FFFFFF">
            <g id="bar_kecheng" transform="translate(186.000000, 41.000000)">
                <path d="M12.8078563,0 C13.8961748,0 14.7783146,0.882209709 14.7783495,1.97045825 L14.7783495,15.2635456 C14.7783495,16.3517942 13.8962097,17.2340039 12.8078913,17.2340039 L1.97045825,17.2340039 C0.882279612,17.2340039 0,16.3517942 0,15.2635456 L0,1.97045825 C0,0.882174757 0.882279612,0 1.97045825,0 L12.8078563,0 Z M6.61812816,7.44979806 L6.61816311,7.44979806 L6.61816311,2.55799223 C6.61816311,2.2859301 6.39758447,2.06535146 6.12555728,2.06535146 L2.70912233,2.06535146 C2.43706019,2.06535146 2.2165165,2.2859301 2.2165165,2.55799223 L2.2165165,7.44979806 L4.4172699,5.97107184 L6.61812816,7.44979806 Z" id="Combined-Shape"></path>
                <path d="M16.9982136,0 C16.4468893,0 16,0.446924272 16,0.998178641 L16,16.3643767 C16,16.915666 16.4468893,17.3625903 16.9982136,17.3625903 C17.5495029,17.3625903 17.9964272,16.915666 17.9964272,16.3643767 L17.9964272,0.998178641 C17.9963922,0.446924272 17.549468,0 16.9982136,0 L16.9982136,0 Z" id="Path"></path>
            </g>
        </g>
    </g>
</svg>