<?xml version="1.0" encoding="UTF-8"?>
<svg width="18px" height="19px" viewBox="0 0 18 19" version="1.1" xmlns="http://www.w3.org/2000/svg" xmlns:xlink="http://www.w3.org/1999/xlink">
    <!-- Generator: Sketch 47.1 (45422) - http://www.bohemiancoding.com/sketch -->
    <title>bar_baobiao</title>
    <desc>Created with Sketch.</desc>
    <defs></defs>
    <g id="Page-1" stroke="none" stroke-width="1" fill="none" fill-rule="evenodd">
        <g id="Artboard" transform="translate(-257.000000, -39.000000)" stroke="#FFFFFF">
            <g id="bar_baobiao" transform="translate(257.000000, 39.000000)">
                <path d="M0.502866769,5.75792956 L0.502866769,5.25792956 L0.00286676876,5.75792956 L0.502866769,5.75792956 Z M9.45648086,5.75792956 L9.95648086,5.75792956 L9.45648086,5.25792956 L9.45648086,5.75792956 Z M9.45648086,14.7103032 L9.45648086,15.2103032 L9.95648086,14.7103032 L9.45648086,14.7103032 Z M0.502866769,14.7103032 L0.00286676876,14.7103032 L0.502866769,15.2103032 L0.502866769,14.7103032 Z M0.502866769,14.7103032 L0.502866769,5.75792956 L9.45648086,5.75792956 L9.45648086,14.7103032 L0.502866769,14.7103032 Z M5.48029403,12.6937147 L5.48029403,13.5705911 L0.976170795,13.5705911 L3.53900957,9.79523194 L1.23832811,6.3516049 L4.081811,6.3516049 L4.98131895,7.67494181 L5.87988999,6.3516049 L8.72310998,6.3516049 L6.41932225,9.7942508 L8.98320826,13.570536 L8.03938438,13.570536 L6.33379479,13.5705636 L6.06665917,13.5705636 L5.48029403,12.6937147 Z" id="Fill-1"></path>
                <path d="M3.62295865,16.9531026 L3.62295865,16.4531026 L3.12295865,16.9531026 L3.62295865,16.9531026 Z M3.62414395,3.51262175 L3.12414395,3.51262175 L3.62414395,4.01262175 L3.62414395,3.51262175 Z M3.62295865,16.9531026 L11.2257397,16.9531026 L11.2257397,3.51262175 L3.62414395,3.51262175 L3.62414395,1.33550077 C3.62414395,0.882151489 3.99674868,0.509316998 4.45032772,0.509316998 L16.6543828,0.509316998 C17.1088165,0.509316998 17.4813711,0.881626071 17.4805674,1.33464124 L17.4805666,17.3425727 C17.4805666,17.7967397 17.1085498,18.1687565 16.6543828,18.1687565 L4.44905972,18.1687565 C3.99497856,18.1687565 3.62295865,17.7967153 3.62295865,17.3425727 L3.62295865,16.9531026 Z M16.8885452,13.8630567 L11.534392,13.8630567 L11.534392,11.6189893 L16.8885452,11.6189893 L16.8885452,13.8630567 Z M16.8885452,11.3749219 L11.534392,11.3749219 L11.534392,9.13088208 L16.8885452,9.13088208 L16.8885452,11.3749219 Z M11.534392,8.88684227 L11.534392,6.64280245 L16.8885452,6.64280245 L16.8885452,8.88684227 L11.534392,8.88684227 Z" id="Fill-2"></path>
            </g>
        </g>
    </g>
</svg>