<?xml version="1.0" encoding="UTF-8"?>
<svg width="18px" height="19px" viewBox="0 0 18 19" version="1.1" xmlns="http://www.w3.org/2000/svg" xmlns:xlink="http://www.w3.org/1999/xlink">
    <!-- Generator: Sketch 47.1 (45422) - http://www.bohemiancoding.com/sketch -->
    <title>bar_peixun_on</title>
    <desc>Created with Sketch.</desc>
    <defs></defs>
    <g id="Page-1" stroke="none" stroke-width="1" fill="none" fill-rule="evenodd">
        <g id="列表页" transform="translate(-300.000000, -53.000000)" fill-rule="nonzero" fill="#C8C8C8">
            <g id="bar_peixun_on" transform="translate(300.000000, 53.000000)">
                <path d="M3.88760047,4.83216113 C3.83847152,4.45947582 3.88728386,4.11298494 4.12209616,3.93137041 C4.29755162,3.11892056 4.9016709,2.61081436 5.80756188,2.61081436 C6.70546179,2.61081436 7.28821694,3.14159923 7.4597218,3.93108364 C7.69476594,4.11251334 7.7435955,4.45879545 7.69457788,4.83077443 C7.65961208,5.10186963 7.50158466,5.39085038 7.29156031,5.57925429 C6.65542286,7.20284475 4.92800987,7.20403932 4.29059703,5.5795329 C4.0804436,5.39118385 3.92240499,5.10226219 3.88760047,4.83216113 Z M4.94290964,4.82615928 L5.12150614,4.92027578 L5.18468816,5.11201168 C5.48589924,6.0260847 6.09676994,6.02563524 6.3972028,5.1122677 L6.46028781,4.92047844 L6.63885813,4.82626867 C6.63932057,4.8260247 6.64683855,4.81483266 6.65658562,4.79890347 L6.54076557,4.79890347 L6.50882947,4.33310414 C6.47593416,3.85331431 6.25853373,3.61081436 5.80756188,3.61081436 C5.32869443,3.61081436 5.10765281,3.8356256 5.07321359,4.33341325 L5.04100887,4.79890347 L4.92529227,4.79890347 C4.93501483,4.8147792 4.94250565,4.82596293 4.94290964,4.82615928 Z" id="Fill-1"></path>
                <path d="M7.43882765,11.4941157 C7.41222933,11.4941157 7.39125512,11.5163024 7.39125512,11.5429494 L7.39125512,11.4941157 L7.43882765,11.4941157 Z M7.43882765,11.9808436 L7.43882765,13 L6.47380955,13 L6.47380955,11.9808436 L7.43882765,11.9808436 Z M6.47380955,11.4941157 L7.39125512,11.4941157 L7.39125512,11.088284 L7.67395989,10.7897696 L8.35627321,10.0692994 L8.35627321,10.7730575 L11.1007777,7.87570557 C11.1349316,7.95324871 11.1822535,8.02565841 11.2427192,8.08906894 C11.3046701,8.15494914 11.375202,8.20631897 11.4505109,8.24320658 L8.35627321,11.5104828 L8.35627321,11.5429494 C8.35627321,12.0787179 7.9456198,12.5132721 7.43882765,12.5132721 L7.43882765,13 L3.91703711,13 L3.91703711,11.9808436 L6.47380955,11.9808436 L6.47380955,11.4941157 Z M8.35627321,10.3507936 L8.35627321,10.7730575 L8.63905252,10.4745296 L9.13276735,10.6905649 L8.35627321,11.5104828 L8.35627321,11.5429494 C8.35627321,12.0787179 7.9456198,12.5132721 7.43882765,12.5132721 L7.43882765,13 L3.91703711,13 L3.91703711,12.5132721 C3.41013747,12.5132721 3,12.0787179 3,11.5429494 L3,7.56053529 C3,6.86184304 3.4813601,6.25771287 4.15661002,6.1078439 L4.64964349,6 L5.13775235,7.02673705 L5.4602901,7.70519526 L5.6776744,8.16246319 L5.89504418,7.70518756 L6.21756039,7.02671793 L6.70561932,6 L7.19914725,6.1078439 C7.87390271,6.25771287 8.35627321,6.86184304 8.35627321,7.56053529 L8.35627321,9.33203309 L8.35627321,10.3507936 Z M4.33476955,7.27692565 C4.13427385,6.92775179 3.90597733,7.04631332 3.64988,7.63261024 L3.64988,11.4884338 L4.6237793,11.4884338 L4.6237793,11.9780273 C5.74201543,11.9746237 6.45784592,11.9746237 6.77127075,11.9780273 C7.3822604,11.9846625 7.73474326,11.7613674 7.82871934,11.308142 C7.84709615,10.4001241 7.85169035,9.43960571 7.84250194,8.42658681 C7.84014254,8.16646339 7.82253337,7.94253451 7.78967442,7.75480016 C7.72627028,7.39255074 7.50341026,7.15239355 7.12109438,7.03432861 L5.53845056,9.39411358 C4.93649226,8.33182882 4.53526525,7.62609952 4.33476955,7.27692565 Z M9.32129131,9.75429544 L11.5789416,7.37091166 C11.6751018,7.26874376 11.8313703,7.26874376 11.9274445,7.37091166 C12.0241852,7.47237574 12.0241852,7.63743367 11.9274445,7.73960158 L9.32129131,10.4914981 L9.32129131,9.75429544 Z" id="-"></path>
                <path d="M9.67511139,11.4990173 L9.67511139,11.3715 L9.80264885,11.4990173 L15.272354,11.4990173 C16.1784377,11.4990173 16.9175965,10.7597898 16.9175965,9.85315099 L16.9175965,2.66110396 C16.9175965,1.75467935 16.1783846,1.01541584 15.272354,1.01541584 L2.64533168,1.01541584 C1.73922054,1.01541584 1.00008911,1.75458164 1.00008911,2.66101485 L1.00008911,9.85311757 C1.00008911,10.5182159 1.39785945,11.0932518 1.96748872,11.3524307 L2.45258911,11.3524307 L2.43535675,11.485643 C2.43918015,11.4861337 2.44492427,11.5624277 2.45258911,11.7145248 C2.45258911,12.002302 2.53637376,12.2695396 2.6762302,12.4990173 C2.2390317,12.4990173 1.85386998,12.4069152 1.50955253,12.2424836 C1.49772399,12.1883396 1.48769483,12.1337171 1.47950526,12.0786821 C0.672055784,11.6571002 0.127517327,10.8151232 0.127517327,9.85315099 L0.127517327,2.66101485 C0.127517327,1.27170961 1.25615654,0.142933168 2.64524257,0.142933168 L15.2722649,0.142933168 C16.6614367,0.142933168 17.7902351,1.27161723 17.7902351,2.66101485 L17.7902351,9.85315099 C17.7902351,11.2427473 16.6615053,12.3715 15.2722649,12.3715 L10.0893712,12.3715 L10.0131836,12.4476996 C10.0214012,12.4224501 10.0291945,12.3970547 10.0365573,12.3715 L9.67511139,12.3715 L9.67511139,12.0241752 L9.11078465,11.9359158 L9.67397505,12.4990173 L8.89175495,12.4990173 C8.9952104,12.3288861 9.07832673,12.1434505 9.11078465,11.9359158 L9.54761419,11.4990173 L9.67511139,11.4990173 Z M1.45258911,11.3524307 L1.96748872,11.3524307 C2.11343021,11.4188334 2.27065264,11.4645031 2.43535675,11.485643 L2.32429799,12.3441672 C2.02200438,12.3050625 1.7373499,12.2133068 1.47950526,12.0786821 C1.46169891,11.959021 1.45258911,11.8374095 1.45258911,11.7145248 L1.45258911,11.3524307 Z M9.67511139,11.4990173 L9.80264885,11.4990173 L10.382274,12.078551 L10.0893712,12.3715 L10.0365573,12.3715 C10.0629049,12.2800534 10.0837395,12.1865676 10.0987744,12.0904351 L9.67511139,12.0241752 L9.67511139,11.4990173 Z M8.91089109e-05,9.85308416 L8.91089109e-05,2.66101485 C8.91089109e-05,1.20219059 1.18704208,0.0154158416 2.64533168,0.0154158416 L15.272354,0.0154158416 C16.7305545,0.0154158416 17.9175965,1.2022797 17.9175965,2.66110396 L17.9175965,9.85315099 C17.9175965,11.3122426 16.7305545,12.4990173 15.272354,12.4990173 L8.89175495,12.4990173 C8.9952104,12.3288861 9.07832673,12.1434505 9.11078465,11.9359158 L9.67511139,11.3715 L15.2722649,11.3715 C16.1090421,11.3715 16.7902351,10.6906411 16.7902351,9.85315099 L16.7902351,2.66101485 C16.7902351,1.82379208 16.1090421,1.14293317 15.2722649,1.14293317 L2.64524257,1.14293317 C1.80855446,1.14293317 1.12751733,1.82388119 1.12751733,2.66101485 L1.12751733,9.85315099 C1.12751733,10.6245 1.7072599,11.2560149 2.45258911,11.3524307 L2.45258911,11.7145248 C2.45258911,12.002302 2.53637376,12.2695396 2.6762302,12.4990173 C1.18704208,12.4990173 8.91089109e-05,11.3121535 8.91089109e-05,9.85308416 Z" id="Path"></path>
                <path d="M3.70460553,15.0725248 C3.70457273,15.0725248 3.70452353,14.7391914 3.70445792,14.0725248 C4.39919763,14.0725248 4.99840671,14.4820106 5.273922,15.0726139 L3.71598192,15.0726139 C3.71219669,15.0725553 3.70840449,15.0725255 3.70460553,15.0725248 Z M1.73145297,15.0726139 C1.32743458,15.0726139 1,15.399932 1,15.8031757 L1,17.0891312 L4.43528713,17.0891312 L4.43528713,15.8030866 C4.43528713,15.4036909 4.11415815,15.0787754 3.71598192,15.0726139 L1.73145297,15.0726139 Z M3.70454703,14.0726139 C4.66033282,14.0725729 5.43528713,14.847646 5.43528713,15.8030866 L5.43528713,18.0891312 L0,18.0891312 L0,15.8031757 C0,14.8477054 0.775091584,14.0726139 1.73145297,14.0726139 L3.70454703,14.0726139 Z" id="Path"></path>
                <path d="M9.97624661,15.0725248 C9.97621381,15.0725248 9.97616461,14.7391914 9.97609901,14.0725248 C10.6707901,14.0725248 11.270033,14.4820106 11.5455704,15.0726139 L9.98762154,15.0726139 C9.98383678,15.0725553 9.98004507,15.0725255 9.97624661,15.0725248 Z M8.00309406,15.0726139 C7.59904277,15.0726139 7.27155198,15.3999649 7.27155198,15.8031757 L7.27155198,17.0891312 L10.7069505,17.0891312 L10.7069505,15.8030866 C10.7069505,15.4037276 10.3857703,15.0787758 9.98762154,15.0726139 L8.00309406,15.0726139 Z M9.97618812,14.0726139 C10.9319071,14.0725729 11.7069505,14.847646 11.7069505,15.8030866 L11.7069505,18.0891312 L6.27155198,18.0891312 L6.27155198,15.8031757 C6.27155198,14.8477054 7.04673267,14.0726139 8.00309406,14.0726139 L9.97618812,14.0726139 Z" id="Path"></path>
                <path d="M16.9785916,17.0891312 L16.9785916,15.8030866 C16.9785916,15.3999611 16.651097,15.0725248 16.2477624,15.0725248 L14.274646,15.0726139 C13.8707317,15.0726139 13.5433045,15.3999393 13.5433045,15.8031757 L13.5433045,17.0891312 L16.9785916,17.0891312 Z M16.2477624,14.0726139 C17.2033218,14.0725248 17.9785916,14.8476163 17.9785916,15.8030866 L17.9785916,18.0891312 L12.5433045,18.0891312 L12.5433045,15.8031757 C12.5433045,14.8477054 13.318396,14.0726139 14.274646,14.0726139 L16.2477624,14.0726139 Z" id="Path"></path>
            </g>
        </g>
    </g>
</svg>