<?xml version="1.0" encoding="UTF-8"?>
<svg width="20px" height="20px" viewBox="0 0 20 20" version="1.1" xmlns="http://www.w3.org/2000/svg" xmlns:xlink="http://www.w3.org/1999/xlink">
    <!-- Generator: Sketch 47.1 (45422) - http://www.bohemiancoding.com/sketch -->
    <title>bar_yuangong_on</title>
    <desc>Created with Sketch.</desc>
    <defs></defs>
    <g id="Page-1" stroke="none" stroke-width="1" fill="none" fill-rule="evenodd">
        <g id="Artboard" transform="translate(-291.000000, -83.000000)" stroke="#C8C8C8">
            <g id="bar_yuangong_on" transform="translate(292.000000, 84.000000)">
                <path d="M10.0296103,15.8944126 C10.034639,15.9127994 10.0353352,15.9322951 10.0321375,15.9518166 L9.69691977,17.8873582 C9.68655301,17.9487851 9.63394556,17.9933725 9.57313754,17.9933725 L8.35254155,17.9933725 C8.29173352,17.9933725 8.23984814,17.9491719 8.22875931,17.8873582 L7.89070487,15.9886418 C7.88712034,15.9687335 7.88781662,15.9481289 7.89354155,15.9293295 L8.29095989,14.5058854 C8.30816046,14.4447421 8.36685387,14.404255 8.42833238,14.4131261 C8.50525788,14.4241633 8.5617851,14.4333696 8.61006017,14.4410802 C8.7285043,14.4602407 8.78825501,14.4701433 8.97637822,14.4701433 C9.16207736,14.4701433 9.2207192,14.4606017 9.33735817,14.4418023 C9.38496275,14.4344527 9.44179943,14.4248854 9.51800287,14.414596 C9.58239542,14.4061117 9.63892264,14.4462636 9.65573639,14.5080774 L10.0296103,15.8944126 Z M11.1490143,11.5425903 L11.1490143,10.344765 C11.9156648,9.57726361 12.4315014,8.45855587 12.5119857,7.34023496 C12.5159054,7.34023496 12.520212,7.34023496 12.5241318,7.34023496 C12.9072894,7.34023496 13.2178023,7.00158739 13.2178023,6.58377077 C13.2178023,6.27526934 13.0489427,6.01058166 12.8071289,5.89280802 C12.9473381,5.44518052 13.0242378,4.96518911 13.0242378,4.46526361 C13.0242378,2.02616046 11.212298,0.0471919771 8.97640401,0.0471919771 C6.74051003,0.0471919771 4.92820917,2.02616046 4.92820917,4.46526361 C4.92820917,4.96518911 5.00588252,5.44518052 5.14573066,5.89280802 C4.90389112,6.01060745 4.73469628,6.27529513 4.73469628,6.58377077 C4.73469628,7.00158739 5.04520917,7.34023496 5.42836676,7.34023496 C5.43264756,7.34023496 5.43623209,7.34023496 5.44051289,7.34023496 C5.51993983,8.44383095 6.02432665,9.54598281 6.77380229,10.3123754 L6.77380229,11.5425903 C6.77380229,11.5831032 6.78272493,11.6235903 6.8010086,11.6603897 C6.90080802,11.86249 7.81125215,13.6342264 8.95672779,13.6584928 C8.95817192,13.6584928 8.97715186,13.6584928 8.9785702,13.6584928 C8.9785702,13.6584928 8.9785702,13.6584928 8.97926648,13.6584928 C10.1222665,13.6584928 11.0234011,11.862851 11.1228395,11.6581977 C11.1400401,11.6221203 11.1490143,11.5831032 11.1490143,11.5425903 L11.1490143,11.5425903 Z" id="man-copy"></path>
                <path d="M17.838361,15.9466848 C16.184914,14.2949656 14.1675989,13.130639 11.9975415,12.5732837 C11.9428195,12.5423897 11.8805931,12.5261691 11.8168711,12.5261691 L11.6201089,12.5261691 C11.6151318,12.5261691 11.6097679,12.5272779 11.604404,12.5276648 L12.4958682,14.5147307 L10.6374069,18 L17.575788,18 C17.784,18 17.9528338,17.8269885 17.9528338,17.6120201 L17.9528338,16.2257364 C17.9528338,16.1204441 17.9113668,16.0195616 17.838361,15.9466848 Z" id="Path"></path>
                <path d="M6.35348424,12.5276648 C6.34561891,12.5276648 6.33917192,12.5257822 6.33202865,12.5257822 L6.18893123,12.5257822 C6.15994556,12.5257822 6.1309341,12.5291089 6.10233524,12.5357364 C3.87502865,13.0783152 1.80446132,14.2577794 0.114472779,15.946659 C0.0411318052,16.0202579 0,16.1204183 0,16.2257106 L0,17.6119943 C0,17.8269628 0.168859599,17.9999742 0.377071633,17.9999742 L7.26929226,17.9999742 L5.4447937,14.5584928 L6.35348424,12.5276648 Z" id="Path"></path>
            </g>
        </g>
    </g>
</svg>