<?xml version="1.0" encoding="UTF-8"?>
<svg width="20px" height="19px" viewBox="0 0 20 19" version="1.1" xmlns="http://www.w3.org/2000/svg" xmlns:xlink="http://www.w3.org/1999/xlink">
    <!-- Generator: Sketch 47.1 (45422) - http://www.bohemiancoding.com/sketch -->
    <title>bar_hetong_on</title>
    <desc>Created with Sketch.</desc>
    <defs></defs>
    <g id="Page-1" stroke="none" stroke-width="1" fill="none" fill-rule="evenodd">
        <g id="Artboard" transform="translate(-150.000000, -82.000000)" stroke="#C8C8C8">
            <g id="bar_hetong_on" transform="translate(151.000000, 83.000000)">
                <path d="M15.0996737,10.8802585 C13.5104103,10.8802585 12.2240355,12.1666333 12.2240355,13.7558675 C12.2240355,15.3451309 13.5104103,16.6315057 15.0996737,16.6315057 C16.6889079,16.6315057 17.9752827,15.3451309 17.9752827,13.7558675 C17.9718805,12.1666333 16.6855057,10.8802585 15.0996737,10.8802585 Z M16.522168,13.388336 L15.8993796,13.9974863 C15.8789661,14.0179289 15.8721616,14.0417447 15.8755638,14.0689628 L16.0218901,14.9231341 C16.0286947,14.9673926 15.9980743,15.0082197 15.9538449,15.0184265 C15.9368336,15.0218288 15.9197932,15.0184265 15.9027819,15.011622 L15.1336963,14.6066656 C15.1098805,14.5930275 15.0826333,14.5930275 15.0588174,14.6066656 L14.2897318,15.011622 C14.2488756,15.0320355 14.2012439,15.0184265 14.1808304,14.9775994 C14.1740258,14.960559 14.1706236,14.9435477 14.1740258,14.9265363 L14.3203522,14.0723651 C14.3237544,14.045147 14.3169499,14.0179289 14.2965363,14.0008885 L13.6737771,13.3951405 C13.6431276,13.3645202 13.6397254,13.3134863 13.6737771,13.2794346 C13.6873861,13.2658255 13.7043974,13.259021 13.7214087,13.2556187 L14.5823845,13.129706 C14.6096026,13.1263037 14.6334475,13.1092924 14.6436543,13.0854766 L15.0281971,12.3061551 C15.0486107,12.2653279 15.0962714,12.2483166 15.1370985,12.2653279 C15.1541099,12.2721325 15.1677189,12.2857415 15.1779257,12.3061551 L15.5624685,13.0854766 C15.5727044,13.1092924 15.5965202,13.1263037 15.6237383,13.129706 L16.4847141,13.2556187 C16.5289725,13.2624233 16.5595929,13.3032795 16.5527884,13.3475089 C16.5425816,13.3611179 16.5357771,13.3781292 16.522168,13.388336 L16.522168,13.388336 Z" id="Fill-1"></path>
                <path d="M14.9158934,9.661958 L14.9158934,1.3652084 C14.9158934,0.613134087 14.3067431,0.00398384491 13.5546688,0.00398384491 L1.36817447,0.00398384491 C0.616100162,0.00398384491 0.00694991922,0.613134087 0.00694991922,1.3652084 L0.00694991922,15.811357 C0.00694991922,16.5634313 0.616100162,17.1725816 1.36817447,17.1725816 L12.8298126,17.1725816 C11.6829596,16.4137027 10.9887237,15.1307302 10.9887237,13.7524653 C10.992126,11.5608853 12.7209111,9.75384814 14.9158934,9.661958 Z M3.24668821,4.15916317 L6.05765428,4.15916317 C6.43879483,4.15916317 6.75186107,4.46882714 6.75186107,4.84999677 C6.75186107,5.23113732 6.44219709,5.54420355 6.06105654,5.54420355 L3.25009047,5.54420355 C2.86894992,5.54420355 2.55925687,5.23453958 2.55925687,4.84999677 C2.55245234,4.46882714 2.8621454,4.15916317 3.24668821,4.15916317 Z M9.37567367,13.0208045 L3.24668821,13.0208045 C2.86554766,13.0208045 2.5558546,12.7111405 2.5558546,12.3299709 C2.5558546,11.9488304 2.86554766,11.6357641 3.24668821,11.6357641 L9.37907593,11.6357641 C9.76021648,11.6357641 10.0698805,11.9454281 10.0698805,12.3299709 C10.0698805,12.7111405 9.76021648,13.0208045 9.37567367,13.0208045 Z M10.1821842,9.07662359 L3.24668821,9.07662359 C2.86554766,9.07662359 2.5558546,8.76693053 2.5558546,8.38578998 C2.5558546,8.00464943 2.86554766,7.69155412 3.24668821,7.69155412 L10.1821842,7.69155412 C10.5633247,7.69155412 10.87642,8.00124717 10.87642,8.38578998 C10.87642,8.76693053 10.5633247,9.07662359 10.1821842,9.07662359 L10.1821842,9.07662359 Z" id="Fill-2"></path>
            </g>
        </g>
    </g>
</svg>