<?xml version="1.0" encoding="UTF-8"?>
<svg width="14px" height="15px" viewBox="0 0 14 15" version="1.1" xmlns="http://www.w3.org/2000/svg" xmlns:xlink="http://www.w3.org/1999/xlink">
    <!-- Generator: Sketch 47.1 (45422) - http://www.bohemiancoding.com/sketch -->
    <title>icon_zhexian</title>
    <desc>Created with Sketch.</desc>
    <defs></defs>
    <g id="Page-1" stroke="none" stroke-width="1" fill="none" fill-rule="evenodd">
        <g id="新增" transform="translate(-30.000000, -251.000000)" fill="#C8C8C8">
            <path d="M32.6173829,260.338386 L32.6173829,257.800915 C32.6173829,257.773281 32.6282397,257.747595 32.6470028,257.728832 L34.9830358,255.392857 C35.0234931,255.352342 35.0876694,255.352342 35.1282039,255.392857 L38.370573,258.635245 L43.5471405,253.458678 C43.576741,253.429 43.6202066,253.42011 43.658697,253.435942 C43.6971873,253.451755 43.7218898,253.489262 43.7218898,253.53078 L43.7218898,256.068174 C43.7218898,256.095807 43.7110523,256.121493 43.6922893,256.140256 L38.4436391,261.388906 C38.4248953,261.40765 38.3982259,261.418507 38.3715565,261.418507 C38.3439036,261.418507 38.3182176,261.40765 38.2994738,261.388906 L35.0551377,258.147501 L32.7921515,260.41041 C32.762551,260.440088 32.7190854,260.448978 32.680595,260.433146 C32.6421047,260.41635 32.6173829,260.379826 32.6173829,260.338386 Z M31.8433333,263.17597 L31.8433333,251.020942 L31.1442975,251.020942 C30.5124463,251.020942 30,251.533408 30,252.16524 L30,263.875006 C30,264.506837 30.5124463,265.019284 31.1442975,265.019284 L42.8540441,265.019284 C43.4858953,265.019284 43.9983416,264.506837 43.9983416,263.875006 L43.9983416,263.174986 L31.8433333,263.174986 L31.8433333,263.17597 Z" id="icon_zhexian"></path>
        </g>
    </g>
</svg>