<?xml version="1.0" encoding="UTF-8"?>
<svg width="20px" height="12px" viewBox="0 0 20 12" version="1.1" xmlns="http://www.w3.org/2000/svg" xmlns:xlink="http://www.w3.org/1999/xlink">
    <!-- Generator: Sketch 47.1 (45422) - http://www.bohemiancoding.com/sketch -->
    <title>icon_123</title>
    <desc>Created with Sketch.</desc>
    <defs></defs>
    <g id="Page-1" stroke="none" stroke-width="1" fill="none" fill-rule="evenodd">
        <g id="新增" transform="translate(-111.000000, -253.000000)" fill="#C8C8C8">
            <g id="icon_123" transform="translate(111.000000, 253.000000)">
                <path d="M4,0 L16,0 C18.209139,-4.05812251e-16 20,1.790861 20,4 L20,8 C20,10.209139 18.209139,12 16,12 L4,12 C1.790861,12 2.705415e-16,10.209139 0,8 L0,4 L0,4 C-2.705415e-16,1.790861 1.790861,4.05812251e-16 4,0 L4,0 Z M5.28572864,2.00459745 L4,2.86173313 L4,4.11319042 L5.28572864,3.23029595 L5.28572864,10.2331603 L6.57140704,10.2331603 L6.57140704,2.00459745 L5.28572864,2.00459745 Z M11.5,4.04459745 C11.5729045,3.5103261 11.4024824,2.97150198 11.0355678,2.5763663 C10.6686533,2.18122057 10.1439196,1.97138137 9.60572864,2.00459745 C9.10906533,1.96938137 8.61946734,2.13760248 8.24929648,2.47059745 C7.87912563,2.80355223 7.66021106,3.27273816 7.64286432,3.770306 L7.64286432,4.51602459 L8.94570854,4.51602459 L8.94570854,3.85604469 C8.93691457,3.6843663 9.00432161,3.51759243 9.12990955,3.4002457 C9.25549749,3.28293916 9.42647236,3.22699946 9.59712563,3.24745173 C10.2571457,3.24745173 10.2571457,3.71886881 10.2571457,4.1045874 C10.292201,4.46482861 10.2238191,4.82758238 10.0599899,5.1503261 L7.70285427,9.1103261 L7.70285427,10.2160447 L11.5,10.2160447 L11.5,9.05888891 L9.14286432,9.05888891 L11.0456985,5.75887886 C11.4137085,5.26798439 11.576593,4.65331102 11.5,4.04459745 Z M15.2285628,5.97315022 C15.9314171,5.58747183 16,5.270306 16,4.26747183 C16,3.2646075 15.8714271,2.93887886 15.4857085,2.55316027 C15.0990854,2.20049695 14.5947337,2.00482861 14.071407,2.00459745 C13.0706633,1.96019544 12.2160804,2.71981354 12.1428643,3.71886881 L12.1428643,4.37888891 L13.428593,4.37888891 L13.428593,3.71886881 C13.4394673,3.5602658 13.5137387,3.41268791 13.6346935,3.30948188 C13.7556583,3.2062658 13.9130854,3.15609494 14.071407,3.170306 C14.2308442,3.15102962 14.3910553,3.19936127 14.5131859,3.30359243 C14.6353266,3.40782359 14.7082714,3.55841655 14.7142714,3.71886881 L14.7142714,4.75601454 C14.7142714,5.36459745 14.4571256,5.47601454 13.6857286,5.47601454 L13.8142714,5.47601454 L13.8142714,6.4703261 C14.6457286,6.4703261 14.8428442,6.64173313 14.8428442,7.24176328 L14.8428442,8.39031605 C14.8552563,8.56584369 14.7921206,8.738306 14.6693266,8.8643663 C14.5465628,8.9904266 14.3757889,9.05806479 14.1999799,9.05029595 C14.0322714,9.06776328 13.8652261,9.01174318 13.7419497,8.89667786 C13.6186834,8.78164268 13.5512764,8.61883866 13.5571658,8.450306 L13.5571658,7.84175323 L12.2714372,7.84175323 L12.2714372,8.50173313 C12.2694673,8.98441655 12.4711055,9.44559243 12.826794,9.77191404 C13.1824724,10.0982256 13.6592764,10.2594618 14.14,10.2160447 C14.7438794,10.2683361 15.3305226,9.99784369 15.6828643,9.50459745 C15.9314171,9.170306 16,9.00746178 16,7.850306 C16,6.69316027 16,6.41889896 15.2285628,5.97315022 Z" id="Combined-Shape"></path>
            </g>
        </g>
    </g>
</svg>