<?xml version="1.0" encoding="UTF-8"?>
<svg width="14px" height="15px" viewBox="0 0 14 15" version="1.1" xmlns="http://www.w3.org/2000/svg" xmlns:xlink="http://www.w3.org/1999/xlink">
    <!-- Generator: Sketch 47.1 (45422) - http://www.bohemiancoding.com/sketch -->
    <title>icon_biaoge</title>
    <desc>Created with Sketch.</desc>
    <defs></defs>
    <g id="Page-1" stroke="none" stroke-width="1" fill="none" fill-rule="evenodd">
        <g id="新增" transform="translate(-81.000000, -251.000000)" fill="#C8C8C8">
            <path d="M94.1394601,251.027452 L81.8594042,251.027452 C81.3867133,251.027452 81,251.414165 81,251.886856 L81,253.778814 C81,254.251485 81.3867133,254.638199 81.8594042,254.638199 L94.1394601,254.638199 C94.6121315,254.638199 94.9989231,254.251485 94.9989231,253.778814 L94.9989231,251.886856 C94.9989231,251.414165 94.6121315,251.027452 94.1394601,251.027452 Z M83.7530462,256.260848 L81.8577203,256.260848 C81.3859497,256.260848 81,256.646876 81,257.118568 L81,259.013894 C81,259.485664 81.386028,259.871614 81.8577203,259.871614 L83.7530462,259.871614 C84.2247972,259.871614 84.6107469,259.485664 84.6107469,259.013894 L84.6107469,257.118646 C84.6107469,256.646876 84.2247972,256.260848 83.7530462,256.260848 Z M83.7530462,261.408814 L81.8577203,261.408814 C81.3859497,261.408814 81,261.794764 81,262.266534 L81,264.161782 C81,264.633552 81.386028,265.01958 81.8577203,265.01958 L83.7530462,265.01958 C84.2247972,265.01958 84.6107469,264.633552 84.6107469,264.161782 L84.6107469,262.266534 C84.6107469,261.794764 84.2247972,261.408814 83.7530462,261.408814 Z M94.1411441,256.218103 L92.2458965,256.218103 C91.7741259,256.218103 91.3880979,256.604131 91.3880979,257.075883 L91.3880979,258.97113 C91.3880979,259.442901 91.7741259,259.82885 92.2458965,259.82885 L94.1411441,259.82885 C94.6128951,259.82885 94.9988448,259.442901 94.9988448,258.97113 L94.9988448,257.075883 C94.9989231,256.604131 94.6128951,256.218103 94.1411441,256.218103 Z M94.1411441,261.408814 L92.2458965,261.408814 C91.7741259,261.408814 91.3880979,261.794764 91.3880979,262.266534 L91.3880979,264.161782 C91.3880979,264.633552 91.7741259,265.01958 92.2458965,265.01958 L94.1411441,265.01958 C94.6128951,265.01958 94.9988448,264.633552 94.9988448,264.161782 L94.9988448,262.266534 C94.9989231,261.794764 94.6128951,261.408814 94.1411441,261.408814 Z M88.9470462,256.260848 L87.0517986,256.260848 C86.580028,256.260848 86.1940196,256.646876 86.1940196,257.118568 L86.1940196,259.013894 C86.1940196,259.485664 86.580028,259.871614 87.0517986,259.871614 L88.9470462,259.871614 C89.4188168,259.871614 89.8048448,259.485664 89.8048448,259.013894 L89.8048448,257.118646 C89.8048448,256.646876 89.4188168,256.260848 88.9470462,256.260848 Z M88.9470462,261.408814 L87.0517986,261.408814 C86.580028,261.408814 86.1940196,261.794764 86.1940196,262.266534 L86.1940196,264.161782 C86.1940196,264.633552 86.580028,265.01958 87.0517986,265.01958 L88.9470462,265.01958 C89.4188168,265.01958 89.8048448,264.633552 89.8048448,264.161782 L89.8048448,262.266534 C89.8048448,261.794764 89.4188168,261.408814 88.9470462,261.408814 Z" id="icon_biaoge"></path>
        </g>
    </g>
</svg>