<?xml version="1.0" encoding="UTF-8"?>
<svg width="24px" height="24px" viewBox="0 0 24 24" version="1.1" xmlns="http://www.w3.org/2000/svg" xmlns:xlink="http://www.w3.org/1999/xlink">
    <!-- Generator: Sketch 47.1 (45422) - http://www.bohemiancoding.com/sketch -->
    <title>biao_skyblue</title>
    <desc>Created with Sketch.</desc>
    <defs>
        <polygon id="path-1" points="0.0020083682 0.00669456067 0.0020083682 24.0000335 23.9933389 24.0000335 23.9933389 0.00669456067"></polygon>
    </defs>
    <g id="Page-1" stroke="none" stroke-width="1" fill="none" fill-rule="evenodd">
        <g id="biao_skyblue">
            <mask id="mask-2" fill="white">
                <use xlink:href="#path-1"></use>
            </mask>
            <g id="Clip-2"></g>
            <path d="M11.9965858,0.00669456067 C5.3710795,0.00669456067 0,5.37867782 0,12.0032803 C0,18.628954 5.3710795,24.0000335 11.9965858,24.0000335 C18.6213222,24.0000335 23.9933389,18.628954 23.9933389,12.0032803 C23.9933389,5.37867782 18.6213222,0.00669456067 11.9965858,0.00669456067 Z M6.20659414,5.18674477 L7.26661088,6.24662762 L6.20659414,7.30664435 L5.14657741,6.24662762 L6.20659414,5.18674477 Z M6.08575732,18.1652887 L5.04890377,17.1250209 L6.08575732,16.0856569 L7.12341423,17.1250209 L6.08575732,18.1652887 Z M11.2468619,21.0008033 L12.746477,21.0008033 L12.746477,19.5011883 L11.2468619,19.5011883 L11.2468619,21.0008033 Z M12.746477,12.0213556 C12.746477,12.4351799 12.4105774,12.7710795 11.9965858,12.7710795 L5.24856904,12.7710795 C4.83461088,12.7710795 4.49867782,12.4351799 4.49867782,12.0213556 C4.49867782,11.6074979 4.83461088,11.2715983 5.24856904,11.2715983 L11.2468619,11.2715983 L11.2468619,3.75564854 C11.2468619,3.34182427 11.5827615,3.00592469 11.9965858,3.00592469 C12.4105774,3.00592469 12.746477,3.34182427 12.746477,3.75564854 L12.746477,12.0213556 Z M17.3934393,18.1456736 L16.3334226,17.0856569 L17.3934393,16.0256402 L18.4534561,17.0856569 L17.3934393,18.1456736 Z M17.5896904,7.24923849 L16.5518996,6.20987448 L17.5896904,5.1694728 L18.6273473,6.20987448 L17.5896904,7.24923849 Z M19.4944937,12.7531715 L20.9941088,12.7531715 L20.9941088,11.2535565 L19.4944937,11.2535565 L19.4944937,12.7531715 Z" id="Fill-1" fill="#80DFFF" mask="url(#mask-2)"></path>
        </g>
    </g>
</svg>