<?xml version="1.0" encoding="UTF-8"?>
<svg width="14px" height="14px" viewBox="0 0 14 14" version="1.1" xmlns="http://www.w3.org/2000/svg" xmlns:xlink="http://www.w3.org/1999/xlink">
    <!-- Generator: Sketch 47.1 (45422) - http://www.bohemiancoding.com/sketch -->
    <title>biao</title>
    <desc>Created with Sketch.</desc>
    <defs>
        <polygon id="path-1" points="0.00109660574 0.00619582245 0.00109660574 13.5247859 13.9872245 13.5247859 13.9872245 0.00619582245"></polygon>
    </defs>
    <g id="Page-1" stroke="none" stroke-width="1" fill="none" fill-rule="evenodd">
        <g id="biao">
            <mask id="mask-2" fill="white">
                <use xlink:href="#path-1"></use>
            </mask>
            <g id="Clip-2"></g>
            <path d="M3.90844909,2.26352219 C3.90707833,2.76721149 3.49906789,3.17514883 2.99539687,3.17657441 L2.95398172,3.17657441 C2.45029243,3.17514883 2.04235509,2.76721149 2.0409295,2.26352219 L2.0409295,0.919248042 C2.04235509,0.415577023 2.45029243,0.00762140992 2.95398172,0.00619582245 L2.99539687,0.00619582245 C3.49906789,0.00762140992 3.90707833,0.415577023 3.90844909,0.919248042 L3.90844909,2.26352219 Z M11.9430052,2.26352219 C11.9415796,2.76721149 11.5336423,3.17514883 11.029953,3.17657441 L10.9885379,3.17657441 C10.4847937,3.17514883 10.0768564,2.76721149 10.0754308,2.26352219 L10.0754308,0.919248042 C10.0768564,0.415577023 10.4847937,0.00762140992 10.9885379,0.00619582245 L11.029953,0.00619582245 C11.5336423,0.00762140992 11.9415796,0.415577023 11.9430052,0.919248042 L11.9430052,2.26352219 Z" id="Fill-1" fill="#FFFFFF" mask="url(#mask-2)"></path>
            <path d="M13.292141,1.91704961 C12.9098825,1.91704961 12.5973316,2.37625326 12.5973316,2.93777023 C12.5973316,3.49899478 12.0880862,3.95839948 11.4655248,3.95839948 L10.5587598,3.95839948 C9.93627154,3.95839948 9.426953,3.49919582 9.426953,2.93777023 C9.426953,2.37654569 8.91763446,1.91704961 8.29514621,1.91704961 L5.69185901,1.91704961 C5.06929765,1.91704961 4.55997911,2.37625326 4.55997911,2.93777023 C4.55997911,3.49899478 4.05073368,3.95839948 3.42817232,3.95839948 L2.52140731,3.95839948 C1.89891906,3.95839948 1.38960052,3.49919582 1.38960052,2.93777023 C1.38960052,2.37654569 1.07683029,1.91704961 0.694809399,1.91704961 C0.312569191,1.91704961 0,2.42629504 0,3.0488564 L0,12.3929974 C0.00179112272,13.0173316 0.507472585,13.5230131 1.13180679,13.5247859 L12.8553446,13.5247859 C13.4796789,13.5230131 13.9853603,13.0173316 13.9872245,12.3929974 L13.9872245,3.0488564 C13.9872245,2.42629504 13.6744543,1.91704961 13.292141,1.91704961 Z M3.50864491,7.28341775 C3.50871802,7.52565796 3.41254569,7.75790078 3.24127415,7.92917232 C3.07007572,8.10037076 2.83775979,8.19661619 2.59559269,8.19654308 L2.13638903,8.19654308 C1.89422193,8.19661619 1.66190601,8.10037076 1.49063446,7.92917232 C1.31941775,7.75790078 1.22326371,7.52565796 1.22326371,7.28341775 L1.22326371,6.8242141 C1.22326371,6.582047 1.31941775,6.34973107 1.49063446,6.17853264 C1.66190601,6.0072611 1.89422193,5.91108877 2.13638903,5.91116188 L2.59559269,5.91116188 C2.83775979,5.91108877 3.07007572,6.0072611 3.24127415,6.17853264 C3.41254569,6.34973107 3.50871802,6.582047 3.50864491,6.8242141 L3.50864491,7.28341775 Z M6.55251175,7.28341775 C6.55258486,7.52565796 6.45641253,7.75790078 6.28514099,7.92917232 C6.11386945,8.10037076 5.88162663,8.19661619 5.63945953,8.19654308 L5.18018277,8.19654308 C4.93801567,8.19661619 4.70569974,8.10037076 4.53450131,7.92917232 C4.36321149,7.75790078 4.26705744,7.52565796 4.26713055,7.28341775 L4.26713055,6.8242141 C4.26705744,6.582047 4.36321149,6.34973107 4.53450131,6.17853264 C4.70569974,6.0072611 4.93801567,5.91108877 5.18018277,5.91116188 L5.63945953,5.91116188 C5.88162663,5.91108877 6.11386945,6.0072611 6.28514099,6.17853264 C6.45641253,6.34973107 6.55258486,6.582047 6.55251175,6.8242141 L6.55251175,7.28341775 Z M9.59608616,7.28341775 C9.59615927,7.52565796 9.49998695,7.75790078 9.3287154,7.92917232 C9.15744386,8.10037076 8.92520104,8.19661619 8.68303394,8.19654308 L8.22375718,8.19654308 C7.98159008,8.19661619 7.74934726,8.10037076 7.57807572,7.92917232 C7.40680418,7.75790078 7.31063185,7.52565796 7.31070496,7.28341775 L7.31070496,6.8242141 C7.31063185,6.582047 7.40680418,6.34973107 7.57807572,6.17853264 C7.74934726,6.0072611 7.98159008,5.91108877 8.22375718,5.91116188 L8.68303394,5.91116188 C8.92520104,5.91108877 9.15744386,6.0072611 9.3287154,6.17853264 C9.49998695,6.34973107 9.59615927,6.582047 9.59608616,6.8242141 L9.59608616,7.28341775 Z M12.6396606,7.28341775 C12.6397337,7.52565796 12.5435614,7.75790078 12.3722898,7.92917232 C12.2010914,8.10037076 11.9687755,8.19661619 11.7266084,8.19654308 L11.2674047,8.19654308 C11.0251645,8.19661619 10.7929217,8.10037076 10.6216501,7.92917232 C10.4503786,7.75790078 10.3542063,7.52565796 10.3542794,7.28341775 L10.3542794,6.8242141 C10.3542063,6.582047 10.4503786,6.34973107 10.6216501,6.17853264 C10.7929217,6.0072611 11.0251645,5.91108877 11.2674047,5.91116188 L11.7266084,5.91116188 C11.9687755,5.91108877 12.2010914,6.0072611 12.3722898,6.17853264 C12.5435614,6.34973107 12.6397337,6.582047 12.6396606,6.8242141 L12.6396606,7.28341775 Z M3.50864491,10.3270653 C3.50871802,10.5692324 3.41254569,10.8014752 3.24127415,10.972765 C3.07007572,11.1440366 2.83775979,11.2401906 2.59559269,11.2401175 L2.13638903,11.2401175 C1.89422193,11.2401906 1.66190601,11.1440366 1.49063446,10.972765 C1.31941775,10.8014752 1.22326371,10.5692324 1.22326371,10.3270653 L1.22326371,9.86778851 C1.22326371,9.62562141 1.31941775,9.39332376 1.49063446,9.22210705 C1.66190601,9.05083551 1.89422193,8.95468146 2.13638903,8.95473629 L2.59559269,8.95473629 C2.83775979,8.95468146 3.07007572,9.05083551 3.24127415,9.22210705 C3.41254569,9.39332376 3.50871802,9.62562141 3.50864491,9.86778851 L3.50864491,10.3270653 Z M6.55251175,10.3270653 C6.55258486,10.5692324 6.45641253,10.8014752 6.28514099,10.972765 C6.11386945,11.1440366 5.88162663,11.2401906 5.63945953,11.2401175 L5.18018277,11.2401175 C4.93801567,11.2401906 4.70569974,11.1440366 4.53450131,10.972765 C4.36321149,10.8014752 4.26705744,10.5692324 4.26713055,10.3270653 L4.26713055,9.86778851 C4.26705744,9.62562141 4.36321149,9.39332376 4.53450131,9.22210705 C4.70569974,9.05083551 4.93801567,8.95468146 5.18018277,8.95473629 L5.63945953,8.95473629 C5.88162663,8.95468146 6.11386945,9.05083551 6.28514099,9.22210705 C6.45641253,9.39332376 6.55258486,9.62562141 6.55251175,9.86778851 L6.55251175,10.3270653 Z M9.59608616,10.3270653 C9.59615927,10.5692324 9.49998695,10.8014752 9.3287154,10.972765 C9.15744386,11.1440366 8.92520104,11.2401906 8.68303394,11.2401175 L8.22375718,11.2401175 C7.98159008,11.2401906 7.74934726,11.1440366 7.57807572,10.972765 C7.40680418,10.8014752 7.31063185,10.5692324 7.31070496,10.3270653 L7.31070496,9.86778851 C7.31063185,9.62562141 7.40680418,9.39332376 7.57807572,9.22210705 C7.74934726,9.05083551 7.98159008,8.95468146 8.22375718,8.95473629 L8.68303394,8.95473629 C8.92520104,8.95468146 9.15744386,9.05083551 9.3287154,9.22210705 C9.49998695,9.39332376 9.59615927,9.62562141 9.59608616,9.86778851 L9.59608616,10.3270653 Z M12.6396606,10.3270653 C12.6397337,10.5692324 12.5435614,10.8014752 12.3722898,10.972765 C12.2010914,11.1440366 11.9687755,11.2401906 11.7266084,11.2401175 L11.2674047,11.2401175 C11.0251645,11.2401906 10.7929217,11.1440366 10.6216501,10.972765 C10.4503786,10.8014752 10.3542063,10.5692324 10.3542794,10.3270653 L10.3542794,9.86778851 C10.3542063,9.62562141 10.4503786,9.39332376 10.6216501,9.22210705 C10.7929217,9.05083551 11.0251645,8.95468146 11.2674047,8.95473629 L11.7266084,8.95473629 C11.9687755,8.95468146 12.2010914,9.05083551 12.3722898,9.22210705 C12.5435614,9.39332376 12.6397337,9.62562141 12.6396606,9.86778851 L12.6396606,10.3270653 Z" id="Fill-3" fill="#FFFFFF" mask="url(#mask-2)"></path>
        </g>
    </g>
</svg>