<?xml version="1.0" encoding="UTF-8"?>
<svg width="20px" height="28px" viewBox="0 0 20 28" version="1.1" xmlns="http://www.w3.org/2000/svg" xmlns:xlink="http://www.w3.org/1999/xlink">
    <!-- Generator: Sketch 47.1 (45422) - http://www.bohemiancoding.com/sketch -->
    <title>icon_guizi</title>
    <desc>Created with Sketch.</desc>
    <defs></defs>
    <g id="Page-1" stroke="none" stroke-width="1" fill="none" fill-rule="evenodd">
        <g id="Artboard" transform="translate(-133.000000, -14.000000)">
            <g id="icon_guizi" transform="translate(133.000000, 14.000000)">
                <polygon id="Fill-1" fill="#A7DDFF" points="2.73585551 24.194981 8.42874525 24.194981 8.42874525 14.8612548 2.73585551 14.8612548"></polygon>
                <polygon id="Fill-2" fill="#009CFF" points="2.73585551 13.7358555 8.42874525 13.7358555 8.42874525 9.03589354 2.73585551 9.03589354"></polygon>
                <polygon id="Fill-3" fill="#A7DDFF" points="2.73585551 7.97673004 8.42874525 7.97673004 8.42874525 3.27676806 2.73585551 3.27676806"></polygon>
                <polygon id="Fill-4" fill="#A7DDFF" points="11.5622053 24.194981 17.2552471 24.194981 17.2552471 14.8612548 11.5622053 14.8612548"></polygon>
                <polygon id="Fill-5" fill="#009CFF" points="11.5622053 13.7358555 17.2552471 13.7358555 17.2552471 9.03589354 11.5622053 9.03589354"></polygon>
                <polygon id="Fill-6" fill="#A7DDFF" points="11.5622053 7.97673004 17.2552471 7.97673004 17.2552471 3.27676806 11.5622053 3.27676806"></polygon>
                <polygon id="Fill-7" fill="#009CFF" points="9.23448669 24.2611787 10.7570342 24.2611787 10.7570342 3.3430038 9.23448669 3.3430038"></polygon>
                <path d="M1.29752852,2.44026616 C1.29752852,2.07980989 1.58969582,1.7873384 1.95076046,1.7873384 L18.0407985,1.7873384 C18.4012548,1.7873384 18.6938403,2.07980989 18.6938403,2.44026616 L18.6938403,25.0974144 C18.6938403,25.4581749 18.4012548,25.7506464 18.0407985,25.7506464 L1.95076046,25.7506464 C1.58980989,25.7506464 1.29752852,25.4581749 1.29752852,25.0974144 L1.29752852,2.44026616 Z M0.750342205,27.5380228 L19.2405703,27.5380228 C19.6554373,27.5380228 19.9915209,27.201749 19.9915209,26.7870722 L19.9915209,0.750342205 C19.9915209,0.33608365 19.6554373,0 19.2405703,0 L0.750342205,0 C0.336121673,0 0,0.33608365 0,0.750342205 L0,26.7870722 C0,27.201749 0.336121673,27.5380228 0.750342205,27.5380228 L0.750342205,27.5380228 Z" id="Fill-8" fill="#A7DDFF"></path>
            </g>
        </g>
    </g>
</svg>