<?xml version="1.0" encoding="UTF-8"?>
<svg width="26px" height="26px" viewBox="0 0 26 26" version="1.1" xmlns="http://www.w3.org/2000/svg" xmlns:xlink="http://www.w3.org/1999/xlink">
    <!-- Generator: Sketch 47.1 (45422) - http://www.bohemiancoding.com/sketch -->
    <title>icon_danci</title>
    <desc>Created with Sketch.</desc>
    <defs>
        <polygon id="path-1" points="0.00473795181 25.2184214 0.00473795181 0.0125253624 21.6020957 0.0125253624 21.6020957 25.2184214"></polygon>
    </defs>
    <g id="Page-1" stroke="none" stroke-width="1" fill="none" fill-rule="evenodd">
        <g id="Artboard" transform="translate(-78.000000, -15.000000)">
            <g id="icon_danci" transform="translate(78.000000, 15.000000)">
                <g id="Group-6" transform="translate(0.000000, 0.031325)">
                    <g id="Group-3" transform="translate(0.000000, 0.274096)">
                        <mask id="mask-2" fill="white">
                            <use xlink:href="#path-1"></use>
                        </mask>
                        <g id="Clip-2"></g>
                        <path d="M21.2636027,5.65648795 L18.6734702,4.37363855 C17.6307684,5.48318072 15.9473467,5.83328012 14.5122955,5.12250904 C13.0772834,4.4116988 12.3355786,2.86058735 12.5862985,1.35873494 L9.99612681,0.0758855422 C9.69497319,-0.0732620482 9.32999428,0.0498855422 9.18088584,0.351039157 L5.4002744,7.98384036 L3.84379849,11.1264729 L0.0633436747,18.7591175 C-0.085764759,19.0602711 0.0373436747,19.4252108 0.338536446,19.5743584 L2.9288256,20.8573645 C3.97137078,19.7476657 5.65479247,19.3976837 7.08980452,20.108494 C8.52485572,20.8191084 9.26652139,22.3703765 9.01584066,23.8722681 L11.6061298,25.1550783 C11.907166,25.3042259 12.2722623,25.1809608 12.4214099,24.8800813 L16.2018648,17.2471235 L17.7583407,14.1045301 L21.5387563,6.47172892 C21.6879039,6.17069277 21.5646389,5.80559639 21.2636027,5.65648795" id="Fill-1" fill="#009CFF" mask="url(#mask-2)"></path>
                    </g>
                    <path d="M25.7872503,8.56018675 L23.6370033,6.62835542 C23.1569039,6.91866265 22.6148196,7.09087349 22.0553105,7.13081325 L14.8867503,21.6045512 L17.7973407,18.364497 L20.1409039,15.7558042 L25.8331419,9.41932229 C26.0578617,9.16938554 26.037187,8.78471084 25.7872503,8.56018675 M14.7937533,4.82867771 C15.9529852,5.40271386 17.3265214,5.1556747 18.2116961,4.21364458 L18.2916931,4.12843976 C18.1873798,3.44366867 18.2831178,2.73211446 18.5838407,2.08892771 L16.4335937,0.157253012 C16.1835003,-0.0672710843 15.7988256,-0.0467921687 15.574419,0.203144578 L13.2305425,2.81211145 C13.407178,3.67034639 13.9671569,4.41937349 14.7937533,4.82867771" id="Fill-4" fill="#A7DDFF"></path>
                </g>
                <g id="Group-11" transform="translate(6.460843, 7.862651)">
                    <path d="M0.381804518,8.08126205 C0.0680816265,7.92588855 -0.0602346386,7.54579518 0.095178012,7.23207229 L3.49307259,0.371557229 C3.64848524,0.0578343373 4.02857861,-0.0704819277 4.34230151,0.0848915663 C4.65598524,0.240304217 4.78434066,0.62039759 4.62892801,0.934120482 L1.23103343,7.79463554 C1.07562078,8.10820181 0.695370783,8.2366747 0.381804518,8.08126205 M4.33447018,10.0389367 C4.02094307,9.88371988 3.89258765,9.50346988 4.04784367,9.18990361 L7.44589488,2.32938855 C7.60130753,2.01566566 7.9814009,1.8873494 8.2951238,2.04272289 C8.60869006,2.19797892 8.73700633,2.57822892 8.58159367,2.89195181 L5.1836991,9.75231024 C5.02828645,10.0658765 4.64819307,10.1943494 4.33447018,10.0389367" id="Fill-7" fill="#FFFFFF"></path>
                    <path d="M16.7626503,13.1338922 L15.1618491,13.1338922 L15.1618491,14.0059102 L16.6816744,14.0059102 C16.7355931,14.0059102 16.7626503,13.9706301 16.7626503,13.8999524 L16.7626503,13.1338922 Z M16.7626503,11.9255578 C16.7626503,11.8549584 16.7355931,11.8196 16.6816744,11.8196 L15.1618491,11.8196 L15.1618491,12.6729795 L16.7626503,12.6729795 L16.7626503,11.9255578 Z M13.0690449,13.8999524 C13.0690449,13.9333139 13.0762497,13.9591964 13.0908551,13.9778349 C13.1053431,13.9965127 13.1229636,14.0059102 13.1437949,14.0059102 L14.6822979,14.0059102 L14.6822979,13.1338922 L13.0690449,13.1338922 L13.0690449,13.8999524 Z M13.0690449,12.6729795 L14.6822979,12.6729795 L14.6822979,11.8196 L13.1437949,11.8196 C13.0939877,11.8196 13.0690449,11.8549584 13.0690449,11.9255578 L13.0690449,12.6729795 Z M17.8464274,15.313859 C17.8464274,15.3845367 17.8204274,15.440609 17.7685449,15.4820759 C17.716584,15.5235428 17.647081,15.5443349 17.5599184,15.5443349 L15.1618491,15.5443349 L15.1618491,16.4288048 C15.1618491,16.5990578 15.0829093,16.6841843 14.9251864,16.6841843 C14.8545479,16.6841843 14.7964003,16.6623741 14.7507828,16.6187536 C14.7050479,16.5752114 14.6822979,16.5118169 14.6822979,16.4288048 L14.6822979,15.5443349 L12.2530991,15.5443349 C12.070316,15.5443349 11.979081,15.4675488 11.979081,15.313859 C11.979081,15.1478741 12.070316,15.0647446 12.2530991,15.0647446 L14.6822979,15.0647446 L14.6822979,14.4792355 L13.1562467,14.4792355 C13.0317286,14.4792355 12.9330148,14.4699163 12.8604184,14.4512386 C12.7877045,14.4325217 12.730575,14.399356 12.6891081,14.3515849 C12.647563,14.3038922 12.6206232,14.2425729 12.6081322,14.1678229 C12.5957196,14.0930729 12.5894545,13.9996452 12.5894545,13.8875398 L12.5894545,11.9192536 C12.5894545,11.8031151 12.5977557,11.708591 12.6143581,11.6358771 C12.6309214,11.5632807 12.661072,11.5061512 12.7046925,11.464606 C12.7482738,11.4231392 12.8063822,11.3940458 12.8790961,11.3774042 C12.9517316,11.360841 13.0441413,11.3524614 13.1562467,11.3524614 L13.6171593,11.3524614 C13.5424093,11.2279042 13.4718099,11.1157988 13.4054003,11.0161452 C13.3431413,10.9289434 13.3108762,10.8573259 13.3088401,10.8012536 C13.3066864,10.7452205 13.3409877,10.694356 13.4116262,10.6486602 C13.4697738,10.6112657 13.5320328,10.5926271 13.5985208,10.5926271 C13.6648521,10.5926271 13.7251533,10.632097 13.7791503,10.7109193 C13.8621623,10.8314434 13.9337798,10.9404163 13.9940027,11.0379554 C14.0541864,11.1355729 14.1195389,11.240356 14.1902557,11.3524614 L15.5168822,11.3524614 C15.5874816,11.2569976 15.6528732,11.1594193 15.7131352,11.0597657 C15.7732407,10.9600729 15.8366352,10.856347 15.903084,10.7483139 C15.9528913,10.6694916 16.0027377,10.6217205 16.052584,10.6050398 C16.1023913,10.5884765 16.1604605,10.590591 16.2269877,10.6112657 C16.3972015,10.6694916 16.4303672,10.7940488 16.3266413,10.9850157 C16.2559636,11.1179524 16.1749877,11.240356 16.0837136,11.3524614 L16.6754093,11.3524614 C16.7916262,11.3524614 16.8872467,11.361859 16.9619967,11.3804976 C17.0366684,11.3991753 17.094816,11.430344 17.136322,11.4739253 C17.1777889,11.5175458 17.205825,11.5757717 17.2204696,11.6483681 C17.2349184,11.7210819 17.2422015,11.8133741 17.2422015,11.9255578 L17.2422015,13.8999524 C17.2422015,14.0121361 17.2349184,14.1045458 17.2204696,14.1771422 C17.205825,14.249856 17.1777889,14.3090217 17.136322,14.3546783 C17.094816,14.4004524 17.0366684,14.4325217 16.9619967,14.4512386 C16.8872467,14.4699163 16.7916262,14.4792355 16.6754093,14.4792355 L15.1618491,14.4792355 L15.1618491,15.0647446 L17.5599184,15.0647446 C17.7508069,15.0647446 17.8464274,15.1478741 17.8464274,15.313859 L17.8464274,15.313859 Z" id="Fill-9" fill="#009CFF"></path>
                </g>
            </g>
        </g>
    </g>
</svg>