<?xml version="1.0" encoding="UTF-8"?>
<svg width="24px" height="18px" viewBox="0 0 24 18" version="1.1" xmlns="http://www.w3.org/2000/svg" xmlns:xlink="http://www.w3.org/1999/xlink">
    <!-- Generator: Sketch 47.1 (45422) - http://www.bohemiancoding.com/sketch -->
    <title>icon_neiwaima</title>
    <desc>Created with Sketch.</desc>
    <defs>
        <polygon id="path-1" points="0.00183673469 0.0142040816 0.00183673469 17.6938469 23.9741633 17.6938469 23.9741633 0.0142040816"></polygon>
    </defs>
    <g id="Page-1" stroke="none" stroke-width="1" fill="none" fill-rule="evenodd">
        <g id="Artboard" transform="translate(-241.000000, -19.000000)">
            <g id="icon_neiwaima" transform="translate(241.000000, 19.000000)">
                <path d="M19.4601735,7.6127449 C20.0452653,7.596 20.5594592,7.62110204 21.0023878,7.68795918 C21.4454388,7.75478571 21.8258265,7.85513265 22.1435204,7.98881633 C22.4611224,8.12262245 22.7286429,8.2772449 22.945898,8.45277551 C23.1633061,8.62833673 23.3388367,8.80806122 23.472551,8.99194898 C23.7735306,9.42664286 23.9406735,9.93652041 23.9741633,10.5217347 C23.9239592,11.0065102 23.8654592,11.5163878 23.7986327,12.051398 C23.7316531,12.5028061 23.6606327,13.0084898 23.5854184,13.568602 C23.5102041,14.1287143 23.414051,14.692898 23.2969898,15.2613673 C23.180051,15.7628878 22.9710306,16.172449 22.6701735,16.4901735 C22.3691939,16.8077755 22.0348469,17.0543571 21.6670102,17.2298878 C21.2991735,17.4054184 20.9355612,17.5266735 20.5760816,17.5935306 C20.2166327,17.6604796 19.9283265,17.6938469 19.710949,17.6938469 C19.4266837,17.6938469 19.0923673,17.6729388 18.7079082,17.6311837 C18.3233265,17.5893367 17.9555204,17.5434184 17.6044286,17.4931837 C17.1865102,17.4263571 16.7602041,17.3511429 16.3255408,17.2675408 L17.0276939,15.6876735 C17.2449796,15.6876735 17.5417653,15.6918673 17.9179592,15.7002245 C18.2940306,15.7086122 18.6618673,15.6876735 19.0213163,15.6375612 C19.3807653,15.5873571 19.6942041,15.4828469 19.9616939,15.3240306 C20.2291837,15.1652449 20.3629898,14.9102755 20.3629898,14.5592143 C20.4298469,14.3418061 20.4925102,14.0493061 20.551102,13.6815 C20.6095714,13.3136633 20.6596837,12.9416633 20.7015306,12.5654694 C20.7432551,12.189398 20.7767449,11.8383061 20.8018469,11.5122245 C20.8268571,11.1862347 20.8394082,10.9396531 20.8394082,10.7724796 C20.8394082,10.6554184 20.8060408,10.5217347 20.7390918,10.3711837 C20.6722347,10.2207551 20.5552959,10.0745204 20.388,9.93232653 C20.2208265,9.79028571 19.9909898,9.66903061 19.6983673,9.56868367 C19.405898,9.4684898 19.0422551,9.4182551 18.6075918,9.4182551 C18.2062653,9.4182551 17.7548571,9.43080612 17.2533367,9.45593878 C16.7518469,9.48091837 16.254398,9.50602041 15.7612347,9.53115306 C15.268102,9.5562551 14.8125,9.58123469 14.3945816,9.60636735 C13.9765102,9.63146939 13.6589082,9.64402041 13.4415306,9.64402041 C12.8063265,9.64402041 12.3381735,9.53115306 12.0371939,9.30538776 C11.7363367,9.0797449 11.5189286,8.82477551 11.3852449,8.54054082 C11.2346939,8.22293878 11.1678367,7.8467449 11.1845816,7.41208163 L11.8616327,2.47178571 L14.7706531,2.47178571 L14.3192449,5.85731633 C14.2022755,6.64307143 14.2691327,7.17388776 14.5198776,7.44976531 C14.7706531,7.7254898 15.2304184,7.8634898 15.8991122,7.8634898 C16.2836939,7.8634898 16.6849898,7.85093878 17.1029082,7.82583673 C17.5208571,7.80082653 17.9054082,7.77153061 18.2565,7.73804082 C18.6744184,7.70470408 19.0756224,7.66282653 19.4601735,7.6127449 Z" id="Path" fill="#A7DDFF"></path>
                <mask id="mask-2" fill="white">
                    <use xlink:href="#path-1"></use>
                </mask>
                <g id="Clip-2"></g>
                <path d="M11.1738468,13.2787841 L19.48079,13.2787841 L19.48079,11.263063 L11.1738468,11.263063 L11.1738468,13.2787841 Z M7.64525571,3.14955084 C7.31855481,3.82155016 6.94686599,4.49764029 6.53030888,5.1779135 C6.11378168,5.85830974 5.68496058,6.53436911 5.24387548,7.20636843 L10.7083234,7.20636843 L10.7083234,13.2787841 C10.7083234,13.6147223 10.6429055,13.9464466 10.512279,14.2740801 C10.3815029,14.6016213 10.1855781,14.8913918 9.92417546,15.1433608 C9.66280277,15.395299 9.34008019,15.6011311 8.95624702,15.7606725 C8.57229419,15.9202447 8.13530706,16 7.64525571,16 L2.40138023,16 L2.40138023,10.5575375 C2.28699603,10.6918574 2.18909345,10.796865 2.10740327,10.8724372 C2.02562335,10.9480095 1.96029513,11.0193986 1.91132888,11.0866662 L1.73981241,11.263063 L0,9.67564606 C0.702457785,9.0036775 1.30282528,8.34019812 1.80104265,7.68502339 C2.29926003,7.03000244 2.71991511,6.41265997 3.06294806,5.83308823 C3.40601093,5.25360877 3.68374558,4.73287696 3.89618192,4.27089281 C4.10849862,3.80893941 4.27181916,3.43516901 4.38623327,3.14955084 L0.857642208,3.14955084 L0.857642208,1.13382969 L9.82615322,1.13382969 L9.82615322,3.14955084 L7.64525571,3.14955084 Z M7.64525571,8.7937546 L5.24387548,8.7937546 L5.24387548,14.1858971 L5.68496058,14.1858971 C6.12604568,14.1858971 6.47727457,14.1228126 6.73864726,13.9968896 C7.00004985,13.8708744 7.19597467,13.6986914 7.32672084,13.4803716 C7.45737727,13.2619595 7.54313551,13.0226321 7.58402547,12.7622662 C7.62479578,12.5019003 7.64525571,12.2289236 7.64525571,11.9433362 L7.64525571,8.7937546 Z M18.1820627,4.05669456 C18.1820627,3.77107639 18.1861307,3.48139818 18.1943267,3.18741385 C18.202373,2.89339877 18.1697987,2.62884979 18.0962745,2.39370539 C18.0227803,2.15859175 17.8920341,1.96537041 17.7041557,1.8141029 C17.5162772,1.66295841 17.2263683,1.58738617 16.8342495,1.58738617 L10.512279,1.58738617 L10.512279,0 L18.3779875,0 C18.8191025,0 19.2030254,0.0629614891 19.5297263,0.189007499 C19.8564272,0.31489972 20.1300938,0.487082629 20.3505765,0.705494713 C20.5711789,0.923937554 20.7345293,1.16747887 20.8407176,1.43624169 C20.9469358,1.70503527 21,1.97379809 21,2.24256091 L20.5589149,7.20636843 L17.937022,7.20636843 C17.9696263,6.81995652 18.0105163,6.43357536 18.0594825,6.04728648 C18.0922065,5.71125606 18.1207128,5.36689024 18.1452408,5.01415826 C18.1697987,4.66139553 18.1820627,4.34228197 18.1820627,4.05669456 Z" id="Fill-1" fill="#009CFF" mask="url(#mask-2)"></path>
            </g>
        </g>
    </g>
</svg>