<?xml version="1.0" encoding="UTF-8"?>
<svg width="24px" height="25px" viewBox="0 0 24 25" version="1.1" xmlns="http://www.w3.org/2000/svg" xmlns:xlink="http://www.w3.org/1999/xlink">
    <!-- Generator: Sketch 47.1 (45422) - http://www.bohemiancoding.com/sketch -->
    <title>icon_yingxiao</title>
    <desc>Created with Sketch.</desc>
    <defs>
        <polygon id="path-1" points="0.00182741117 0.0243654822 0.00182741117 24.9745888 23.9947614 24.9745888 23.9947614 0.0243654822"></polygon>
    </defs>
    <g id="Page-1" stroke="none" stroke-width="1" fill="none" fill-rule="evenodd">
        <g id="Artboard" transform="translate(-294.000000, -12.000000)">
            <g id="icon_yingxiao" transform="translate(294.000000, 12.000000)">
                <path d="M19.6025482,15.8096954 C21.822335,15.8096954 23.6222741,17.6098782 23.6222741,19.8297563 C23.6222741,22.0503655 21.822335,23.8500609 19.6025482,23.8500609 C17.3816954,23.8500609 15.581665,22.0503655 15.581665,19.8297563 C15.581665,17.61 17.3816954,15.8096954 19.6025482,15.8096954 Z M18.2087817,21.6791878 L19.5998071,21.0593299 L20.9907107,21.6791878 L20.8001421,20.2311777 L21.8504162,19.166132 L20.3414924,18.8908325 L19.5998071,17.6130761 L18.8579086,18.8908325 L17.3492284,19.166132 L18.3996244,20.2311777 L18.2087817,21.6791878 Z" id="Combined-Shape" fill="#A7DDFF"></path>
                <mask id="mask-2" fill="white">
                    <use xlink:href="#path-1"></use>
                </mask>
                <g id="Clip-2"></g>
                <path d="M22.1341523,11.2172589 L23.9947614,12.4776548 L22.2529036,13.8616447 L23.6986294,15.4991878 L22.9388832,15.8400305 C22.035533,15.0839695 20.8728122,14.6274822 19.6029137,14.6274822 C16.7294924,14.6274822 14.4003655,16.9565787 14.4003655,19.8294213 C14.4003655,21.0764772 14.8403452,22.2201624 15.5718883,23.1160203 L15.208203,24.4380305 L13.4489543,22.6146701 L12.315868,24.9745888 L10.4346701,22.7795635 L8.91874112,24.3712995 L7.85762437,21.9203452 L6.03831472,22.9563655 L5.93719797,20.7331066 L3.5113401,21.2129239 L3.60295431,18.5601015 L1.64537056,18.4351675 L2.62428426,16.5608832 L0.499796954,15.6026802 L1.8535736,13.7285178 L0,12.4580102 L1.74947208,11.083401 L0.312304569,9.43803046 L2.47830457,8.47994924 L1.22875127,6.43909645 L3.93630457,6.3973401 L3.14491371,3.91915736 L5.83154315,4.2940203 L5.78966497,1.79467005 L8.14327919,3.06517766 L8.85127919,0.544994924 L10.6007817,2.37764467 L11.7463553,0.0243654822 L13.5047513,2.21262944 L15.0119086,0.612670051 L16.0867005,3.05756345 L17.9003147,2.01204061 L18.0134315,4.23490355 L20.4364264,3.74177665 L20.3592183,6.39508629 L22.3176244,6.50954315 L21.3488223,8.38918782 L23.4781827,9.33572589 L22.1341523,11.2172589 Z M8.22478173,14.5545381 C8.0295533,13.9738477 7.39541117,13.7301929 6.32290355,13.8223858 C5.76989848,13.8665178 5.46974619,13.818 5.4220203,13.6760406 C5.3695736,13.5200711 5.48473096,13.394802 5.76837563,13.2995025 C5.90993909,13.2519289 6.02570558,13.2443147 6.1157665,13.2770254 C6.24304569,13.2813198 6.33563452,13.345066 6.39274112,13.467868 L7.6039797,13.0605076 C7.20493401,12.295736 6.50695431,12.0733706 5.5106802,12.392467 C4.42909645,12.7879188 4.01019289,13.3939797 4.25360406,14.2110761 C4.45848731,14.8202132 5.10414213,15.0762335 6.19117766,14.9785584 C6.72502538,14.9255025 7.01841624,14.9761827 7.07061929,15.1321523 C7.13262944,15.3165685 6.97924873,15.4702843 6.61102538,15.5942437 C6.4693401,15.6418173 6.33907614,15.654335 6.22117766,15.6307614 C6.09816244,15.5935127 5.99156345,15.511066 5.90138071,15.3834213 L4.66882234,15.7981523 C5.06786802,16.5626802 5.7915533,16.7920508 6.84030457,16.4869949 C8.02598985,16.072264 8.48735025,15.4284061 8.22478173,14.5545381 Z M10.2639594,10.911868 L8.96786802,11.3478883 L8.88054822,15.7293807 L10.1342741,15.3079797 L10.1114315,14.7481218 L11.3866904,14.3191066 L11.7069746,14.7791574 L12.981868,14.3501421 L10.2639594,10.911868 Z M14.4379797,12.8431371 L13.4300406,9.84682234 L12.1338579,10.2828426 L13.449198,14.1929848 L16.5090457,13.1636345 L16.201736,12.2498071 L14.4379797,12.8431371 Z M20.0266904,10.9631269 L18.0505584,11.6279391 L17.8430863,11.0116751 L19.4581218,10.4683249 L19.150934,9.55461929 L17.5358985,10.0978477 L17.3501726,9.54545178 L19.2625279,8.90192893 L18.9552183,7.98813198 L15.7465584,9.06743147 L17.0618985,12.9778173 L20.3342437,11.8769543 L20.0266904,10.9631269 Z M9.99840609,12.3022843 L10.8952386,13.5616142 L10.0664772,13.8403553 L9.99840609,12.3022843 Z" id="Fill-1" fill="#009CFF" mask="url(#mask-2)"></path>
            </g>
        </g>
    </g>
</svg>