<?xml version="1.0" encoding="UTF-8"?>
<svg width="16px" height="20px" viewBox="0 0 16 20" version="1.1" xmlns="http://www.w3.org/2000/svg" xmlns:xlink="http://www.w3.org/1999/xlink">
    <!-- Generator: Sketch 47.1 (45422) - http://www.bohemiancoding.com/sketch -->
    <title>three</title>
    <desc>Created with Sketch.</desc>
    <defs></defs>
    <g id="Page-1" stroke="none" stroke-width="1" fill="none" fill-rule="evenodd">
        <g id="three">
            <path d="M12.4085706,16.7639211 L15.3992838,18.3364856 L12.4829378,10.3351502 C12.3309985,9.94962064 11.9034416,9.75091958 11.5108225,9.88341123 L8.67032473,10.9327344 C8.28593627,11.0857178 8.08866768,11.5129833 8.22145068,11.9048498 L11.1362914,19.9032473 L12.4071624,16.7582398 L12.4085706,16.7639211 Z M3.66256753,16.7639211 L4.93341426,19.9089287 L7.84835205,11.9048498 C7.98113505,11.5129833 7.78386646,11.0857178 7.399478,10.9327344 L4.56031563,9.88341123 C4.16844917,9.7506525 3.74128073,9.94792109 3.5882003,10.3323096 L0.673359636,18.3335235 L3.66397572,16.7610804 L3.66256753,16.7639211 Z" id="Fill-1" fill="#BE855F"></path>
            <polygon id="Fill-2" fill="#E1C190" points="7.99839757 15.4187071 4.41019727 15.6416631 2.46594234 12.7268467 0 10.1107618 1.04648255 6.6725827 1.56969954 3.15874962 4.93341426 1.8878786 7.99839757 0.0194233687 11.0633566 1.8878786 14.4271684 3.15874962 14.9504097 6.6725827 15.996868 10.1107618 13.5293961 12.7268467 11.5865979 15.6416631"></polygon>
            <path d="M8.23226613,13.464437 C11.1219535,13.464437 13.4645332,11.1218574 13.4645332,8.23226707 C13.4645332,5.34255539 11.1219535,3 8.23226613,3 C5.34265156,3 3.00009618,5.34255539 3.00009618,8.23226707 C2.99164701,9.62242185 3.5402115,10.9581669 4.52322819,11.9412807 C5.506342,12.9243217 6.84208707,13.4728619 8.23226613,13.464437 Z" id="Fill-3" fill="#FBDEC4"></path>
            <text id="3" font-family="Arial-Black, Arial Black" font-size="8" font-weight="700" fill="#C29872">
                <tspan x="5.33203125" y="11">3</tspan>
            </text>
        </g>
    </g>
</svg>