<?xml version="1.0" encoding="UTF-8"?>
<svg width="14px" height="15px" viewBox="0 0 14 15" version="1.1" xmlns="http://www.w3.org/2000/svg" xmlns:xlink="http://www.w3.org/1999/xlink">
    <!-- Generator: Sketch 47.1 (45422) - http://www.bohemiancoding.com/sketch -->
    <title>icon_biaoge_on</title>
    <desc>Created with Sketch.</desc>
    <defs></defs>
    <g id="Page-1" stroke="none" stroke-width="1" fill="none" fill-rule="evenodd">
        <g id="新增" transform="translate(-81.000000, -279.000000)" fill="#FFFFFF">
            <path d="M94.1394601,279.027452 L81.8594042,279.027452 C81.3867133,279.027452 81,279.414165 81,279.886856 L81,281.778814 C81,282.251485 81.3867133,282.638199 81.8594042,282.638199 L94.1394601,282.638199 C94.6121315,282.638199 94.9989231,282.251485 94.9989231,281.778814 L94.9989231,279.886856 C94.9989231,279.414165 94.6121315,279.027452 94.1394601,279.027452 Z M83.7530462,284.260848 L81.8577203,284.260848 C81.3859497,284.260848 81,284.646876 81,285.118568 L81,287.013894 C81,287.485664 81.386028,287.871614 81.8577203,287.871614 L83.7530462,287.871614 C84.2247972,287.871614 84.6107469,287.485664 84.6107469,287.013894 L84.6107469,285.118646 C84.6107469,284.646876 84.2247972,284.260848 83.7530462,284.260848 Z M83.7530462,289.408814 L81.8577203,289.408814 C81.3859497,289.408814 81,289.794764 81,290.266534 L81,292.161782 C81,292.633552 81.386028,293.01958 81.8577203,293.01958 L83.7530462,293.01958 C84.2247972,293.01958 84.6107469,292.633552 84.6107469,292.161782 L84.6107469,290.266534 C84.6107469,289.794764 84.2247972,289.408814 83.7530462,289.408814 Z M94.1411441,284.218103 L92.2458965,284.218103 C91.7741259,284.218103 91.3880979,284.604131 91.3880979,285.075883 L91.3880979,286.97113 C91.3880979,287.442901 91.7741259,287.82885 92.2458965,287.82885 L94.1411441,287.82885 C94.6128951,287.82885 94.9988448,287.442901 94.9988448,286.97113 L94.9988448,285.075883 C94.9989231,284.604131 94.6128951,284.218103 94.1411441,284.218103 Z M94.1411441,289.408814 L92.2458965,289.408814 C91.7741259,289.408814 91.3880979,289.794764 91.3880979,290.266534 L91.3880979,292.161782 C91.3880979,292.633552 91.7741259,293.01958 92.2458965,293.01958 L94.1411441,293.01958 C94.6128951,293.01958 94.9988448,292.633552 94.9988448,292.161782 L94.9988448,290.266534 C94.9989231,289.794764 94.6128951,289.408814 94.1411441,289.408814 Z M88.9470462,284.260848 L87.0517986,284.260848 C86.580028,284.260848 86.1940196,284.646876 86.1940196,285.118568 L86.1940196,287.013894 C86.1940196,287.485664 86.580028,287.871614 87.0517986,287.871614 L88.9470462,287.871614 C89.4188168,287.871614 89.8048448,287.485664 89.8048448,287.013894 L89.8048448,285.118646 C89.8048448,284.646876 89.4188168,284.260848 88.9470462,284.260848 Z M88.9470462,289.408814 L87.0517986,289.408814 C86.580028,289.408814 86.1940196,289.794764 86.1940196,290.266534 L86.1940196,292.161782 C86.1940196,292.633552 86.580028,293.01958 87.0517986,293.01958 L88.9470462,293.01958 C89.4188168,293.01958 89.8048448,292.633552 89.8048448,292.161782 L89.8048448,290.266534 C89.8048448,289.794764 89.4188168,289.408814 88.9470462,289.408814 Z" id="icon_biaoge_on"></path>
        </g>
    </g>
</svg>