<?xml version="1.0" encoding="UTF-8"?>
<svg width="14px" height="14px" viewBox="0 0 14 14" version="1.1" xmlns="http://www.w3.org/2000/svg" xmlns:xlink="http://www.w3.org/1999/xlink">
    <!-- Generator: Sketch 47.1 (45422) - http://www.bohemiancoding.com/sketch -->
    <title>icon_zhuxing_on</title>
    <desc>Created with Sketch.</desc>
    <defs>
        <polygon id="path-1" points="0.00117318436 0.0160934201 0.00117318436 1.38829749 13.9937877 1.38829749 13.9937877 0.0160934201 0.00117318436 0.0160934201"></polygon>
    </defs>
    <g id="Page-1" stroke="none" stroke-width="1" fill="none" fill-rule="evenodd">
        <g id="新增" transform="translate(-55.000000, -279.000000)">
            <g id="icon_zhuxing_on" transform="translate(55.000000, 279.000000)">
                <g id="Group-3" transform="translate(0.000000, 12.592179)">
                    <mask id="mask-2" fill="white">
                        <use xlink:href="#path-1"></use>
                    </mask>
                    <g id="Clip-2"></g>
                    <path d="M2.58788827,0.016424581 C3.30867318,0.016424581 12.8501816,0.015896648 13.5712011,0.016424581 C13.8711453,0.016424581 13.993352,0.138553073 13.993352,0.436893855 C13.993352,0.628768156 13.9945056,0.820622905 13.9930587,1.01249721 C13.9909078,1.24545251 13.855405,1.38674302 13.6239162,1.38721229 C12.145743,1.38865922 1.84692458,1.38865922 0.368751397,1.38721229 C0.140156425,1.38674302 0.00717597765,1.25210056 0.00267877095,1.02012291 C-0.00136871508,0.812 -0.000234636872,0.603486034 0.00220949721,0.395343575 C0.00504469274,0.146726257 0.134877095,0.0173435754 0.385410615,0.0168938547 C1.11956983,0.0154273743 1.85365084,0.016424581 2.58788827,0.016424581 Z" id="Fill-1" fill="#FFFFFF" mask="url(#mask-2)"></path>
                </g>
                <path d="M1.01492179,9.01367318 C1.01492179,8.54132961 1.01347486,7.08356983 1.01492179,6.61124581 C1.01631006,6.21093575 1.19991341,6.02793855 1.5985419,6.02694134 C1.88786872,6.02625698 2.17727374,6.02486872 2.46658101,6.0276257 C2.81511453,6.0308324 3.01193575,6.22659777 3.01262011,6.57786872 C3.01537709,7.54650838 3.01469274,9.50050559 3.01330447,10.4691453 C3.01193575,10.8263799 2.81159497,11.0241983 2.45612011,11.0262514 C2.15772067,11.0280894 1.85861732,11.0284022 1.55951397,11.0262514 C1.21938827,11.023514 1.01904749,10.8291173 1.01631006,10.4883268 C1.01142179,9.99643017 1.01492179,9.50502235 1.01492179,9.01367318 Z" id="Fill-4" fill="#FFFFFF"></path>
                <path d="M5.99141341,8.22359218 C5.99141341,7.5049581 5.99141341,4.33008659 5.99217598,3.6113743 C5.99217598,3.20717318 6.18152793,3.01744972 6.58473184,3.0163743 C6.87443017,3.01568994 7.16414804,3.01393017 7.4530838,3.01676536 C7.79365922,3.02018715 7.99904469,3.21479888 8.00041341,3.55529609 C8.00393296,5.03614804 8.00393296,8.97317877 8.00041341,10.454324 C7.99972905,10.8001006 7.79090223,10.9986034 7.44406983,11.0009693 C7.1648324,11.0031201 6.88489106,11.0013603 6.60496927,11.0013603 C6.18358101,11.0009693 5.99217598,10.8118715 5.99217598,10.394824 C5.99141341,9.67098883 5.99141341,8.94744693 5.99141341,8.22359218 Z" id="Fill-5" fill="#FFFFFF"></path>
                <path d="M12.9957737,7.25098324 C12.9957737,8.30112011 12.9964581,9.35149162 12.9957737,10.4019413 C12.9957737,10.8390503 12.8177235,11.0171006 12.3830587,11.0171006 C12.1035084,11.0171006 11.8239581,11.0187821 11.5444078,11.0166313 C11.2050642,11.013581 10.9991313,10.8160559 10.9984469,10.4788436 C10.9963939,8.32511173 10.9963939,2.69871508 10.9984469,0.545041899 C10.9991313,0.211955307 11.1952877,0.0182625698 11.5332626,0.0116927374 C11.8364916,0.00572905028 12.140405,0.00748882682 12.4436145,0.0110083799 C12.8058939,0.0151340782 12.9943855,0.204329609 12.9950698,0.569346369 C12.9971425,1.63887989 12.9957737,6.18113687 12.9957737,7.25098324 Z" id="Fill-6" fill="#FFFFFF"></path>
            </g>
        </g>
    </g>
</svg>