<?xml version="1.0" encoding="UTF-8"?>
<svg width="14px" height="14px" viewBox="0 0 14 14" version="1.1" xmlns="http://www.w3.org/2000/svg" xmlns:xlink="http://www.w3.org/1999/xlink">
    <!-- Generator: Sketch 47.1 (45422) - http://www.bohemiancoding.com/sketch -->
    <title>icon_bingtu_on</title>
    <desc>Created with Sketch.</desc>
    <defs>
        <polygon id="path-1" points="0.00102439024 0.0136585366 0.00102439024 13.9999829 13.9863244 13.9999829 13.9863244 0.0136585366"></polygon>
    </defs>
    <g id="Page-1" stroke="none" stroke-width="1" fill="none" fill-rule="evenodd">
        <g id="新增" transform="translate(-141.000000, -280.000000)">
            <g id="icon_bingtu_on" transform="translate(141.000000, 280.000000)">
                <mask id="mask-2" fill="white">
                    <use xlink:href="#path-1"></use>
                </mask>
                <g id="Clip-2"></g>
                <path d="M6.00215854,13.9999829 C2.6973561,13.9999829 0,11.3026268 0,7.99784146 C0,4.8809122 2.43159512,2.25343659 5.53957805,2.01369512 C5.65948293,2.00369024 5.77933659,2.04669756 5.8653,2.12359512 C5.95300488,2.2058878 6.00255122,2.3210122 6.00215854,2.44130976 L6.00215854,7.99784146 L11.5587415,7.99784146 C11.678578,7.99784146 11.7904927,8.0487878 11.8763878,8.13475122 C11.9533537,8.22064634 11.9963098,8.3405 11.9863049,8.46040488 C11.7465463,11.5673976 9.11907073,13.9999829 6.00215854,13.9999829 Z M13.522822,7.00686341 L7.4307561,7.00686341 C7.31424878,7.00819512 7.20221463,6.96250732 7.11985366,6.88014634 C7.03747561,6.79776829 6.99180488,6.68573415 6.99320488,6.56929512 L6.99320488,0.478236585 C6.99320488,0.250412195 7.168,0.0586121951 7.3957561,0.0406 C7.55260732,0.0236634146 7.70947561,0.0136585366 7.86733415,0.0136585366 C11.2451585,0.0175341463 13.9824659,2.75484146 13.9863244,6.13264878 C13.9863244,6.29052439 13.9773268,6.44737561 13.9603902,6.60523415 C13.9444439,6.83411707 13.7522341,7.01058537 13.522822,7.00686341 Z" id="Fill-1" fill="#FFFFFF" mask="url(#mask-2)"></path>
            </g>
        </g>
    </g>
</svg>