<?xml version="1.0" encoding="UTF-8"?>
<svg width="40px" height="40px" viewBox="0 0 40 40" version="1.1" xmlns="http://www.w3.org/2000/svg" xmlns:xlink="http://www.w3.org/1999/xlink">
    <!-- Generator: Sketch 47.1 (45422) - http://www.bohemiancoding.com/sketch -->
    <title>btn_print</title>
    <desc>Created with Sketch.</desc>
    <defs>
        <linearGradient x1="50%" y1="0%" x2="50%" y2="93.6637286%" id="linearGradient-1">
            <stop stop-color="#FFE090" offset="0%"></stop>
            <stop stop-color="#E5985A" offset="97.6482781%"></stop>
        </linearGradient>
        <circle id="path-2" cx="20" cy="20" r="20"></circle>
        <filter x="-5.0%" y="-5.0%" width="110.0%" height="110.0%" filterUnits="objectBoundingBox" id="filter-3">
            <feGaussianBlur stdDeviation="1.5" in="SourceAlpha" result="shadowBlurInner1"></feGaussianBlur>
            <feOffset dx="0" dy="1" in="shadowBlurInner1" result="shadowOffsetInner1"></feOffset>
            <feComposite in="shadowOffsetInner1" in2="SourceAlpha" operator="arithmetic" k2="-1" k3="1" result="shadowInnerInner1"></feComposite>
            <feColorMatrix values="0 0 0 0 0.984415791   0 0 0 0 1   0 0 0 0 0.840139678  0 0 0 1 0" type="matrix" in="shadowInnerInner1"></feColorMatrix>
        </filter>
        <polygon id="path-4" points="0.00146341463 0.0195121951 0.00146341463 19.9999756 19.9804634 19.9999756 19.9804634 0.0195121951"></polygon>
        <path d="M16.4839024,9.0107561 C15.6576829,9.0107561 14.9853171,8.33839024 14.9853171,7.51217073 C14.9853171,6.68595122 15.6576829,6.01370732 16.4839024,6.01370732 C17.310122,6.01370732 17.9824634,6.68595122 17.9824634,7.51217073 C17.9824634,8.33839024 17.310122,9.0107561 16.4839024,9.0107561 Z M16.4839024,7.01265854 C16.2081707,7.01265854 15.9843659,7.23646341 15.9843659,7.51217073 C15.9843659,7.78790244 16.2081707,8.01170732 16.4839024,8.01170732 C16.7596341,8.01170732 16.9834146,7.78790244 16.9834146,7.51217073 C16.9834146,7.23646341 16.7596341,7.01265854 16.4839024,7.01265854 Z" id="path-6"></path>
    </defs>
    <g id="Page-1" stroke="none" stroke-width="1" fill="none" fill-rule="evenodd">
        <g id="列表页" transform="translate(-486.000000, -90.000000)">
            <g id="btn_print" transform="translate(486.000000, 90.000000)">
                <g id="Oval-5-Copy-5">
                    <use fill="url(#linearGradient-1)" fill-rule="evenodd" xlink:href="#path-2"></use>
                    <use fill="black" fill-opacity="1" filter="url(#filter-3)" xlink:href="#path-2"></use>
                </g>
                <g id="打印机-(1)-copy" transform="translate(10.000000, 10.000000)">
                    <g id="Group-3">
                        <mask id="mask-5" fill="white">
                            <use xlink:href="#path-4"></use>
                        </mask>
                        <g id="Clip-2"></g>
                        <path d="M18.482,4.01560976 L16.9834146,4.01560976 L16.9834146,1.51807317 C16.9834146,0.691853659 16.3110732,0.0195121951 15.4848537,0.0195121951 L4.49560976,0.0195121951 C3.66939024,0.0195121951 2.99704878,0.691853659 2.99704878,1.51807317 L2.99704878,4.01560976 L1.49856098,4.01560976 C0.672341463,4.01560976 0,4.68795122 0,5.51417073 L0,14.5054146 C0,15.3315366 0.672341463,16.003878 1.49856098,16.003878 L2.99704878,16.003878 L2.99704878,18.5015122 C2.99704878,19.3276341 3.66939024,19.9999756 4.49560976,19.9999756 L15.4848537,19.9999756 C16.3110732,19.9999756 16.9834146,19.3276341 16.9834146,18.5015122 L16.9834146,16.003878 L18.482,16.003878 C19.308122,16.003878 19.9804634,15.3315366 19.9804634,14.5054146 L19.9804634,5.51417073 C19.9804634,4.68795122 19.308122,4.01560976 18.482,4.01560976 Z M3.99609756,1.51807317 C3.99609756,1.24236585 4.21990244,1.01856098 4.49560976,1.01856098 L15.4848537,1.01856098 C15.7605854,1.01856098 15.9843659,1.24236585 15.9843659,1.51807317 L15.9843659,4.01560976 L3.99609756,4.01560976 L3.99609756,1.51807317 Z M15.4848537,19.0009268 L4.49560976,19.0009268 C4.21990244,19.0009268 3.99609756,18.7772195 3.99609756,18.5015122 L3.99609756,12.0078049 L15.9843659,12.0078049 L15.9843659,18.5015122 C15.9843659,18.7772195 15.7605854,19.0009268 15.4848537,19.0009268 Z M18.9814146,14.5054146 C18.9814146,14.7811463 18.7577073,15.0048293 18.482,15.0048293 L16.9834146,15.0048293 L16.9834146,12.0078049 L17.4829512,12.0078049 C17.7586585,12.0078049 17.9824634,11.784 17.9824634,11.5082683 C17.9824634,11.2325366 17.7586585,11.0087561 17.4829512,11.0087561 L2.4975122,11.0087561 C2.22180488,11.0087561 1.99809756,11.2325366 1.99809756,11.5082683 C1.99809756,11.784 2.22180488,12.0078049 2.4975122,12.0078049 L2.99704878,12.0078049 L2.99704878,15.0048293 L1.49856098,15.0048293 C1.22285366,15.0048293 0.99904878,14.7811463 0.99904878,14.5054146 L0.99904878,5.51417073 C0.99904878,5.23846341 1.22285366,5.01465854 1.49856098,5.01465854 L18.482,5.01465854 C18.7577073,5.01465854 18.9814146,5.23846341 18.9814146,5.51417073 L18.9814146,14.5054146 Z" id="Fill-1" stroke="#FFFEF4" stroke-width="0.5" fill="#FFFEF4" mask="url(#mask-5)"></path>
                    </g>
                    <path d="M14.4859024,14.005878 L5.49465854,14.005878 C5.21895122,14.005878 4.99514634,13.7820976 4.99514634,13.5063659 C4.99514634,13.2306341 5.21895122,13.0068293 5.49465854,13.0068293 L14.4859024,13.0068293 C14.7616341,13.0068293 14.9853171,13.2306341 14.9853171,13.5063659 C14.9853171,13.7820976 14.7616341,14.005878 14.4859024,14.005878 Z" id="Fill-4" stroke="#FFFEF4" stroke-width="0.5" fill="#FFFEF4"></path>
                    <path d="M14.4859024,16.003878 L5.49465854,16.003878 C5.21895122,16.003878 4.99514634,15.7800976 4.99514634,15.5043659 C4.99514634,15.2286341 5.21895122,15.0048293 5.49465854,15.0048293 L14.4859024,15.0048293 C14.7616341,15.0048293 14.9853171,15.2286341 14.9853171,15.5043659 C14.9853171,15.7800976 14.7616341,16.003878 14.4859024,16.003878 Z" id="Fill-5" stroke="#FFFEF4" stroke-width="0.5" fill="#FFFEF4"></path>
                    <path d="M14.4859024,18.0019756 L5.49465854,18.0019756 C5.21895122,18.0019756 4.99514634,17.7781707 4.99514634,17.5024634 C4.99514634,17.2267317 5.21895122,17.0029268 5.49465854,17.0029268 L14.4859024,17.0029268 C14.7616341,17.0029268 14.9853171,17.2267317 14.9853171,17.5024634 C14.9853171,17.7781707 14.7616341,18.0019756 14.4859024,18.0019756 Z" id="Fill-6" stroke="#FFFEF4" stroke-width="0.5" fill="#FFFEF4"></path>
                    <g id="Fill-7">
                        <use fill="#FFFEF4" fill-rule="evenodd" xlink:href="#path-6"></use>
                        <path stroke="#FFFEF4" stroke-width="0.5" d="M16.4839024,8.7607561 C17.1720449,8.7607561 17.7324634,8.20032496 17.7324634,7.51217073 C17.7324634,6.824046 17.1720744,6.26370732 16.4839024,6.26370732 C15.7957246,6.26370732 15.2353171,6.8240519 15.2353171,7.51217073 C15.2353171,8.20031906 15.7957541,8.7607561 16.4839024,8.7607561 Z M16.4839024,6.76265854 C16.8976988,6.76265854 17.2334146,7.09838569 17.2334146,7.51217073 C17.2334146,7.9259745 16.8977045,8.26170732 16.4839024,8.26170732 C16.0700995,8.26170732 15.7343659,7.92597363 15.7343659,7.51217073 C15.7343659,7.09838657 16.0701052,6.76265854 16.4839024,6.76265854 Z"></path>
                    </g>
                </g>
            </g>
        </g>
    </g>
</svg>