<?xml version="1.0" encoding="UTF-8"?>
<svg width="40px" height="40px" viewBox="0 0 40 40" version="1.1" xmlns="http://www.w3.org/2000/svg" xmlns:xlink="http://www.w3.org/1999/xlink">
    <!-- Generator: Sketch 47.1 (45422) - http://www.bohemiancoding.com/sketch -->
    <title>btn_search</title>
    <desc>Created with Sketch.</desc>
    <defs>
        <linearGradient x1="50%" y1="0%" x2="50%" y2="100%" id="linearGradient-1">
            <stop stop-color="#4B6ED8" offset="0%"></stop>
            <stop stop-color="#13169D" offset="100%"></stop>
        </linearGradient>
        <circle id="path-2" cx="20" cy="20" r="20"></circle>
        <filter x="-5.0%" y="-5.0%" width="110.0%" height="110.0%" filterUnits="objectBoundingBox" id="filter-3">
            <feGaussianBlur stdDeviation="1.5" in="SourceAlpha" result="shadowBlurInner1"></feGaussianBlur>
            <feOffset dx="0" dy="1" in="shadowBlurInner1" result="shadowOffsetInner1"></feOffset>
            <feComposite in="shadowOffsetInner1" in2="SourceAlpha" operator="arithmetic" k2="-1" k3="1" result="shadowInnerInner1"></feComposite>
            <feColorMatrix values="0 0 0 0 0.551787405   0 0 0 0 0.668933879   0 0 0 0 1  0 0 0 1 0" type="matrix" in="shadowInnerInner1"></feColorMatrix>
        </filter>
        <polygon id="path-4" points="22 0 0 0 0 22 22 22 22 8.13422151e-15"></polygon>
    </defs>
    <g id="Page-1" stroke="none" stroke-width="1" fill="none" fill-rule="evenodd">
        <g id="Artboard" transform="translate(-564.000000, -123.000000)">
            <g id="btn_search" transform="translate(564.000000, 123.000000)">
                <g id="Oval-5-Copy-4">
                    <use fill="url(#linearGradient-1)" fill-rule="evenodd" xlink:href="#path-2"></use>
                    <use fill="black" fill-opacity="1" filter="url(#filter-3)" xlink:href="#path-2"></use>
                </g>
                <g id="查询的副本-2-copy" transform="translate(9.000000, 9.000000)">
                    <mask id="mask-5" fill="white">
                        <use xlink:href="#path-4"></use>
                    </mask>
                    <g id="Clip-2"></g>
                    <path d="M19.5079861,21.1300891 L19.5625622,21.0639861 L19.450523,21.0639861 L19.5079861,21.1300891 Z M17.4316528,15.8181652 C18.6979801,14.2006056 19.385726,12.205152 19.3850702,10.1509354 C19.3850702,5.05100565 15.2507247,0.916666667 10.1509508,0.916666667 C8.01278346,0.916666667 6.0492661,1.65038575 4.48446625,2.87099918 C3.88191387,3.33995635 3.33992825,3.88190832 2.87100313,4.48445975 C1.60388876,6.10139626 0.915782137,8.09655471 0.91666752,10.1509354 C0.91666752,15.2507011 5.05101306,19.3850401 10.1509508,19.3850401 C12.2890854,19.3850401 14.2525044,18.651321 15.8181896,17.4316257 L19.450523,21.0639861 L19.4899717,21.0639861 L21.0833333,19.4707581 L17.4316528,15.8181652 Z M14.3205149,15.9339534 C13.1086222,16.8136949 11.6492486,17.2870134 10.151705,17.2863576 C6.21076653,17.2863576 3.01587804,14.0918348 3.01535337,10.1509354 C3.01509103,8.65326304 3.48880378,7.19402285 4.36854665,5.9820009 C4.81674725,5.36164346 5.36152019,4.8172321 5.98200977,4.36942571 C7.19416481,3.4894219 8.65376802,3.01574269 10.151705,3.01626736 C14.0922501,3.01662808 17.2863843,6.2111508 17.2863843,10.1516896 C17.2865155,11.6494931 16.8132291,13.1088644 15.9339781,14.3213782 C15.4850233,14.9409815 14.9403487,15.4852617 14.3205149,15.9339534 Z" id="Fill-1" fill="#A6B4FF" mask="url(#mask-5)"></path>
                </g>
            </g>
        </g>
    </g>
</svg>