<?xml version="1.0" encoding="UTF-8"?>
<svg width="42px" height="20px" viewBox="0 0 42 20" version="1.1" xmlns="http://www.w3.org/2000/svg" xmlns:xlink="http://www.w3.org/1999/xlink">
    <!-- Generator: Sketch 49 (51002) - http://www.bohemiancoding.com/sketch -->
    <title>Group 13</title>
    <desc>Created with Sketch.</desc>
    <defs></defs>
    <g id="Page-2" stroke="none" stroke-width="1" fill="none" fill-rule="evenodd">
        <g id="Group-13" fill="#D1DCDE">
            <text id="打印" font-family="PingFangSC-Regular, PingFang SC" font-size="13" font-weight="normal">
                <tspan x="17" y="14">打印</tspan>
            </text>
            <g id="dayin" transform="translate(0.000000, 3.000000)">
                <path d="M3.41589341,12.0000168 L8.55786816,12.0000168 C9.030446,12.0000168 9.39800281,11.6027882 9.39800281,11.1288471 L9.39800281,8.56663675 L2.57168583,8.56663675 L2.57168583,11.1288471 C2.57168583,11.6027882 2.94326508,12.0000168 3.41589341,12.0000168 Z M8.55786816,0.00336605891 L3.41589341,0.00336605891 C2.94326508,0.00336605891 2.57168583,0.372319776 2.57168583,0.846193548 L2.57168583,3.3963871 L9.39800281,3.3963871 L9.39800281,0.846193548 C9.39800281,0.372319776 9.030446,0.00336605891 8.55786816,0.00336605891 Z" id="Fill-1"></path>
                <path d="M10.2597812,3.3963871 L10.2597812,4.27156241 L1.70999158,4.27156241 L1.70999158,3.3963871 L0.845520337,3.3963871 C0.371579243,3.3963871 0,3.80031417 0,4.27425526 L0,10.2725386 C0,10.7464797 0.371579243,11.1383226 0.845520337,11.1383226 L1.70999158,11.1383226 L1.70999158,7.7049425 L10.2597812,7.7049425 L10.2597812,11.1383226 L11.1281739,11.1383226 C11.6008022,11.1383226 11.9966508,10.7464797 11.9966508,10.2725386 L11.9966508,4.27425526 C11.9966508,3.80031417 11.602115,3.3963871 11.1281739,3.3963871 L10.2597812,3.3963871 Z M7.70157644,6.00843198 L10.2597812,6.00843198 L10.2597812,5.13325666 L7.70157644,5.13325666 L7.70157644,6.00843198 Z" id="Fill-2"></path>
            </g>
        </g>
    </g>
</svg>