<?xml version="1.0" encoding="utf-8"?>
<!-- Generator: Adobe Illustrator 20.0.0, SVG Export Plug-In . SVG Version: 6.00 Build 0)  -->
<svg version="1.1" id="图层_1" xmlns="http://www.w3.org/2000/svg" xmlns:xlink="http://www.w3.org/1999/xlink" x="0px" y="0px"
	 width="20px" height="20px" viewBox="0 0 20 20" style="enable-background:new 0 0 20 20;" xml:space="preserve">
<style type="text/css">
	.st0{fill:#D9D9D9;}
</style>
<g>
	<g>
		<path class="st0" d="M19.2,12.4c-1.1-0.6-5.9,2.7-6.7,2.7c0,0-1.6,0.5-3.9-0.8c-2.2-1.2-3.9-2.4-3.9-2.4s-1.5-0.8-3.2,0.2
			C0.7,12.6,0,13,0,13v6c0,0,1.4-1.5,3.2-1.5c1.9,0,6.1,1.9,6.1,1.9s1.6,0.7,2.9,0l7.4-5.2C20.1,13.9,20.2,12.9,19.2,12.4L19.2,12.4
			z M11.4,13.5c3.6,0,6.6-2.8,6.6-6.2C18,3.8,15,1,11.4,1C7.7,1,4.7,3.7,4.7,7.1C4.7,10.5,7.7,13.5,11.4,13.5L11.4,13.5z M9.2,3.6
			l2.2,2.8l2.2-2.8H15l-2.7,3.5h2c0.1,0,0.1,0.1,0.1,0.1v0.4c0,0.1-0.1,0.1-0.1,0.1h-2.4v0.8h2.2c0.1,0,0.1,0.1,0.1,0.1v0.5
			c0,0.1-0.1,0.1-0.1,0.1h-2.3v1.3c0,0.1-0.1,0.1-0.2,0.1h-0.5c-0.1,0-0.2-0.1-0.2-0.1V9.2H8.7c-0.1,0-0.1,0-0.1-0.1V8.8
			c0-0.1,0.1-0.1,0.1-0.1H11V7.7H8.7c-0.1,0-0.1-0.1-0.1-0.1V7.2c0-0.1,0.1-0.1,0.1-0.1h2L8,3.6L9.2,3.6L9.2,3.6z M9.2,3.6"/>
	</g>
</g>
</svg>
