<?xml version="1.0" encoding="UTF-8"?>
<svg width="40px" height="40px" viewBox="0 0 40 40" version="1.1" xmlns="http://www.w3.org/2000/svg" xmlns:xlink="http://www.w3.org/1999/xlink">
    <!-- Generator: Sketch 47.1 (45422) - http://www.bohemiancoding.com/sketch -->
    <title>fuzhi</title>
    <desc>Created with Sketch.</desc>
    <defs>
        <linearGradient x1="50%" y1="5.88961745%" x2="50%" y2="95.5230931%" id="linearGradient-1">
            <stop stop-color="#FFB196" offset="0%"></stop>
            <stop stop-color="#BC0E2F" offset="100%"></stop>
        </linearGradient>
        <circle id="path-2" cx="20" cy="20" r="20"></circle>
        <filter x="-5.0%" y="-5.0%" width="110.0%" height="110.0%" filterUnits="objectBoundingBox" id="filter-3">
            <feGaussianBlur stdDeviation="1.5" in="SourceAlpha" result="shadowBlurInner1"></feGaussianBlur>
            <feOffset dx="0" dy="1" in="shadowBlurInner1" result="shadowOffsetInner1"></feOffset>
            <feComposite in="shadowOffsetInner1" in2="SourceAlpha" operator="arithmetic" k2="-1" k3="1" result="shadowInnerInner1"></feComposite>
            <feColorMatrix values="0 0 0 0 1   0 0 0 0 0.908792435   0 0 0 0 0.877446338  0 0 0 1 0" type="matrix" in="shadowInnerInner1"></feColorMatrix>
        </filter>
    </defs>
    <g id="Page-1" stroke="none" stroke-width="1" fill="none" fill-rule="evenodd">
        <g id="新增" transform="translate(-76.000000, -221.000000)">
            <g id="fuzhi" transform="translate(76.000000, 221.000000)">
                <g id="Oval-5-Copy-7">
                    <use fill="url(#linearGradient-1)" fill-rule="evenodd" xlink:href="#path-2"></use>
                    <use fill="black" fill-opacity="1" filter="url(#filter-3)" xlink:href="#path-2"></use>
                </g>
                <path d="M28.8280481,15.55525 C28.8007885,15.5298077 28.7501923,15.4847212 28.6789712,15.4182308 C28.5606731,15.3079231 28.4282692,15.1860192 28.2852788,15.0536154 C27.8839135,14.6816442 27.4805,14.3117212 27.0751827,13.9439327 C27.03125,13.9040385 27.03125,13.9042692 26.9872019,13.864375 C26.4673942,13.3938365 26.0339231,13.0103846 25.7134423,12.7400673 C25.5259423,12.5819615 25.3784519,12.4635481 25.2700481,12.3854615 C25.1980481,12.333625 25.1395769,12.2962115 25.0817692,12.2689519 C25.0091923,12.2344519 24.9418077,12.2135096 24.8463846,12.2152981 C24.7458558,12.2166538 24.6486154,12.2505769 24.5689712,12.311875 C24.453125,12.4006635 24.3855096,12.5384615 24.3862019,12.6843942 L24.3862019,16.8140096 L28.0566442,16.8140096 L28.0566442,29.6604712 L16.5852212,29.6604712 C15.8239423,29.6604712 15.2101827,29.0371346 15.2101827,28.2769808 L15.2101827,13.1436827 L23.0087981,13.1436827 C23.2622115,13.1436827 23.467625,12.9327308 23.467625,12.6794327 C23.467625,12.42625 23.2622115,12.2151827 23.0087981,12.2151827 L14.2818269,12.2151827 L14.2818269,26.8752308 L13.1499327,26.8752308 C12.4389327,26.8752308 11.8635962,26.3124135 11.8635962,25.6160385 L11.8635962,10.8766635 L24.0900673,10.8766635 C24.8026538,10.8766635 25.375625,11.4610288 25.3793462,12.1376731 L25.3793462,12.2151827 L26.2429423,12.2151827 L26.2429423,12.1376731 C26.2429423,10.9758365 25.2771442,10.0346154 24.0900673,10.0346154 L11,10.0346154 L11,25.6160385 C11,26.7773269 11.9638654,27.7173077 13.1499327,27.7173077 L14.2818269,27.7173077 L14.2818269,28.2769808 C14.2818269,29.5441923 15.3176923,30.5673077 16.5852212,30.5673077 L28.9633654,30.5673077 L28.9633654,15.8857404 L28.9727404,15.8857404 C28.9727404,15.7776827 28.9243942,15.6455096 28.8280481,15.55525 Z M25.2929231,15.8857404 L25.2929231,13.5957596 C25.5952596,13.8435481 25.9471538,14.1650096 26.3663173,14.5443942 C26.4099327,14.5839712 26.4124135,14.5839712 26.4560288,14.6236346 C26.8430865,14.9746346 27.2540288,15.3466923 27.6603558,15.7230481 C27.7224327,15.780625 27.7837308,15.8424712 27.8415385,15.8857404 L25.2929231,15.8857404 Z M26.4791058,18.7356538 L17.6347308,18.7356538 C17.3972981,18.7356538 17.2048654,18.9240769 17.2048654,19.1566346 C17.2048654,19.3892212 17.3972981,19.5776154 17.6347308,19.5776154 L26.4791058,19.5776154 C26.7165385,19.5776154 26.9091154,19.3892212 26.9091154,19.1566346 C26.9091154,18.9240769 26.7165385,18.7356538 26.4791058,18.7356538 Z M26.4791058,21.2617404 L17.6347308,21.2617404 C17.3972981,21.2617404 17.2048654,21.45025 17.2048654,21.6828077 C17.2048654,21.9153942 17.3972981,22.1037885 17.6347308,22.1037885 L26.4791058,22.1037885 C26.7165385,22.1037885 26.9091154,21.9153942 26.9091154,21.6828077 C26.9091154,21.45025 26.7165385,21.2617404 26.4791058,21.2617404 Z M26.4791058,24.1980769 L17.6347308,24.1980769 C17.3972981,24.1980769 17.2048654,24.3864712 17.2048654,24.6191442 C17.2048654,24.8516154 17.3972981,25.040125 17.6347308,25.040125 L26.4791058,25.040125 C26.7165385,25.040125 26.9091154,24.8516154 26.9091154,24.6191442 C26.9091154,24.3864712 26.7165385,24.1980769 26.4791058,24.1980769 Z" id="复制-(1)" stroke="#FFDDDD" stroke-width="0.5" fill="#FFDDDD"></path>
            </g>
        </g>
    </g>
</svg>