<?xml version="1.0" encoding="UTF-8"?>
<svg width="43px" height="20px" viewBox="0 0 43 20" version="1.1" xmlns="http://www.w3.org/2000/svg" xmlns:xlink="http://www.w3.org/1999/xlink">
    <!-- Generator: Sketch 49 (51002) - http://www.bohemiancoding.com/sketch -->
    <title>Group 11</title>
    <desc>Created with Sketch.</desc>
    <defs></defs>
    <g id="Page-2" stroke="none" stroke-width="1" fill="none" fill-rule="evenodd">
        <g id="Group-11" fill="#D1DCDE">
            <text id="删除" font-family="PingFangSC-Regular, PingFang SC" font-size="13" font-weight="normal">
                <tspan x="17" y="14">删除</tspan>
            </text>
            <g id="shanchu" transform="translate(0.000000, 4.000000)">
                <path d="M9.06903851,3.66362404 L8.79646044,3.66362404 L8.79646044,10.4899428 L7.90045284,10.4899428 L7.90045284,3.66362404 L6.40507273,3.66362404 L6.40507273,10.4899428 L5.50831701,10.4899428 L5.50831701,3.66362404 L4.01375837,3.66362404 L4.01375837,10.4899428 L3.11625453,10.4899428 L3.11625453,3.66362404 L2.54542778,3.66362404 C1.87026092,3.66362404 1.32200964,3.6538692 1.32200964,3.66362404 L1.32200964,10.7963328 C1.32200964,11.4527674 1.8695128,11.9845161 2.54542778,11.9845161 L9.06903851,11.9845161 C9.74426404,11.9845161 10.2917672,11.4527674 10.2917672,10.7963328 L10.2917672,3.66362404 C10.2917672,3.61330961 9.74426404,3.66362404 9.06903851,3.66362404 Z" id="删除的副本-2"></path>
                <path d="M10.8790965,1.52086003 L8.19933229,1.52086003 L8.19933229,0.79159416 C8.19933229,0.36877691 7.44376503,0.0263013922 7.002949,0.0263013922 L4.61082784,0.0263013922 C4.17070126,0.0263013922 3.41513399,0.36877691 3.41513399,0.79159416 L3.41513399,1.52086003 L0.735413786,1.52086003 C0.39895253,1.52086003 0.126315789,1.78903742 0.126315789,2.1187363 C0.126315789,2.44844985 0.39895253,2.71655389 0.735413786,2.71655389 L10.8790965,2.71655389 C11.2155724,2.71655389 11.4882092,2.44918329 11.4882092,2.1187363 C11.4882092,1.78823063 11.2148243,1.52086003 10.8790965,1.52086003 Z" id="Path"></path>
                <polygon id="Path" points="4.61157596 1.52086003 7.002949 1.52086003 7.002949 1.22198058 4.61157596 1.22198058"></polygon>
            </g>
        </g>
    </g>
</svg>