<?xml version="1.0" encoding="UTF-8"?>
<svg width="69px" height="20px" viewBox="0 0 69 20" version="1.1" xmlns="http://www.w3.org/2000/svg" xmlns:xlink="http://www.w3.org/1999/xlink">
    <!-- Generator: Sketch 49 (51002) - http://www.bohemiancoding.com/sketch -->
    <title>Group 28</title>
    <desc>Created with Sketch.</desc>
    <defs></defs>
    <g id="Page-2" stroke="none" stroke-width="1" fill="none" fill-rule="evenodd">
        <g id="Group-28" transform="translate(0.000000, 1.000000)">
            <text id="办理副卡" fill="#D1DCDE" font-family="PingFangSC-Regular, PingFang SC" font-size="13" font-weight="normal">
                <tspan x="17" y="14">办理副卡</tspan>
            </text>
            <g id="banlifuka" transform="translate(0.000000, 5.000000)">
                <polygon id="Clip-2" points="0.000976290098 0.00260344026 11.6634286 0.00260344026 11.6634286 9.66527197 0.000976290098 9.66527197"></polygon>
                <path d="M10.7912436,0 L0.87218503,0 C0.393119479,0 0,0.393119479 0,0.87218503 L0,1.78076941 L11.6634286,1.78076941 L11.6634286,0.873454207 C11.6634286,0.393119479 11.2715783,0 10.7912436,0 Z M11.6666667,8.16666667 L10.7916667,8.16666667 C10.6305836,8.16666667 10.5,8.29725028 10.5,8.45833333 C10.5,8.61941639 10.6305836,8.75 10.7916667,8.75 L11.6666667,8.75 L11.6666667,9.625 C11.6666667,9.78608305 11.7972503,9.91666667 11.9583333,9.91666667 C12.1194164,9.91666667 12.25,9.78608305 12.25,9.625 L12.25,8.75 L13.125,8.75 C13.2860831,8.75 13.4166667,8.61941639 13.4166667,8.45833333 C13.4166667,8.29725028 13.2860831,8.16666667 13.125,8.16666667 L12.25,8.16666667 L12.25,7.29166667 C12.25,7.13058361 12.1194164,7 11.9583333,7 C11.7972503,7 11.6666667,7.13058361 11.6666667,7.29166667 L11.6666667,8.16666667 Z M11.6634286,5.83333553 C10.3762527,5.83508374 9.33333333,6.87908176 9.33333333,8.16666667 C9.33333333,8.73596371 9.53721438,9.25764178 9.87594412,9.66266853 L0.87218503,9.66266853 C0.393119479,9.66266853 0,9.27088331 0,8.7904835 L0,2.85857741 L11.6634286,2.85857741 L11.6634286,5.83333553 Z M11.9583333,10.5 C10.830752,10.5 9.91666667,9.5859147 9.91666667,8.45833333 C9.91666667,7.33075197 10.830752,6.41666667 11.9583333,6.41666667 C13.0859147,6.41666667 14,7.33075197 14,8.45833333 C14,9.5859147 13.0859147,10.5 11.9583333,10.5 Z M3.43113031,6.05414541 L3.78533021,6.05414541 L3.78533021,7.91379605 L3.43113031,7.91379605 L3.43113031,6.05414541 Z M4.11848854,8.56222687 L3.6660946,8.56222687 L3.59244908,8.26248055 C3.73272627,8.27471509 3.8659896,8.283891 3.995746,8.283891 C4.06939152,8.283891 4.10796775,8.23189419 4.10796775,8.12790057 L4.10796775,5.76969227 L4.46567458,5.76969227 L4.46567458,8.20436646 C4.46567458,8.44294007 4.3499459,8.56222687 4.11848854,8.56222687 Z M1.38308333,5.84615817 L3.26630461,5.84615817 L3.26630461,6.12755267 L1.38308333,6.12755267 L1.38308333,5.84615817 Z M1.58999219,6.26213265 L3.08394426,6.26213265 L3.08394426,6.99926391 L1.58999219,6.99926391 L1.58999219,6.26213265 Z M2.74026515,6.74845577 L2.74026515,6.5129408 L1.9336713,6.5129408 L1.9336713,6.74845577 L2.74026515,6.74845577 Z M3.21370066,7.15525434 L3.21370066,8.59281323 L2.87002155,8.59281323 L2.87002155,8.4796437 L1.79339411,8.4796437 L1.79339411,8.59281323 L1.44620807,8.59281323 L1.44620807,7.15525434 L3.21370066,7.15525434 Z M1.79339411,8.20436646 L2.16512867,8.20436646 L2.16512867,7.94132378 L1.79339411,7.94132378 L1.79339411,8.20436646 Z M2.49478006,8.20436646 L2.87002155,8.20436646 L2.87002155,7.94132378 L2.49478006,7.94132378 L2.49478006,8.20436646 Z M1.79339411,7.67828109 L2.16512867,7.67828109 L2.16512867,7.43053158 L1.79339411,7.43053158 L1.79339411,7.67828109 Z M2.49478006,7.43053158 L2.49478006,7.67828109 L2.87002155,7.67828109 L2.87002155,7.43053158 L2.49478006,7.43053158 Z" id="Fill-1" fill="#D1DCDE"></path>
            </g>
        </g>
    </g>
</svg>