<?xml version="1.0" encoding="UTF-8"?>
<svg width="40px" height="40px" viewBox="0 0 40 40" version="1.1" xmlns="http://www.w3.org/2000/svg" xmlns:xlink="http://www.w3.org/1999/xlink">
    <!-- Generator: Sketch 47.1 (45422) - http://www.bohemiancoding.com/sketch -->
    <title>btn_tuikuan</title>
    <desc>Created with Sketch.</desc>
    <defs>
        <linearGradient x1="50%" y1="0%" x2="50%" y2="100%" id="linearGradient-1">
            <stop stop-color="#F85464" offset="0%"></stop>
            <stop stop-color="#AE0A0A" offset="100%"></stop>
        </linearGradient>
        <circle id="path-2" cx="20" cy="20" r="20"></circle>
        <filter x="-5.0%" y="-5.0%" width="110.0%" height="110.0%" filterUnits="objectBoundingBox" id="filter-3">
            <feGaussianBlur stdDeviation="1.5" in="SourceAlpha" result="shadowBlurInner1"></feGaussianBlur>
            <feOffset dx="0" dy="1" in="shadowBlurInner1" result="shadowOffsetInner1"></feOffset>
            <feComposite in="shadowOffsetInner1" in2="SourceAlpha" operator="arithmetic" k2="-1" k3="1" result="shadowInnerInner1"></feComposite>
            <feColorMatrix values="0 0 0 0 1   0 0 0 0 0.623895202   0 0 0 0 0.653527701  0 0 0 1 0" type="matrix" in="shadowInnerInner1"></feColorMatrix>
        </filter>
        <polygon id="path-4" points="0.00142011834 0.0233609467 0.00142011834 14.9822249 15.9876923 14.9822249 15.9876923 0.0233609467"></polygon>
    </defs>
    <g id="Page-1" stroke="none" stroke-width="1" fill="none" fill-rule="evenodd">
        <g id="列表页" transform="translate(-855.000000, -92.000000)">
            <g id="btn_tuikuan" transform="translate(855.000000, 92.000000)">
                <g id="Oval-5-Copy-4">
                    <use fill="url(#linearGradient-1)" fill-rule="evenodd" xlink:href="#path-2"></use>
                    <use fill="black" fill-opacity="1" filter="url(#filter-3)" xlink:href="#path-2"></use>
                </g>
                <g id="退" transform="translate(11.000000, 12.000000)">
                    <mask id="mask-5" fill="white">
                        <use xlink:href="#path-4"></use>
                    </mask>
                    <g id="Clip-2"></g>
                    <path d="M2.46726627,8.0408284 C2.46726627,7.75486391 2.32913609,7.61065089 2.05287574,7.61065089 L0.596236686,7.61065089 C0.253230769,7.61065089 0.0823668639,7.41195266 0.0823668639,7.01439053 C0.0823668639,6.61692308 0.253230769,6.41824852 0.596236686,6.41824852 L2.51822485,6.41824852 C3.34707692,6.41824852 3.76035503,6.86534911 3.76035503,7.75969231 L3.76035503,11.7514556 C4.15782249,12.7451598 4.96366864,13.3426036 6.1791716,13.5413964 C6.91836686,13.6638107 8.00175148,13.7291598 9.42686391,13.740071 C11.4482367,13.740071 13.4138225,13.6638107 15.3248994,13.5086627 L15.3915503,13.5086627 C15.7671953,13.5086627 15.9658935,13.724355 15.9876923,14.1545562 L15.9876923,14.1872899 C15.9876923,14.5956686 15.772,14.8174675 15.3417988,14.8502012 C13.0332781,14.9385799 11.0277396,14.9822249 9.32747929,14.9822249 C7.75933728,14.9822249 6.57173964,14.8937515 5.76589349,14.7168757 C4.51775148,14.4296095 3.62213018,13.7995266 3.08172781,12.827645 C2.38608284,13.6455858 1.6783432,14.3133018 0.960994083,14.8319763 C0.883408284,14.8986509 0.784023669,14.9313609 0.662911243,14.9313609 C0.453207101,14.9313609 0.276260355,14.8319763 0.132118343,14.6332071 C0.0436449704,14.4902722 0,14.352142 0,14.2188166 C0,14.0418462 0.0763786982,13.8928284 0.231408284,13.7715976 C1.22513609,13.032426 1.9716213,12.3525917 2.46847337,11.7333254 L2.46847337,8.0408284 L2.46726627,8.0408284 Z M4.05843787,2.72333728 C4.16873373,2.87848521 4.23048521,3.03233136 4.24018935,3.18747929 C4.24018935,3.35351479 4.14691124,3.50255621 3.95905325,3.63457988 C3.81609467,3.76669822 3.65486391,3.83947929 3.47798817,3.85039053 C3.29013018,3.85039053 3.13618935,3.76189349 3.01386982,3.58494675 C2.25278107,2.52456805 1.52930178,1.69088757 0.844686391,1.08253254 C0.722272189,0.961325444 0.661704142,0.829207101 0.661704142,0.685065089 C0.661704142,0.53112426 0.744094675,0.386911243 0.910130178,0.254792899 C1.06397633,0.11183432 1.2300355,0.0342721893 1.40688757,0.0233609467 C1.53900592,0.0233609467 1.65533728,0.0791242604 1.75472189,0.189420118 C2.55093491,0.883763314 3.3192426,1.72963314 4.05843787,2.72333728 Z M10.1054911,6.91510059 C10.4144852,7.68821302 10.839858,8.37895858 11.3815621,8.98489941 C12.4854911,8.32198817 13.3253491,7.68220118 13.899787,7.06414201 C14.0221065,6.94293491 14.1651361,6.88236686 14.3299645,6.88236686 C14.4947219,6.88236686 14.6450651,6.93813018 14.7770888,7.04833136 C14.9322367,7.1804497 15.0085917,7.3415858 15.0085917,7.52826036 C15.0085917,7.6603787 14.9588639,7.77178698 14.8594556,7.85907692 C14.1857515,8.52198817 13.3083314,9.16307692 12.2249467,9.78104142 C13.0866272,10.4766864 14.0863432,10.9856331 15.2243077,11.3055385 C15.5114556,11.3831006 15.6544852,11.5866982 15.6544852,11.9186982 C15.6544852,11.9853728 15.643574,12.0629349 15.6217751,12.1502249 C15.5223669,12.4810178 15.3066746,12.6470769 14.975858,12.6470769 C14.899503,12.6470769 14.815929,12.6300592 14.727432,12.5973254 C13.511929,12.156213 12.4746746,11.5927101 11.6129704,10.9068639 C10.5090651,10.0125444 9.68499408,8.9351716 9.14449704,7.67609467 C9.0123787,7.33559763 8.91299408,7.08106509 8.84643787,6.91510059 L7.07349112,6.91510059 L7.07349112,10.8741302 C7.93510059,10.6753609 8.74094675,10.4330414 9.49233136,10.144568 C9.58080473,10.1227456 9.64738462,10.1118343 9.69100592,10.1118343 C9.91280473,10.1118343 10.0715503,10.2439527 10.1709586,10.5093964 C10.1939645,10.6208047 10.2036686,10.6911716 10.2036686,10.7251124 C10.2036686,10.9795503 10.0812781,11.1455858 9.83884024,11.2219645 C8.46949112,11.7527574 6.99472189,12.1829349 5.41566864,12.5137515 L5.31749112,12.5137515 C4.98669822,12.5137515 4.79280473,12.3367811 4.73706509,11.9829586 C4.72733728,11.9405207 4.72134911,11.8847811 4.72134911,11.8181065 C4.72134911,11.4982249 4.85337278,11.3212544 5.11881657,11.2873373 L5.8143432,11.1552899 L5.8143432,1.4812071 C5.8143432,0.597798817 6.28456805,0.161491124 7.22253254,0.172402367 L12.872142,0.172402367 C13.8101065,0.172402367 14.2802367,0.608710059 14.2802367,1.4812071 L14.2802367,5.62321893 C14.2802367,6.48489941 13.8052071,6.91510059 12.8551243,6.91510059 L10.1054911,6.91510059 Z M13.0211834,1.69569231 C13.0211834,1.40854438 12.8781538,1.26551479 12.5909822,1.26551479 L7.52061538,1.26551479 C7.2116213,1.26551479 7.06260355,1.40972781 7.07349112,1.69569231 L7.07349112,2.97176331 L13.0211834,2.97176331 L13.0211834,1.69569231 Z M7.07349112,4.06487574 L7.07349112,5.83770414 L12.5909822,5.83770414 C12.8890414,5.83770414 13.032071,5.69957396 13.0211834,5.42333728 L13.0211834,4.06487574 L7.07349112,4.06487574 Z" id="Fill-1" fill="#FFB6BD" mask="url(#mask-5)"></path>
                </g>
            </g>
        </g>
    </g>
</svg>