<?xml version="1.0" encoding="UTF-8"?>
<svg width="40px" height="40px" viewBox="0 0 40 40" version="1.1" xmlns="http://www.w3.org/2000/svg" xmlns:xlink="http://www.w3.org/1999/xlink">
    <!-- Generator: Sketch 47.1 (45422) - http://www.bohemiancoding.com/sketch -->
    <title>btn_fabu</title>
    <desc>Created with Sketch.</desc>
    <defs>
        <linearGradient x1="50%" y1="5.88961745%" x2="50%" y2="95.5230931%" id="linearGradient-1">
            <stop stop-color="#96FFAA" offset="0%"></stop>
            <stop stop-color="#0EBC44" offset="100%"></stop>
        </linearGradient>
        <circle id="path-2" cx="20" cy="20" r="20"></circle>
        <filter x="-5.0%" y="-5.0%" width="110.0%" height="110.0%" filterUnits="objectBoundingBox" id="filter-3">
            <feGaussianBlur stdDeviation="1.5" in="SourceAlpha" result="shadowBlurInner1"></feGaussianBlur>
            <feOffset dx="0" dy="1" in="shadowBlurInner1" result="shadowOffsetInner1"></feOffset>
            <feComposite in="shadowOffsetInner1" in2="SourceAlpha" operator="arithmetic" k2="-1" k3="1" result="shadowInnerInner1"></feComposite>
            <feColorMatrix values="0 0 0 0 1   0 0 0 0 0.908792435   0 0 0 0 0.877446338  0 0 0 1 0" type="matrix" in="shadowInnerInner1"></feColorMatrix>
        </filter>
    </defs>
    <g id="Page-1" stroke="none" stroke-width="1" fill="none" fill-rule="evenodd">
        <g id="列表页" transform="translate(-912.000000, -92.000000)">
            <g id="btn_fabu" transform="translate(912.000000, 92.000000)">
                <g id="Oval-5-Copy-7">
                    <use fill="url(#linearGradient-1)" fill-rule="evenodd" xlink:href="#path-2"></use>
                    <use fill="black" fill-opacity="1" filter="url(#filter-3)" xlink:href="#path-2"></use>
                </g>
                <path d="M20.3122835,10.413812 L19.0124074,11.7137963 C18.8826823,11.8444687 18.7063234,11.9181681 18.5221695,11.9183846 C18.3380969,11.9186011 18.1615214,11.845416 18.0314986,11.7151766 C17.9002849,11.5855598 17.8265855,11.4086866 17.826802,11.2242892 C17.8270185,11.0399188 17.9012322,10.863235 18.0327707,10.7340513 L20.4890484,8.27796296 C20.6206952,8.13172792 20.8083405,8.04831197 21.0052151,8.04874501 C21.0844088,8.04874501 21.1601923,8.06184473 21.2309416,8.08574359 C21.4359359,8.06788034 21.6382778,8.14187749 21.7834573,8.28778775 L24.2295043,10.7340513 C24.3610157,10.863235 24.4352293,11.0398105 24.4355541,11.2241809 C24.4358789,11.4086866 24.3621795,11.5854516 24.2309658,11.7151766 C24.100943,11.845416 23.9242593,11.9186011 23.7402137,11.9182764 C23.5560328,11.9180598 23.3795655,11.8444687 23.2498405,11.7137963 L21.6976054,10.1617507 L21.6976054,14.9791168 C21.6973889,15.1624316 21.6242308,15.3380328 21.4943974,15.4674601 C21.3644558,15.5967521 21.1885299,15.6691795 21.0052151,15.6686382 C20.821765,15.6694772 20.6455413,15.5972664 20.5154915,15.4678661 C20.3854416,15.3384658 20.3122835,15.1625399 20.3122835,14.9791168 L20.3122835,10.413812 Z M15.4633319,21.2100883 C15.4627094,21.0267735 15.5351097,20.8507393 15.6644288,20.7207977 C15.7938291,20.5908561 15.9695385,20.517698 16.1528803,20.5174003 L22.3933789,20.5174003 C22.576802,20.5174003 22.7526197,20.5905584 22.8820199,20.7205 C23.0114473,20.8505228 23.0837664,21.0266652 23.0829003,21.2100883 C23.0834416,21.3934302 23.0111225,21.5694644 22.8817222,21.699406 C22.7524031,21.8293205 22.5766937,21.9024786 22.3933789,21.9026952 L16.1530698,21.9026952 C15.9696467,21.9028034 15.7937208,21.8297536 15.6642123,21.699812 C15.534812,21.5697621 15.4624929,21.3935385 15.4633319,21.2100883 Z M15.4633319,24.6738533 C15.4621681,24.4893746 15.5351097,24.3121766 15.6657009,24.1820185 C15.7963732,24.0517792 15.9737607,23.9793519 16.1581581,23.9809217 L19.6176738,23.9809217 C19.8018547,23.9801909 19.9786197,24.052943 20.1089672,24.1829658 C20.2393419,24.3130157 20.3125,24.4896724 20.3122835,24.6738533 C20.313339,24.8581425 20.2405057,25.0352322 20.1099416,25.1653632 C19.9793504,25.2956296 19.8020712,25.3679217 19.6176738,25.3662436 L16.1581581,25.3662436 C15.9739772,25.3670826 15.7972123,25.2944658 15.6667564,25.1645242 C15.5362735,25.0345826 15.4631154,24.8579259 15.4633319,24.6738533 Z M15.4633319,17.746567 C15.4636567,17.5621695 15.5375456,17.3854046 15.6684345,17.255463 C15.7993234,17.1255214 15.9766296,17.0530128 16.161,17.0539601 L25.155849,17.0539601 C25.3403547,17.0527963 25.5177422,17.1252236 25.6487393,17.2551382 C25.7797365,17.385188 25.8535442,17.5620613 25.8537336,17.746567 C25.8533276,17.9311538 25.7795199,18.1079188 25.6485228,18.2378604 C25.5176339,18.3679103 25.3403547,18.4404188 25.155849,18.4394715 L16.1612165,18.4394715 C15.9767379,18.4406353 15.7993234,18.3680997 15.6683262,18.2380769 C15.5373291,18.1080271 15.4635484,17.9311538 15.4633319,17.746567 Z M28.3733718,20.162896 C28.6628376,19.8755413 29.0556125,19.7165313 29.46349,19.7214843 C29.8713946,19.7263561 30.2601368,19.8950014 30.5425385,20.189339 L30.5550969,20.202547 C30.8399345,20.4973989 30.9956695,20.8933405 30.9880641,21.3031396 C30.9803234,21.7129387 30.8099188,22.1028447 30.5143091,22.3868162 L22.4036368,30.2195256 L20.3074387,30.2207977 L20.2967479,28.1340185 L28.3733718,20.162896 Z M25.8539501,10.8195783 L26.6582023,10.8195783 C28.1916268,10.8195783 29.4336909,12.0557151 29.4336909,13.5879758 L29.4336909,17.2044986 L28.0483689,17.2044986 L28.0483689,13.5879758 C28.0483689,12.8222108 27.4279729,12.2049003 26.6582023,12.2049003 L25.8539501,12.2049003 L25.8539501,10.8195783 Z M16.1749658,12.2050897 L14.768614,12.2050897 C14.0075043,12.2050897 13.3853219,12.8288689 13.3853219,13.5960142 L13.3853219,27.439084 C13.3844558,27.8077436 13.5303661,28.16149 13.7906553,28.422537 C14.0509444,28.6834487 14.4045014,28.8300897 14.7730527,28.830198 L17.338567,28.830198 L17.338567,30.2155199 L14.7730527,30.2155199 C13.2405755,30.2155199 12,28.9741054 12,27.439084 L12,13.5960142 C12,12.0643761 13.2418476,10.8197949 14.7688305,10.8197949 L16.1751823,10.8197949 L16.1751823,12.2050897 L16.1749658,12.2050897 Z" id="发布-(2)" fill="#D1FFDA"></path>
            </g>
        </g>
    </g>
</svg>