<?xml version="1.0" encoding="UTF-8"?>
<svg width="40px" height="40px" viewBox="0 0 40 40" version="1.1" xmlns="http://www.w3.org/2000/svg" xmlns:xlink="http://www.w3.org/1999/xlink">
    <!-- Generator: Sketch 47.1 (45422) - http://www.bohemiancoding.com/sketch -->
    <title>btn_tuichang</title>
    <desc>Created with Sketch.</desc>
    <defs>
        <linearGradient x1="50%" y1="5.88961745%" x2="50%" y2="93.1347011%" id="linearGradient-1">
            <stop stop-color="#C1C9ED" offset="0%"></stop>
            <stop stop-color="#484B71" offset="100%"></stop>
        </linearGradient>
        <circle id="path-2" cx="20" cy="20" r="20"></circle>
        <filter x="-5.0%" y="-5.0%" width="110.0%" height="110.0%" filterUnits="objectBoundingBox" id="filter-3">
            <feGaussianBlur stdDeviation="1.5" in="SourceAlpha" result="shadowBlurInner1"></feGaussianBlur>
            <feOffset dx="0" dy="1" in="shadowBlurInner1" result="shadowOffsetInner1"></feOffset>
            <feComposite in="shadowOffsetInner1" in2="SourceAlpha" operator="arithmetic" k2="-1" k3="1" result="shadowInnerInner1"></feComposite>
            <feColorMatrix values="0 0 0 0 0.905882353   0 0 0 0 0.917647059   0 0 0 0 1  0 0 0 1 0" type="matrix" in="shadowInnerInner1"></feColorMatrix>
        </filter>
    </defs>
    <g id="Page-1" stroke="none" stroke-width="1" fill="none" fill-rule="evenodd">
        <g id="列表页" transform="translate(-1095.000000, -92.000000)">
            <g id="btn_tuichang" transform="translate(1095.000000, 92.000000)">
                <g id="Oval-5-Copy-7">
                    <use fill="url(#linearGradient-1)" fill-rule="evenodd" xlink:href="#path-2"></use>
                    <use fill="black" fill-opacity="1" filter="url(#filter-3)" xlink:href="#path-2"></use>
                </g>
                <g id="退出" transform="translate(11.000000, 10.000000)" fill-rule="nonzero" fill="#E7EAFF">
                    <path d="M17.8588863,7.54467725 C17.5886033,7.27439424 17.5886033,6.83629637 17.8588863,6.56601336 C18.1291693,6.29573035 18.5672672,6.29573035 18.8375491,6.56601224 L21.0262303,8.75467093 C21.0496244,8.77909726 21.0496244,8.77909726 21.0682196,8.80107132 C21.0827945,8.8192201 21.0827945,8.8192201 21.0885657,8.8273689 C21.0998433,8.8421975 21.0998433,8.8421975 21.1103242,8.85729295 C21.1208621,8.87349597 21.1208621,8.87349597 21.126443,8.88296047 C21.1378232,8.90181694 21.1378232,8.90181694 21.1454537,8.9156211 C21.1549891,8.93413556 21.1549891,8.93413556 21.1594718,8.94387414 C21.1678321,8.96139439 21.1678321,8.96139439 21.1753684,8.9787352 C21.1815859,8.99454417 21.1815859,8.99454417 21.1850345,9.00434495 C21.1925322,9.02487924 21.1925322,9.02487924 21.1970922,9.03913517 C21.2019032,9.05532597 21.2019032,9.05532597 21.2044657,9.06569443 C21.2101302,9.08795557 21.2101302,9.08795557 21.2151115,9.11076698 C21.2174141,9.12391656 21.2174141,9.12391656 21.2187679,9.13321132 C21.222316,9.15653298 21.222316,9.15653298 21.2244882,9.17465059 C21.2272828,9.20858389 21.2272828,9.20858389 21.2278729,9.24301105 C21.2271633,9.27875668 21.2271633,9.27875668 21.2247591,9.30729477 C21.2227543,9.32643439 21.2227543,9.32643439 21.2210123,9.33734596 C21.2171135,9.36391147 21.2171135,9.36391147 21.2147491,9.37669372 C21.2105085,9.3966118 21.2105085,9.3966118 21.2074497,9.40833948 C21.2019477,9.43030625 21.2019477,9.43030625 21.1977699,9.44479806 C21.1925756,9.46083372 21.1925756,9.46083372 21.1889917,9.47069817 C21.1813874,9.49209084 21.1813874,9.49209084 21.1751429,9.50794316 C21.1686188,9.522999 21.1686188,9.522999 21.1641498,9.53231172 C21.1562517,9.54937677 21.1562517,9.54937677 21.1455212,9.57049752 C21.1363974,9.58665325 21.1363974,9.58665325 21.1308764,9.5955859 C21.1218514,9.61094775 21.1218514,9.61094775 21.1111701,9.62755663 C21.0988192,9.64524389 21.0988192,9.64524389 21.0912256,9.65519322 C21.0821366,9.66763944 21.0821366,9.66763944 21.0705258,9.68239119 C21.0496504,9.70707266 21.0496504,9.70707266 21.0251734,9.73238555 L18.8374963,11.920035 C18.5673132,12.1903911 18.129056,12.1903911 17.8589429,11.9201482 C17.5885938,11.6499722 17.5885938,11.2117478 17.8588863,10.9414553 L18.8652311,9.9351105 L10.8121271,9.9351105 C10.4299675,9.9351105 10.1201381,9.62528113 10.1201381,9.24312155 C10.1201381,8.86087996 10.429939,8.5511326 10.8121271,8.5511326 L18.865264,8.5511326 L17.8588863,7.54467725 Z M20.9757182,9.19941989 C20.9771271,9.2138674 20.9778729,9.22842541 20.9778729,9.24301105 C20.9778729,9.25767956 20.9770166,9.27223757 20.9756077,9.28671271 C20.9750829,9.2930663 20.973895,9.29911602 20.9729282,9.30538674 C20.9718232,9.31337017 20.9708564,9.32146409 20.9692541,9.32944751 C20.9678453,9.33676796 20.9659116,9.34378453 20.9640608,9.3509116 C20.9623481,9.35770718 20.9608287,9.36461326 20.9587845,9.37140884 C20.9566298,9.37842541 20.9540331,9.38522099 20.951547,9.39212707 C20.9491713,9.39881215 20.9469061,9.40560773 20.9441989,9.41220994 C20.9415193,9.41867403 20.9383978,9.42483425 20.9353591,9.43118785 C20.9322376,9.43798343 20.9292265,9.44477901 20.925663,9.45149171 C20.9224033,9.45751381 20.9187569,9.46323204 20.9151934,9.46906077 C20.9112983,9.47566298 20.9076243,9.48223757 20.9034254,9.48848066 C20.8990055,9.49508287 20.8941436,9.50132597 20.8893923,9.50759669 C20.8854972,9.51276243 20.8818508,9.5181768 20.8777348,9.52323204 C20.868453,9.53447514 20.8587569,9.54535912 20.8483978,9.55560773 L18.660663,11.7433149 C18.4881215,11.9159669 18.208232,11.9159669 18.035663,11.7433149 C17.863011,11.5707735 17.863011,11.290884 18.035663,11.1183149 L18.035663,11.118232 L19.4687845,9.6851105 L10.8121271,9.6851105 C10.5680387,9.6851105 10.3701381,9.48720994 10.3701381,9.24312155 C10.3701381,8.99892265 10.5680387,8.8011326 10.8121271,8.8011326 L19.4687845,8.8011326 L18.035663,7.36790055 C17.863011,7.19524862 17.863011,6.91544199 18.035663,6.74279006 C18.2083149,6.57013812 18.4881215,6.57013812 18.6607735,6.74279006 L20.8485083,8.93049724 C20.8587569,8.94085635 20.868453,8.95165746 20.8777348,8.96298343 C20.8819613,8.9679558 20.8854972,8.97334254 20.8893923,8.97853591 C20.8941436,8.9848895 20.899116,8.99104972 20.9034254,8.99762431 C20.9077348,9.0039779 20.9114088,9.01058011 20.9153039,9.0170442 C20.9187569,9.02287293 20.9225138,9.02870166 20.925663,9.03475138 C20.9292265,9.04132597 20.9322376,9.04823204 20.9354696,9.05502762 C20.9383978,9.06129834 20.9415193,9.06743094 20.9441989,9.07392265 C20.9469061,9.08049724 20.9491713,9.08729282 20.951547,9.0939779 C20.9540331,9.10088398 20.9567403,9.10767956 20.9587845,9.11469613 C20.9609392,9.12149171 20.9623481,9.12839779 20.9640608,9.13519337 C20.9659116,9.14232044 20.9678453,9.14933702 20.9693646,9.15668508 C20.9708564,9.16466851 20.9718232,9.17276243 20.973011,9.18074586 C20.973895,9.18698895 20.9750829,9.19303867 20.9757182,9.19941989 Z" id="Combined-Shape"></path>
                    <path d="M14.8680939,16.0378729 L14.8680939,13.3977624 C14.8680939,12.8778356 15.2901001,12.4567403 15.8100829,12.4567403 C16.3300657,12.4567403 16.7520718,12.8778356 16.7520718,13.3977624 L16.7520718,16.5378729 C16.7520718,17.3013626 16.1321658,17.9199171 15.3680939,17.9199171 L9.4558011,17.9199171 L9.4558011,18.5549724 C9.4558011,18.6016346 9.45341822,18.6483893 9.4485493,18.6959912 C9.3700232,19.4455542 8.68658907,19.8826574 7.9426765,19.6837239 L1.75480905,18.0292981 C1.09944752,17.8540444 0.573199981,17.2361478 0.506962816,16.568569 C0.502330958,16.521783 0.5,16.4747913 0.5,16.4279006 L0.5,1.39483425 L0.59714754,1.39483425 C0.800259824,0.883218559 1.30020348,0.522071823 1.8839779,0.522071823 L15.3680939,0.522071823 C16.1321658,0.522071823 16.7520718,1.14062635 16.7520718,1.90411602 L16.7520718,5.04422652 C16.7520718,5.5641578 16.3300613,5.98522099 15.8100829,5.98522099 C15.2901045,5.98522099 14.8680939,5.5641578 14.8680939,5.04422652 L14.8680939,2.40411602 L8.45481545,2.40411602 C8.98818032,2.65210999 9.39140939,3.19356654 9.44883829,3.77237019 C9.45346962,3.8191509 9.4558011,3.86614253 9.4558011,3.91301105 L9.4558011,16.0378729 L14.8680939,16.0378729 Z M15.7518815,1.89197947 C15.7456003,1.69198344 15.5846261,1.53032766 15.3836162,1.52237821 C15.5384064,1.608459 15.6664017,1.73687017 15.7518815,1.89197947 Z M15.7518828,16.5499692 C15.6664036,16.7050987 15.538408,16.8335236 15.383612,16.9196109 C15.5846373,16.911663 15.7456218,16.7499852 15.7518828,16.5499692 Z M1.5001936,1.90006822 L1.5,16.4279006 C1.52715798,16.7226198 1.75948768,16.9954111 2.01312461,17.0632375 L8.20099205,18.7176633 C8.3660526,18.761803 8.4412184,18.7137293 8.45386424,18.5930345 C8.45472045,18.5846609 8.45536608,18.0269551 8.4558011,16.9199171 L15.3680939,16.9199171 C15.2481276,16.9949583 15.0921128,17.0378729 14.926105,17.0378729 L8.4558011,17.0378729 L8.4558011,3.91301105 C8.42864313,3.61831944 8.19631342,3.34552813 7.94267424,3.27770116 L1.65588397,1.59679529 C1.56241196,1.6656444 1.50149505,1.77574784 1.5001936,1.90006822 Z M7.5718232,4.10941989 C7.5718232,4.10330221 7.52844774,4.04898363 7.50068352,4.04156809 L2.3839779,2.67348889 L2.3839779,16.2232044 C2.3839779,16.2374093 2.42701152,16.2918516 2.45511523,16.2993705 L7.5718232,17.6674237 L7.5718232,4.10941989 Z M15.8100829,12.9567403 C16.0541713,12.9567403 16.2520718,13.1542265 16.2520718,13.3977624 L16.2520718,16.5378729 C16.2520718,17.0249724 15.8562707,17.4199171 15.3680939,17.4199171 L8.9558011,17.4199171 L8.9558011,18.5549724 C8.9558011,18.5846685 8.95428177,18.6144475 8.95127072,18.643895 C8.90593923,19.0766022 8.52944751,19.3230663 8.0718232,19.2006906 L1.8839779,17.5462707 C1.42635359,17.423895 1.04986188,16.9761878 1.00453039,16.5193094 C1.00151934,16.488895 1,16.4583425 1,16.4279006 L1,1.89483425 C1.0001105,1.89483425 1.0001105,1.89483425 1.00022099,1.89483425 C1.00527624,1.4119337 1.39883978,1.02207182 1.8839779,1.02207182 L15.3680939,1.02207182 C15.8562707,1.02207182 16.2520718,1.41701657 16.2520718,1.90411602 L16.2520718,5.04422652 C16.2520718,5.28776243 16.0541713,5.48522099 15.8100829,5.48522099 C15.5659945,5.48522099 15.3680939,5.28776243 15.3680939,5.04422652 L15.3680939,2.34513812 C15.3680939,2.10157459 15.1701934,1.90411602 14.926105,1.90411602 L4.74104972,1.90411602 L8.0718232,2.79466851 C8.52944751,2.9170442 8.90593923,3.36475138 8.95127072,3.82162983 C8.95428177,3.8520442 8.9558011,3.88259669 8.9558011,3.91301105 L8.9558011,16.5378729 L14.926105,16.5378729 C15.1701934,16.5378729 15.3680939,16.3404144 15.3680939,16.0967403 L15.3680939,13.3977624 C15.3680939,13.1542265 15.5659945,12.9567403 15.8100829,12.9567403 Z" id="Combined-Shape"></path>
                </g>
            </g>
        </g>
    </g>
</svg>