<?xml version="1.0" encoding="UTF-8"?>
<svg width="40px" height="40px" viewBox="0 0 40 40" version="1.1" xmlns="http://www.w3.org/2000/svg" xmlns:xlink="http://www.w3.org/1999/xlink">
    <!-- Generator: Sketch 47.1 (45422) - http://www.bohemiancoding.com/sketch -->
    <title>btn_chongzhi</title>
    <desc>Created with Sketch.</desc>
    <defs>
        <linearGradient x1="50%" y1="-2.48949813e-15%" x2="50%" y2="100%" id="linearGradient-1">
            <stop stop-color="#FFC647" offset="0%"></stop>
            <stop stop-color="#FF7B0A" offset="100%"></stop>
        </linearGradient>
        <circle id="path-2" cx="20" cy="20" r="20"></circle>
        <filter x="-5.0%" y="-5.0%" width="110.0%" height="110.0%" filterUnits="objectBoundingBox" id="filter-3">
            <feGaussianBlur stdDeviation="1.5" in="SourceAlpha" result="shadowBlurInner1"></feGaussianBlur>
            <feOffset dx="0" dy="1" in="shadowBlurInner1" result="shadowOffsetInner1"></feOffset>
            <feComposite in="shadowOffsetInner1" in2="SourceAlpha" operator="arithmetic" k2="-1" k3="1" result="shadowInnerInner1"></feComposite>
            <feColorMatrix values="0 0 0 0 0.986954617   0 0 0 0 1   0 0 0 0 0.754596749  0 0 0 1 0" type="matrix" in="shadowInnerInner1"></feColorMatrix>
        </filter>
        <polygon id="path-4" points="0.00230366492 0.00153577661 0.00230366492 21.4625166 21.9800349 21.4625166 21.9800349 0.00153577661"></polygon>
    </defs>
    <g id="Page-1" stroke="none" stroke-width="1" fill="none" fill-rule="evenodd">
        <g id="列表页" transform="translate(-795.000000, -92.000000)">
            <g id="btn_chongzhi" transform="translate(795.000000, 92.000000)">
                <g id="Oval-5-Copy-4">
                    <use fill="url(#linearGradient-1)" fill-rule="evenodd" xlink:href="#path-2"></use>
                    <use fill="black" fill-opacity="1" filter="url(#filter-3)" xlink:href="#path-2"></use>
                </g>
                <g id="充值" transform="translate(9.000000, 9.000000)">
                    <mask id="mask-5" fill="white">
                        <use xlink:href="#path-4"></use>
                    </mask>
                    <g id="Clip-2"></g>
                    <path d="M11.6118532,10.3864259 C10.5285807,10.4249344 9.33598657,10.4915729 8.22508158,10.5635042 L8.05625998,13.0609665 C7.61819489,16.5124509 2.50872295,17.9216012 2.50872295,17.9216012 L1.87688777,16.9982467 C6.30624775,16.0750073 7.08556493,12.5268472 7.08556493,12.5268472 L7.08556493,10.6407955 C5.36886822,10.762252 4.06735731,10.8759646 4.06735731,10.8759646 L3.23961922,9.95261007 L8.05625998,5.33618276 L9.90786964,5.33618276 L5.47850966,9.56351868 C9.32442655,9.1260463 13.8991357,9.1260463 13.8991357,9.1260463 L12.3427495,6.93868439 L13.4125344,6.40456515 L17.2101745,10.8252523 L16.0896052,11.5067883 L15.2617519,10.438521 L14.9205286,10.438521 C14.4826877,10.3618521 13.6924796,10.3418258 12.7306249,10.3568351 L12.6840016,14.5691525 C12.5871886,16.6114866 13.6569735,16.708191 13.6569735,16.708191 L15.506191,16.708191 C17.6966605,16.367423 16.8689224,13.6941502 16.8689224,13.6941502 L18.3768878,14.3734412 C18.2800748,17.9216012 16.0896052,17.9216012 16.0896052,17.9216012 L13.4125344,17.9216012 C11.563317,17.873249 11.6118532,16.0750073 11.6118532,16.0750073 L11.6118532,10.3864259 Z M8.73876417,2.56396057 L9.90786964,1.83410122 L11.1252519,3.43899168 L10.493532,3.97311092 L10.4451111,4.21720324 L17.8926787,4.21720324 L17.8926787,5.33618276 L2.16971896,5.33618276 L2.16971896,4.3161238 L9.90786964,4.12277252 L8.73876417,2.56396057 Z M7.13395701,5.33618276 L11.2220649,5.33618276 L7.13395701,5.33618276 Z" id="Fill-1" fill="#FFF3B6" mask="url(#mask-5)"></path>
                </g>
            </g>
        </g>
    </g>
</svg>