<?xml version="1.0" encoding="UTF-8"?>
<svg width="16px" height="16px" viewBox="0 0 16 16" version="1.1" xmlns="http://www.w3.org/2000/svg" xmlns:xlink="http://www.w3.org/1999/xlink">
    <!-- Generator: Sketch 48.2 (47327) - http://www.bohemiancoding.com/sketch -->
    <title>清空</title>
    <desc>Created with Sketch.</desc>
    <defs>
        <polygon id="path-1" points="0.00134078212 0.0115530726 15.9889162 0.0115530726 15.9889162 16.0000447 0.00134078212 16.0000447"></polygon>
    </defs>
    <g id="列表页" stroke="none" stroke-width="1" fill="none" fill-rule="evenodd" transform="translate(-1408.000000, -56.000000)">
        <g id="清空" transform="translate(1408.000000, 56.000000)">
            <mask id="mask-2" fill="white">
                <use xlink:href="#path-1"></use>
            </mask>
            <g id="Clip-2"></g>
            <path d="M8.82105028,8.01818994 L8.40773184,7.60496089 L8.82105028,8.01818994 Z M7.99441341,0.0115530726 C3.5790838,0.0115530726 0,3.59012291 0,8.0055419 C0,12.4209609 3.5790838,16.0000447 7.99441341,16.0000447 C12.4098324,16.0000447 15.9889162,12.4209609 15.9889162,8.0055419 C15.9889162,3.59012291 12.4098324,0.0115530726 7.99441341,0.0115530726 Z M12.1258771,11.3231061 L11.2997542,12.1496536 L7.99492737,8.84431285 L4.68958659,12.1496536 L3.86357542,11.3231061 L7.16882682,8.01818994 L3.86357542,4.71338547 L4.68958659,3.88681564 L8.40773184,7.60496089 L7.99492737,7.19215642 L11.2997542,3.88681564 L12.1258771,4.71338547 L8.82105028,8.01818994 L12.1258771,11.3231061 Z" id="Fill-1" fill="#D1DCDE" mask="url(#mask-2)"></path>
        </g>
    </g>
</svg>