<?xml version="1.0" encoding="UTF-8"?>
<svg width="44px" height="20px" viewBox="0 0 44 20" version="1.1" xmlns="http://www.w3.org/2000/svg" xmlns:xlink="http://www.w3.org/1999/xlink">
    <!-- Generator: Sketch 49 (51002) - http://www.bohemiancoding.com/sketch -->
    <title>Group 2</title>
    <desc>Created with Sketch.</desc>
    <defs></defs>
    <g id="Page-2" stroke="none" stroke-width="1" fill="none" fill-rule="evenodd">
        <g id="Group-2" transform="translate(0.000000, 1.000000)" fill="#D1DCDE">
            <text id="到店" font-family="PingFangSC-Regular, PingFang SC" font-size="13" font-weight="normal">
                <tspan x="18" y="14">到店</tspan>
            </text>
            <g id="daodian" transform="translate(0.000000, 3.000000)">
                <g id="Group-4">
                    <path d="M12.7055892,6.15011205 C13.1333205,6.65553012 13.0685241,7.43316506 12.550059,7.86088072 C12.0316723,8.2885494 11.6428627,9.18285542 11.681706,9.85677229 C11.720612,10.5177831 11.2151313,11.1009819 10.5412145,11.139888 C9.86728193,11.1787313 9.02486627,11.671259 8.66193133,12.2415361 C8.29905904,12.7988446 7.54737711,12.9672807 6.9771,12.6044084 C6.40682289,12.2415361 5.43481446,12.1508024 4.81270964,12.3970663 C4.17765181,12.6433145 3.47778193,12.3322699 3.23151807,11.7101024 C2.99823855,11.0880133 2.25946265,10.4400181 1.61148313,10.2715349 C0.963440964,10.1030361 0.574631325,9.42910361 0.743114458,8.78106145 C0.911613253,8.13301928 0.704208434,7.17399518 0.276539759,6.65553012 C-0.151175904,6.13714337 -0.073426506,5.37247711 0.445038554,4.94476145 C0.963440964,4.51709277 1.3522506,3.62280241 1.31339157,2.94886988 C1.27448554,2.28792169 1.77998193,1.7046759 2.4538988,1.66581687 C3.12781566,1.62691084 3.97029398,1.1343988 4.32019759,0.577074699 C4.49334819,0.303354217 4.76841566,0.109826506 5.0845506,0.0392975904 C5.40073253,-0.031246988 5.73198193,0.0270493976 6.00502892,0.201233735 C6.57532169,0.564168675 7.54737711,0.654839759 8.16948193,0.408654217 C8.79573735,0.162014458 9.50343855,0.469456627 9.75061084,1.09553976 C9.98390602,1.71764458 10.7226819,2.36568675 11.3706614,2.53412289 C12.0187036,2.70262169 12.4075133,3.3766012 12.2390145,4.02458072 C12.0705157,4.67262289 12.2779205,5.63170964 12.7055892,6.15011205 Z M5.62910156,8.20117187 C5.6527996,8.30781303 5.5935554,8.35520839 5.45136719,8.34335937 C5.43951817,8.34335937 5.40397165,8.33743496 5.34472656,8.32558594 C5.08404818,8.25449183 4.9418621,8.29596277 4.91816406,8.45 C4.84706996,8.63958428 4.96555836,8.76992152 5.27363281,8.84101562 C5.85423467,8.97135482 6.14453125,8.82324432 6.14453125,8.39667969 L6.14453125,5.19746094 C6.13268223,5.01972567 6.04974035,4.91901054 5.89570313,4.8953125 C5.72981688,4.8953125 5.64095058,4.9841788 5.62910156,5.16191406 L5.62910156,8.20117187 Z M2.41210937,4.96640625 C2.26992116,4.97825527 2.18697929,5.07304599 2.16328125,5.25078125 C2.17513027,5.42851651 2.25214773,5.52330723 2.39433594,5.53515625 L2.85644531,5.53515625 L2.57207031,6.15722656 L2.3765625,6.175 C2.23437429,6.19869804 2.16328125,6.29941317 2.16328125,6.47714844 C2.17513027,6.64303468 2.25807215,6.72597656 2.41210937,6.72597656 C2.55429759,6.72597656 2.77350112,6.71412772 3.06972656,6.69042969 C3.11712263,6.67858067 3.15266915,6.67265625 3.17636719,6.67265625 L3.17636719,7.13476562 L2.51875,7.13476562 C2.37656179,7.14661464 2.29954433,7.23548094 2.28769531,7.40136719 C2.29954433,7.57910245 2.37063737,7.67389317 2.50097656,7.68574219 L3.17636719,7.68574219 L3.17636719,8.21894531 C3.01048094,8.23079433 2.77350414,8.25449201 2.46542969,8.29003906 C2.22844934,8.30188808 2.1277342,8.40260322 2.16328125,8.5921875 C2.17513027,8.76992276 2.29361867,8.85286464 2.51875,8.84101563 C2.54244804,8.84101563 2.79127367,8.81139353 3.26523437,8.75214844 C3.99987346,8.66920531 4.3968096,8.62180996 4.45605469,8.60996094 C4.69303504,8.59811192 4.79375018,8.50924562 4.75820312,8.34335938 C4.77005214,8.13007706 4.64563932,8.04121076 4.38496094,8.07675781 C4.1598296,8.11230487 4.1302075,8.11822929 4.29609375,8.09453125 C4.03541536,8.1300783 3.83990951,8.15377598 3.70957031,8.165625 L3.70957031,7.68574219 L4.40273437,7.68574219 C4.52122455,7.67389317 4.58639317,7.58502687 4.59824219,7.41914063 C4.59824219,7.24140536 4.53899799,7.14661464 4.42050781,7.13476562 L3.70957031,7.13476562 L3.70957031,6.6015625 C3.87545656,6.6015625 4.02949148,6.58971366 4.17167969,6.56601563 C4.18352871,6.58971366 4.20130196,6.61341134 4.225,6.63710938 C4.23684902,6.67265643 4.24869786,6.70227853 4.26054687,6.72597656 C4.35533902,6.86816477 4.47382741,6.90371129 4.61601562,6.83261719 C4.75820384,6.74967406 4.79967478,6.63118567 4.74042969,6.47714844 C4.61009049,6.20462103 4.47382884,5.9557954 4.33164062,5.73066406 C4.2486975,5.60032487 4.13613352,5.55885393 3.99394531,5.60625 C3.8517571,5.67734411 3.80436174,5.77805924 3.85175781,5.90839844 C3.86360683,5.96764353 3.88730451,6.01503888 3.92285156,6.05058594 L3.15859375,6.10390625 L3.44296875,5.53515625 L4.54492187,5.53515625 C4.66341205,5.52330723 4.72858067,5.42851651 4.74042969,5.25078125 C4.72858067,5.07304599 4.66341205,4.97825527 4.54492187,4.96640625 L2.41210937,4.96640625 Z M4.82929687,7.77460937 C4.84114589,7.91679759 4.92408777,7.99381504 5.078125,8.00566406 C5.23216223,7.99381504 5.31510411,7.91679759 5.32695312,7.77460937 L5.32695312,5.33964844 C5.31510411,5.18561121 5.23216223,5.10266933 5.078125,5.09082031 C4.92408777,5.09082031 4.84114589,5.16783777 4.82929687,5.321875 L4.82929687,7.77460937 Z M7.28203125,5.12636719 C7.08059795,5.12636719 6.97988281,5.23893117 6.97988281,5.4640625 L6.97988281,6.92148437 C6.97988281,7.4783882 6.89694093,7.95826621 6.73105469,8.36113281 C6.71920567,8.39667987 6.71328125,8.42037754 6.71328125,8.43222656 C6.64218714,8.63365986 6.71328018,8.75807268 6.9265625,8.80546875 C7.05690169,8.8410158 7.16946567,8.71067856 7.26425781,8.41445312 C7.39459701,7.9286434 7.46569004,7.36582351 7.47753906,6.72597656 L7.47753906,5.73066406 C7.47753906,5.65956996 7.50716116,5.62402344 7.56640625,5.62402344 L8.59726562,5.62402344 L8.59726562,7.01035156 L7.90410156,7.01035156 C7.69081925,6.98665353 7.59010411,7.09921751 7.60195312,7.34804687 L7.60195312,8.45 C7.60195312,8.66328232 7.72044152,8.76992187 7.95742187,8.76992187 L10.196875,8.76992187 C10.4338554,8.76992187 10.5523437,8.66328232 10.5523437,8.45 L10.5523437,7.3125 C10.5641928,7.09921768 10.4634776,6.99850254 10.2501953,7.01035156 L9.13046875,7.01035156 L9.13046875,6.53046875 L10.5701172,6.53046875 C10.7123054,6.51861973 10.7833984,6.42975343 10.7833984,6.26386719 C10.7597004,6.12167898 10.6767585,6.04466152 10.5345703,6.0328125 L9.13046875,6.0328125 L9.13046875,5.62402344 L10.5167969,5.62402344 C10.6589851,5.61217442 10.7300781,5.52330812 10.7300781,5.35742187 C10.7182291,5.21523366 10.6352872,5.13821621 10.48125,5.12636719 L9.13046875,5.12636719 L9.13046875,4.94863281 C9.11861973,4.8064446 9.02975343,4.72942714 8.86386719,4.71757812 C8.68613192,4.72942714 8.59134121,4.80052018 8.57949219,4.93085937 L8.57949219,5.12636719 L7.28203125,5.12636719 Z M8.08183594,8.3078125 L8.08183594,7.49023438 L10.0724609,7.49023438 L10.0724609,8.3078125 L8.08183594,8.3078125 Z" id="Combined-Shape"></path>
                </g>
            </g>
        </g>
    </g>
</svg>