<?xml version="1.0" encoding="UTF-8"?>
<svg width="43px" height="20px" viewBox="0 0 43 20" version="1.1" xmlns="http://www.w3.org/2000/svg" xmlns:xlink="http://www.w3.org/1999/xlink">
    <!-- Generator: Sketch 49 (51002) - http://www.bohemiancoding.com/sketch -->
    <title>Group</title>
    <desc>Created with Sketch.</desc>
    <defs></defs>
    <g id="Page-2" stroke="none" stroke-width="1" fill="none" fill-rule="evenodd">
        <g id="Group" fill="#D1DCDE">
            <text id="问卷" font-family="PingFangSC-Regular, PingFang SC" font-size="13" font-weight="normal">
                <tspan x="17" y="14">问卷</tspan>
            </text>
            <g id="GFPwenjuan" transform="translate(0.000000, 3.000000)">
                <path d="M9.7100994,12.5902305 C9.74824933,12.5902305 9.78638063,12.5457033 9.82460511,12.5011762 C9.7100994,12.5902305 9.60321621,12.5902305 9.48106933,12.5902305 L9.7100994,12.5902305 Z M2.19851342,2.19564332 C2.49620219,2.19564332 2.82445562,1.86737125 2.82445562,1.56970112 L2.82445562,0.630713273 C2.82445562,0.33302451 2.61834907,0.00477107139 2.19851342,0.00477107139 C1.83975122,0.00477107139 1.57257122,0.33302451 1.57257122,0.630713273 L1.57257122,1.56970112 C1.57257122,1.86737125 1.90082466,2.19564332 2.19851342,2.19564332 Z M5.01530924,2.19564332 C5.51917911,2.19564332 5.64132599,1.86737125 5.64132599,1.56970112 L5.64132599,0.630713273 C5.64132599,0.33302451 5.4657282,0.00477107139 5.01530924,0.00477107139 C4.57262464,0.00477107139 4.38938568,0.33302451 4.38938568,0.630713273 L4.38938568,1.56970112 C4.38938568,1.86737125 4.60311476,2.19564332 5.01530924,2.19564332 Z" id="Fill-2"></path>
                <g id="Group-6">
                    <path d="M6.44286598,9.4858404 C6.44286598,11.1652762 7.80927474,12.5164585 9.47340953,12.5164585 L0.625942202,12.5164585 C0.328253439,12.5164585 0,12.1041895 0,11.8065007 L0,1.88267222 C0,1.58498346 0.328253439,1.25673002 0.625942202,1.25673002 L0.938913302,1.25673002 L0.938913302,1.56970112 C0.938913302,2.36358131 1.56493005,2.81400027 2.16036349,2.81400027 C2.96954465,2.81400027 3.44281257,2.15749339 3.45047237,1.56970112 L3.45047237,1.25673002 L3.76344347,1.25673002 L3.76344347,1.56970112 C3.76344347,2.15749339 4.0611136,2.82158553 5.01530924,2.82158553 C5.60312014,2.82158553 6.26726819,2.47810566 6.26726819,1.88267222 L6.26726819,1.25673002 L6.58023929,1.25673002 L6.58023929,1.88267222 C6.58023929,2.47810566 7.24440598,2.82158553 7.83219824,2.82158553 C8.41999051,2.82158553 9.08415719,2.47810566 9.08415719,1.88267222 L9.08415719,1.25673002 L9.7100994,1.25673002 C10.0077695,1.25673002 10.3360416,1.58498346 10.3360416,1.88267222 L10.3513239,6.59265153 C10.0765028,6.5087105 9.78638063,6.46291939 9.48106933,6.46291939 C7.80161493,6.46291939 6.44286598,7.81404581 6.44286598,9.4858404 Z M3.30545838,4.95689131 C3.12916639,4.96726143 3.03583673,5.05540611 3.02546661,5.22132798 C3.03583673,5.39761998 3.12916639,5.49094963 3.30545838,5.50131975 L3.70989094,5.50131975 C3.6891507,5.89538421 3.46101154,6.10796843 3.02546661,6.13907878 C2.55881133,6.10796843 2.30993225,5.80205455 2.2788219,5.22132798 C2.30993225,4.64060141 2.55881133,4.33468754 3.02546661,4.30357719 C3.23286896,4.30357719 3.42989823,4.36579696 3.61656035,4.49023836 C3.72026152,4.56282919 3.80840619,4.59912405 3.88099702,4.59912405 C4.03654878,4.58875394 4.11950847,4.49542428 4.12987859,4.31913228 C4.04691765,3.98728853 3.67878401,3.80062922 3.02546661,3.75914875 C2.17511699,3.82136945 1.71883867,4.30875766 1.65661796,5.22132798 C1.71883867,6.12352819 2.17511699,6.60054644 3.02546661,6.65239702 C3.84470588,6.62128667 4.28024428,6.18574827 4.33209487,5.34576877 C4.34246498,5.08651583 4.22321042,4.95689131 3.97432761,4.95689131 L3.30545838,4.95689131 Z M4.58097644,6.35685016 C4.59134656,6.54351227 4.68986119,6.63684192 4.8765233,6.63684192 C5.06318542,6.63684192 5.16170005,6.54351227 5.17207017,6.35685016 L5.17207017,5.48576465 L5.7942741,5.48576465 C5.9705661,5.47539454 6.06389575,5.38206488 6.07426587,5.20577288 C6.06389575,5.02948089 5.9705661,4.93615123 5.7942741,4.92578112 L5.17207017,4.92578112 L5.17207017,4.35024248 L5.90315979,4.35024248 C6.06908167,4.33987236 6.15722634,4.24654271 6.16759646,4.07025071 C6.15722634,3.90432883 6.06908167,3.81618416 5.90315979,3.80581404 L4.8765233,3.80581404 C4.68986119,3.81618416 4.59134656,3.91988378 4.58097644,4.11691601 L4.58097644,6.35685016 Z M6.33870254,6.35685016 C6.34907266,6.54351227 6.4475873,6.63684192 6.63424941,6.63684192 C6.82091152,6.63684192 6.91942616,6.54351227 6.92979628,6.35685016 L6.92979628,5.70353603 L7.36533903,5.70353603 C7.98754607,5.66205556 8.31938485,5.34577172 8.36086532,4.75467504 C8.31938485,4.16357835 7.98236109,3.84729451 7.34978393,3.80581404 L6.63424941,3.80581404 C6.4475873,3.81618416 6.34907266,3.91988378 6.33870254,4.11691601 L6.33870254,6.35685016 Z M6.92979628,4.33468738 L7.33422883,4.33468738 C7.59348176,4.3450575 7.72829127,4.48505198 7.73866138,4.75467504 C7.71792115,5.01392797 7.58311165,5.15392245 7.33422883,5.17466269 L6.92979628,5.17466269 L6.92979628,4.33468738 Z" id="Combined-Shape"></path>
                    <path d="M7.83219824,2.19564332 C8.24439272,2.19564332 8.45814044,1.86737125 8.45814044,1.56970112 L8.45814044,0.630713273 C8.45814044,0.33302451 8.23675155,0.00477107139 7.83219824,0.00477107139 C7.47343604,0.00477107139 7.20625604,0.33302451 7.20625604,0.630713273 L7.20625604,1.56970112 C7.19861487,1.86737125 7.53443493,2.19564332 7.83219824,2.19564332 Z M11.633773,8.37132931 C11.2292197,7.59265691 10.4200385,7.06593809 9.48106933,7.06593809 C8.13752817,7.06593809 7.05352585,8.14994042 7.05352585,9.4781806 C7.05352585,10.806514 8.12988701,11.8828006 9.45820174,11.8904417 C9.50399284,11.8904417 9.54978394,11.8980829 9.58793388,11.8980829 C10.8856839,11.8980829 11.9391029,10.8446639 11.9391029,9.54691384 C11.9467441,9.11941839 11.8322384,8.72245034 11.633773,8.37132931 Z M9.43527823,11.3866651 C9.25968044,11.3713827 9.16045706,11.2644995 9.14515609,11.073694 C9.16045706,10.9133785 9.25968044,10.8217218 9.43527823,10.806514 C9.59557505,10.8370227 9.69479842,10.9286049 9.72538173,11.073694 C9.69479842,11.2492172 9.60321621,11.3560818 9.43527823,11.3866651 Z M10.0154293,9.49348157 C9.68715725,9.7911517 9.52686044,10.0812738 9.54978394,10.3637362 C9.5345016,10.4858271 9.49635167,10.5392594 9.41997725,10.5392594 C9.29024511,10.5392594 9.2215305,10.4476772 9.2215305,10.2492305 C9.2215305,10.0431239 9.33603622,9.7911517 9.55742511,9.49348157 C9.77881401,9.19579281 9.89326381,8.94383924 9.89326381,8.73773268 C9.86275504,8.44004392 9.70245823,8.2797471 9.42761842,8.24916379 C9.25203927,8.24916379 9.10700615,8.340746 9.00778278,8.53928593 C8.93140836,8.66143281 8.85512713,8.71486509 8.78639388,8.71486509 C8.61079609,8.71486509 8.51921389,8.61556716 8.51921389,8.40183807 C8.5497972,7.94383386 8.8627683,7.69195484 9.47340953,7.64608919 C10.129935,7.69195484 10.4734895,8.01256711 10.5192806,8.60035937 C10.5116394,8.89804814 10.3436828,9.19579281 10.0154293,9.49348157 Z" id="Fill-5"></path>
                </g>
            </g>
        </g>
    </g>
</svg>