<?xml version="1.0" encoding="UTF-8"?>
<svg width="20px" height="19px" viewBox="0 0 20 19" version="1.1" xmlns="http://www.w3.org/2000/svg" xmlns:xlink="http://www.w3.org/1999/xlink">
    <!-- Generator: Sketch 47.1 (45422) - http://www.bohemiancoding.com/sketch -->
    <title>goutongjieguo</title>
    <desc>Created with Sketch.</desc>
    <defs></defs>
    <g id="Page-1" stroke="none" stroke-width="1" fill="none" fill-rule="evenodd">
        <g id="列表页" transform="translate(-1287.000000, -54.000000)" fill="#D1DCDE">
            <path d="M1302.35486,60.7208123 C1302.35486,61.0035565 1302.15205,61.2333919 1301.90026,61.2333919 L1292.06663,61.2333919 C1291.81484,61.2333919 1291.61109,61.0035565 1291.61109,60.7208123 L1291.61109,60.7188364 C1291.61109,60.4350604 1291.81484,60.205247 1292.06663,60.205247 L1301.90026,60.205247 C1302.15205,60.205247 1302.35486,60.4350604 1302.35486,60.7188364 L1302.35486,60.7208123 Z M1302.35486,63.2896817 C1302.35486,63.5733699 1302.15205,63.8021515 1301.90026,63.8021515 L1292.06663,63.8021515 C1291.81484,63.8021515 1291.61109,63.5724259 1291.61109,63.2896817 L1291.61109,63.287618 C1291.61109,63.0048738 1291.81484,62.7750384 1292.06663,62.7750384 L1301.90026,62.7750384 C1302.15205,62.7750384 1302.35486,63.0048738 1302.35486,63.287618 L1302.35486,63.2896817 Z M1302.35486,65.8594072 C1302.35486,66.1422173 1302.15205,66.3719649 1301.90026,66.3719649 L1292.06663,66.3719649 C1291.81484,66.3719649 1291.61109,66.1422173 1291.61109,65.8594072 L1291.61109,65.8574314 C1291.61109,65.5736553 1291.81484,65.3439078 1292.06663,65.3439078 L1301.90026,65.3439078 C1302.15205,65.3439078 1302.35486,65.5736553 1302.35486,65.8574314 L1302.35486,65.8594072 Z M1296.99142,54.039539 C1291.47319,54.039539 1287,58.0661032 1287,63.031899 C1287,65.7555434 1288.35085,68.1904501 1290.47506,69.839056 L1290.47506,72.0241493 L1296.1222,72.0241493 L1296.1222,71.9841932 C1296.40896,72.0071789 1296.69769,72.0241493 1296.99142,72.0241493 C1302.50975,72.0241493 1306.98294,67.9975851 1306.98294,63.031899 C1306.98294,58.0661032 1302.50975,54.039539 1296.99142,54.039539 Z" id="goutongjieguo"></path>
        </g>
    </g>
</svg>