<?xml version="1.0" encoding="UTF-8"?>
<svg width="16px" height="16px" viewBox="0 0 16 16" version="1.1" xmlns="http://www.w3.org/2000/svg" xmlns:xlink="http://www.w3.org/1999/xlink">
    <!-- Generator: Sketch 48.2 (47327) - http://www.bohemiancoding.com/sketch -->
    <title>gouxuan</title>
    <desc>Created with Sketch.</desc>
    <defs>
        <polygon id="path-1" points="0.00133891213 0.0143040446 15.985696 0.0143040446 15.985696 16.0000223 0.00133891213 16.0000223"></polygon>
    </defs>
    <g id="团操课表" stroke="none" stroke-width="1" fill="none" fill-rule="evenodd" transform="translate(-1093.000000, -311.000000)">
        <g id="gouxuan" transform="translate(1093.000000, 311.000000)">
            <mask id="mask-2" fill="white">
                <use xlink:href="#path-1"></use>
            </mask>
            <g id="Clip-2"></g>
            <path d="M3.4254728,5.72351464 L2.28364854,6.86533891 L7.99285914,13.7162845 C7.99285914,13.7162845 11.4183319,5.72351464 15.985696,2.29795258 L14.8438047,1.15612831 C14.8438047,1.15612831 9.1346834,5.72351464 6.85103487,9.14898745 L3.4254728,5.72351464 Z" id="Fill-1" fill="#282E34" mask="url(#mask-2)"></path>
            <path d="M15.7145216,5.94282845 C15.6329372,5.63827057 15.3198326,5.45756206 15.0152524,5.53916876 C14.7237713,5.61727197 14.5458522,5.90743654 14.602689,6.19929707 C14.759855,6.77520781 14.8438717,7.38137796 14.8438717,8.00716318 C14.8438717,11.7909066 11.7764909,14.858198 7.99285914,14.858198 C4.20911576,14.858198 1.14182427,11.7909066 1.14182427,8.00716318 C1.14182427,4.22344212 4.20911576,1.15612831 7.99285914,1.15612831 C8.62143375,1.15612831 9.23030404,1.2409484 9.8085802,1.39943096 C10.1006862,1.45695955 10.3913863,1.27895119 10.4695788,0.987112971 C10.5512524,0.682555091 10.370477,0.369450488 10.0658968,0.287843794 L10.0711185,0.287241283 C9.40846862,0.109322176 8.71174338,0.0143040446 7.99285914,0.0143040446 C3.57853278,0.0143040446 0,3.59285914 0,8.00716318 C0,12.4214895 3.57853278,16.0000223 7.99285914,16.0000223 C12.4071632,16.0000223 15.985696,12.4214895 15.985696,8.00716318 C15.985696,7.29220642 15.8917266,6.59929707 15.7156597,5.93988285 L15.7145216,5.94282845 Z" id="Fill-3" fill="#282E34" mask="url(#mask-2)"></path>
        </g>
    </g>
</svg>