<?xml version="1.0" encoding="UTF-8"?>
<svg width="43px" height="20px" viewBox="0 0 43 20" version="1.1" xmlns="http://www.w3.org/2000/svg" xmlns:xlink="http://www.w3.org/1999/xlink">
    <!-- Generator: Sketch 49 (51002) - http://www.bohemiancoding.com/sketch -->
    <title>Group 31</title>
    <desc>Created with Sketch.</desc>
    <defs></defs>
    <g id="Page-2" stroke="none" stroke-width="1" fill="none" fill-rule="evenodd">
        <g id="Group-31" transform="translate(0.000000, 1.000000)" fill="#D1DCDE">
            <text id="换柜" font-family="PingFangSC-Regular, PingFang SC" font-size="13" font-weight="normal">
                <tspan x="17" y="14">换柜</tspan>
            </text>
            <g id="huangui" transform="translate(0.000000, 5.000000)">
                <path d="M1.29238095,5.1447619 L3.9752381,5.1447619 L3.9752381,8.37333333 L1.29238095,8.37333333 L1.29238095,5.1447619 Z M1.29238095,3.13047619 L3.9752381,3.13047619 L3.9752381,4.75619048 L1.29238095,4.75619048 L1.29238095,3.13047619 Z M1.29238095,1.13904762 L3.9752381,1.13904762 L3.9752381,2.76380952 L1.29238095,2.76380952 L1.29238095,1.13904762 Z M6.79233182,5.1447619 C6.18672789,5.50022556 5.71073183,6.05271683 5.45238095,6.71419839 L5.45238095,5.1447619 L6.79233182,5.1447619 Z M5.45238095,3.13047619 L8.13619048,3.13047619 L8.13619048,4.75619048 L5.45238095,4.75619048 L5.45238095,3.13047619 Z M5.45238095,1.13904762 L8.13619048,1.13904762 L8.13619048,2.76380952 L5.45238095,2.76380952 L5.45238095,1.13904762 Z M4.3552381,1.16190476 L5.07333333,1.16190476 L5.07333333,8.39619048 L4.3552381,8.39619048 L4.3552381,1.16190476 Z" id="Shape" fill-rule="nonzero"></path>
                <path d="M5.41929463,8.91142857 C5.49695592,9.12957664 5.59803574,9.33661689 5.71950857,9.52952381 L0.357142857,9.52952381 C0.161904762,9.52952381 0.00285714286,9.41333333 0.00380952381,9.26952381 L0.00380952381,0.264761905 C0.00380952381,0.121904762 0.161904762,0.00571428571 0.357142857,0.00571428571 L9.07238095,0.00571428571 C9.26857143,0.00571428571 9.42666667,0.121904762 9.42666667,0.264761905 L9.42666667,4.89244772 C9.23042416,4.8232289 9.02524846,4.77294317 8.81333333,4.7437843 L8.81333333,0.84952381 C8.81333333,0.724761905 8.6752381,0.623809524 8.50571429,0.623809524 L0.921904762,0.623809524 C0.752380952,0.623809524 0.614285714,0.724761905 0.614285714,0.84952381 L0.615238095,8.68571429 C0.615238095,8.81047619 0.752380952,8.91142857 0.922857143,8.91142857 L5.41929463,8.91142857 Z" id="Shape" fill-rule="nonzero"></path>
                <path d="M10.9723275,7.53262369 C10.9857294,7.6399216 10.9948833,7.74881649 10.9948833,7.8597108 C10.9948833,9.30465215 9.82335134,10.4761841 8.37840999,10.4761841 C7.28077991,10.4761841 6.34210685,9.79949245 5.95389373,8.84087631 L9.03252033,8.84087631 L8.05132288,9.82207375 L9.03252033,9.82207375 L10.0137178,8.84087631 L10.0137178,8.18676597 L5.78446051,8.18676597 C5.77106504,8.07949361 5.76190476,7.97057317 5.76190476,7.8597108 C5.76190476,6.41473751 6.9334367,5.24320557 8.37840999,5.24320557 C9.47600813,5.24320557 10.4146812,5.9199036 10.8029007,6.87851336 L7.72426771,6.87851336 L9.03252033,5.89731591 L8.05132288,5.89731591 L6.74310221,6.87851336 L6.74310221,7.53262369 L10.9723275,7.53262369 Z" id="Fill-1"></path>
            </g>
        </g>
    </g>
</svg>