<?xml version="1.0" encoding="UTF-8"?>
<svg width="43px" height="20px" viewBox="0 0 43 20" version="1.1" xmlns="http://www.w3.org/2000/svg" xmlns:xlink="http://www.w3.org/1999/xlink">
    <!-- Generator: Sketch 49 (51002) - http://www.bohemiancoding.com/sketch -->
    <title>Group 14</title>
    <desc>Created with Sketch.</desc>
    <defs>
        <polygon id="path-1" points="0.0010041841 0.00339514644 0.0010041841 12.0959958 11.9966485 12.0959958 11.9966485 0.00339514644"></polygon>
    </defs>
    <g id="Page-2" stroke="none" stroke-width="1" fill="none" fill-rule="evenodd">
        <g id="Group-14">
            <text id="解挂" fill="#D1DCDE" font-family="PingFangSC-Regular, PingFang SC" font-size="13" font-weight="normal">
                <tspan x="17" y="14">解挂</tspan>
            </text>
            <g id="jiegua" transform="translate(0.000000, 3.000000)">
                <mask id="mask-2" fill="white">
                    <use xlink:href="#path-1"></use>
                </mask>
                <g id="Clip-2"></g>
                <path d="M4.77779079,9.74063719 C4.44070293,10.0806073 3.89422594,10.0806073 3.55713808,9.74089024 L2.33648536,8.51028673 C1.99948117,8.17050216 1.99948117,7.61965336 2.33648536,7.27986879 L3.55693724,6.04972077 L2.33643515,4.81945466 L0.505556485,6.664896 C-0.168535565,7.34439766 -0.168535565,8.4459603 0.505556485,9.12539448 L2.94684519,11.5864159 C3.62100418,12.2659007 4.713841,12.2659007 5.38808368,11.586146 L7.21881172,9.74082276 L5.99824268,8.51048917 L4.77779079,9.74063719 Z M11.4909791,2.97386149 L9.04987448,0.513109958 C8.37571548,-0.166509791 7.28281172,-0.166509791 6.60858577,0.513109958 L4.7776569,2.35868626 L5.99824268,3.58903672 L7.21887866,2.35868626 C7.55603347,2.01871612 8.10244351,2.01898604 8.43953138,2.35868626 L9.66016736,3.5891042 C9.99718828,3.92875381 9.99725523,4.47946765 9.66016736,4.81938718 L8.43953138,6.04978825 L9.66005021,7.28013871 L11.4909791,5.43461302 C12.165205,4.75492579 12.165205,3.65336315 11.4909791,2.97386149 Z M3.55707113,2.35861878 C3.22005021,2.01898604 2.67357322,2.01871612 2.33643515,2.35861878 C1.99948117,2.6982009 1.99948117,3.24938711 2.33648536,3.58883428 L8.43959833,9.74089024 C8.77660251,10.0805398 9.32316318,10.0805398 9.66016736,9.74089024 C9.99725523,9.4009201 9.99718828,8.85025687 9.66016736,8.51048917 L3.55707113,2.35861878 Z" id="Fill-1" fill="#D1DCDE" mask="url(#mask-2)"></path>
            </g>
        </g>
    </g>
</svg>