<?xml version="1.0" encoding="UTF-8"?>
<svg width="42px" height="20px" viewBox="0 0 42 20" version="1.1" xmlns="http://www.w3.org/2000/svg" xmlns:xlink="http://www.w3.org/1999/xlink">
    <!-- Generator: Sketch 49 (51002) - http://www.bohemiancoding.com/sketch -->
    <title>Group 36</title>
    <desc>Created with Sketch.</desc>
    <defs></defs>
    <g id="Page-2" stroke="none" stroke-width="1" fill="none" fill-rule="evenodd">
        <g id="Group-36" fill="#D1DCDE">
            <text id="禁用" font-family="PingFangSC-Regular, PingFang SC" font-size="13" font-weight="normal">
                <tspan x="17" y="14">禁用</tspan>
            </text>
            <path d="M5.99578626,3.02676641 C6.82127634,3.02676641 7.60169771,3.18436031 8.32957557,3.49952977 C9.06498321,3.81469924 9.69532214,4.24244885 10.2356336,4.79027176 C10.7759634,5.33802137 11.2036214,5.96837863 11.5187908,6.69625649 C11.8339786,7.42422595 11.9915542,8.19711756 11.9915542,9.02255267 C11.9915542,9.85549924 11.8339786,10.6359756 11.5187908,11.3638718 C11.2036214,12.0917496 10.7759634,12.7296183 10.2356336,13.2699298 C9.69532214,13.8176794 9.05747176,14.245429 8.32957557,14.553087 C7.59418626,14.860745 6.82127634,15.0183206 5.99578626,15.0183206 C5.16283969,15.0183206 4.38241832,14.860745 3.65454046,14.553087 C2.92657099,14.245429 2.28879389,13.8101679 1.74848244,13.2699298 C1.20064122,12.7220885 0.772909924,12.0917496 0.465251908,11.3638718 C0.157593893,10.6359756 0,9.85549924 0,9.02255267 C0,8.19711756 0.157593893,7.42422595 0.465251908,6.69625649 C0.772909924,5.96837863 1.20815267,5.33050992 1.74848244,4.79027176 C2.29623206,4.24244885 2.92657099,3.81469924 3.65454046,3.49952977 C4.38241832,3.18436031 5.16283969,3.02676641 5.99578626,3.02676641 Z M5.95828397,4.67770992 C5.36542901,4.67770992 4.80265649,4.79027176 4.28487939,5.01534046 C3.75959084,5.24048244 3.30930687,5.54814046 2.91913282,5.93838779 C2.5288855,6.32856183 2.22122748,6.78635725 1.9960855,7.30413435 C1.77094351,7.8294229 1.65843664,8.38468397 1.65843664,8.97753893 C1.65843664,9.43526107 1.72592977,9.86301069 1.85353282,10.2607695 C1.9810626,10.658455 2.16119084,11.0336611 2.40128244,11.3788947 L8.35956641,5.42806718 C8.01440611,5.18795725 7.6392,5.00782901 7.23398473,4.87278779 C6.8287145,4.74518473 6.40105649,4.67770992 5.95828397,4.67770992 Z M5.95828397,13.2773679 C6.54360916,13.2773679 7.09887023,13.1648611 7.62415878,12.9397191 C8.14944733,12.7145771 8.5997313,12.4069191 8.98990534,12.0166718 C9.38015267,11.626516 9.68781069,11.1687023 9.91295267,10.6509435 C10.1380947,10.125655 10.2506015,9.57037557 10.2506015,8.97753893 C10.2506015,8.12203969 10.0255328,7.34914809 9.57523053,6.6437313 L3.62447634,12.5945038 C3.96970992,12.812116 4.33740458,12.9847328 4.72006718,13.1048244 C5.10278473,13.2174046 5.51551145,13.2773679 5.95828397,13.2773679 Z" id="jinyong"></path>
        </g>
    </g>
</svg>