<?xml version="1.0" encoding="UTF-8"?>
<svg width="43px" height="20px" viewBox="0 0 43 20" version="1.1" xmlns="http://www.w3.org/2000/svg" xmlns:xlink="http://www.w3.org/1999/xlink">
    <!-- Generator: Sketch 49 (51002) - http://www.bohemiancoding.com/sketch -->
    <title>Group 29</title>
    <desc>Created with Sketch.</desc>
    <defs>
        <polygon id="path-1" points="0.0010041841 0.00267782427 11.9966695 0.00267782427 11.9966695 9.94142262 0.0010041841 9.94142262"></polygon>
    </defs>
    <g id="Page-2" stroke="none" stroke-width="1" fill="none" fill-rule="evenodd">
        <g id="Group-29" transform="translate(0.000000, 1.000000)">
            <text id="开卡" fill="#D1DCDE" font-family="PingFangSC-Regular, PingFang SC" font-size="13" font-weight="normal">
                <tspan x="17" y="14">开卡</tspan>
            </text>
            <g id="kaika" transform="translate(0.000000, 4.000000)">
                <mask id="mask-2" fill="white">
                    <use xlink:href="#path-1"></use>
                </mask>
                <g id="path-1"></g>
                <path d="M11.0995649,0.00267782427 L0.897104604,0.00267782427 C0.404351464,0.00267782427 0,0.407029289 0,0.899782428 L0,1.83432636 L11.9966695,1.83432636 L11.9966695,0.901087866 C11.9966695,0.407029289 11.5936234,0.00267782427 11.0995649,0.00267782427 Z M0,2.94292887 L0,9.04431798 C0,9.53844354 0.404351464,9.94142262 0.897104604,9.94142262 L11.0995649,9.94142262 C11.5936234,9.94142262 11.9966695,9.53844354 11.9966695,9.04431798 L11.9966695,2.94292887 L0,2.94292887 Z M4.26596328,4.2582 L8.52116328,4.2582 L8.52116328,4.755 L7.65716328,4.755 L7.65716328,6.051 L8.79656328,6.051 L8.79656328,6.5478 L7.65716328,6.5478 L7.65716328,8.886 L7.14416328,8.886 L7.14416328,6.5478 L5.69696328,6.5478 C5.64296328,7.0878 5.54036328,7.536 5.37836328,7.8978 C5.17316328,8.3514 4.82756328,8.7024 4.34696328,8.9454 L4.07156328,8.5134 C4.50356328,8.2596 4.80056328,7.9356 4.95716328,7.5468 C5.05976328,7.266 5.12996328,6.9312 5.17316328,6.5478 L3.98516328,6.5478 L3.98516328,6.051 L5.21096328,6.051 C5.21096328,6.0078 5.21636328,5.9646 5.21636328,5.9322 L5.21636328,4.755 L4.26596328,4.755 L4.26596328,4.2582 Z M5.73476328,4.755 L5.73476328,5.9322 C5.73476328,5.9754 5.72936328,6.0132 5.72936328,6.051 L7.14416328,6.051 L7.14416328,4.755 L5.73476328,4.755 Z" id="Fill-1" fill="#D1DCDE" fill-rule="nonzero" mask="url(#mask-2)"></path>
            </g>
        </g>
    </g>
</svg>