<?xml version="1.0" encoding="UTF-8"?>
<svg width="42px" height="20px" viewBox="0 0 42 20" version="1.1" xmlns="http://www.w3.org/2000/svg" xmlns:xlink="http://www.w3.org/1999/xlink">
    <!-- Generator: Sketch 49 (51002) - http://www.bohemiancoding.com/sketch -->
    <title>Group 35</title>
    <desc>Created with Sketch.</desc>
    <defs></defs>
    <g id="Page-2" stroke="none" stroke-width="1" fill="none" fill-rule="evenodd">
        <g id="Group-35" fill="#D1DCDE">
            <text id="启用" font-family="PingFangSC-Regular, PingFang SC" font-size="13" font-weight="normal">
                <tspan x="17" y="14">启用</tspan>
            </text>
            <path d="M3.55530416,5.31606026 L3.55530416,7.09948063 C2.39601148,7.77033859 1.6160373,9.02419656 1.6160373,10.4603515 C1.6160373,12.6031105 3.35249067,14.3402425 5.49457102,14.3402425 C7.63660402,14.3402425 9.37304161,12.6031105 9.37304161,10.4603515 C9.37304161,9.02419656 8.59306743,7.77033859 7.43377475,7.09948063 L7.43377475,5.31606026 C9.51138594,6.10023242 10.9890947,8.10767719 10.9890947,10.4604146 C10.9890947,13.4960832 8.52908752,15.9569584 5.49457102,15.9569584 C2.46000717,15.9569584 0,13.4960832 0,10.4604778 C0,8.10767719 1.47770875,6.1001693 3.55530416,5.31606026 Z M4.68655237,3.83644189 C4.68655237,3.39011334 5.04817934,3.02836011 5.49457102,3.02836011 C5.9407891,3.02836011 6.30258967,3.39035007 6.30258967,3.83644189 L6.30258967,8.68452224 C6.30258967,9.13078766 5.94091535,9.49254089 5.49457102,9.49254089 C5.0483056,9.49254089 4.68655237,9.13053515 4.68655237,8.68445911 L4.68655237,3.83637877 L4.68655237,3.83644189 Z" id="kaiqi"></path>
        </g>
    </g>
</svg>