<?xml version="1.0" encoding="UTF-8"?>
<svg width="42px" height="20px" viewBox="0 0 42 20" version="1.1" xmlns="http://www.w3.org/2000/svg" xmlns:xlink="http://www.w3.org/1999/xlink">
    <!-- Generator: Sketch 49 (51002) - http://www.bohemiancoding.com/sketch -->
    <title>Group 39</title>
    <desc>Created with Sketch.</desc>
    <defs>
        <polygon id="path-1" points="0.0012 0.014309837 0.0012 14.16001 12.9968648 14.16001 12.9968648 0.014309837"></polygon>
    </defs>
    <g id="Page-2" stroke="none" stroke-width="1" fill="none" fill-rule="evenodd">
        <g id="Group-39">
            <text id="离职" fill="#D1DCDE" font-family="PingFangSC-Regular, PingFang SC" font-size="13" font-weight="normal">
                <tspan x="16" y="14">离职</tspan>
            </text>
            <g id="lizhi" transform="translate(0.000000, 2.000000)">
                <mask id="mask-2" fill="white">
                    <use xlink:href="#path-1"></use>
                </mask>
                <g id="Clip-2"></g>
                <path d="M11.20812,13.94132 C8.93672,14.79772 6.81422,13.01038 7.07492,10.81342 C7.22382,9.47296 8.34094,8.35584 9.68148,8.20686 C11.46882,8.0207 12.99546,9.39842 12.99546,11.18578 C13.03274,12.37734 12.32524,13.5317 11.20812,13.94132 Z M10.580469,11.18581 L11.3703497,11.9756907 C11.5283456,12.1336866 11.5282749,12.3443338 11.3703355,12.5022731 C11.2123538,12.6602549 11.0017066,12.6603256 10.8437107,12.5023297 L10.05383,11.712449 L9.2639493,12.5023297 C9.10595336,12.6603256 8.89530625,12.6602549 8.73732445,12.5022731 C8.57938508,12.3443338 8.57931437,12.1336866 8.73731031,11.9756907 L9.52719101,11.18581 L8.73731031,10.3959293 C8.57931437,10.2379334 8.57938508,10.0272862 8.73736688,9.86930445 C8.89530625,9.71136508 9.10595336,9.71129437 9.2639493,9.86929031 L10.05383,10.659171 L10.8437107,9.86929031 C11.0017066,9.71129437 11.2123538,9.71136508 11.3702931,9.86930445 C11.5282749,10.0272862 11.5283456,10.2379334 11.3703497,10.3959293 L10.580469,11.18581 Z M7.59624,6.82912 C8.04304,7.05256 8.45266,7.3132 8.825,7.61108 C6.9632,8.16968 5.88336,10.1432 6.47914,12.00498 C6.59086,12.37734 6.77704,12.71248 7.00046,13.04764 L2.79274,13.04764 L2.79274,11.48366 C2.79274,11.2603 2.60656,11.07412 2.38312,11.07412 C2.15968,11.07412 1.97352,11.2603 1.97352,11.48366 L1.97352,13.04764 L1.0054,13.04764 C0.44688,13.04764 0,12.60078 0,12.04226 C0,11.9678 0,11.89328 0.03726,11.85608 L0,11.85608 C0,9.69632 1.22882,7.7228 3.20234,6.82912 C2.19696,6.12162 1.60118,5.0046 1.60118,3.77578 C1.60118,1.65328 3.35124,-0.02236 5.43648,0.01492 C7.52172,0.0521 9.16016,1.69054 9.19734,3.77578 C9.19734,4.96734 8.60156,6.12162 7.59624,6.82912 Z" id="Fill-1" fill="#D1DCDE" mask="url(#mask-2)"></path>
            </g>
        </g>
        <g id="Group-38" transform="translate(-83.000000, 0.000000)" fill="#D1DCDE" font-family="PingFangSC-Regular, PingFang SC" font-size="13" font-weight="normal">
            <text id="密码修改">
                <tspan x="18" y="14">密码修改</tspan>
            </text>
        </g>
    </g>
</svg>