<?xml version="1.0" encoding="UTF-8"?>
<svg width="20px" height="19px" viewBox="0 0 20 19" version="1.1" xmlns="http://www.w3.org/2000/svg" xmlns:xlink="http://www.w3.org/1999/xlink">
    <!-- Generator: Sketch 47.1 (45422) - http://www.bohemiancoding.com/sketch -->
    <title>quxiaoyuyue</title>
    <desc>Created with Sketch.</desc>
    <defs></defs>
    <g id="Page-1" stroke="none" stroke-width="1" fill="none" fill-rule="evenodd">
        <g id="列表页" transform="translate(-1248.000000, -54.000000)" fill="#D1DCDE">
            <path d="M1260.98006,56.0494602 L1260.98006,54.6831534 C1260.98006,54.3415909 1260.63849,54 1260.29693,54 C1259.95534,54 1259.61378,54.3415909 1259.61378,54.6831534 L1259.61378,55.8786648 L1260.98006,55.8786648 L1260.98006,56.0494602 Z M1252.61136,56.0494602 L1252.61136,54.6831534 C1252.61136,54.3415909 1252.2698,54 1251.92821,54 C1251.58665,54 1251.24509,54.3415909 1251.24509,54.6831534 L1251.24509,55.8786648 L1252.61136,55.8786648 L1252.61136,56.0494602 Z M1259.61378,68.6879545 C1259.61378,65.9553409 1261.83401,63.9059091 1264.39594,63.9059091 L1264.39594,57.4158523 C1264.39594,56.7326136 1263.88358,56.2202557 1263.20031,56.2202557 L1260.80929,56.2202557 L1260.80929,57.4158523 C1260.80929,57.7574432 1260.4677,58.0990057 1260.12614,58.0990057 C1259.78455,58.0990057 1259.44298,57.7574432 1259.44298,57.4158523 L1259.44298,56.0494602 L1252.2698,56.0494602 L1252.2698,57.2450852 C1252.2698,57.5866477 1251.92821,57.9282386 1251.58665,57.9282386 C1251.24509,57.9282386 1250.90338,57.5866477 1250.90338,57.2450852 L1250.90338,56.0494602 L1249.19551,56.0494602 C1248.51236,56.0494602 1248,56.5618182 1248,57.2450852 L1248,71.4206534 C1248,72.1038068 1248.51236,72.6161648 1249.19551,72.6161648 L1262.17557,72.6161648 C1260.63849,72.1038068 1259.61378,70.3959375 1259.61378,68.6879545 Z M1249.02472,60.8316193 C1249.02472,60.4900284 1249.36631,60.1484659 1249.70787,60.1484659 L1262.51716,60.1484659 C1262.85872,60.1484659 1263.20031,60.4900284 1263.20031,60.8316193 C1263.20031,61.1731818 1262.85872,61.5147727 1262.51716,61.5147727 L1249.53707,61.5147727 C1249.19551,61.3439773 1249.02472,61.1731818 1249.02472,60.8316193 Z M1256.1979,70.225142 L1250.56182,70.225142 C1250.22023,70.225142 1249.87866,69.8835795 1249.87866,69.541875 C1249.87866,69.2003125 1250.22023,68.85875 1250.56182,68.85875 L1256.02713,68.85875 C1256.36869,68.85875 1256.71028,69.2003125 1256.71028,69.541875 C1256.71028,69.8835795 1256.53949,70.225142 1256.1979,70.225142 Z M1256.1979,66.2969318 L1250.56182,66.2969318 C1250.22023,66.2969318 1249.87866,65.9553409 1249.87866,65.6137784 C1249.87866,65.2721875 1250.22023,64.930625 1250.56182,64.930625 L1256.02713,64.930625 C1256.36869,64.930625 1256.71028,65.2721875 1256.71028,65.6137784 C1256.71028,66.1261364 1256.53949,66.2969318 1256.1979,66.2969318 Z M1264.39594,65.1014205 C1262.34636,65.1014205 1260.80929,66.6384943 1260.80929,68.6879545 C1260.80929,70.7375 1262.34636,72.2746023 1264.39594,72.2746023 C1266.44537,72.2746023 1267.98247,70.7375 1267.98247,68.6879545 C1267.98247,66.6384943 1266.44537,65.1014205 1264.39594,65.1014205 Z M1266.44537,69.8835795 C1266.61616,70.225142 1266.61616,70.566733 1266.44537,70.7375 C1266.10381,70.9082955 1265.76222,70.9082955 1265.59145,70.7375 L1264.5667,69.541875 L1263.54187,70.7375 C1263.37108,71.0790909 1262.85872,71.0790909 1262.68795,70.7375 C1262.34636,70.566733 1262.34636,70.0543466 1262.68795,69.8835795 L1263.88358,68.5171591 L1262.68795,67.1508523 C1262.51716,66.8092898 1262.51716,66.4676989 1262.68795,66.2969318 C1263.02952,66.1261364 1263.37108,66.1261364 1263.54187,66.2969318 L1264.5667,67.4924432 L1265.59145,66.2969318 C1265.76222,65.9553409 1266.2746,65.9553409 1266.44537,66.2969318 C1266.78696,66.4676989 1266.78696,66.9800852 1266.44537,67.1508523 L1265.24986,68.5171591 L1266.44537,69.8835795 Z" id="quxiaoyuyue"></path>
        </g>
    </g>
</svg>