<?xml version="1.0" encoding="UTF-8"?>
<svg width="68px" height="20px" viewBox="0 0 68 20" version="1.1" xmlns="http://www.w3.org/2000/svg" xmlns:xlink="http://www.w3.org/1999/xlink">
    <!-- Generator: Sketch 49 (51002) - http://www.bohemiancoding.com/sketch -->
    <title>Group 8</title>
    <desc>Created with Sketch.</desc>
    <defs></defs>
    <g id="Page-2" stroke="none" stroke-width="1" fill="none" fill-rule="evenodd">
        <g id="Group-8" fill="#D1DCDE">
            <text id="取消预约" font-family="PingFangSC-Regular, PingFang SC" font-size="13" font-weight="normal">
                <tspan x="17" y="14">取消预约</tspan>
            </text>
            <path d="M7.79486567,5.2307548 L7.79486567,4.4102516 C7.79486567,4.20513433 7.5897484,4 7.38463113,4 C7.1794968,4 6.97437953,4.20513433 6.97437953,4.4102516 L6.97437953,5.12818763 L7.79486567,5.12818763 L7.79486567,5.2307548 Z M2.7692452,5.2307548 L2.7692452,4.4102516 C2.7692452,4.20513433 2.56412794,4 2.35899361,4 C2.15387634,4 1.94875907,4.20513433 1.94875907,4.4102516 L1.94875907,5.12818763 L2.7692452,5.12818763 L2.7692452,5.2307548 Z M6.97437953,12.8205032 C6.97437953,11.1794968 8.30768443,9.94875907 9.8461919,9.94875907 L9.8461919,6.05130917 C9.8461919,5.64100639 9.53850747,5.33332196 9.12818763,5.33332196 L7.69231557,5.33332196 L7.69231557,6.05130917 C7.69231557,6.2564435 7.48718124,6.46156077 7.28206397,6.46156077 C7.07692964,6.46156077 6.87181237,6.2564435 6.87181237,6.05130917 L6.87181237,5.2307548 L2.56412794,5.2307548 L2.56412794,5.94875907 C2.56412794,6.15387634 2.35899361,6.35901067 2.15387634,6.35901067 C1.94875907,6.35901067 1.7435565,6.15387634 1.7435565,5.94875907 L1.7435565,5.2307548 L0.717936032,5.2307548 C0.307684434,5.2307548 0,5.53843923 0,5.94875907 L0,14.4615608 C0,14.8718124 0.307684434,15.1794968 0.717936032,15.1794968 L8.5128017,15.1794968 C7.5897484,14.8718124 6.97437953,13.8461919 6.97437953,12.8205032 Z M0.615368867,8.10256716 C0.615368867,7.89743284 0.820503197,7.69231557 1.02562047,7.69231557 L8.71793603,7.69231557 C8.9230533,7.69231557 9.12818763,7.89743284 9.12818763,8.10256716 C9.12818763,8.30768443 8.9230533,8.51281876 8.71793603,8.51281876 L0.923053301,8.51281876 C0.717936032,8.4102516 0.615368867,8.30768443 0.615368867,8.10256716 Z M4.9230533,13.7436247 L1.53843923,13.7436247 C1.3333049,13.7436247 1.12818763,13.5385075 1.12818763,13.3333049 C1.12818763,13.1281876 1.3333049,12.9230704 1.53843923,12.9230704 L4.8205032,12.9230704 C5.02562047,12.9230704 5.2307548,13.1281876 5.2307548,13.3333049 C5.2307548,13.5385075 5.12818763,13.7436247 4.9230533,13.7436247 Z M4.9230533,11.3846311 L1.53843923,11.3846311 C1.3333049,11.3846311 1.12818763,11.1794968 1.12818763,10.9743795 C1.12818763,10.7692452 1.3333049,10.5641279 1.53843923,10.5641279 L4.8205032,10.5641279 C5.02562047,10.5641279 5.2307548,10.7692452 5.2307548,10.9743795 C5.2307548,11.282064 5.12818763,11.3846311 4.9230533,11.3846311 Z M9.8461919,10.6666951 C8.61536887,10.6666951 7.69231557,11.5897484 7.69231557,12.8205032 C7.69231557,14.0513092 8.61536887,14.9743795 9.8461919,14.9743795 C11.0769296,14.9743795 12,14.0513092 12,12.8205032 C12,11.5897484 11.0769296,10.6666951 9.8461919,10.6666951 Z M11.0769296,13.5385075 C11.1794968,13.7436247 11.1794968,13.9487591 11.0769296,14.0513092 C10.8718124,14.1538763 10.666678,14.1538763 10.5641279,14.0513092 L9.94874201,13.3333049 L9.3333049,14.0513092 C9.23073773,14.2564435 8.9230533,14.2564435 8.8205032,14.0513092 C8.61536887,13.9487591 8.61536887,13.6410576 8.8205032,13.5385075 L9.53850747,12.717936 L8.8205032,11.8974328 C8.71793603,11.6923156 8.71793603,11.4871812 8.8205032,11.3846311 C9.02562047,11.282064 9.23073773,11.282064 9.3333049,11.3846311 L9.94874201,12.1025672 L10.5641279,11.3846311 C10.666678,11.1794968 10.9743795,11.1794968 11.0769296,11.3846311 C11.282064,11.4871812 11.282064,11.7948827 11.0769296,11.8974328 L10.3589936,12.717936 L11.0769296,13.5385075 Z" id="quxiaoyuyue"></path>
        </g>
    </g>
</svg>