<?xml version="1.0" encoding="UTF-8"?>
<svg width="69px" height="20px" viewBox="0 0 69 20" version="1.1" xmlns="http://www.w3.org/2000/svg" xmlns:xlink="http://www.w3.org/1999/xlink">
    <!-- Generator: Sketch 49 (51002) - http://www.bohemiancoding.com/sketch -->
    <title>Group 30</title>
    <desc>Created with Sketch.</desc>
    <defs></defs>
    <g id="Page-2" stroke="none" stroke-width="1" fill="none" fill-rule="evenodd">
        <g id="Group-30" transform="translate(0.000000, 1.000000)" fill="#D1DCDE">
            <text id="退还押金" font-family="PingFangSC-Regular, PingFang SC" font-size="13" font-weight="normal">
                <tspan x="17" y="14">退还押金</tspan>
            </text>
            <g id="tuiyajin" transform="translate(0.000000, 4.000000)">
                <path d="M10.8215718,5.52550892 C10.5667804,5.45458048 10.2982345,5.41666667 10.0208333,5.41666667 C8.37548502,5.41666667 7.04166667,6.75048502 7.04166667,8.39583333 C7.04166667,9.12075987 7.30058869,9.78521194 7.73099842,10.3017552 C7.02797957,10.6358189 6.24151606,10.822751 5.41140854,10.822751 C2.42284858,10.822751 0,8.39991565 0,5.41140854 C0,2.42284858 2.42284858,0 5.41140854,0 C8.39991565,0 10.822751,2.42284858 10.822751,5.41140854 C10.822751,5.44953535 10.8223567,5.4875701 10.8215718,5.52550892 Z M5.80892581,5.0939126 L7.53627439,5.0939126 C7.75559654,5.0939126 7.93524492,4.92289126 7.93524492,4.71150915 C7.93524492,4.50121037 7.75703659,4.32910569 7.53627439,4.32910569 L3.28508943,4.32910569 C3.06571443,4.32910569 2.88606606,4.49977033 2.88606606,4.71150915 C2.88606606,4.92145122 3.06426118,5.0939126 3.28508943,5.0939126 L5.01237195,5.0939126 L5.01237195,6.36593089 L3.28508943,6.36593089 C3.06571443,6.36593089 2.88606606,6.53659553 2.88606606,6.74833435 C2.88606606,6.95976931 3.06426118,7.1307378 3.28508943,7.1307378 L5.01237195,7.1307378 L5.01237195,8.27579472 C5.01237195,8.48614634 5.19058028,8.65819817 5.41140854,8.65819817 C5.63217073,8.65819817 5.81037907,8.48758638 5.81037907,8.27579472 L5.81037907,7.1303811 L7.31666565,7.1307378 C7.36384328,6.99033991 7.65158717,6.522597 7.83175151,6.36593089 C7.64761988,6.34553244 7.69722748,6.36593089 7.53771443,6.36593089 L5.80892581,6.36593089 L5.80892581,5.0939126 Z M4.14236501,2.18914294 C3.95069155,2.24050169 3.83566012,2.43828465 3.88729583,2.63099176 L4.07404061,3.32793276 C4.12538226,3.51954241 4.3227833,3.63473089 4.51584773,3.58299943 C4.70750842,3.5316441 4.8225909,3.33384747 4.77096886,3.1411914 L4.58422408,2.4442504 C4.53258836,2.25154329 4.33507212,2.13750723 4.14236501,2.18914294 Z M6.68040057,2.18913268 C6.48872712,2.13777394 6.2902155,2.25154329 6.23857978,2.4442504 L6.051835,3.1411914 C6.00049335,3.33280105 6.11385343,3.53125772 6.30691785,3.58298917 C6.49857854,3.6343445 6.69714121,3.52058883 6.74876325,3.32793276 L6.93550803,2.63099176 C6.98714374,2.43828465 6.87206126,2.24048801 6.68040057,2.18913268 Z" id="Fill-1"></path>
                <path d="M11.3738366,8.04441481 L11.3738366,7.8716934 L10.1490127,7.8716934 L10.1490127,8.27996804 L11.1382834,8.27996804 C11.305641,8.29049919 11.3841335,8.21200662 11.3738366,8.04441481 Z M10.1490127,7.62044166 L11.3738366,7.62044166 L11.3738366,7.21216702 L10.1490127,7.21216702 L10.1490127,7.62044166 Z M10.2903371,5.96099256 C8.79529172,5.96099256 7.58333333,7.1729434 7.58333333,8.66799628 C7.58333333,10.1630416 8.79529172,11.375 10.2903371,11.375 C11.7853899,11.375 12.9973408,10.1630416 12.9973408,8.66799628 C12.9973408,7.1729434 11.7853899,5.96099256 10.2903371,5.96099256 Z M11.9862599,9.64611634 L11.9862599,9.89736053 C11.1486181,9.73004068 10.6304161,9.31636448 10.4316614,8.6568381 L10.8242376,8.6568381 C10.9078975,8.82442992 10.9864278,8.96572408 11.0597908,9.08081125 C11.2690766,8.99715132 11.4209623,8.85582694 11.5151912,8.6568381 L11.8920386,8.6568381 C11.755874,8.93948687 11.5411867,9.14361285 11.2482409,9.26923873 C11.3947025,9.40542596 11.6407868,9.53105184 11.9862599,9.64611634 Z M9.75643654,6.96091527 L11.7507142,6.96091527 L11.7507142,8.06011332 C11.7610112,8.38472803 11.5936913,8.54691829 11.2482107,8.54691829 L10.1490127,8.54691829 L10.1490127,9.42629184 C10.2640772,9.39489482 10.4316614,9.33746455 10.6515162,9.25354021 C10.6304161,9.26410158 10.6461146,9.25894177 10.6986117,9.2378417 L10.6986117,9.50479196 C10.4262599,9.66184507 10.1122141,9.79800209 9.75643654,9.91305904 L9.75643654,6.96091527 Z M9.06551313,6.898091 C9.21197466,7.17043526 9.31136332,7.43199152 9.36386797,7.6832357 L8.97129184,7.6832357 C8.91878719,7.37972861 8.83509705,7.11793817 8.7200401,6.898091 L9.06551313,6.898091 Z M12.0961872,10.3370624 L9.81923815,10.3370624 C9.47378777,10.3370624 9.2382421,10.2374396 9.11261623,10.0386849 C8.96589028,10.2165737 8.75143712,10.3370624 8.46878835,10.399864 L8.46878835,10.1643108 C8.74090597,10.0595508 8.86652429,9.87650221 8.84566597,9.61471176 L8.84566597,8.26426197 L8.46878835,8.26426197 L8.46878835,7.99731927 L9.25394061,7.99731927 L9.25394061,9.52049047 C9.26423756,9.87650221 9.45808926,10.054391 9.83493666,10.054391 L12.096157,10.054391 L12.096157,10.3370624 L12.0961872,10.3370624 Z" id="Fill-1"></path>
            </g>
        </g>
    </g>
</svg>