<?xml version="1.0" encoding="UTF-8"?>
<svg width="82px" height="20px" viewBox="0 0 82 20" version="1.1" xmlns="http://www.w3.org/2000/svg" xmlns:xlink="http://www.w3.org/1999/xlink">
    <!-- Generator: Sketch 49 (51002) - http://www.bohemiancoding.com/sketch -->
    <title>Group 22</title>
    <desc>Created with Sketch.</desc>
    <defs>
        <polygon id="path-1" points="0.00109289617 0.00140255009 12.4118628 0.00140255009 12.4118628 13.333327 0.00109289617 13.333327"></polygon>
    </defs>
    <g id="Page-2" stroke="none" stroke-width="1" fill="none" fill-rule="evenodd">
        <g id="Group-22" transform="translate(0.000000, 1.000000)">
            <text id="修改销售员" fill="#D1DCDE" font-family="PingFangSC-Regular, PingFang SC" font-size="13" font-weight="normal">
                <tspan x="17" y="14">修改销售员</tspan>
            </text>
            <g id="xiugaixiaoshouyuan-" transform="translate(0.000000, 2.000000)">
                <mask id="mask-2" fill="white">
                    <use xlink:href="#path-1"></use>
                </mask>
                <g id="Clip-2"></g>
                <path d="M8.93125618,8.54637705 C7.92762603,8.96508086 7.22222222,9.95571804 7.22222222,11.1111111 C7.22222222,11.7536669 7.44039474,12.3452659 7.80670283,12.8158709 C7.09089152,12.8875837 6.32092006,12.9143716 5.5648816,12.9143716 C2.89005464,12.9143716 0,12.5781056 0,11.0989253 L0,10.6920765 C0,9.64947177 1.81899818,8.59386157 3.4524408,7.97734062 C3.45229508,7.98338798 3.45214936,7.98943534 3.45214936,7.99562842 C3.85145719,9.23872495 4.45041894,10.0674317 4.45041894,10.0674317 L5.44868852,8.5859745 C4.81336976,8.5859745 4.178051,7.95016393 3.94480874,7.69016393 L3.94480874,7.69009107 C4.10127505,7.50701275 4.22094718,7.19459016 4.03112933,6.70043716 C3.19836066,5.85650273 2.56908925,4.48903461 2.56908925,3.14311475 C2.56908925,1.08162113 3.94275046,0.00140255009 5.54908925,0.00140255009 C7.15440801,0.00140255009 8.53604736,1.08162113 8.53604736,3.14311475 C8.53604736,4.48362477 7.9032969,5.84568306 7.07537341,6.69162113 L7.07978142,6.69162113 C6.89449909,7.25058288 6.99027322,7.56087432 7.11826958,7.72759563 C6.86162113,8.00630237 6.25497268,8.5859745 5.6484153,8.5859745 L6.64666667,10.0674317 C6.64666667,10.0674317 7.24327869,9.24198543 7.64258652,8.00302368 C8.07697076,8.1576312 8.51716547,8.34108979 8.93125618,8.54637705 Z" id="Combined-Shape" fill="#D1DCDE" mask="url(#mask-2)"></path>
                <path d="M9.99835721,13.333327 C8.77196434,13.333327 7.77777778,12.3391404 7.77777778,11.112773 C7.77777778,9.88637377 8.77196434,8.89219357 9.99835721,8.89219357 C11.224731,8.89219357 12.2189112,9.88637377 12.2189112,11.112773 C12.2189112,12.3391404 11.224731,13.333327 9.99835721,13.333327 Z M8.83153136,11.6943967 C8.80297994,11.7229481 8.78522127,11.7625979 8.78522127,11.8066921 L8.78522127,12.1239223 C8.78522127,12.2111493 8.85628144,12.2825342 8.94383317,12.2825342 L9.26105699,12.2825342 C9.30483286,12.2825342 9.34448265,12.2644508 9.3733588,12.2362178 L10.8471633,10.7620694 L10.3056861,10.2205667 L8.83153136,11.6943967 Z M11.276689,10.1082649 L10.9594651,9.79106654 C10.9309328,9.76250876 10.8912639,9.74472461 10.8471633,9.74472461 C10.8030882,9.74472461 10.7634193,9.76250876 10.7348615,9.79106654 L10.5299395,9.99628781 L11.0714422,10.5377905 L11.2763642,10.3328621 C11.304922,10.3040115 11.322999,10.264368 11.322999,10.2205667 C11.322999,10.1767908 11.304922,10.137141 11.276689,10.1082649 Z" id="Fill-1" fill="#D1DCDE" mask="url(#mask-2)"></path>
            </g>
        </g>
    </g>
</svg>