<?xml version="1.0" encoding="UTF-8"?>
<svg width="68px" height="20px" viewBox="0 0 68 20" version="1.1" xmlns="http://www.w3.org/2000/svg" xmlns:xlink="http://www.w3.org/1999/xlink">
    <!-- Generator: Sketch 49 (51002) - http://www.bohemiancoding.com/sketch -->
    <title>Group 46</title>
    <desc>Created with Sketch.</desc>
    <defs></defs>
    <g id="Page-2" stroke="none" stroke-width="1" fill="none" fill-rule="evenodd">
        <g id="Group-46" transform="translate(0.000000, 1.000000)" fill="#D1DCDE">
            <text id="训练计划" font-family="PingFangSC-Regular, PingFang SC" font-size="13" font-weight="normal">
                <tspan x="17" y="14">训练计划</tspan>
            </text>
            <g id="xunlianjihua" transform="translate(0.000000, 2.000000)" fill-rule="nonzero">
                <path d="M10.741304,14.0194445 C8.941625,14.0194445 7.482923,12.5608 7.482923,10.7610417 C7.482923,8.96159446 8.941625,7.502425 10.741304,7.502425 C12.541067,7.502425 13.999923,8.96159446 13.999923,10.7610417 C13.999923,12.5608 12.540752,14.0194445 10.741304,14.0194445 Z M13.034392,10.8817333 C13.034392,10.7485195 12.926004,10.64035 12.793004,10.64035 L11.103169,10.64035 L11.103169,9.19236108 C11.103169,9.05889446 10.995229,8.95095831 10.861998,8.95095831 L10.620617,8.95095831 C10.487092,8.95095831 10.379229,9.05889446 10.379229,9.19236108 L10.379229,11.12335 C10.379229,11.2566611 10.487169,11.3647333 10.620617,11.3647333 L12.793004,11.3647333 C12.926221,11.3647333 13.034392,11.25635 13.034392,11.12335 L13.034392,10.8817333 Z M7.078617,8.70936108 L2.655079,8.70936108 C2.254952,8.70936108 1.930775,9.03353892 1.930775,9.43327777 L1.930775,9.67466108 C1.930775,10.0748667 2.254875,10.3990445 2.655079,10.3990445 L6.529306,10.3990445 C6.524,10.479175 6.517,10.5587805 6.517,10.6401361 C6.517,11.6911083 6.967121,12.63395 7.681842,13.2955861 L1.930775,13.2955861 C0.864598,13.2955861 0,12.4312222 0,11.3645778 L0,1.95074446 C0,0.8841 0.864829,0.01996946 1.930775,0.01996946 L7.482769,0.01996946 L7.482769,1.46797777 C7.482769,2.53468054 8.347129,3.39927777 9.413544,3.39927777 L11.34455,3.39927777 L11.34455,7.23020277 C10.966592,7.09623054 10.561523,7.01973608 10.137694,7.01973608 C8.848973,7.01944446 7.720202,7.69506108 7.078694,8.70936108 L7.078617,8.70936108 Z M9.172394,6.05389169 C9.172394,5.65423054 8.848217,5.33005277 8.448223,5.33005277 L2.655156,5.33005277 C2.254952,5.33005277 1.930775,5.65415277 1.930775,6.05389169 L1.930775,6.295275 C1.930775,6.69548054 2.254952,7.01921108 2.655156,7.01921108 L8.448223,7.01921108 C8.848217,7.01944446 9.172394,6.69579169 9.172394,6.29558608 L9.172394,6.05389169 Z M10.862229,2.67489446 L8.689758,2.67489446 C8.4231,2.67489446 8.206758,2.45880831 8.206758,2.19212777 L8.206758,0.01965831 L8.930698,0.01965831 L11.344473,2.19212777 C11.344767,2.45880831 11.128677,2.67489446 10.862229,2.67489446 Z"></path>
            </g>
        </g>
    </g>
</svg>