<?xml version="1.0" encoding="UTF-8"?>
<svg width="29px" height="20px" viewBox="0 0 29 20" version="1.1" xmlns="http://www.w3.org/2000/svg" xmlns:xlink="http://www.w3.org/1999/xlink">
    <!-- Generator: Sketch 47.1 (45422) - http://www.bohemiancoding.com/sketch -->
    <title>icon_sijiaoleixing</title>
    <desc>Created with Sketch.</desc>
    <defs>
        <polygon id="path-1" points="4.06185061 19.3851252 8.08914764 19.3851252 8.08914764 0.0540132548 4.06185061 0.0540132548 0.0345535714 0.0540132548 0.0345535714 19.3851252 4.06185061 19.3851252"></polygon>
    </defs>
    <g id="Page-1" stroke="none" stroke-width="1" fill="none" fill-rule="evenodd">
        <g id="Artboard" transform="translate(-182.000000, -18.000000)">
            <g id="icon_sijiaoleixing" transform="translate(182.000000, 18.000000)">
                <path d="M3.88658505,6.01560199 C3.88658505,8.64684278 6.01977725,10.780035 8.6509352,10.780035 C11.282176,10.780035 13.4153682,8.64684278 13.4153682,6.01560199 C13.4153682,3.38444404 11.282176,1.25125184 8.6509352,1.25125184 C6.01977725,1.25125184 3.88658505,3.38444404 3.88658505,6.01560199" id="Fill-1" fill="#009CFF"></path>
                <path d="M4.86122607,10.4282944 C2.11127209,11.7680219 0.176404639,14.520544 0.000695876289,17.7413743 C-0.0135530191,18.0015823 0.193304492,18.2207005 0.454092415,18.2207005 L16.8481922,18.2207005 C17.1086487,18.2207005 17.3154234,18.0015823 17.3011745,17.7413743 C17.1254658,14.520544 15.1906811,11.7680219 12.4406443,10.4282944 C12.2885457,10.3544818 12.1077007,10.3722929 11.9720876,10.4732778 C11.0456609,11.1648463 9.89589102,11.5741707 8.6509352,11.5741707 C7.40606222,11.5741707 6.25629234,11.1648463 5.32978277,10.4732778 C5.19425258,10.3719615 5.01332474,10.3542332 4.86122607,10.4282944" id="Fill-3" fill="#009CFF"></path>
                <g id="Group-7" transform="translate(20.810015, 0.028829)">
                    <mask id="mask-2" fill="white">
                        <use xlink:href="#path-1"></use>
                    </mask>
                    <g id="Clip-6"></g>
                    <path d="M8.08915593,6.819919 C8.08915593,7.52855302 7.50909334,8.10853277 6.80021079,8.10853277 L1.32316734,8.10853277 C0.614367636,8.10853277 0.0345535714,7.52855302 0.0345535714,6.819919 L0.0345535714,1.34254418 C0.0345535714,0.633744477 0.614367636,0.0540132548 1.32316734,0.0540132548 L6.80021079,0.0540132548 C7.50909334,0.0540132548 8.08915593,0.633993004 8.08915593,1.34254418 L8.08915593,6.819919 Z M8.08915593,18.0962629 C8.08915593,18.8051454 7.50909334,19.3851252 6.80021079,19.3851252 L1.32316734,19.3851252 C0.614367636,19.3851252 0.0345535714,18.8051454 0.0345535714,18.0962629 L0.0345535714,12.6192194 C0.0345535714,11.9104197 0.614367636,11.3302743 1.32316734,11.3302743 L6.80021079,11.3302743 C7.50909334,11.3302743 8.08915593,11.9104197 8.08915593,12.6192194 L8.08915593,18.0962629 Z" id="Fill-5" fill="#A7DDFF" mask="url(#mask-2)"></path>
                </g>
            </g>
        </g>
    </g>
</svg>