<?xml version="1.0" encoding="UTF-8"?>
<svg width="24px" height="23px" viewBox="0 0 24 23" version="1.1" xmlns="http://www.w3.org/2000/svg" xmlns:xlink="http://www.w3.org/1999/xlink">
    <!-- Generator: Sketch 47.1 (45422) - http://www.bohemiancoding.com/sketch -->
    <title>icon_shoupai</title>
    <desc>Created with Sketch.</desc>
    <defs>
        <polygon id="path-1" points="0.00194594595 0.0125148088 0.00194594595 22.5405413 23.9830556 22.5405413 23.9830556 0.0125148088"></polygon>
    </defs>
    <g id="Page-1" stroke="none" stroke-width="1" fill="none" fill-rule="evenodd">
        <g id="Artboard" transform="translate(-25.000000, -18.000000)">
            <g id="icon_shoupai" transform="translate(25.000000, 18.000000)">
                <path d="M3.78029189,18.4107243 C3.91342703,17.9442486 4.30858378,17.7860108 4.8720973,17.7319135 C5.57964324,17.6633838 6.55287568,17.7586703 7.60475676,17.6141189 C9.43164324,17.3632541 11.4120324,16.6640757 13.5058378,15.8296865 C17.2483459,14.1043135 18.177373,12.1644324 19.1608541,10.7625081 C20.1443351,9.36055135 20.6322162,7.49912432 20.9364,6.96690811 C21.352573,6.23983784 22.2682703,6.34294054 22.9444216,6.34294054 C23.3745405,6.34294054 23.8459459,6.59263784 23.9419784,7.19023784 C24.3862703,14.0818703 21.1349189,16.481773 18.6146919,18.7266811 C14.8926811,21.5788541 9.27149189,22.5405405 7.28147027,22.5405405 C5.41939459,22.5420649 3.77837838,20.1953838 3.78029189,18.4107243 Z" id="Path" fill="#A7DDFF"></path>
                <mask id="mask-2" fill="white">
                    <use xlink:href="#path-1"></use>
                </mask>
                <g id="Clip-2"></g>
                <path d="M0.0371351351,13.7853081 C-0.207502703,9.49193514 0.747210811,7.41168649 3.17912432,5.46625946 C5.82606486,3.34877838 10.1193081,1.95531892 12.0029189,1.32353514 C13.6037514,0.786486486 18.0953838,-0.425545946 20.1988216,0.176108108 C22.7337405,0.901135135 23.4771568,3.42681081 23.6851784,5.11608649 C21.9051892,4.88412973 18.2106811,6.05867027 17.6932865,6.22855135 C19.4700973,5.62955676 10.3805189,8.56355676 7.68674595,9.83260541 C1.86778378,12.5734054 2.16804324,17.1942486 2.38696216,20.8592432 C1.26638919,19.5206595 0.282259459,18.0876649 0.0371351351,13.7853081 Z M8.31917838,4.71447568 L9.63016216,6.92659459 L18.6690486,3.74581622 L17.1275027,1.52241081 L8.31917838,4.71447568 Z" id="Fill-1" fill="#009CFF" mask="url(#mask-2)"></path>
            </g>
        </g>
    </g>
</svg>