<?xml version="1.0" encoding="UTF-8"?>
<svg width="18px" height="18px" viewBox="0 0 18 18" version="1.1" xmlns="http://www.w3.org/2000/svg" xmlns:xlink="http://www.w3.org/1999/xlink">
    <!-- Generator: Sketch 47.1 (45422) - http://www.bohemiancoding.com/sketch -->
    <title>设置的副本 copy</title>
    <desc>Created with Sketch.</desc>
    <defs></defs>
    <g id="Page-1" stroke="none" stroke-width="1" fill="none" fill-rule="evenodd">
        <g id="首页-私教经理-" transform="translate(-1230.000000, -491.000000)" fill="#A3B1BA">
            <path d="M1246.43072,501.945751 L1247.95511,501.945751 L1247.95511,498.09806 L1246.43072,498.09806 C1244.88441,498.09806 1244.51619,497.204905 1245.60661,496.113392 L1246.68604,495.03393 L1243.96495,492.31391 L1242.88659,493.392272 C1241.79397,494.484863 1240.89974,494.114471 1240.903,492.570332 C1240.903,492.565955 1240.9008,492.563756 1240.9008,492.560479 L1240.9008,491.044888 L1237.05481,491.044888 L1237.05481,492.574753 C1237.05043,494.115594 1236.15948,494.483808 1235.0685,493.392317 L1233.98958,492.313955 L1231.26958,495.03393 L1232.34795,496.113392 C1233.44002,497.204883 1233.06958,498.09806 1231.526,498.09806 L1230,498.09806 L1230,501.945751 L1231.52605,501.945751 C1233.06963,501.945751 1233.44002,502.838905 1232.34799,503.931496 L1231.26963,505.009858 L1233.98965,507.730978 L1235.06857,506.651539 C1236.15952,505.561102 1237.0505,505.929317 1237.05488,507.46908 L1237.05488,509 L1240.90093,509 L1240.90093,507.484364 C1240.90093,507.481065 1240.90313,507.477788 1240.90313,507.474511 C1240.89983,505.930416 1241.79408,505.56108 1242.88672,506.651494 L1243.96508,507.730933 L1246.68618,505.009835 L1245.60674,503.931474 C1244.51621,502.838905 1244.88443,501.945751 1246.43072,501.945751 Z M1238.97756,503.389027 C1237.11835,503.389027 1235.61097,501.881067 1235.61097,500.022444 C1235.61097,498.16382 1237.11835,496.65586 1238.97756,496.65586 C1240.83618,496.65586 1242.34414,498.16382 1242.34414,500.022444 C1242.34414,501.881067 1240.83618,503.389027 1238.97756,503.389027 L1238.97756,503.389027 Z" id="设置的副本-copy"></path>
        </g>
    </g>
</svg>