<?xml version="1.0" encoding="UTF-8"?>
<svg width="20px" height="25px" viewBox="0 0 20 25" version="1.1" xmlns="http://www.w3.org/2000/svg" xmlns:xlink="http://www.w3.org/1999/xlink">
    <!-- Generator: Sketch 47.1 (45422) - http://www.bohemiancoding.com/sketch -->
    <title>one</title>
    <desc>Created with Sketch.</desc>
    <defs></defs>
    <g id="Page-1" stroke="none" stroke-width="1" fill="none" fill-rule="evenodd">
        <g id="one">
            <path d="M15.5107132,20.9549014 L19.2491047,22.920607 L15.6036722,12.9189378 C15.4137481,12.4370258 14.879302,12.1886495 14.3885281,12.354264 L10.8379059,13.6659181 C10.3574203,13.8571472 10.1108346,14.3912291 10.2768134,14.8810622 L13.9203642,24.8790592 L15.508953,20.9477997 L15.5107132,20.9549014 Z M4.57820941,20.9549014 L6.16676783,24.8861608 L9.81044006,14.8810622 C9.97641882,14.3912291 9.72983308,13.8571472 9.2493475,13.6659181 L5.70039454,12.354264 C5.21056146,12.1883156 4.67660091,12.4349014 4.48525038,12.9153869 L0.841699545,22.9169044 L4.57996965,20.9513505 L4.57820941,20.9549014 Z" id="Fill-1" fill="#EE4A4A"></path>
            <polygon id="Fill-2" fill="#FFDF34" points="9.99799697 19.2733839 5.51274659 19.5520789 3.08242792 15.9085584 0 12.6384522 1.30810319 8.34072838 1.96212443 3.94843703 6.16676783 2.35984825 9.99799697 0.0242792109 13.8291958 2.35984825 18.0339605 3.94843703 18.6880121 8.34072838 19.996085 12.6384522 16.9117451 15.9085584 14.4832473 19.5520789"></polygon>
            <path d="M9.99799697,16.8430956 C13.6101062,16.8430956 16.5383308,13.914871 16.5383308,10.3028832 C16.5383308,6.69074355 13.6101062,3.76254932 9.99799697,3.76254932 C6.38597876,3.76254932 3.45778452,6.69074355 3.45778452,10.3028832 C3.44722307,12.0405766 4.13292868,13.710258 5.36169954,14.9391502 C6.59059181,16.1679514 8.26027314,16.8536267 9.99799697,16.8430956 Z" id="Fill-3" fill="#E9B82E"></path>
            <path d="M11.7724431,5.91056146 L11.7724431,14.0393627 L9.52983308,14.0393627 L9.52983308,8.71429439 C9.15638847,8.99477997 8.78285281,9.18066768 8.50233687,9.36822458 C8.10176024,9.6093475 7.65708649,9.76798179 7.19426404,9.83471927 L7.19426404,7.96731411 C7.81047041,7.74206373 8.40443096,7.46027314 8.96874052,7.12558422 C9.43511381,6.84509863 9.71572079,6.37872534 9.99620637,5.81763278 L11.7706829,5.81763278 L11.7706829,5.91056146 L11.7724431,5.91056146 Z" id="Fill-4" fill="#FFEF9A"></path>
        </g>
    </g>
</svg>