<?xml version="1.0" encoding="UTF-8"?>
<svg width="18px" height="23px" viewBox="0 0 18 23" version="1.1" xmlns="http://www.w3.org/2000/svg" xmlns:xlink="http://www.w3.org/1999/xlink">
    <!-- Generator: Sketch 47.1 (45422) - http://www.bohemiancoding.com/sketch -->
    <title>two</title>
    <desc>Created with Sketch.</desc>
    <defs></defs>
    <g id="Page-1" stroke="none" stroke-width="1" fill="none" fill-rule="evenodd">
        <g id="two">
            <path d="M13.9596419,18.8594112 L17.3241942,20.6285463 L14.043305,11.627044 C13.8723733,11.1933232 13.3913718,10.9697845 12.9496753,11.1188376 L9.75411533,12.2993263 C9.3216783,12.4714325 9.09975114,12.9521062 9.24913202,13.392956 L12.5283278,22.3911533 L13.9580577,18.8530197 L13.9596419,18.8594112 Z M4.12038847,18.8594112 L5.55009105,22.3975448 L8.82939605,13.392956 C8.97877693,12.9521062 8.75684977,12.4714325 8.32441275,12.2993263 L5.13035508,11.1188376 C4.68950531,10.9694841 4.20894082,11.1914112 4.03672534,11.6238483 L0.75752959,20.625214 L4.12197269,18.8562155 L4.12038847,18.8594112 Z" id="Fill-1" fill="#3982CD"></path>
            <polygon id="Fill-2" fill="#C6DFE7" points="8.99819727 17.3460455 4.96147193 17.596871 2.77418513 14.3177026 0 11.374607 1.17729287 7.50665554 1.76591199 3.55359332 5.55009105 2.12386343 8.99819727 0.0218512898 12.4462762 2.12386343 16.2305645 3.55359332 16.8192109 7.50665554 17.9964765 11.374607 15.2205706 14.3177026 13.0349226 17.596871"></polygon>
            <path d="M8.8862994,14.7724917 C12.1371977,14.7724917 14.7725999,12.1370895 14.7725999,8.88630046 C14.7725999,5.63537481 12.1371977,3 8.8862994,3 C5.63548301,3 3.0001082,5.63537481 3.0001082,8.88630046 C2.99060289,10.4502246 3.60773794,11.9529378 4.71363172,13.0589408 C5.81963475,14.1648619 7.32234795,14.7819697 8.8862994,14.7724917 Z" id="Fill-3" fill="#E7F9FD"></path>
            <text id="2" font-family="Arial-Black, Arial Black" font-size="8" font-weight="700" fill="#5B8390">
                <tspan x="6.33203125" y="12">2</tspan>
            </text>
        </g>
    </g>
</svg>