<?xml version="1.0" encoding="UTF-8"?>
<svg width="40px" height="40px" viewBox="0 0 40 40" version="1.1" xmlns="http://www.w3.org/2000/svg" xmlns:xlink="http://www.w3.org/1999/xlink">
    <!-- Generator: Sketch 47.1 (45422) - http://www.bohemiancoding.com/sketch -->
    <title>btn_yijianqingchang</title>
    <desc>Created with Sketch.</desc>
    <defs>
        <linearGradient x1="50%" y1="5.88961745%" x2="50%" y2="95.5230931%" id="linearGradient-1">
            <stop stop-color="#D0A6FF" offset="0%"></stop>
            <stop stop-color="#6F0EBC" offset="97.3353795%"></stop>
        </linearGradient>
        <circle id="path-2" cx="20" cy="20" r="20"></circle>
        <filter x="-5.0%" y="-5.0%" width="110.0%" height="110.0%" filterUnits="objectBoundingBox" id="filter-3">
            <feGaussianBlur stdDeviation="1.5" in="SourceAlpha" result="shadowBlurInner1"></feGaussianBlur>
            <feOffset dx="0" dy="1" in="shadowBlurInner1" result="shadowOffsetInner1"></feOffset>
            <feComposite in="shadowOffsetInner1" in2="SourceAlpha" operator="arithmetic" k2="-1" k3="1" result="shadowInnerInner1"></feComposite>
            <feColorMatrix values="0 0 0 0 1   0 0 0 0 0.908792435   0 0 0 0 0.877446338  0 0 0 1 0" type="matrix" in="shadowInnerInner1"></feColorMatrix>
        </filter>
        <polygon id="path-4" points="0.00155440415 0.0172120238 0.00155440415 20.0000158 19.9884175 20.0000158 19.9884175 0.0172120238"></polygon>
    </defs>
    <g id="Page-1" stroke="none" stroke-width="1" fill="none" fill-rule="evenodd">
        <g id="列表页" transform="translate(-970.000000, -92.000000)">
            <g id="btn_yijianqingchang" transform="translate(970.000000, 92.000000)">
                <g id="Oval-5-Copy-7">
                    <use fill="url(#linearGradient-1)" fill-rule="evenodd" xlink:href="#path-2"></use>
                    <use fill="black" fill-opacity="1" filter="url(#filter-3)" xlink:href="#path-2"></use>
                </g>
                <g id="清理空间" transform="translate(10.000000, 10.000000)">
                    <mask id="mask-5" fill="white">
                        <use xlink:href="#path-4"></use>
                    </mask>
                    <g id="Clip-2"></g>
                    <path d="M4.57030968,10.283871 L2.42837419,10.283871 C2.1917871,10.283871 2,10.0920839 2,9.85549677 L2,8.99871613 C2,8.52550323 2.38359355,8.14193548 2.85678065,8.14193548 L4.14193548,8.14193548 C4.61512258,8.14193548 4.99871613,8.52550323 4.99871613,8.99871613 L4.99871613,9.85549677 C4.99871613,10.0920839 4.80692903,10.283871 4.57030968,10.283871 Z M2.42837419,7.07086452 C2.42837419,6.47953548 2.90789032,6 3.49924516,6 C4.0906,6 4.57030968,6.47953548 4.57030968,7.07086452 C4.57030968,7.66227097 4.09062581,8.14193548 3.49924516,8.14193548 C2.90789032,8.14193548 2.42837419,7.66227097 2.42837419,7.07086452 Z" id="Fill-1" fill="#ECDCFF" mask="url(#mask-5)"></path>
                    <path d="M1.3703157,5.28387097 L0.228380218,5.28387097 C0.10224794,5.28387097 0,5.18162303 0,5.05549075 L0,4.59871312 C0,4.34642792 0.204506199,4.14193548 0.456777633,4.14193548 L1.14193548,4.14193548 C1.39420692,4.14193548 1.59871312,4.34642792 1.59871312,4.59871312 L1.59871312,5.05549075 C1.59871312,5.18162303 1.49646518,5.28387097 1.3703157,5.28387097 Z M0.228380218,3.57091271 C0.228380218,3.25565597 0.484025865,3 0.799296366,3 C1.11456687,3 1.3703157,3.25565597 1.3703157,3.57091271 C1.3703157,3.88621073 1.11458063,4.14193548 0.799296366,4.14193548 C0.484025865,4.14193548 0.228380218,3.88621073 0.228380218,3.57091271 Z" id="Fill-1-Copy" fill="#ECDCFF" mask="url(#mask-5)"></path>
                    <path d="M4.3703157,4.28387097 L3.22838022,4.28387097 C3.10224794,4.28387097 3,4.18162303 3,4.05549075 L3,3.59871312 C3,3.34642792 3.2045062,3.14193548 3.45677763,3.14193548 L4.14193548,3.14193548 C4.39420692,3.14193548 4.59871312,3.34642792 4.59871312,3.59871312 L4.59871312,4.05549075 C4.59871312,4.18162303 4.49646518,4.28387097 4.3703157,4.28387097 Z M3.22838022,2.57091271 C3.22838022,2.25565597 3.48402586,2 3.79929637,2 C4.11456687,2 4.3703157,2.25565597 4.3703157,2.57091271 C4.3703157,2.88621073 4.11458063,3.14193548 3.79929637,3.14193548 C3.48402586,3.14193548 3.22838022,2.88621073 3.22838022,2.57091271 Z" id="Fill-1-Copy-2" fill="#ECDCFF" mask="url(#mask-5)"></path>
                    <path d="M13.2005959,15.2266839 C13.0838083,15.6829793 12.5002073,16.6803886 11.5770725,18.0174352 C11.8316839,18.0810881 12.0757772,18.1448446 12.3198705,18.187228 C12.765544,18.2721503 13.2218394,18.3358031 13.667513,18.4100777 C13.8160881,18.441943 13.8903627,18.3781865 13.9646373,18.2721503 C14.8665285,16.9244819 15.5987824,15.4919171 16.2036528,13.9956995 C16.4476425,13.4120984 16.6493264,12.807228 16.8721762,12.2236269 C16.8933161,12.1599741 16.9145596,12.106943 16.9464508,12.0326684 C17.4345337,12.2023834 17.9014508,12.3615544 18.4001554,12.5313731 C18.3152591,12.7859845 18.2303368,13.0406995 18.1454404,13.274171 C17.4026425,15.3327461 16.4795078,17.3065026 15.2485492,19.1316062 C15.142487,19.2801813 15.0256995,19.4287306 14.930285,19.5772798 C14.6968135,19.9275389 14.3784456,20.033601 13.9646373,19.9911917 C12.3941451,19.8426425 10.8766839,19.4818653 9.40170984,18.9300259 C6.72766839,17.9218912 4.41437824,16.3832642 2.58914508,14.1548964 C2.36632124,13.8896632 2.30266839,13.5925389 2.45121762,13.2847927 C2.58914508,12.9876684 2.85450777,12.8497409 3.17277202,12.8391192 C4.56292746,12.8178497 5.91056995,12.5419948 7.20510363,12.0538083 C8.38305699,11.6081347 9.44411917,10.9926425 10.2718135,10.0270207 C10.505285,9.74051813 10.7068653,9.42225389 10.929715,9.11450777 C11.3542228,9.35849741 11.7892746,9.60259067 12.2667358,9.86792746 C12.0227461,10.2287047 11.7999223,10.5894819 11.5345596,10.9183679 C10.8979275,11.7249223 10.0914767,12.3403109 9.20012953,12.8284974 C7.85246114,13.5712694 6.40927461,14.0063212 4.89181347,14.2504145 C4.86005181,14.2504145 4.82816062,14.2610363 4.76450777,14.2715803 C4.97673575,14.4732642 5.16779793,14.653601 5.35875648,14.812772 C5.73015544,15.1205181 6.11217617,15.4176425 6.50481865,15.6934974 C6.57909326,15.7466321 6.71702073,15.7677979 6.80194301,15.7466321 C7.57650259,15.5661917 8.28751295,15.2584456 8.88176166,14.7067358 C8.82873057,14.9825907 8.34054404,15.6617358 7.6507772,16.4362953 C8.08582902,16.6486269 8.52098446,16.8395855 8.92417098,17.0836788 C9.45474093,17.391399 9.9534456,17.3065026 10.4733938,17.0836788 C11.343601,16.7016321 12.0970207,16.1391969 12.8079534,15.5238083 C12.9565026,15.4495078 13.0626684,15.3433679 13.2005959,15.2266839 Z M18.8670984,11.2473575 C16.4158549,10.1544301 13.9858031,9.07202073 11.5345596,7.97906736 C11.7362694,7.51215026 12.0545337,7.15137306 12.4895855,6.89665803 C13.2112176,6.47222798 13.9540155,6.42981865 14.7179534,6.75873057 C15.6942228,7.18323834 16.681114,7.61829016 17.6467358,8.06396373 C18.7821762,8.59455959 19.3233938,9.78303109 18.9731347,10.9608808 C18.9413731,11.0457772 18.8988601,11.1412176 18.8670984,11.2473575 Z M17.7740415,6.97093264 C16.9994819,6.63142487 16.2354404,6.29189119 15.4819948,5.95227979 C15.4608549,5.94165803 15.4502332,5.93101036 15.4289896,5.90987047 C15.4608549,5.85673575 15.4819948,5.7930829 15.513886,5.74005181 C16.468886,3.94673575 17.423886,2.16401554 18.3789119,0.370673575 C18.5380829,0.0735751295 18.7291451,-0.0219689119 19.0686788,0.0311658031 C19.3870466,0.0735751295 19.6522798,0.211502591 19.8539637,0.455595855 C19.9919171,0.614766839 20.0236788,0.795103627 19.9494041,1.00733161 C19.2384715,2.97046632 18.5274611,4.93360104 17.8165544,6.8861399 L17.7740415,6.97093264 Z" id="Fill-1" fill="#ECDCFF" mask="url(#mask-5)"></path>
                </g>
            </g>
        </g>
    </g>
</svg>