<?xml version="1.0" encoding="UTF-8"?>
<svg width="69px" height="20px" viewBox="0 0 69 20" version="1.1" xmlns="http://www.w3.org/2000/svg" xmlns:xlink="http://www.w3.org/1999/xlink">
    <!-- Generator: Sketch 49 (51002) - http://www.bohemiancoding.com/sketch -->
    <title>Group 37</title>
    <desc>Created with Sketch.</desc>
    <defs>
        <polygon id="path-1" points="0.00102439024 0.0136585366 0.00102439024 13.9999829 10.489722 13.9999829 10.489722 0.0136585366"></polygon>
    </defs>
    <g id="Page-2" stroke="none" stroke-width="1" fill="none" fill-rule="evenodd">
        <g id="Group-37">
            <text id="密码初始" fill="#D1DCDE" font-family="PingFangSC-Regular, PingFang SC" font-size="13" font-weight="normal">
                <tspan x="17" y="14">密码初始</tspan>
            </text>
            <g id="chushimima" transform="translate(0.000000, 3.000000)">
                <mask id="mask-2" fill="white">
                    <use xlink:href="#path-1"></use>
                </mask>
                <g id="Clip-2"></g>
                <path d="M8.91625854,4.85670244 L7.34279512,4.85670244 L7.34279512,4.2708878 C7.34279512,3.28323902 7.07169024,1.63067561 5.24486098,1.63067561 C3.34813415,1.63067561 3.14692683,3.4753122 3.14692683,4.2708878 L3.14692683,4.85670244 L1.57346341,4.85670244 L1.57346341,4.2708878 C1.57346341,1.68343171 3.01568537,0.0136585366 5.24486098,0.0136585366 C7.47412195,0.0136585366 8.91625854,1.68343171 8.91625854,4.2708878 L8.91625854,4.85670244 Z M6.29387073,9.15693902 C6.29387073,8.56251951 5.82155854,8.08272927 5.24486098,8.08272927 C4.66818049,8.08272927 4.19593659,8.56251951 4.19593659,9.15693902 C4.19593659,9.55935366 4.40620976,9.90095366 4.72093659,10.0832951 L4.72093659,11.3076293 C4.72093659,11.6045488 4.95654634,11.8499073 5.24539024,11.8499073 C5.53430244,11.8499073 5.76992927,11.6045488 5.76992927,11.3076293 L5.76992927,10.0832951 C6.08405854,9.90095366 6.29387073,9.55935366 6.29387073,9.15693902 Z M10.489722,7.00686341 L10.489722,12.3829659 C10.489722,13.2743049 9.78132195,13.9999829 8.91625854,13.9999829 L1.57346341,13.9999829 C0.708997561,13.9999829 0,13.2743049 0,12.3829659 L0,7.00686341 C0,6.11598537 0.708468293,5.38977805 1.57346341,5.38977805 L8.91625854,5.38977805 C9.78132195,5.38977805 10.489722,6.11598537 10.489722,7.00686341 Z" id="Fill-1" fill="#D1DCDE" mask="url(#mask-2)"></path>
            </g>
        </g>
    </g>
</svg>