<?xml version="1.0" encoding="UTF-8"?>
<svg width="55px" height="20px" viewBox="0 0 55 20" version="1.1" xmlns="http://www.w3.org/2000/svg" xmlns:xlink="http://www.w3.org/1999/xlink">
    <!-- Generator: Sketch 49 (51002) - http://www.bohemiancoding.com/sketch -->
    <title>Group 45</title>
    <desc>Created with Sketch.</desc>
    <defs></defs>
    <g id="Page-2" stroke="none" stroke-width="1" fill="none" fill-rule="evenodd">
        <g id="Group-45" transform="translate(0.000000, 1.000000)" fill="#D1DCDE">
            <text id="当前月" font-family="PingFangSC-Regular, PingFang SC" font-size="13" font-weight="normal">
                <tspan x="18" y="14">当前月</tspan>
            </text>
            <g id="dangqianyue" transform="translate(0.000000, 1.000000)" fill-rule="nonzero">
                <path d="M5.64064656,1.78184714 L8.50915608,1.78184714 C8.74807376,1.78184714 8.93904776,1.5428451 8.93904776,1.30384305 C8.93904776,1.0166653 8.74807376,0.825754616 8.50915608,0.825754616 L5.64064656,0.825754616 C5.40156018,0.825754616 5.21067057,1.06475666 5.21067057,1.30384305 C5.21067057,1.59102079 5.40156018,1.78184714 5.64064656,1.78184714 Z M9.94340032,2.30811127 C10.230578,2.30811127 10.421573,2.11728492 10.421573,1.92639531 L10.421573,0.395778624 C10.421573,0.156776574 10.230578,0.0140415813 9.94340032,0.0140415813 C9.65622256,0.0140415813 9.46539616,0.204867935 9.46539616,0.395778624 L9.46539616,1.9244978 C9.46539616,2.16364744 9.70431392,2.30811127 9.94340032,2.30811127 Z M4.20631801,2.30811127 C4.49358009,2.30811127 4.68449078,2.11728492 4.68449078,1.92639531 L4.68449078,0.395778624 C4.68449078,0.156776574 4.44548873,0.0140415813 4.20631801,0.0140415813 C3.91914026,0.0140415813 3.72822958,0.204867935 3.72822958,0.395778624 L3.72822958,1.9244978 C3.72831391,2.16364744 3.96731596,2.30811127 4.20631801,2.30811127 Z" id="Fill-1"></path>
                <path d="M8.8,14.2724293 L2.68298342,14.2724293 C1.20120586,14.2724293 0,13.0712058 0,11.5894458 L0,3.48298342 C0,1.99400586 1.20120586,0.8 2.68298342,0.84314732 C2.92753756,0.84314732 3.1648917,1.08050146 3.1648917,1.32505561 C3.1648917,1.56966244 2.97068488,1.80701658 2.68298342,1.80701658 C1.77667902,1.80701658 1.00701658,2.56947902 1.00701658,3.48298342 L1.00701658,11.539081 C1.00701658,12.452603 1.77667902,13.2150654 2.68298342,13.2150654 L8.8,13.2150654 L8.8,14.2724293 Z M14.3859337,9.6 L13.4220644,9.6 L13.4220644,3.4398361 C13.4220644,2.48311414 12.6596195,1.76386927 11.7460976,1.76386927 L11.4583961,1.76386927 C11.2138419,1.76386927 10.9765054,1.51931512 10.9765054,1.2819083 C10.9765054,1.03735414 11.1706946,0.8 11.4583961,0.8 L11.7460976,0.8 C13.1847278,0.8 14.3859337,1.99400586 14.3859337,3.48298342 L14.3859337,9.6 Z" id="Combined-Shape-Copy"></path>
                <path d="M12.7968937,10.4 C11.0310946,10.4 9.6,11.8310946 9.6,13.5968937 C9.6,15.3626537 11.0310946,16.7937483 12.7968937,16.7937483 C14.5626537,16.7937483 15.9937483,15.3626537 15.9937483,13.5968937 C15.9937483,11.8310946 14.5626537,10.4 12.7968937,10.4 Z M13.0428956,16.289241 L13.0428956,15.5643317 C13.0428956,15.428199 12.9329873,15.3183219 12.7968937,15.3183219 C12.6613698,15.3183219 12.5508527,15.428199 12.5508527,15.5643317 L12.5508527,16.289241 C11.2533854,16.1725034 10.2206439,15.1397542 10.1032586,13.8428956 L10.8294244,13.8428956 C10.9649093,13.8428956 11.0754263,13.7329873 11.0754263,13.5968937 C11.0754263,13.460761 10.9655493,13.3508527 10.8294244,13.3508527 L10.1038751,13.3508527 C10.2206439,12.0533854 11.2540254,11.0212839 12.5514927,10.9038751 L12.5514927,11.6294244 C12.5514927,11.7655493 12.6613698,11.8754263 12.7975024,11.8754263 C12.9336273,11.8754263 13.0435044,11.7655493 13.0435044,11.6294244 L13.0435044,10.9038751 C14.341003,11.0212839 15.3737522,12.0533854 15.4911298,13.3508527 L14.7643317,13.3508527 C14.628199,13.3508527 14.5183219,13.460761 14.5183219,13.5968937 C14.5183219,13.7329873 14.628199,13.8428956 14.7643317,13.8428956 L15.4904898,13.8428956 C15.3731122,15.1397542 14.3397542,16.1725034 13.0428956,16.289241 Z M12.7968937,13.1048507 C12.5252761,13.1048507 12.3048507,13.3252761 12.3048507,13.5968937 C12.3048507,13.8684722 12.5252761,14.0889054 12.7968937,14.0889054 C13.0684722,14.0889054 13.2889054,13.8684722 13.2889054,13.5968937 C13.2889054,13.3252761 13.0684722,13.1048507 12.7968937,13.1048507 Z" id="Fill-1-Copy-2" stroke="#D1DCDE" stroke-width="0.5"></path>
                <path d="M4.35092943,10.8634612 C4.2544937,10.7671942 4.2544937,10.6245435 4.30275374,10.5282764 C4.82901786,9.85927728 5.11619561,9.04583544 5.11619561,7.99512035 L5.11619561,4.26680644 C5.11619561,4.12417686 5.21263134,4.02780439 5.35528199,4.02780439 L9.60787816,4.02780439 C9.75044448,4.02780439 9.84688024,4.12409254 9.84688024,4.26680644 L9.84688024,10.2392012 C9.84688024,10.7172053 9.60787816,11.0044674 9.12970544,11.0044674 L8.07907464,11.0044674 C7.98272328,11.0044674 7.88818506,10.9580838 7.83998829,10.8617323 L7.7436369,10.6227303 C7.7436369,10.5745546 7.7436369,10.4801007 7.79181259,10.4319039 C7.83998829,10.3836439 7.88637189,10.3354682 7.98272328,10.3354682 L9.0334384,10.3354682 C9.08161408,10.3354682 9.12978976,10.3354682 9.12978976,10.1927543 L9.12978976,8.56759944 L5.83147291,8.56759944 C5.73512152,9.5720152 5.40156018,10.3854571 4.87529605,11.0063649 C4.87529605,11.0545406 4.78084217,11.1027162 4.73266647,11.1027162 C4.68628287,11.1027162 4.63810718,11.1027162 4.58993148,11.0545406 L4.35092943,10.8634612 Z M5.9278243,5.94015813 L9.17796544,5.94015813 L9.17796544,4.74489487 L5.9278243,4.74489487 L5.9278243,5.94015813 Z M5.9278243,7.85240644 L9.17796544,7.85240644 L9.17796544,6.65722753 L5.9278243,6.65722753 L5.9278243,7.85240644 Z" id="Fill-3"></path>
            </g>
        </g>
    </g>
</svg>