<?xml version="1.0" encoding="UTF-8"?>
<svg width="57px" height="20px" viewBox="0 0 57 20" version="1.1" xmlns="http://www.w3.org/2000/svg" xmlns:xlink="http://www.w3.org/1999/xlink">
    <!-- Generator: Sketch 49 (51002) - http://www.bohemiancoding.com/sketch -->
    <title>Group 44</title>
    <desc>Created with Sketch.</desc>
    <defs></defs>
    <g id="Page-2" stroke="none" stroke-width="1" fill="none" fill-rule="evenodd">
        <g id="Group-44" transform="translate(0.000000, 1.000000)" fill="#D1DCDE">
            <text id="当前周" font-family="PingFangSC-Regular, PingFang SC" font-size="13" font-weight="normal">
                <tspan x="19" y="14">当前周</tspan>
            </text>
            <g id="dangqianzhou" transform="translate(0.000000, 2.000000)" fill-rule="nonzero">
                <path d="M6.04206439,9.7063376 L8.34386928,9.7063376 C8.53805856,9.7063376 8.63157072,9.5624956 8.63157072,9.41865368 L8.63157072,8.17428296 C8.63157072,7.98002342 8.4877112,7.88652878 8.34386928,7.88652878 L6.04206439,7.88652878 C5.84787512,7.88652878 5.75438049,8.03037072 5.75438049,8.17428296 L5.75438049,9.41865368 C5.75438049,9.60564296 5.89822244,9.7063376 6.04206439,9.7063376 Z M6.38018342,9.17409952 L8.10651512,9.17409952 L8.10651512,8.50513168 L6.38018342,8.50513168 L6.38018342,9.17409952 Z" id="Fill-1"></path>
                <path d="M9.97661856,2.31913756 C10.2643902,2.31913756 10.458597,2.1249483 10.458597,1.93794146 L10.458597,0.398616586 C10.458597,0.161262439 10.2643902,0.0174204878 9.97661856,0.0174204878 C9.68891704,0.0174204878 9.49472784,0.211627317 9.49472784,0.398616586 L9.49472784,1.93074146 C9.49472784,2.17529561 9.73208192,2.31913756 9.97661856,2.31913756 Z M4.22225561,2.31913756 C4.51000976,2.31913756 4.70421658,2.1249483 4.70421658,1.93794146 L4.70421658,0.398616586 C4.69701658,0.161262439 4.45966244,0.0174204878 4.22225561,0.0174204878 C3.97770146,0.0174204878 3.74034732,0.211627317 3.74034732,0.398616586 L3.74034732,1.93074146 C3.74034732,2.17529561 3.97770146,2.31913756 4.22225561,2.31913756 Z M5.6608683,1.79409951 L8.53805856,1.79409951 C8.77541272,1.79409951 8.96961952,1.55674537 8.96961952,1.31213854 C8.96961952,1.02443707 8.77541272,0.83023024 8.53805856,0.83023024 L5.6608683,0.83023024 C5.4235317,0.83023024 5.22925463,1.06758439 5.22925463,1.31213854 C5.27247219,1.59989268 5.46667902,1.79409951 5.6608683,1.79409951 Z" id="Fill-2"></path>
                <g id="Group-6" transform="translate(0.000000, 0.772683)">
                    <path d="M5.6608683,6.05648195 C5.51702634,6.05648195 5.4235317,6.14997658 5.4235317,6.29381854 L5.4235317,6.48809561 C5.4235317,6.63193756 5.56737366,6.72543219 5.6608683,6.72543219 L8.77541272,6.72543219 C8.91925464,6.72543219 9.01281952,6.58159024 9.01281952,6.48809561 L9.01281952,6.29381854 C9.01281952,6.14997658 8.91925464,6.05648195 8.77541272,6.05648195 L7.57420683,6.05648195 L7.57420683,5.71843317 L8.53085856,5.71843317 C8.67471808,5.71843317 8.76821272,5.62492098 8.76821272,5.48107902 L8.76821272,5.28681951 C8.76821272,5.14296 8.67471808,5.04946537 8.53085856,5.04946537 L7.57420683,5.04946537 L7.57420683,4.66826927 C7.57420683,4.52435707 7.43034732,4.43084488 7.33685268,4.43084488 L7.14264586,4.43084488 C6.99873366,4.43084488 6.90523902,4.52435707 6.90523902,4.66826927 L6.90523902,5.04946537 L5.89822244,5.04946537 C5.75438049,5.04946537 5.6608683,5.14296 5.6608683,5.28681951 L5.6608683,5.48107902 C5.6608683,5.62492098 5.80472781,5.71843317 5.89822244,5.71843317 L6.90523902,5.71843317 L6.90523902,6.05648195 L5.6608683,6.05648195 Z" id="Fill-3"></path>
                    <path d="M3.97770146,10.228443 C4.02804878,10.228443 4.0711961,10.2787902 4.17189073,10.2787902 L4.22225561,10.2787902 C4.31582049,10.2787902 4.36616781,10.228443 4.36616781,10.1348781 C4.84805854,9.22135608 5.08541268,8.0704976 5.08541268,6.63193756 L5.08541268,4.13594342 L9.45158048,4.13594342 L9.45158048,9.4084332 C9.45158048,9.50192784 9.45158048,9.50192784 9.35808584,9.50192784 L8.40141656,9.50192784 C8.30792192,9.50192784 8.25757464,9.55227512 8.20720976,9.5954224 C8.1568624,9.63856976 8.1568624,9.7392644 8.1568624,9.78962928 L8.20720976,10.0270361 C8.25757464,10.1205307 8.35106928,10.221243 8.44456392,10.221243 L9.45158048,10.221243 C9.83277656,10.221243 10.0773307,10.0270361 10.1708956,9.7392644 L10.1708956,3.65405268 C10.1708956,3.51021073 10.0773307,3.4166283 9.9334712,3.4166283 L4.60352195,3.4166283 C4.45966244,3.4166283 4.36616781,3.56055805 4.36616781,3.65405268 L4.36616781,6.67508488 C4.36616781,7.91945561 4.12874342,8.97681952 3.74034732,9.74648192 C3.69,9.83997656 3.74034732,9.9406712 3.79069463,10.0341658 L3.97770146,10.228443 Z" id="Path"></path>
                    <path d="M8.8,13.4868293 L2.68298342,13.4868293 C1.20120586,13.4868293 0,12.2856058 0,10.8038458 L0,2.69738342 C0,1.20840586 1.20120586,0.0144 2.68298342,0.057547317 C2.92753756,0.057547317 3.1648917,0.294901463 3.1648917,0.53945561 C3.1648917,0.784062439 2.97068488,1.02141658 2.68298342,1.02141658 C1.77667902,1.02141658 1.00701658,1.78387902 1.00701658,2.69738342 L1.00701658,10.753481 C1.00701658,11.667003 1.77667902,12.4294654 2.68298342,12.4294654 L8.8,12.4294654 L8.8,13.4868293 Z M14.3859337,8.8144 L14.3859337,2.69738342 C14.3859337,1.20840586 13.1847278,0.0144 11.7460976,0.0144 L11.4583961,0.0144 C11.1706946,0.0144 10.9765054,0.251754146 10.9765054,0.496308293 C10.9765054,0.733715122 11.2138419,0.978269272 11.4583961,0.978269272 L11.7460976,0.978269272 C12.6596195,0.978269272 13.4220644,1.69751414 13.4220644,2.6542361 L13.4220644,8.8144 L14.3859337,8.8144 Z" id="Combined-Shape"></path>
                </g>
                <path d="M12.7968937,10.4062439 C11.0310946,10.4062439 9.6,11.8373386 9.6,13.6031376 C9.6,15.3688976 11.0310946,16.7999922 12.7968937,16.7999922 C14.5626537,16.7999922 15.9937483,15.3688976 15.9937483,13.6031376 C15.9937483,11.8373386 14.5626537,10.4062439 12.7968937,10.4062439 Z M13.0428956,16.2954849 L13.0428956,15.5705756 C13.0428956,15.434443 12.9329873,15.3245658 12.7968937,15.3245658 C12.6613698,15.3245658 12.5508527,15.434443 12.5508527,15.5705756 L12.5508527,16.2954849 C11.2533854,16.1787473 10.2206439,15.1459981 10.1032586,13.8491395 L10.8294244,13.8491395 C10.9649093,13.8491395 11.0754263,13.7392312 11.0754263,13.6031376 C11.0754263,13.4670049 10.9655493,13.3570966 10.8294244,13.3570966 L10.1038751,13.3570966 C10.2206439,12.0596293 11.2540254,11.0275278 12.5514927,10.910119 L12.5514927,11.6356683 C12.5514927,11.7717932 12.6613698,11.8816702 12.7975024,11.8816702 C12.9336273,11.8816702 13.0435044,11.7717932 13.0435044,11.6356683 L13.0435044,10.910119 C14.341003,11.0275278 15.3737522,12.0596293 15.4911298,13.3570966 L14.7643317,13.3570966 C14.628199,13.3570966 14.5183219,13.4670049 14.5183219,13.6031376 C14.5183219,13.7392312 14.628199,13.8491395 14.7643317,13.8491395 L15.4904898,13.8491395 C15.3731122,15.1459981 14.3397542,16.1787473 13.0428956,16.2954849 Z M12.7968937,13.1110946 C12.5252761,13.1110946 12.3048507,13.33152 12.3048507,13.6031376 C12.3048507,13.8747161 12.5252761,14.0951493 12.7968937,14.0951493 C13.0684722,14.0951493 13.2889054,13.8747161 13.2889054,13.6031376 C13.2889054,13.33152 13.0684722,13.1110946 12.7968937,13.1110946 Z" id="Fill-1" stroke="#D1DCDE" stroke-width="0.5"></path>
            </g>
        </g>
    </g>
</svg>