<?xml version="1.0" encoding="UTF-8"?>
<svg width="43px" height="20px" viewBox="0 0 43 20" version="1.1" xmlns="http://www.w3.org/2000/svg" xmlns:xlink="http://www.w3.org/1999/xlink">
    <!-- Generator: Sketch 49 (51002) - http://www.bohemiancoding.com/sketch -->
    <title>Group 7</title>
    <desc>Created with Sketch.</desc>
    <defs>
        <polygon id="path-1" points="0.00113916841 0.000626542624 11.6685439 0.000626542624 11.6685439 11.6385419 0.00113916841 11.6385419"></polygon>
    </defs>
    <g id="Page-2" stroke="none" stroke-width="1" fill="none" fill-rule="evenodd">
        <g id="Group-7" transform="translate(0.000000, 1.000000)">
            <text id="签到" fill="#D1DCDE" font-family="PingFangSC-Regular, PingFang SC" font-size="13" font-weight="normal">
                <tspan x="17" y="14">签到</tspan>
            </text>
            <g id="qiandao" transform="translate(0.000000, 3.000000)">
                <g id="Group-3">
                    <mask id="mask-2" fill="white">
                        <use xlink:href="#path-1"></use>
                    </mask>
                    <g id="Clip-2"></g>
                    <path d="M8.80905137,0.775830644 C8.60635534,1.18951965 8.43703694,1.44828175 8.30242521,1.55168027 C8.20119111,1.62124549 8.116418,1.6552117 8.0491501,1.6552117 C7.9810658,1.6552117 7.89712808,1.72462502 7.79581803,1.86197076 C7.62634775,2.10360737 7.67700277,2.36221758 7.94770716,2.63774445 C8.28499593,3.0176761 8.57238914,3.10341751 8.80905137,2.89650655 C8.84235306,2.89650655 8.87631927,2.8795899 8.91028547,2.84488324 C8.97755337,2.81091703 9.11313339,2.72451111 9.31560159,2.58619708 C9.65289037,2.34537687 9.8897045,2.27573571 10.0250567,2.37921018 C10.0582824,2.44877539 10.0924005,2.4827416 10.1263667,2.4827416 C10.2609785,2.51744826 10.3963117,2.7415037 10.5316639,3.15511676 C10.7002418,3.60366433 11.0043238,3.82756788 11.4436061,3.82756788 C11.7808949,3.72403645 11.8995583,3.39673438 11.7983242,2.84488324 C11.8995583,2.53442187 12.1022543,2.34537687 12.4061845,2.27573571 C13.1487894,2.37921018 13.5541055,2.17243212 13.6221898,1.6552117 C13.6554155,1.13799127 13.4021404,0.879362066 12.8621366,0.879362066 C12.3215632,0.879362066 11.6968623,0.897095121 10.987635,0.930909436 L10.93698,0.930909436 C10.632898,0.965767989 10.4303538,0.914087716 10.3289868,0.775830644 C10.2277527,0.707157775 10.1596684,0.638333017 10.1262908,0.568919689 C10.0250567,0.534953484 9.9568205,0.44854756 9.9236707,0.310309474 C9.8897045,0.138086197 9.7543523,0.0347066641 9.51850647,0 C9.28169235,0 9.04489721,0.258458325 8.80905137,0.775830644 Z M4.24933996,0.465540156 C4.18110378,0.603778242 4.07986968,0.775830644 3.94525794,0.982760585 C3.53994182,1.49998101 3.18537566,1.84514904 2.88144553,2.01720144 C2.78005954,2.12058098 2.66132022,2.15543953 2.52670848,2.12058098 C2.4253225,2.08661477 2.30660216,2.10360737 2.17206637,2.17235618 C1.90128604,2.51737232 1.93540414,2.86254035 2.27330047,3.20679704 C2.61051331,3.62063793 2.99936844,3.67233719 3.43870772,3.36202772 C3.53994182,3.29335485 3.72520858,3.13812417 3.99591296,2.89650655 C4.33322073,2.58619708 4.55327009,2.43096639 4.65456115,2.43096639 C4.92452508,2.46582495 5.1613392,2.68957661 5.3638074,3.10341751 C5.59980512,3.44843364 5.8871034,3.53483957 6.22515162,3.36202772 C6.49511555,3.32806152 6.57981272,3.0864439 6.47857862,2.63774445 C6.37719263,2.2936966 6.54592246,2.10353142 6.9851858,2.06905259 C7.42372766,2.10360737 7.67707871,1.82800456 7.74523896,1.2413708 C7.67707871,0.965767989 7.32234167,0.793563699 6.68112276,0.72415037 C6.54592246,0.72415037 6.34322643,0.741864439 6.0732625,0.775830644 L5.81977854,0.775830644 C5.54907416,0.775830644 5.3638074,0.672299222 5.2625733,0.465540156 C5.1613392,0.189937346 4.97510416,0.0516992595 4.70529212,0.0516992595 C4.53584082,0.0178089994 4.38379981,0.155078792 4.24933996,0.465540156 Z M7.28911593,3.05171825 C7.11972158,3.22475793 6.9510677,3.36202772 6.78250875,3.46540725 C5.53253723,4.32779571 4.4179179,4.86216062 3.43863178,5.06891969 C3.06663634,5.138352 2.81320934,5.12077084 2.67859761,5.01723942 C2.6446314,4.98327321 2.59397638,4.96554016 2.52670848,4.96554016 C2.02010131,5.10364534 1.85063102,5.43108031 2.02010131,5.94814885 C2.18867925,6.56897665 2.57736351,6.81061325 3.18537566,6.67237517 C4.60392512,6.29324093 6.07318656,5.56916651 7.59304606,4.4998671 C7.72765779,4.43132713 7.93042977,4.39648756 8.20119111,4.39648756 C8.50512124,4.43132713 8.74096708,4.37949497 8.91028547,4.24140877 C8.94366311,4.17271692 8.7916221,3.87924815 8.45431433,3.36202772 C8.25177019,2.98312132 7.9810658,2.81091703 7.64377702,2.84488324 C7.50842483,2.8795899 7.39050191,2.94818682 7.28911593,3.05171825 Z M11.7887552,6.21336624 C12.1600292,6.17940004 12.3190381,6.08046326 12.4543903,5.56309094 C12.5216582,5.11543573 12.3531562,4.82217581 11.9477641,4.68386178 C11.745144,4.61503702 11.5756168,4.63218151 11.4411569,4.73556104 C11.3056529,4.80512626 11.1537637,4.80512626 10.9851858,4.73556104 C10.4411949,4.42435922 9.41267773,3.92004936 9.26502251,4.44831973 C9.09555223,4.724663 9.57115504,4.99557623 10.2804772,5.44330739 C10.2804772,5.44330739 10.6324613,6.21336624 11.7887552,6.21336624 Z M5.81977854,6 L5.66788942,6 C4.99179297,6.06933738 4.68786284,6.29324093 4.75594714,6.67237517 C4.72182905,7.08619708 5.04244799,7.29297513 5.71854444,7.29297513 C5.73396119,7.30387317 8.65701036,7.257528 8.65716225,7.24127587 L9.01174741,7.24127587 C9.24772614,7.24127587 9.60231129,7.22445415 10.0757117,7.1895956 C10.5142346,7.1895956 10.7343599,6.98266565 10.7343599,6.56905259 C10.7343599,6.1552117 10.4469097,5.94814885 9.87301568,5.94814885 C8.08237585,5.9830074 6.73185373,6 5.81977854,6 Z M3.53988487,8.2758876 C3.53988487,8.34530093 3.57324351,8.4139738 3.64132781,8.48264667 C3.84402384,8.68957661 4.02921465,8.9998671 4.19853305,9.41363205 C4.43460672,9.89690526 4.73851786,10.052117 5.11068418,9.8791722 C5.58319225,9.67226125 5.70111517,9.29327891 5.46526933,8.74118094 C5.2286071,8.22396051 5.00922225,7.84505411 4.80660216,7.60343649 C4.50253913,7.32783368 4.16464279,7.27613442 3.79336882,7.44820581 C3.4553206,7.68982343 3.37056647,7.96542624 3.53988487,8.2758876 Z M3.03333465,10.2413138 C2.4253225,10.3107272 2.12141135,10.4999241 2.12141135,10.8103854 C2.15456115,11.3615721 2.44201131,11.6379153 2.98267963,11.6379153 C4.56980702,11.4996013 6.56238344,11.447902 8.96109238,11.4828365 L12.8621366,11.4828365 C13.3347966,11.4130435 13.5716107,11.1544333 13.5716107,10.706854 C13.5605608,10.1943042 12.5791292,10.2531802 11.9773635,10.2564458 C11.6091273,10.2591988 11.4672629,11.0265047 10.4690666,11.0265047 C9.47073734,11.0265047 8.97250305,10.258895 8.5836669,10.2564458 C9.90029876,10.2646858 3.10542502,10.2436112 3.03333465,10.2413138 Z" id="Fill-1" fill="#D1DCDE" mask="url(#mask-2)"></path>
                </g>
                <path d="M8.58019746,7.33508639 L10.0885514,8.87548889 C12.0959749,6.34974369 14.5064743,5.3482248 14.6777862,5.2173913 C14.6805392,5.22348586 14.9906968,5.62092273 14.9906968,5.62092273 C12.6371559,7.98388077 10.5140308,9.92610594 10.4656731,10.4155876 L7.82608696,8.49043099 L8.58019746,7.33508639 Z" id="Fill-4" fill="#D1DCDE"></path>
            </g>
        </g>
    </g>
</svg>