<?xml version="1.0" encoding="UTF-8"?>
<svg width="20px" height="20px" viewBox="0 0 20 20" version="1.1" xmlns="http://www.w3.org/2000/svg" xmlns:xlink="http://www.w3.org/1999/xlink">
    <!-- Generator: Sketch 47.1 (45422) - http://www.bohemiancoding.com/sketch -->
    <title>daodian</title>
    <desc>Created with Sketch.</desc>
    <defs></defs>
    <g id="Page-1" stroke="none" stroke-width="1" fill="none" fill-rule="evenodd">
        <g id="列表页" transform="translate(-1214.000000, -53.000000)" fill="#D1DCDE">
            <g id="daodian" transform="translate(1214.000000, 53.000000)">
                <g id="Group-4">
                    <path d="M19.5470602,9.46171084 C20.2051084,10.2392771 20.1054217,11.4356386 19.3077831,12.0936627 C18.5102651,12.7516145 17.9120964,14.1274699 17.9718554,15.1642651 C18.0317108,16.1812048 17.2540482,17.0784337 16.217253,17.1382892 C15.1804337,17.1980482 13.8844096,17.9557831 13.3260482,18.8331325 C12.7677831,19.6905301 11.6113494,19.9496627 10.734,19.3913976 C9.8566506,18.8331325 8.36125301,18.6935422 7.40416867,19.0724096 C6.42715663,19.451253 5.35043373,18.9727229 4.97156627,18.0155422 C4.6126747,17.0584819 3.47609639,16.0615663 2.47920482,15.8023614 C1.48221687,15.5431325 0.884048193,14.5063133 1.14325301,13.5093253 C1.40248193,12.5123373 1.08339759,11.0369157 0.425445783,10.2392771 C-0.232578313,9.44175904 -0.112963855,8.2653494 0.684674699,7.6073253 C1.48221687,6.94937349 2.08038554,5.57354217 2.02060241,4.53672289 C1.96074699,3.51987952 2.73843373,2.62257831 3.77522892,2.56279518 C4.8120241,2.50293976 6.10814458,1.74522892 6.64645783,0.887807229 C6.91284337,0.466698795 7.3360241,0.168963855 7.82238554,0.0604578313 C8.30881928,-0.0480722892 8.81843373,0.0416144578 9.23850602,0.309590361 C10.1158795,0.867951807 11.6113494,1.00744578 12.5684337,0.628698795 C13.5319036,0.249253012 14.6206747,0.722240964 15.0009398,1.68544578 C15.3598554,2.64253012 16.4964337,3.63951807 17.4933253,3.8986506 C18.4903133,4.15787952 19.0884819,5.19477108 18.829253,6.19166265 C18.5700241,7.1886506 18.8891084,8.66416867 19.5470602,9.46171084 Z M8.66015625,12.6171875 C8.69661477,12.7812508 8.60546984,12.8541668 8.38671875,12.8359375 C8.36848949,12.8359375 8.31380254,12.826823 8.22265625,12.8085938 C7.82161258,12.6992182 7.60286477,12.7630196 7.56640625,13 C7.4570307,13.2916681 7.63932055,13.492187 8.11328125,13.6015625 C9.00651488,13.8020843 9.453125,13.574222 9.453125,12.9179688 L9.453125,7.99609375 C9.43489574,7.72265488 9.30729285,7.56770852 9.0703125,7.53125 C8.81510289,7.53125 8.67838551,7.66796738 8.66015625,7.94140625 L8.66015625,12.6171875 Z M3.7109375,7.640625 C3.49218641,7.65885426 3.36458352,7.80468613 3.328125,8.078125 C3.34635426,8.35156387 3.46484266,8.49739574 3.68359375,8.515625 L4.39453125,8.515625 L3.95703125,9.47265625 L3.65625,9.5 C3.43749891,9.53645852 3.328125,9.69140488 3.328125,9.96484375 C3.34635426,10.2200534 3.47395715,10.3476562 3.7109375,10.3476562 C3.92968859,10.3476562 4.2669248,10.3294273 4.72265625,10.2929688 C4.79557328,10.2747395 4.85026023,10.265625 4.88671875,10.265625 L4.88671875,10.9765625 L3.875,10.9765625 C3.65624891,10.9947918 3.53776051,11.1315091 3.51953125,11.3867188 C3.53776051,11.6601576 3.64713441,11.8059895 3.84765625,11.8242188 L4.88671875,11.8242188 L4.88671875,12.6445312 C4.63150914,12.6627605 4.26692945,12.6992185 3.79296875,12.7539062 C3.42838359,12.7721355 3.27343723,12.9270819 3.328125,13.21875 C3.34635426,13.4921889 3.5286441,13.6197918 3.875,13.6015625 C3.91145852,13.6015625 4.29426719,13.55599 5.0234375,13.4648438 C6.15365148,13.3372389 6.76432246,13.264323 6.85546875,13.2460938 C7.22005391,13.2278645 7.37500027,13.0911471 7.3203125,12.8359375 C7.33854176,12.5078109 7.14713742,12.3710935 6.74609375,12.4257812 C6.39973785,12.480469 6.35416539,12.4895835 6.609375,12.453125 C6.20833133,12.5078128 5.90755309,12.5442707 5.70703125,12.5625 L5.70703125,11.8242188 L6.7734375,11.8242188 C6.95573008,11.8059895 7.05598949,11.6692721 7.07421875,11.4140625 C7.07421875,11.1406236 6.98307383,10.9947918 6.80078125,10.9765625 L5.70703125,10.9765625 L5.70703125,10.15625 C5.96224086,10.15625 6.19921766,10.138021 6.41796875,10.1015625 C6.43619801,10.138021 6.46354148,10.174479 6.5,10.2109375 C6.51822926,10.2656253 6.53645824,10.3111977 6.5546875,10.3476562 C6.70052156,10.5664073 6.88281141,10.6210943 7.1015625,10.5117188 C7.32031359,10.3841139 7.38411504,10.2018241 7.29296875,9.96484375 C7.09244691,9.54557082 6.88281359,9.16276215 6.6640625,8.81640625 C6.5364577,8.61588441 6.36328234,8.55208297 6.14453125,8.625 C5.92578016,8.73437555 5.85286422,8.88932191 5.92578125,9.08984375 C5.94401051,9.18099004 5.98046848,9.25390598 6.03515625,9.30859375 L4.859375,9.390625 L5.296875,8.515625 L6.9921875,8.515625 C7.17448008,8.49739574 7.27473949,8.35156387 7.29296875,8.078125 C7.27473949,7.80468613 7.17448008,7.65885426 6.9921875,7.640625 L3.7109375,7.640625 Z M7.4296875,11.9609375 C7.44791676,12.1796886 7.57551965,12.298177 7.8125,12.3164062 C8.04948035,12.298177 8.17708324,12.1796886 8.1953125,11.9609375 L8.1953125,8.21484375 C8.17708324,7.9778634 8.04948035,7.85026051 7.8125,7.83203125 C7.57551965,7.83203125 7.44791676,7.95051965 7.4296875,8.1875 L7.4296875,11.9609375 Z M11.203125,7.88671875 C10.8932276,7.88671875 10.7382812,8.0598941 10.7382812,8.40625 L10.7382812,10.6484375 C10.7382812,11.5052126 10.6106784,12.2434865 10.3554687,12.8632812 C10.3372395,12.917969 10.328125,12.954427 10.328125,12.9726562 C10.2187495,13.2825536 10.3281234,13.473958 10.65625,13.546875 C10.8567718,13.6015628 11.0299472,13.4010439 11.1757812,12.9453125 C11.3763031,12.1979129 11.485677,11.3320362 11.5039062,10.3476562 L11.5039062,8.81640625 C11.5039062,8.7070307 11.5494787,8.65234375 11.640625,8.65234375 L13.2265625,8.65234375 L13.2265625,10.7851562 L12.1601562,10.7851562 C11.8320296,10.7486977 11.6770832,10.9218731 11.6953125,11.3046875 L11.6953125,13 C11.6953125,13.3281266 11.8776023,13.4921875 12.2421875,13.4921875 L15.6875,13.4921875 C16.0520852,13.4921875 16.234375,13.3281266 16.234375,13 L16.234375,11.25 C16.2526043,10.9218734 16.0976579,10.766927 15.7695312,10.7851562 L14.046875,10.7851562 L14.046875,10.046875 L16.2617187,10.046875 C16.4804698,10.0286457 16.5898437,9.89192836 16.5898437,9.63671875 C16.5533852,9.41796766 16.4257823,9.29947926 16.2070312,9.28125 L14.046875,9.28125 L14.046875,8.65234375 L16.1796875,8.65234375 C16.3984386,8.63411449 16.5078125,8.49739711 16.5078125,8.2421875 C16.4895832,8.02343641 16.3619804,7.90494801 16.125,7.88671875 L14.046875,7.88671875 L14.046875,7.61328125 C14.0286457,7.39453016 13.8919284,7.27604176 13.6367187,7.2578125 C13.3632799,7.27604176 13.217448,7.38541566 13.1992187,7.5859375 L13.1992187,7.88671875 L11.203125,7.88671875 Z M12.4335938,12.78125 L12.4335938,11.5234375 L15.4960938,11.5234375 L15.4960938,12.78125 L12.4335938,12.78125 Z" id="Combined-Shape"></path>
                </g>
            </g>
        </g>
    </g>
</svg>