<?xml version="1.0" encoding="UTF-8"?>
<svg width="42px" height="20px" viewBox="0 0 42 20" version="1.1" xmlns="http://www.w3.org/2000/svg" xmlns:xlink="http://www.w3.org/1999/xlink">
    <!-- Generator: Sketch 49 (51002) - http://www.bohemiancoding.com/sketch -->
    <title>Group 40</title>
    <desc>Created with Sketch.</desc>
    <defs></defs>
    <g id="Page-2" stroke="none" stroke-width="1" fill="none" fill-rule="evenodd">
        <g id="Group-40" transform="translate(0.000000, 1.000000)" fill="#D1DCDE">
            <text id="复职" font-family="PingFangSC-Regular, PingFang SC" font-size="13" font-weight="normal">
                <tspan x="16" y="14">复职</tspan>
            </text>
            <g id="fuzhi" transform="translate(0.000000, 2.000000)">
                <path d="M9.58797723,11.5068765 C9.67779646,11.4604259 9.75860152,11.4035129 9.80498926,11.3571252 L11.464243,9.69787142 C11.5886996,9.57341486 11.5853771,9.40421707 11.4560331,9.27487314 C11.3267239,9.14556394 11.1575262,9.1422414 11.0330696,9.26669797 L9.3738158,10.9259518 C9.37270146,10.9270661 9.37158109,10.9282003 9.37045498,10.9293541 L8.42628278,9.98518193 C8.34378798,9.90268713 8.20147649,9.93504987 8.07055289,10.0659735 C7.93959412,10.1969322 7.90723138,10.3392437 7.98972618,10.4217385 L9.08954601,11.5215584 C9.21855523,11.6778518 9.41613916,11.6941404 9.54709793,11.5631816 C9.5638875,11.546392 9.57738228,11.5274014 9.58797723,11.5068765 Z M10.7783917,12.9749459 C8.62653909,13.7862722 6.61574962,12.0930027 6.86272856,10.0116722 C7.00379172,8.7417627 8.06211593,7.68343849 9.3321012,7.54229954 C11.0253707,7.36593743 12.4716612,8.67114585 12.4716612,10.3644343 C12.5069791,11.4932806 11.8367159,12.5868848 10.7783917,12.9749459 Z" id="Combined-Shape"></path>
                <path d="M7.19643789,6.46969263 C7.61972211,6.68137263 8.00778316,6.92829474 8.36052632,7.21049684 C6.59671579,7.73969684 5.57370947,9.60934737 6.13813263,11.3731389 C6.24397263,11.7259011 6.42035368,12.0434021 6.63201474,12.3609221 L2.64575368,12.3609221 L2.64575368,10.8792568 C2.64575368,10.6676526 2.46937263,10.4912716 2.25769263,10.4912716 C2.04601263,10.4912716 1.86965053,10.6676526 1.86965053,10.8792568 L1.86965053,12.3609221 L0.952484211,12.3609221 C0.42336,12.3609221 0,11.9375811 0,11.4084568 C0,11.3379158 0,11.2673179 0.0352989474,11.2320758 L0,11.2320758 C0,9.18598737 1.16414526,7.31633684 3.03379579,6.46969263 C2.08133053,5.79942947 1.51690737,4.7412 1.51690737,3.57705474 C1.51690737,1.56626526 3.17485895,-0.0211831579 5.15034947,0.0141347368 C7.12584,0.0493578947 8.67804632,1.60156421 8.71326947,3.57705474 C8.71326947,4.70590105 8.14884632,5.79942947 7.19643789,6.46969263 Z" id="Path"></path>
            </g>
        </g>
    </g>
</svg>