<?xml version="1.0" encoding="UTF-8"?>
<svg width="18px" height="19px" viewBox="0 0 18 19" version="1.1" xmlns="http://www.w3.org/2000/svg" xmlns:xlink="http://www.w3.org/1999/xlink">
    <!-- Generator: Sketch 47.1 (45422) - http://www.bohemiancoding.com/sketch -->
    <title>GFPwenjuan</title>
    <desc>Created with Sketch.</desc>
    <defs></defs>
    <g id="Page-1" stroke="none" stroke-width="1" fill="none" fill-rule="evenodd">
        <g id="列表页" transform="translate(-1324.000000, -53.000000)" fill="#D1DCDE">
            <g id="GFPwenjuan" transform="translate(1324.000000, 53.000000)">
                <path d="M14.6306022,18.9180312 C14.6880842,18.9180312 14.7455382,18.8770312 14.8031326,18.8360312 C14.6306022,18.9180312 14.4695569,18.9180312 14.2855133,18.9180312 L14.6306022,18.9180312 Z M3.3125897,3.30826521 C3.76112949,3.30826521 4.25572231,2.81364431 4.25572231,2.36513261 L4.25572231,0.950321373 C4.25572231,0.501781591 3.94517317,0.00718876755 3.3125897,0.00718876755 C2.77202808,0.00718876755 2.3694571,0.501781591 2.3694571,0.950321373 L2.3694571,2.36513261 C2.3694571,2.81364431 2.86404992,3.30826521 3.3125897,3.30826521 Z M7.55677067,3.30826521 C8.31597192,3.30826521 8.5000156,2.81364431 8.5000156,2.36513261 L8.5000156,0.950321373 C8.5000156,0.501781591 8.23543526,0.00718876755 7.55677067,0.00718876755 C6.88975975,0.00718876755 6.61366615,0.501781591 6.61366615,0.950321373 L6.61366615,2.36513261 C6.61366615,2.81364431 6.93570047,3.30826521 7.55677067,3.30826521 Z" id="Fill-2"></path>
                <g id="Group-6">
                    <path d="M9.70772855,14.292702 C9.70772855,16.8231763 11.7665523,18.8590577 14.2739719,18.8590577 L0.943132605,18.8590577 C0.494592824,18.8590577 0,18.2378752 0,17.7893354 L0,2.83669891 C0,2.38815913 0.494592824,1.8935663 0.943132605,1.8935663 L1.41469891,1.8935663 L1.41469891,2.36513261 C1.41469891,3.56130421 2.35794384,4.2399688 3.25510764,4.2399688 C4.47433385,4.2399688 5.1874259,3.25078315 5.19896724,2.36513261 L5.19896724,1.8935663 L5.67053354,1.8935663 L5.67053354,2.36513261 C5.67053354,3.25078315 6.11904524,4.25139782 7.55677067,4.25139782 C8.4424493,4.25139782 9.44314821,3.73386271 9.44314821,2.83669891 L9.44314821,1.8935663 L9.91471451,1.8935663 L9.91471451,2.83669891 C9.91471451,3.73386271 10.9154415,4.25139782 11.801092,4.25139782 C12.6867426,4.25139782 13.6874696,3.73386271 13.6874696,2.83669891 L13.6874696,1.8935663 L14.6306022,1.8935663 C15.0791139,1.8935663 15.5737348,2.38815913 15.5737348,2.83669891 L15.5967613,9.93341654 C15.1826771,9.80693916 14.7455382,9.73794384 14.2855133,9.73794384 C11.7550109,9.73794384 9.70772855,11.773741 9.70772855,14.292702 Z M4.98046875,7.46875 C4.71484242,7.48437508 4.57421883,7.61718625 4.55859375,7.8671875 C4.57421883,8.13281383 4.71484242,8.27343742 4.98046875,8.2890625 L5.58984375,8.2890625 C5.55859359,8.88281547 5.21484703,9.20312477 4.55859375,9.25 C3.85546523,9.20312477 3.48046898,8.74219188 3.43359375,7.8671875 C3.48046898,6.99218312 3.85546523,6.53125023 4.55859375,6.484375 C4.87109531,6.484375 5.16796734,6.57812406 5.44921875,6.765625 C5.60546953,6.87500055 5.7382807,6.9296875 5.84765625,6.9296875 C6.08203242,6.91406242 6.20703117,6.77343883 6.22265625,6.5078125 C6.09765563,6.00781 5.54297367,5.72656281 4.55859375,5.6640625 C3.27733734,5.75781297 2.58984422,6.49218063 2.49609375,7.8671875 C2.58984422,9.2265693 3.27733734,9.94531211 4.55859375,10.0234375 C5.79297492,9.97656227 6.44921836,9.32031883 6.52734375,8.0546875 C6.54296883,7.66406055 6.36328312,7.46875 5.98828125,7.46875 L4.98046875,7.46875 Z M6.90234375,9.578125 C6.91796883,9.85937641 7.06640484,10 7.34765625,10 C7.62890766,10 7.77734367,9.85937641 7.79296875,9.578125 L7.79296875,8.265625 L8.73046875,8.265625 C8.99609508,8.24999992 9.13671867,8.10937633 9.15234375,7.84375 C9.13671867,7.57812367 8.99609508,7.43750008 8.73046875,7.421875 L7.79296875,7.421875 L7.79296875,6.5546875 L8.89453125,6.5546875 C9.1445325,6.53906242 9.27734367,6.39843883 9.29296875,6.1328125 C9.27734367,5.88281125 9.1445325,5.75000008 8.89453125,5.734375 L7.34765625,5.734375 C7.06640484,5.75000008 6.91796883,5.90624852 6.90234375,6.203125 L6.90234375,9.578125 Z M9.55078125,9.578125 C9.56640633,9.85937641 9.71484234,10 9.99609375,10 C10.2773452,10 10.4257812,9.85937641 10.4414062,9.578125 L10.4414062,8.59375 L11.0976562,8.59375 C12.0351609,8.53124969 12.5351559,8.05469195 12.5976562,7.1640625 C12.5351559,6.27343305 12.0273485,5.79687531 11.0742187,5.734375 L9.99609375,5.734375 C9.71484234,5.75000008 9.56640633,5.90624852 9.55078125,6.203125 L9.55078125,9.578125 Z M10.4414062,6.53125 L11.0507812,6.53125 C11.4414082,6.54687508 11.6445312,6.75781047 11.6601562,7.1640625 C11.6289061,7.55468945 11.4257831,7.76562484 11.0507812,7.796875 L10.4414062,7.796875 L10.4414062,6.53125 Z" id="Combined-Shape"></path>
                    <path d="M11.801092,3.30826521 C12.4221622,3.30826521 12.7442246,2.81364431 12.7442246,2.36513261 L12.7442246,0.950321373 C12.7442246,0.501781591 12.410649,0.00718876755 11.801092,0.00718876755 C11.2605304,0.00718876755 10.8579594,0.501781591 10.8579594,0.950321373 L10.8579594,2.36513261 C10.8464462,2.81364431 11.3524399,3.30826521 11.801092,3.30826521 Z M17.5290796,12.6134228 C16.9195226,11.4401654 15.7002964,10.6465367 14.2855133,10.6465367 C12.2611451,10.6465367 10.6278346,12.2798471 10.6278346,14.2811607 C10.6278346,16.2826147 12.2496318,17.9042995 14.2510577,17.9158128 C14.320053,17.9158128 14.3890484,17.9273261 14.4465304,17.9273261 C16.4019033,17.9273261 17.9891326,16.3400967 17.9891326,14.3847239 C18.0006459,13.7405991 17.8281154,13.1424711 17.5290796,12.6134228 Z M14.2165179,17.156752 C13.9519376,17.1337254 13.8024337,16.9726802 13.7793791,16.6851856 C13.8024337,16.4436318 13.9519376,16.3055289 14.2165179,16.2826147 C14.4580437,16.3285835 14.6075476,16.4665741 14.6536287,16.6851856 C14.6075476,16.9496537 14.4695569,17.1106708 14.2165179,17.156752 Z M15.0906552,14.3042153 C14.5960343,14.752727 14.3545086,15.1898658 14.3890484,15.6154633 C14.3660218,15.7994228 14.3085398,15.8799314 14.1934633,15.8799314 C13.9979906,15.8799314 13.8944555,15.7419407 13.8944555,15.4429329 C13.8944555,15.1323838 14.066986,14.752727 14.4005616,14.3042153 C14.7341373,13.8556755 14.9065835,13.4760468 14.9065835,13.1654977 C14.8606147,12.7169579 14.6190889,12.4754321 14.2049766,12.429351 C13.9404243,12.429351 13.721897,12.5673417 13.5723931,12.8664899 C13.4573167,13.0505335 13.3423807,13.1310421 13.2388175,13.1310421 C12.9742371,13.1310421 12.8362465,12.9814259 12.8362465,12.6593916 C12.8823276,11.969298 13.3538939,11.5897816 14.2739719,11.5206739 C15.2631856,11.5897816 15.7808331,12.0728612 15.8498284,12.9585117 C15.8383151,13.4070515 15.585248,13.8556755 15.0906552,14.3042153 Z" id="Fill-5"></path>
                </g>
            </g>
        </g>
    </g>
</svg>