<?xml version="1.0" encoding="UTF-8"?>
<svg width="69px" height="20px" viewBox="0 0 69 20" version="1.1" xmlns="http://www.w3.org/2000/svg" xmlns:xlink="http://www.w3.org/1999/xlink">
    <!-- Generator: Sketch 49 (51002) - http://www.bohemiancoding.com/sketch -->
    <title>Group 9</title>
    <desc>Created with Sketch.</desc>
    <defs></defs>
    <g id="Page-2" stroke="none" stroke-width="1" fill="none" fill-rule="evenodd">
        <g id="Group-9" fill="#D1DCDE">
            <text id="沟通结果" font-family="PingFangSC-Regular, PingFang SC" font-size="13" font-weight="normal">
                <tspan x="17" y="14">沟通结果</tspan>
            </text>
            <path d="M9.21291767,8.03248738 C9.21291767,8.20213392 9.09123161,8.34003513 8.94015807,8.34003513 L3.03997805,8.34003513 C2.8889045,8.34003513 2.76665203,8.20213392 2.76665203,8.03248738 L2.76665203,8.03130187 C2.76665203,7.86103622 2.8889045,7.72314819 3.03997805,7.72314819 L8.94015807,7.72314819 C9.09123161,7.72314819 9.21291767,7.86103622 9.21291767,8.03130187 L9.21291767,8.03248738 Z M9.21291767,9.573809 C9.21291767,9.74402195 9.09123161,9.88129089 8.94015807,9.88129089 L3.03997805,9.88129089 C2.8889045,9.88129089 2.76665203,9.74345554 2.76665203,9.573809 L2.76665203,9.5725708 C2.76665203,9.40292426 2.8889045,9.26502305 3.03997805,9.26502305 L8.94015807,9.26502305 C9.09123161,9.26502305 9.21291767,9.40292426 9.21291767,9.5725708 L9.21291767,9.573809 Z M9.21291767,11.1156443 C9.21291767,11.2853304 9.09123161,11.4231789 8.94015807,11.4231789 L3.03997805,11.4231789 C2.8889045,11.4231789 2.76665203,11.2853304 2.76665203,11.1156443 L2.76665203,11.1144588 C2.76665203,10.9441932 2.8889045,10.8063447 3.03997805,10.8063447 L8.94015807,10.8063447 C9.09123161,10.8063447 9.21291767,10.9441932 9.21291767,11.1144588 L9.21291767,11.1156443 Z M5.99484962,4.02372338 C2.68391658,4.02372338 0,6.43966191 0,9.41913941 C0,11.053326 0.810507135,12.51427 2.08503622,13.5034336 L2.08503622,14.8144896 L5.47331723,14.8144896 L5.47331723,14.7905159 C5.64537431,14.8043074 5.8186169,14.8144896 5.99484962,14.8144896 C9.30584852,14.8144896 11.9897651,12.398551 11.9897651,9.41913941 C11.9897651,6.43966191 9.30584852,4.02372338 5.99484962,4.02372338 Z" id="goutongjieguo"></path>
        </g>
    </g>
</svg>