<?xml version="1.0" encoding="UTF-8"?>
<svg width="43px" height="20px" viewBox="0 0 43 20" version="1.1" xmlns="http://www.w3.org/2000/svg" xmlns:xlink="http://www.w3.org/1999/xlink">
    <!-- Generator: Sketch 49 (51002) - http://www.bohemiancoding.com/sketch -->
    <title>Group 7</title>
    <desc>Created with Sketch.</desc>
    <defs>
        <polygon id="path-1" points="0.00106322385 0.000584773116 10.890641 0.000584773116 10.890641 10.8626391 0.00106322385 10.8626391"></polygon>
    </defs>
    <g id="Page-2" stroke="none" stroke-width="1" fill="none" fill-rule="evenodd">
        <g id="Group-7" transform="translate(-1.000000, 0.000000)">
            <text id="签课" fill="#D1DCDE" font-family="PingFangSC-Regular, PingFang SC" font-size="13" font-weight="normal">
                <tspan x="18" y="14">签课</tspan>
            </text>
            <g id="qiandao" transform="translate(0.000000, 4.000000)">
                <g id="Group-3">
                    <mask id="mask-2" fill="white">
                        <use xlink:href="#path-1"></use>
                    </mask>
                    <g id="Clip-2"></g>
                    <path d="M8.22178128,0.724108601 C8.03259832,1.11021834 7.87456781,1.35172964 7.7489302,1.44823492 C7.65444504,1.51316246 7.57532346,1.54486425 7.51254009,1.54486425 C7.44899475,1.54486425 7.37065287,1.60965002 7.27609683,1.73783938 C7.11792456,1.96336688 7.16520258,2.20473641 7.41786001,2.46189482 C7.73266287,2.81649769 8.00089653,2.896523 8.22178128,2.70340611 C8.25286286,2.70340611 8.28456465,2.68761724 8.31626644,2.65522435 C8.37904981,2.62352256 8.50559117,2.54287703 8.69456149,2.41378394 C9.00936435,2.18901842 9.23039086,2.12402 9.35671958,2.22059616 C9.38773027,2.2855237 9.41957383,2.31722549 9.45127562,2.31722549 C9.57691324,2.34961838 9.70322423,2.55873679 9.82955294,2.94477565 C9.98689235,3.36342004 10.2707022,3.57239668 10.6806991,3.57239668 C10.9955019,3.47576736 11.1062544,3.17028542 11.0117693,2.65522435 C11.1062544,2.36546041 11.2954374,2.18901842 11.5791055,2.12402 C12.2722034,2.22059616 12.6504985,2.02760332 12.7140438,1.54486425 C12.7450545,1.06212518 12.5086644,0.820737928 12.0046608,0.820737928 C11.5001257,0.820737928 10.9170715,0.837288779 10.255126,0.868848807 L10.207848,0.868848807 C9.9240381,0.901383457 9.7349969,0.853148535 9.6403877,0.724108601 C9.54590254,0.660013923 9.4823572,0.595777482 9.45120474,0.530991709 C9.35671958,0.499289918 9.29303247,0.41864439 9.26209265,0.289622176 C9.23039086,0.128880451 9.10406215,0.0323928865 8.88393937,0 C8.66291286,0 8.44190406,0.24122777 8.22178128,0.724108601 Z M3.96605063,0.434504145 C3.90236352,0.563526359 3.80787836,0.724108601 3.68224075,0.917243212 C3.3039457,1.39998228 2.97301728,1.72213911 2.68934916,1.88272135 C2.59472224,1.97920891 2.48389887,2.01174356 2.35826125,1.97920891 C2.26363433,1.94750712 2.15282868,1.96336688 2.02726195,2.02753243 C1.77453364,2.3495475 1.80637719,2.67170432 2.12174711,2.99301057 C2.43647909,3.37926207 2.79941055,3.42751471 3.20946054,3.13789254 C3.3039457,3.07379786 3.47686134,2.92891589 3.72951877,2.70340611 C4.04433935,2.41378394 4.24971875,2.26890197 4.34425707,2.26890197 C4.59622341,2.30143662 4.81724992,2.5102715 5.00622024,2.896523 C5.22648478,3.21853807 5.49462984,3.2991836 5.81014151,3.13789254 C6.06210784,3.10619075 6.14115854,2.88068097 6.04667338,2.46189482 C5.95204646,2.14078349 6.10952763,1.96329599 6.51950674,1.93111575 C6.92881248,1.96336688 7.16527347,1.70613759 7.22888969,1.15861275 C7.16527347,0.901383457 6.83418556,0.740659452 6.23571458,0.675873679 C6.10952763,0.675873679 5.92034466,0.69240681 5.66837833,0.724108601 L5.43179331,0.724108601 C5.17913588,0.724108601 5.00622024,0.627479273 4.91173508,0.434504145 C4.81724992,0.177274856 4.64343054,0.0482526422 4.39160598,0.0482526422 C4.23345143,0.0166217328 4.09154649,0.144740206 3.96605063,0.434504145 Z M6.80317486,2.84827036 C6.64507348,3.00977406 6.48766319,3.13789254 6.3303415,3.2343801 C5.16370141,4.039276 4.12339004,4.53801658 3.20938966,4.73099171 C2.86219391,4.7957952 2.62566205,4.77938611 2.50002443,4.68275679 C2.46832264,4.651055 2.42104462,4.63450415 2.35826125,4.63450415 C1.88542789,4.76340232 1.72725562,5.06900829 1.88542789,5.55160559 C2.0427673,6.13104487 2.40553927,6.35657237 2.97301728,6.22755016 C4.29699677,5.87369154 5.66830745,5.19788874 7.08684299,4.19987596 C7.21248061,4.13590532 7.40173445,4.10338839 7.65444504,4.10338839 C7.93811316,4.13590532 8.15823594,4.08752864 8.31626644,3.95864819 C8.3474189,3.89453579 8.20551396,3.62063161 7.89069338,3.13789254 C7.70165218,2.78424657 7.44899475,2.62352256 7.13419189,2.65522435 C7.00786318,2.68761724 6.89780179,2.75164104 6.80317486,2.84827036 Z M11.0028382,5.79914183 C11.3493605,5.76744004 11.4977689,5.67509904 11.6240976,5.19221821 C11.686881,4.77440668 11.5296124,4.50069742 11.1512465,4.37160433 C10.9621344,4.30736789 10.803909,4.32336941 10.6784131,4.41985697 C10.5519427,4.48478451 10.4101795,4.48478451 10.2528401,4.41985697 C9.74511525,4.12940194 8.78516588,3.65871274 8.64735435,4.15176508 C8.48918208,4.40968546 8.93307804,4.66253781 9.59511208,5.08042023 C9.59511208,5.08042023 9.92363053,5.79914183 11.0028382,5.79914183 Z M5.43179331,5.6 L5.29003013,5.6 C4.65900677,5.66471489 4.37533865,5.87369154 4.438884,6.22755016 C4.40704044,6.61378394 4.70628479,6.80677679 5.33730815,6.80677679 C5.35169711,6.81694829 8.07987634,6.7736928 8.0800181,6.75852414 L8.41096425,6.75852414 C8.63121107,6.75852414 8.96215721,6.74282387 9.4039976,6.71028922 C9.81328562,6.71028922 10.0187359,6.51715461 10.0187359,6.13111575 C10.0187359,5.74486425 9.75044909,5.55160559 9.21481463,5.55160559 C7.54355079,5.58414024 6.28306348,5.6 5.43179331,5.6 Z M3.30389254,7.72416176 C3.30389254,7.78894753 3.33502728,7.85304221 3.39857262,7.91713689 C3.58775559,8.1102715 3.76060034,8.39987596 3.91863085,8.78605658 C4.13896627,9.23711158 4.42261667,9.38197582 4.7699719,9.22056072 C5.21097943,9.02744383 5.32104082,8.67372698 5.10091805,8.15843554 C4.88003329,7.67569647 4.6752741,7.3220505 4.48616202,7.09654073 C4.20236985,6.83931144 3.88699994,6.79105879 3.54047757,6.95165876 C3.22496589,7.17716853 3.14586204,7.43439782 3.30389254,7.72416176 Z M2.83111234,9.55855958 C2.26363433,9.62334536 1.97998393,9.79992912 1.97998393,10.0896931 C2.01092374,10.6041339 2.27921056,10.8620543 2.78383432,10.8620543 C4.26515322,10.7329612 6.12489121,10.6847086 8.36368622,10.7173141 L12.0046608,10.7173141 C12.4458101,10.6521739 12.6668367,10.4108044 12.6668367,9.99306373 C12.6565234,9.51468388 11.7405206,9.56963483 11.1788726,9.57268274 C10.8351855,9.5752522 10.7027787,10.2914043 9.77112879,10.2914043 C8.83935485,10.2914043 8.37433618,9.57496867 8.01142244,9.57268274 C9.24027885,9.58037339 2.89839669,9.56070375 2.83111234,9.55855958 Z" id="Fill-1" fill="#D1DCDE" mask="url(#mask-2)"></path>
                </g>
                <path d="M8.00818429,6.84608063 L9.41598127,8.28378963 C11.2895766,5.92642744 13.539376,4.99167648 13.6992671,4.86956522 C13.7018366,4.87525346 13.991317,5.24619454 13.991317,5.24619454 C11.7946788,7.45162205 9.81309537,9.26436555 9.76796152,9.72121511 L7.30434783,7.92440225 L8.00818429,6.84608063 Z" id="Fill-4" fill="#D1DCDE"></path>
            </g>
        </g>
    </g>
</svg>