<?xml version="1.0" encoding="UTF-8"?>
<svg width="56px" height="20px" viewBox="0 0 56 20" version="1.1" xmlns="http://www.w3.org/2000/svg" xmlns:xlink="http://www.w3.org/1999/xlink">
    <!-- Generator: Sketch 49 (51002) - http://www.bohemiancoding.com/sketch -->
    <title>Group 26</title>
    <desc>Created with Sketch.</desc>
    <defs></defs>
    <g id="Page-2" stroke="none" stroke-width="1" fill="none" fill-rule="evenodd">
        <g id="Group-26" fill="#D1DCDE">
            <text id="抢资源" font-family="PingFangSC-Regular, PingFang SC" font-size="13" font-weight="normal">
                <tspan x="17" y="14">抢资源</tspan>
            </text>
            <g id="qiangziyuan" transform="translate(0.000000, 4.000000)">
                <path d="M10.4076793,1.76171654 L10.4076793,2.19536985 L5.20383964,3.92998306 L0,2.19536985 L0,1.76171654 L5.20383964,0.0271033315 L10.4076793,1.76171654 Z M5.20383964,4.79728967 L1.30095991,3.49632976 L0,3.92998306 L0,4.36363636 L5.20383964,6.09824958 L10.4076793,4.36363636 L10.4076793,3.92998306 L9.10671937,3.49632976 L5.20383964,4.79728967 Z M6.31664041,6.59462259 C6.04806615,7.02070441 5.86657468,7.52446756 5.7784498,8.07497937 L5.20383964,8.26651609 L0,6.53190288 L0,6.09824958 L1.30095991,5.66459627 L5.20383964,6.96555618 L6.31664041,6.59462259 Z M5.73866225,8.9555485 C5.74557718,9.39286012 5.80532201,9.81117127 5.91569955,10.197496 L5.20383964,10.4347826 L0,8.7001694 L0,8.26651609 L1.30095991,7.83286279 L5.20383964,9.1338227 L5.73866225,8.9555485 Z" id="Combined-Shape"></path>
                <path d="M9.92869565,6.18782609 L10.4243478,6.18782609 C10.6956522,6.7826087 11.16,7.29913043 11.8173913,7.74782609 L11.5252174,8.20173913 C11.4052174,8.12347826 11.2956522,8.04521739 11.1965217,7.96173913 L11.1965217,9.22956522 C11.1913043,9.51652174 11.0347826,9.67304348 10.7217391,9.69391304 C10.5182609,9.69391304 10.3304348,9.68347826 10.1530435,9.67304348 L10.0173913,9.1773913 C10.2052174,9.19826087 10.3721739,9.20869565 10.5078261,9.20869565 C10.6173913,9.20869565 10.6747826,9.15130435 10.6747826,9.04173913 L10.6747826,8.29565217 L9.69391304,8.29565217 L9.69391304,10.1269565 C9.69391304,10.3043478 9.77217391,10.3930435 9.93391304,10.3930435 L10.7843478,10.3930435 C11.0034783,10.3930435 11.133913,10.346087 11.186087,10.2626087 C11.2382609,10.1791304 11.28,9.99652174 11.3113043,9.71478261 L11.8173913,9.88695652 C11.76,10.3721739 11.6765217,10.6643478 11.5721739,10.7582609 C11.4626087,10.8469565 11.253913,10.893913 10.946087,10.893913 L9.69391304,10.893913 C9.32869565,10.893913 9.15130435,10.706087 9.15130435,10.3304348 L9.15130435,8.06086957 C9.05217391,8.14434783 8.95304348,8.2173913 8.85913043,8.28521739 L8.56695652,7.83130435 C9.15652174,7.41391304 9.61043478,6.86608696 9.92869565,6.18782609 Z M9.4173913,7.81565217 L11.0243478,7.81565217 C10.6591304,7.49217391 10.3721739,7.13217391 10.173913,6.73565217 C9.95478261,7.15826087 9.69913043,7.51826087 9.4173913,7.81565217 Z M8.68695652,8.15478261 L8.68695652,8.6973913 C8.53043478,8.78086957 8.36869565,8.85913043 8.21217391,8.93217391 L8.21217391,10.3982609 C8.21217391,10.7530435 8.02956522,10.9356522 7.67478261,10.9356522 L7.21043478,10.9356522 L7.09043478,10.4086957 C7.23130435,10.4295652 7.36173913,10.44 7.48695652,10.44 C7.60173913,10.44 7.66434783,10.3773913 7.66434783,10.2626087 L7.66434783,9.16695652 C7.46608696,9.24 7.27304348,9.31304348 7.07478261,9.37565217 L6.93913043,8.85391304 C7.18434783,8.79652174 7.42434783,8.72347826 7.66434783,8.64 L7.66434783,7.6173913 L7.04347826,7.6173913 L7.04347826,7.09043478 L7.66434783,7.09043478 L7.66434783,6.16695652 L8.21217391,6.16695652 L8.21217391,7.09043478 L8.65565217,7.09043478 L8.65565217,7.6173913 L8.21217391,7.6173913 L8.21217391,8.40521739 C8.36869565,8.32695652 8.53043478,8.24347826 8.68695652,8.15478261 Z" id="抢"></path>
            </g>
        </g>
    </g>
</svg>