<?xml version="1.0" encoding="UTF-8"?>
<svg width="43px" height="20px" viewBox="0 0 43 20" version="1.1" xmlns="http://www.w3.org/2000/svg" xmlns:xlink="http://www.w3.org/1999/xlink">
    <!-- Generator: Sketch 49 (51002) - http://www.bohemiancoding.com/sketch -->
    <title>Group 12</title>
    <desc>Created with Sketch.</desc>
    <defs></defs>
    <g id="Page-2" stroke="none" stroke-width="1" fill="none" fill-rule="evenodd">
        <g id="Group-12" fill="#D1DCDE">
            <text id="取卡" font-family="PingFangSC-Regular, PingFang SC" font-size="13" font-weight="normal">
                <tspan x="17" y="14">取卡</tspan>
            </text>
            <g id="quka" transform="translate(0.000000, 3.000000)">
                <path d="M9.10400964,9.09394767 C9.10400964,8.65921928 8.75740488,8.30920958 8.32237948,8.28590535 L8.32237948,8.28257907 L4.58768583,8.28257907 C4.13091123,8.28257907 3.76214456,8.64457554 3.76214456,9.09394767 C3.76214456,9.54285332 4.13091123,9.90531628 4.58768583,9.90531628 L8.3208525,9.90531628 L8.3208525,9.90150323 C8.75740488,9.87813815 9.10400964,9.52652616 9.10400964,9.09394767 Z M3.76214456,4.82043004 L3.76214456,7.56477219 C3.76214456,7.56477219 3.95656678,8.04243797 4.70877155,8.04243797 L8.26030964,8.04243797 C8.26030964,8.04243797 8.50058266,8.08204909 8.70775726,7.88914521 C9.22330012,7.41156055 10.782516,5.93824221 11.0467461,5.67901558 C11.3621509,5.36867783 11.1917477,4.8187669 11.0467461,4.53402528 C10.9019096,4.24713374 9.92948901,2.1956311 9.92948901,2.1956311 C9.92948901,2.1956311 9.71135726,1.76637889 9.10400964,2.02767431 C8.49697155,2.29077483 8.44916043,2.57543533 8.52099059,3.07703409 C8.59418266,3.57806496 9.24909377,4.62750588 9.24909377,4.62750588 C9.24909377,4.62750588 9.27294774,4.89973339 9.10409218,4.98942122 C8.93335885,5.08014344 6.89533028,6.84524133 6.89533028,6.84524133 L6.14329059,6.84524133 L3.76214456,4.82043004 Z" id="我的白拿_1" transform="translate(7.493551, 5.924324) rotate(-135.000000) translate(-7.493551, -5.924324) "></path>
                <path d="M7.97789524,11.405583 L0.68648189,11.405583 C0.364359899,11.405583 0.103174604,11.2100931 0.103174604,10.9689938 L0.103174604,9.98666046 L8.56120252,9.98666046 L8.56120252,10.9689938 C8.56120252,11.2100931 8.30001723,11.405583 7.97789524,11.405583 Z M3.21712904,6.05731928 C3.13258598,6.37046858 3.07364859,6.58803376 3.07364859,6.58803376 C3.07364859,6.58803376 2.73626543,7.36823698 3.48725755,7.78147536 C4.23931769,8.19315028 4.71168177,7.7746719 5.02142805,7.35413083 C5.20789967,7.09901789 5.34985489,6.49466979 5.43286722,6.05731928 L7.97789524,6.05731928 C8.30001723,6.05731928 8.56120252,6.25280916 8.56120252,6.49390845 L8.56120252,9.65922631 L0.103174604,9.65922631 L0.103174604,6.49390845 C0.103174604,6.25280916 0.364359899,6.05731928 0.68648189,6.05731928 L3.21712904,6.05731928 Z M6.98131903,7.90519593 C7.10251099,7.93803903 7.2270172,7.86525872 7.25956082,7.74246415 L7.53094697,7.43826746 C7.56329443,7.31558881 7.49142382,7.18929355 7.37038673,7.15645045 C7.24919477,7.12360734 7.12464727,7.19638766 7.09214494,7.31918223 L6.82075879,7.62337892 C6.78837004,7.74605757 6.86028195,7.87223691 6.98131903,7.90519593 Z M5.81470446,7.90519593 C5.93585512,7.93803903 6.0603923,7.86525872 6.09294625,7.74246415 L6.3642911,7.43826746 C6.39667986,7.31558881 6.32480924,7.18929355 6.20377216,7.15645045 C6.0825802,7.12360734 5.95803269,7.19638766 5.92553037,7.31918223 L5.65414422,7.62337892 C5.62175547,7.74605757 5.69366737,7.87223691 5.81470446,7.90519593 Z" id="Fill-1" transform="translate(4.332189, 8.731451) rotate(-2.000000) translate(-4.332189, -8.731451) "></path>
            </g>
        </g>
    </g>
</svg>