<?xml version="1.0" encoding="UTF-8"?>
<svg width="16px" height="16px" viewBox="0 0 16 16" version="1.1" xmlns="http://www.w3.org/2000/svg" xmlns:xlink="http://www.w3.org/1999/xlink">
    <!-- Generator: Sketch 48.2 (47327) - http://www.bohemiancoding.com/sketch -->
    <title>消息已读</title>
    <desc>Created with Sketch.</desc>
    <defs></defs>
    <g id="列表页" stroke="none" stroke-width="1" fill="none" fill-rule="evenodd" transform="translate(-1428.000000, -55.000000)">
        <g id="消息已读" transform="translate(1428.000000, 55.000000)" fill="#D1DCDE" fill-rule="nonzero">
            <path d="M5.93360466,9.31905361 L7.99999086,10.8974136 L15.3066602,5.03238311 C15.3007945,5.03075679 15.2949105,5.02956902 15.2890265,5.02865534 C15.2949105,5.02708384 15.3008128,5.02556714 15.3066602,5.02390427 L10.0690998,1.59268205 L9.37379907,1.06134805 L7.99999086,0.0115810357 L6.62930737,1.05862532 L5.93360464,1.59034307 L0.692517429,5.02390427 C0.698675554,5.02564023 0.704888482,5.02723002 0.711083143,5.02887462 C0.704888482,5.02982484 0.698693821,5.03104916 0.692517429,5.03278512 L5.93360466,9.31905361 Z M0.0546315893,5.69146605 C0.0249374107,5.77813652 0.004654,5.86869921 0.004654,5.96436016 L0.004654,14.3032359 C0.004654,14.4039586 0.0269109286,14.4992358 0.0596933036,14.5897985 L5.27346188,9.88826825 L0.0546315893,5.69146605 Z M7.99999086,11.9717948 L5.96872602,10.4195657 L0.704230661,15.1652626 C0.786990625,15.1871175 0.872107857,15.2027229 0.962286821,15.2027229 L15.0372929,15.2027229 C15.1278556,15.2027229 15.2137403,15.1871175 15.2965185,15.1644768 L10.0339601,10.4172267 L7.99999086,11.9717948 Z M15.9453684,5.69146605 L10.7288588,9.88629473 L15.9406722,14.5897802 C15.9734545,14.4992175 15.9953277,14.4039403 15.9953277,14.3032176 L15.9953277,5.96436016 C15.9953277,5.86869921 15.9750443,5.77813652 15.9453684,5.69146605 Z M5.93360466,9.31905361 L7.99999086,10.8974136 L15.3066602,5.03238311 C15.3007945,5.03075679 15.2949105,5.02956902 15.2890265,5.02865534 C15.2949105,5.02708384 15.3008128,5.02556714 15.3066602,5.02390427 L10.0690998,1.59268205 L9.37379907,1.06134805 L7.99999086,0.0115810357 L6.62930737,1.05862532 L5.93360464,1.59034307 L0.692517429,5.02390427 C0.698675554,5.02564023 0.704888482,5.02723002 0.711083143,5.02887462 C0.704888482,5.02982484 0.698693821,5.03104916 0.692517429,5.03278512 L5.93360466,9.31905361 Z M0.0546315893,5.69146605 C0.0249374107,5.77813652 0.004654,5.86869921 0.004654,5.96436016 L0.004654,14.3032359 C0.004654,14.4039586 0.0269109286,14.4992358 0.0596933036,14.5897985 L5.27346188,9.88826825 L0.0546315893,5.69146605 Z M7.99999086,11.9717948 L5.96872602,10.4195657 L0.704230661,15.1652626 C0.786990625,15.1871175 0.872107857,15.2027229 0.962286821,15.2027229 L15.0372929,15.2027229 C15.1278556,15.2027229 15.2137403,15.1871175 15.2965185,15.1644768 L10.0339601,10.4172267 L7.99999086,11.9717948 Z M15.9453684,5.69146605 L10.7288588,9.88629473 L15.9406722,14.5897802 C15.9734545,14.4992175 15.9953277,14.4039403 15.9953277,14.3032176 L15.9953277,5.96436016 C15.9953277,5.86869921 15.9750443,5.77813652 15.9453684,5.69146605 Z" id="Shape"></path>
        </g>
    </g>
</svg>