<?xml version="1.0" encoding="UTF-8"?>
<svg width="43px" height="20px" viewBox="0 0 43 20" version="1.1" xmlns="http://www.w3.org/2000/svg" xmlns:xlink="http://www.w3.org/1999/xlink">
    <!-- Generator: Sketch 49 (51002) - http://www.bohemiancoding.com/sketch -->
    <title>Group 21</title>
    <desc>Created with Sketch.</desc>
    <defs>
        <polygon id="path-1" points="0.00111801242 0.0052173913 10.2842609 0.0052173913 10.2842609 12.3137702 0.00111801242 12.3137702"></polygon>
    </defs>
    <g id="Page-2" stroke="none" stroke-width="1" fill="none" fill-rule="evenodd">
        <g id="Group-21" transform="translate(0.000000, 1.000000)">
            <text id="审批" fill="#D1DCDE" font-family="PingFangSC-Regular, PingFang SC" font-size="13" font-weight="normal">
                <tspan x="17" y="14">审批</tspan>
            </text>
            <g id="shenpi" transform="translate(0.000000, 3.000000)">
                <g id="Group-3">
                    <mask id="mask-2" fill="white">
                        <use xlink:href="#path-1"></use>
                    </mask>
                    <g id="Clip-2"></g>
                    <path d="M6.51730435,10.4370186 L7.3744472,9.14008696 C6.9778882,8.77039752 6.72896273,8.24269565 6.72896273,7.65691304 C6.72896273,6.53737267 7.63677019,5.62956522 8.75631056,5.62956522 C9.36598137,5.62956522 9.91159006,5.89785093 10.2842609,6.32271429 L10.2842609,0.898173913 C10.2842609,0.279484472 10.0099193,0.0052173913 9.39130435,0.0052173913 L0.891428571,0.0052173913 C0.872068323,0.0052173913 0.852708075,0.0052173913 0.834801242,0.00667080745 C0.286192547,0.0231242236 0.0253229814,0.272049689 0,0.810167702 L0,11.5088012 C0.0253229814,12.0454658 0.28473913,12.2959379 0.834801242,12.3122981 C0.854161491,12.3122981 0.872068323,12.3137702 0.891428571,12.3137702 L4.94159627,12.3137702 L4.94159627,11.1897764 C4.94159627,10.7739503 5.27852795,10.4385466 5.69291925,10.4385466 L6.51730435,10.4385466 L6.51730435,10.4370186 Z M1.97217391,2.22035404 L8.29861491,2.22035404 C8.45221118,2.22035404 8.5773913,2.37393168 8.5773913,2.52743478 C8.5773913,2.67950311 8.4536646,2.83453416 8.30014286,2.83453416 L1.97217391,2.83453416 C1.81867081,2.83453416 1.69492547,2.68103106 1.69492547,2.52743478 C1.69339752,2.37691304 1.81867081,2.22035404 1.97217391,2.22035404 Z M1.97217391,4.21043478 L8.29861491,4.21043478 C8.45221118,4.21043478 8.57586335,4.36401242 8.57586335,4.51751553 C8.57586335,4.66956522 8.45221118,4.82461491 8.30014286,4.82461491 L1.97217391,4.82461491 C1.81867081,4.82461491 1.69492547,4.67101863 1.69492547,4.51751553 C1.69339752,4.36691925 1.81867081,4.21043478 1.97217391,4.21043478 Z M1.97217391,6.20049689 L6.0328323,6.20049689 C6.1863354,6.20049689 6.31008075,6.35401863 6.31008075,6.50759627 C6.31008075,6.65964596 6.1863354,6.81467702 6.0328323,6.81467702 L1.97217391,6.81467702 C1.81867081,6.81467702 1.69492547,6.66109938 1.69492547,6.50759627 C1.69339752,6.35554658 1.81867081,6.20049689 1.97217391,6.20049689 Z M5.15327329,8.80468323 L1.97217391,8.80468323 C1.81867081,8.80468323 1.69492547,8.65118012 1.69492547,8.49767702 C1.69492547,8.34562733 1.81867081,8.19057764 1.97217391,8.19057764 L5.15327329,8.19057764 C5.30532298,8.19057764 5.42904969,8.34562733 5.43057764,8.49767702 C5.43057764,8.64819876 5.30685093,8.80468323 5.15327329,8.80468323 Z" id="Fill-1" fill="#D1DCDE" mask="url(#mask-2)"></path>
                </g>
                <path d="M11.3396087,11.0213478 L10.6300621,11.0213478 L10.2857143,10.5398571 L10.2588634,10.5025901 L9.24368944,9.08047826 C9.81463975,8.87921739 10.227559,8.34109938 10.227559,7.70159627 C10.227559,6.89221118 9.5702236,6.23478261 8.76074534,6.23478261 C7.95128571,6.23478261 7.29393168,6.89221118 7.29393168,7.70159627 C7.29393168,8.33964596 7.70686957,8.87921739 8.27627329,9.08047826 L6.8884472,11.0213478 L6.1773913,11.0213478 C5.81962733,11.0213478 5.52892547,11.3105404 5.52892547,11.6698137 L5.52892547,12.7118385 C5.52892547,13.0695839 5.81809938,13.3602298 6.1773913,13.3602298 L11.3396087,13.3602298 C11.6974286,13.3602298 11.9880559,13.0695839 11.9880559,12.7118385 L11.9880559,11.6683602 C11.9880559,11.3120683 11.6974286,11.0213478 11.3396087,11.0213478 Z" id="Fill-4" fill="#D1DCDE"></path>
            </g>
        </g>
    </g>
</svg>