<?xml version="1.0" encoding="UTF-8"?>
<svg width="69px" height="20px" viewBox="0 0 69 20" version="1.1" xmlns="http://www.w3.org/2000/svg" xmlns:xlink="http://www.w3.org/1999/xlink">
    <!-- Generator: Sketch 49 (51002) - http://www.bohemiancoding.com/sketch -->
    <title>Group 41</title>
    <desc>Created with Sketch.</desc>
    <defs></defs>
    <g id="Page-2" stroke="none" stroke-width="1" fill="none" fill-rule="evenodd">
        <g id="Group-41" transform="translate(0.000000, 1.000000)" fill="#D1DCDE">
            <text id="更换手牌" font-family="PingFangSC-Regular, PingFang SC" font-size="13" font-weight="normal">
                <tspan x="17" y="14">更换手牌</tspan>
            </text>
            <g id="shoupaigenghuan" transform="translate(0.000000, 3.000000)" fill-rule="nonzero">
                <path d="M1.74817519,8.51230221 C1.8097284,8.29662903 1.9924468,8.22342856 2.2530582,8.19842212 C2.5802669,8.16676662 3.03033745,8.21083366 3.51677131,8.14396122 C4.36164139,8.02794706 5.27743445,7.70463612 6.24564021,7.3188089 C7.97639036,6.52087948 8.40603999,5.62382599 8.86089476,4.97546149 C9.31568842,4.32715815 9.54132747,3.46636096 9.68193532,3.22023986 C9.87443622,2.88396708 10.2978189,2.93167196 10.6105679,2.93167196 C10.8095038,2.93167196 11.0274391,3.04721223 11.0718578,3.32353675 C11.18,5.00077366 10.483381,6.45957147 9.85995046,7.3188089 L9.17002067,7.75897474 L9.17002067,7.21927219 L7.54857234,7.21927219 C7.55243443,7.75571673 7.55243443,8.02475418 7.54857234,8.0263846 L7.17726866,8.0263846 L7.17726866,8.29280776 L7.16173898,8.32881949 L7.16173898,9.42830987 L6.64574368,9.7185738 C5.31164256,10.2286537 3.97425514,10.4221634 3.36732863,10.4221634 C2.50622575,10.4228818 1.74733451,9.33769901 1.74817519,8.51230221 Z M0.0171957672,6.37333216 C-0.0959447385,4.38788595 0.345581422,3.42587067 1.47012346,2.52626455 C2.69424809,1.54699236 4.67963315,0.902632568 5.55071723,0.610487948 C6.29096061,0.362104644 8.36813286,-0.198370371 9.3408172,0.0798647857 C10.5131252,0.415128748 10.8568571,1.58312639 10.9531076,2.36427278 C10.1299118,2.25704762 8.42144738,2.80020459 8.18220455,2.87877014 C9.00384124,2.60172722 4.80043151,3.95852675 3.55469371,4.5453839 C0.863731924,5.81291828 1.00261258,7.94985541 1.10387654,9.64465493 C0.585664903,9.02566846 0.130580835,8.36296652 0.0171957672,6.37333216 Z M3.84712875,2.17858907 L4.453398,3.20160729 L8.63346734,1.7305973 L7.92056908,0.702443269 L3.84712875,2.17858907 Z" id="Fill-1"></path>
                <path d="M12.3147143,8.96071432 L12.3147143,10.4705714 L12.6267143,10.4705714 L12.6267143,10.9608571 L11.3174286,10.9608571 C11.6071429,11.4567143 12.0528571,11.8467143 12.6601429,12.1308571 L12.4205714,12.6322857 C11.7241429,12.2367143 11.2171429,11.7241429 10.894,11.1001429 C10.6488571,11.6962857 10.1307143,12.2088571 9.33957144,12.6322857 L8.99414288,12.1865714 C9.69057144,11.8634286 10.1585714,11.4511429 10.3981429,10.9608571 L9.18357144,10.9608571 L9.18357144,10.4705714 L9.54014288,10.4705714 L9.54014288,9.11671432 L9.529,9.12228568 L9.217,8.71 C9.75742856,8.36457144 10.1251429,7.93557144 10.3201429,7.42857144 L10.8327143,7.49542856 C10.7881429,7.618 10.738,7.735 10.6822857,7.84642856 L11.8077143,7.84642856 L11.8077143,8.22528568 C11.6628571,8.50942856 11.5235714,8.75457144 11.3842857,8.96071432 L12.3147143,8.96071432 Z M10.0081429,10.4705714 L10.5597143,10.4705714 C10.6154286,10.1752857 10.6544286,9.82428568 10.6655714,9.42314288 L10.0081429,9.42314288 L10.0081429,10.4705714 Z M11.0667143,10.4705714 L11.8467143,10.4705714 L11.8467143,9.42314288 L11.1558571,9.42314288 C11.1447143,9.83542856 11.1168571,10.1808571 11.0667143,10.4705714 Z M10.8494286,8.96071432 C10.9831429,8.76571432 11.1224286,8.54285712 11.2561429,8.29214288 L10.4148571,8.29214288 C10.2254286,8.53728568 10.0081429,8.76014288 9.75185712,8.96071432 L10.8494286,8.96071432 Z M8.14171432,12.5431429 L7.66814288,12.5431429 L7.55114288,12.0361429 C7.696,12.0584286 7.82971432,12.0695714 7.95785712,12.0695714 C8.09157144,12.0695714 8.15842856,11.9971429 8.15842856,11.8578571 L8.15842856,10.6767143 C7.95785712,10.7547143 7.76285712,10.8215714 7.56228568,10.8884286 L7.42857144,10.3535714 C7.67371432,10.2978571 7.91328568,10.2254286 8.15842856,10.1362857 L8.15842856,8.94957144 L7.54,8.94957144 L7.54,8.44257144 L8.15842856,8.44257144 L8.15842856,7.46757144 L8.68214288,7.46757144 L8.68214288,8.44257144 L9.20585712,8.44257144 L9.20585712,8.94957144 L8.68214288,8.94957144 L8.68214288,9.92457144 C8.866,9.83542856 9.04985712,9.74628568 9.22814288,9.646 L9.22814288,10.1808571 C9.04985712,10.2755714 8.866,10.3647143 8.68214288,10.4538571 L8.68214288,11.9915714 C8.68214288,12.3592857 8.49828568,12.5431429 8.14171432,12.5431429 Z" id="换"></path>
            </g>
        </g>
    </g>
</svg>