<?xml version="1.0" encoding="UTF-8"?>
<svg width="42px" height="20px" viewBox="0 0 42 20" version="1.1" xmlns="http://www.w3.org/2000/svg" xmlns:xlink="http://www.w3.org/1999/xlink">
    <!-- Generator: Sketch 49 (51002) - http://www.bohemiancoding.com/sketch -->
    <title>Group 27</title>
    <desc>Created with Sketch.</desc>
    <defs></defs>
    <g id="Page-2" stroke="none" stroke-width="1" fill="none" fill-rule="evenodd">
        <g id="Group-27" fill="#D1DCDE">
            <text id="体测" font-family="PingFangSC-Regular, PingFang SC" font-size="13" font-weight="normal">
                <tspan x="17" y="14">体测</tspan>
            </text>
            <g id="tice" transform="translate(0.000000, 4.000000)">
                <path d="M2.90124158,1.5079063 C2.90124158,2.04432211 3.19614641,2.53997657 3.67491654,2.8081757 C4.15368668,3.07639239 4.74349634,3.07639239 5.22219619,2.8081757 C5.70096633,2.53997657 5.99588873,2.04432211 5.99588873,1.5079063 C5.99588873,0.678693997 5.30312152,0.00651830161 4.44859151,0.00651830161 C3.59400878,0.00651830161 2.90124158,0.678693997 2.90124158,1.5079063 Z" id="Fill-1"></path>
                <path d="M11.4117013,0.00644802343 C11.0913206,0.00644802343 10.8313441,0.218793558 10.8313441,0.480562225 L10.8313441,1.11278477 C10.8313441,1.37448316 11.0913206,1.58689898 11.4117013,1.58689898 C11.7319239,1.58689898 11.9918302,1.37448316 11.9918302,1.11278477 L11.9918302,0.480632504 C11.9918302,0.218863836 11.7319941,0.00644802343 11.4117013,0.00644802343 Z M11.9918302,3.62161464 L11.9918302,11.2597219 C11.9918302,11.5214043 11.7319941,11.7338214 11.4117013,11.7338214 L0.5802694,11.7338214 C0.259906296,11.7338214 0,11.1581617 0,10.8964794 C0,10.6346564 0.259906296,10.1188112 0.5802694,10.1188112 L2.90124158,10.1188112 L2.90124158,4.47607949 C1.20996193,3.87136723 0,2.31090107 0,0.480565067 C0,0.21879483 0.259906296,0.00644802343 0.5802694,0.00644802343 C0.900650073,0.00644802343 1.16048609,0.21879483 1.16048609,0.480565067 C1.16048609,1.97488149 2.15035432,3.2269827 3.49860615,3.64145077 L5.39864714,3.64145077 C6.74677599,3.2269827 7.73671449,1.97488149 7.73671449,0.480565067 C7.73671449,0.21879483 7.99655051,0.00644802343 8.31691362,0.00644802343 C8.637347,0.00644802343 8.89725329,0.21879483 8.89725329,0.480565067 C8.89725329,2.31090107 7.68729136,3.87136723 5.99588873,4.47607949 L5.99588873,10.1187409 L10.8312738,10.1187409 L10.8312738,3.62161464 C10.8312738,3.35993225 11.0913206,3.14751516 11.411631,3.14751516 C11.7319941,3.14751516 11.9918302,3.35993225 11.9918302,3.62161464 Z" id="Fill-2"></path>
                <path d="M4.06186823,11.3854173 L4.83547291,11.3854173 L4.83547291,7.43446559 L4.06186823,7.43446559 L4.06186823,11.3854173 Z M9.86433382,7.1184246 C10.1847145,7.1184246 10.4446208,6.90600878 10.4446208,6.6443104 L10.4446208,4.74776574 C10.4446208,4.48599707 10.1847848,4.27365154 9.86433382,4.27365154 C9.54397072,4.27365154 9.28406442,4.48606735 9.28406442,4.74776574 L9.28406442,6.6443104 C9.28399414,6.90593851 9.54390044,7.1184246 9.86433382,7.1184246 Z" id="Fill-3"></path>
            </g>
        </g>
    </g>
</svg>