<?xml version="1.0" encoding="UTF-8"?>
<svg width="43px" height="20px" viewBox="0 0 43 20" version="1.1" xmlns="http://www.w3.org/2000/svg" xmlns:xlink="http://www.w3.org/1999/xlink">
    <!-- Generator: Sketch 49 (51002) - http://www.bohemiancoding.com/sketch -->
    <title>Group 32</title>
    <desc>Created with Sketch.</desc>
    <defs></defs>
    <g id="Page-2" stroke="none" stroke-width="1" fill="none" fill-rule="evenodd">
        <g id="Group-32" transform="translate(0.000000, 1.000000)" fill="#D1DCDE">
            <text id="退柜" font-family="PingFangSC-Regular, PingFang SC" font-size="13" font-weight="normal">
                <tspan x="17" y="14">退柜</tspan>
            </text>
            <g id="tuigui" transform="translate(0.000000, 5.000000)">
                <path d="M1.29238095,5.1447619 L3.9752381,5.1447619 L3.9752381,8.37333333 L1.29238095,8.37333333 L1.29238095,5.1447619 Z M1.29238095,3.13047619 L3.9752381,3.13047619 L3.9752381,4.75619048 L1.29238095,4.75619048 L1.29238095,3.13047619 Z M1.29238095,1.13904762 L3.9752381,1.13904762 L3.9752381,2.76380952 L1.29238095,2.76380952 L1.29238095,1.13904762 Z M6.79233182,5.1447619 C6.18672789,5.50022556 5.71073183,6.05271683 5.45238095,6.71419839 L5.45238095,5.1447619 L6.79233182,5.1447619 Z M5.45238095,3.13047619 L8.13619048,3.13047619 L8.13619048,4.75619048 L5.45238095,4.75619048 L5.45238095,3.13047619 Z M5.45238095,1.13904762 L8.13619048,1.13904762 L8.13619048,2.76380952 L5.45238095,2.76380952 L5.45238095,1.13904762 Z M4.3552381,1.16190476 L5.07333333,1.16190476 L5.07333333,8.39619048 L4.3552381,8.39619048 L4.3552381,1.16190476 Z" id="Shape" fill-rule="nonzero"></path>
                <path d="M5.41929463,8.91142857 C5.49695592,9.12957664 5.59803574,9.33661689 5.71950857,9.52952381 L0.357142857,9.52952381 C0.161904762,9.52952381 0.00285714286,9.41333333 0.00380952381,9.26952381 L0.00380952381,0.264761905 C0.00380952381,0.121904762 0.161904762,0.00571428571 0.357142857,0.00571428571 L9.07238095,0.00571428571 C9.26857143,0.00571428571 9.42666667,0.121904762 9.42666667,0.264761905 L9.42666667,4.89244772 C9.23042416,4.8232289 9.02524846,4.77294317 8.81333333,4.7437843 L8.81333333,0.84952381 C8.81333333,0.724761905 8.6752381,0.623809524 8.50571429,0.623809524 L0.921904762,0.623809524 C0.752380952,0.623809524 0.614285714,0.724761905 0.614285714,0.84952381 L0.615238095,8.68571429 C0.615238095,8.81047619 0.752380952,8.91142857 0.922857143,8.91142857 L5.41929463,8.91142857 Z" id="Shape" fill-rule="nonzero"></path>
                <path d="M9.42744637,7.2554048 L9.42744637,7.0883775 L8.24300126,7.0883775 L8.24300126,7.48319254 L9.19965863,7.48319254 C9.36149897,7.4933765 9.43740387,7.41747161 9.42744637,7.2554048 Z M8.24300126,6.84540878 L9.42744637,6.84540878 L9.42744637,6.45059374 L8.24300126,6.45059374 L8.24300126,6.84540878 Z M8.3796666,5.2406668 C6.93390848,5.2406668 5.76190476,6.41266321 5.76190476,7.85842864 C5.76190476,9.30418676 6.93390848,10.4761905 8.3796666,10.4761905 C9.82543202,10.4761905 10.9974284,9.30418676 10.9974284,7.85842864 C10.9974284,6.41266321 9.82543202,5.2406668 8.3796666,5.2406668 Z M10.0196799,8.80430298 L10.0196799,9.0472644 C9.20965265,8.88546058 8.70853424,8.48542206 8.51633194,7.84763831 L8.895966,7.84763831 C8.9768679,8.00970512 9.05280932,8.14634124 9.12375374,8.25763432 C9.32614,8.17673242 9.47301853,8.04006708 9.56414093,7.84763831 L9.92856479,7.84763831 C9.79688915,8.12096898 9.5892794,8.31836554 9.30599123,8.4398499 C9.44762436,8.57154745 9.68559607,8.69303181 10.0196799,8.80430298 Z M7.8633672,6.20762502 L9.79189945,6.20762502 L9.79189945,7.27058577 C9.80185694,7.5844989 9.64005313,7.74134223 9.30596201,7.74134223 L8.24300126,7.74134223 L8.24300126,8.59172544 C8.35427243,8.56136349 8.51633194,8.50582653 8.7289387,8.42466892 C8.70853424,8.43488211 8.72371522,8.42989241 8.77448164,8.40948795 L8.77448164,8.66763764 C8.51110845,8.81951318 8.20741582,8.95118151 7.8633672,9.06244537 L7.8633672,6.20762502 Z M7.19522149,6.14687189 C7.33685462,6.41023776 7.43296673,6.66317128 7.48374045,6.9061327 L7.1041064,6.9061327 C7.05333267,6.61263133 6.97240154,6.35947134 6.86113768,6.14687189 L7.19522149,6.14687189 Z M10.1259833,9.47247061 L7.92409843,9.47247061 C7.59003653,9.47247061 7.36225609,9.37613203 7.24077173,9.18392973 C7.09888291,9.35595404 6.89149963,9.47247061 6.61816896,9.53320183 L6.61816896,9.30541409 C6.88131567,9.20410772 7.00279272,9.02709371 6.98262204,8.77393372 L6.98262204,7.46800425 L6.61816896,7.46800425 L6.61816896,7.20986186 L7.37743707,7.20986186 L7.37743707,8.68281862 C7.38739457,9.02709371 7.57485555,9.19911802 7.9392794,9.19911802 L10.125954,9.19911802 L10.125954,9.47247061 L10.1259833,9.47247061 Z" id="Fill-1"></path>
            </g>
        </g>
    </g>
</svg>