<?xml version="1.0" encoding="UTF-8"?>
<svg width="107px" height="20px" viewBox="0 0 107 20" version="1.1" xmlns="http://www.w3.org/2000/svg" xmlns:xlink="http://www.w3.org/1999/xlink">
    <!-- Generator: Sketch 49 (51002) - http://www.bohemiancoding.com/sketch -->
    <title>Group 23</title>
    <desc>Created with Sketch.</desc>
    <defs>
        <polygon id="path-1" points="0.00102523659 0.0102523659 12.4551051 0.0102523659 12.4551051 12.9967717 0.00102523659 12.9967717"></polygon>
    </defs>
    <g id="Page-2" stroke="none" stroke-width="1" fill="none" fill-rule="evenodd">
        <g id="Group-23">
            <text id="修改已收款合同" fill="#D1DCDE" font-family="PingFangSC-Regular, PingFang SC" font-size="13" font-weight="normal">
                <tspan x="17" y="14">修改已收款合同</tspan>
            </text>
            <g id="xiugaihetong" transform="translate(0.000000, 4.000000)">
                <mask id="mask-2" fill="white">
                    <use xlink:href="#path-1"></use>
                </mask>
                <g id="Clip-2"></g>
                <path d="M10.8265326,8.17780512 C10.6536243,8.14316995 10.4747674,8.125 10.2916667,8.125 C8.79589547,8.125 7.58333333,9.33756214 7.58333333,10.8333333 C7.58333333,11.4224743 7.77144341,11.9676797 8.09087735,12.4121635 L1.21386304,12.4121635 C0.535839905,12.4121635 0,11.8653707 0,11.1983005 L0,1.21386304 C0,0.535839905 0.54679285,0 1.21386304,0 L9.61260121,0 C10.2797397,0 10.8265326,0.535839905 10.8265326,1.20291009 L10.8265326,8.17780512 Z M2.71207545,2.63550736 L8.12534175,2.63550736 C8.28939669,2.63550736 8.40967403,2.76680599 8.40967403,2.91985673 C8.40967403,3.08391167 8.27844374,3.2042061 8.12534175,3.2042061 L2.71207545,3.2042061 C2.54807177,3.2042061 2.42772608,3.04020242 2.42772608,2.91985673 C2.42772608,2.76680599 2.54807177,2.63550736 2.71207545,2.63550736 Z M2.71207545,4.63678628 L6.11317823,4.63678628 C6.27716483,4.63678628 6.39744217,4.76801656 6.39744217,4.92113565 C6.39744217,5.08520768 6.26622897,5.20548502 6.11317823,5.20548502 L2.71207545,5.20548502 C2.54807177,5.20548502 2.42772608,5.04141299 2.42772608,4.92113565 C2.42772608,4.76801656 2.54807177,4.63678628 2.71207545,4.63678628 Z M4.3962316,6.90052576 C4.3962316,7.0645807 4.2650184,7.18485804 4.11189932,7.18485804 L2.71207545,7.18485804 C2.54807177,7.18485804 2.42772608,7.05364485 2.42772608,6.90052576 C2.42772608,6.73645373 2.55902471,6.61617639 2.71207545,6.61617639 L4.11189932,6.61617639 C4.2650184,6.61617639 4.42900499,6.73645373 4.3962316,6.90052576 Z M7.68714396,9.90214184 L7.22858438,9.76572029 L5.89444401,10.4000171 L6.21156677,9.13140641 L5.22737382,7.86288118 L6.5615142,7.86288118 L7.22858438,6.59435594 L7.89565457,7.86288118 L9.2298633,7.86288118 L8.24561909,9.13140641 L7.68714396,9.90214184 Z" id="Fill-1" fill="#D1DCDE" mask="url(#mask-2)"></path>
                <path d="M10.2900649,12.9967717 C9.0943319,12.9967717 8.125,12.0274398 8.125,10.8317316 C8.125,9.63599236 9.0943319,8.66666667 10.2900649,8.66666667 C11.4857794,8.66666667 12.4551051,9.63599236 12.4551051,10.8317316 C12.4551051,12.0274398 11.4857794,12.9967717 10.2900649,12.9967717 Z M9.15240974,11.3988147 C9.12457211,11.4266523 9.1072574,11.4653109 9.1072574,11.5083028 L9.1072574,11.8176022 C9.1072574,11.9026485 9.17654107,11.9722488 9.26190401,11.9722488 L9.57119723,11.9722488 C9.6138787,11.9722488 9.65253725,11.9546175 9.6806915,11.9270903 L11.1176509,10.4897956 L10.5897106,9.96183047 L9.15240974,11.3988147 Z M11.5364384,9.8523362 L11.2271452,9.54306781 C11.1993262,9.51522397 11.160649,9.49788443 11.1176509,9.49788443 C11.0746777,9.49788443 11.0360005,9.51522397 11.0081566,9.54306781 L10.8083577,9.74315855 L11.3363228,10.2711237 L11.5361218,10.0713185 C11.5639656,10.0431891 11.5815907,10.0045368 11.5815907,9.96183047 C11.5815907,9.919149 11.5639656,9.88049045 11.5364384,9.8523362 Z" id="Fill-1-Copy-4" fill="#D1DCDE" mask="url(#mask-2)"></path>
            </g>
        </g>
    </g>
</svg>