<?xml version="1.0" encoding="UTF-8"?>
<svg width="69px" height="20px" viewBox="0 0 69 20" version="1.1" xmlns="http://www.w3.org/2000/svg" xmlns:xlink="http://www.w3.org/1999/xlink">
    <!-- Generator: Sketch 49 (51002) - http://www.bohemiancoding.com/sketch -->
    <title>Group 38</title>
    <desc>Created with Sketch.</desc>
    <defs>
        <polygon id="path-1" points="0.00102439024 0.0137268293 0.00102439024 13.9999829 7.41455366 13.9999829 7.41455366 0.0137268293 0.00102439024 0.0137268293"></polygon>
    </defs>
    <g id="Page-2" stroke="none" stroke-width="1" fill="none" fill-rule="evenodd">
        <g id="Group-38" transform="translate(-1.000000, -1.000000)">
            <text id="密码修改" fill="#D1DCDE" font-family="PingFangSC-Regular, PingFang SC" font-size="13" font-weight="normal">
                <tspan x="18" y="14">密码修改</tspan>
            </text>
            <g id="xiugaimima" transform="translate(6.806642, 8.971269) rotate(-330.000000) translate(-6.806642, -8.971269) translate(2.988461, 1.971269)">
                <mask id="mask-2" fill="white">
                    <use xlink:href="#path-1"></use>
                </mask>
                <g id="Clip-2"></g>
                <path d="M4.95181707,6.8224561 C5.31182195,6.95417561 5.64100976,7.13417805 5.93953415,7.36246341 C6.23804146,7.59074878 6.49707561,7.85632195 6.71655122,8.15923415 C6.9360439,8.46214634 7.10510244,8.79573902 7.22362439,9.16014878 C7.34212927,9.52449024 7.40142439,9.90423171 7.40142439,10.2993049 C7.40142439,10.8173049 7.30484146,11.3002195 7.11164146,11.7479976 C6.91850976,12.1957756 6.65293659,12.5864439 6.31487073,12.9201049 C5.97687317,13.2536976 5.58398537,13.5171366 5.13622439,13.7102854 C4.68844634,13.9034171 4.20993659,13.9999829 3.70067805,13.9999829 C3.1914878,13.9999829 2.71296098,13.9034171 2.2652,13.7102854 C1.81742195,13.5171366 1.42455122,13.2536976 1.08648537,12.9201049 C0.748487805,12.5864439 0.482914634,12.1957756 0.289714634,11.7479976 C0.0965658537,11.3002195 0,10.8173049 0,10.2993049 C0,9.89542195 0.061497561,9.51127561 0.184407317,9.14693415 C0.307317073,8.78260976 0.478509756,8.44894878 0.698002439,8.14601951 C0.917478049,7.84310732 1.17871463,7.57755122 1.48155854,7.34924878 C1.7844878,7.12096341 2.11594634,6.94102927 2.47595122,6.80930976 L2.47595122,1.2780122 C2.47595122,1.12001707 2.50442927,0.966358537 2.56150488,0.817104878 C2.61859756,0.66785122 2.69983171,0.533929268 2.80513902,0.415407317 C2.91051463,0.296902439 3.03562683,0.200336585 3.18047561,0.125709756 C3.32534146,0.0510829268 3.48118537,0.0137268293 3.64799024,0.0137268293 C3.81484634,0.0137268293 3.97724634,0.0510829268 4.13530976,0.125709756 C4.29337317,0.200336585 4.43381707,0.296902439 4.5567439,0.415407317 C4.67965366,0.533929268 4.77621951,0.66785122 4.84644146,0.817104878 C4.91668049,0.966358537 4.95181707,1.12001707 4.95181707,1.2780122 L4.95181707,6.8224561 Z M3.72702195,11.5767366 C4.07821707,11.5767366 4.37674146,11.4538268 4.62256098,11.2079902 C4.86838049,10.9621707 4.99130732,10.6592585 4.99130732,10.2993049 C4.99130732,9.94810976 4.86838049,9.64960244 4.62256098,9.40376585 C4.37674146,9.15794634 4.07821707,9.03503659 3.72702195,9.03503659 C3.36708537,9.03503659 3.06417317,9.15794634 2.81833659,9.40376585 C2.57251707,9.64960244 2.44960732,9.94810976 2.44960732,10.2993049 C2.44960732,10.6592585 2.57251707,10.9621707 2.81833659,11.2079902 C3.06417317,11.4538268 3.36708537,11.5767366 3.72702195,11.5767366 Z M6.57170244,1.67308537 C7.13358049,1.67308537 7.41455366,1.93652439 7.41455366,2.46333415 L7.41455366,3.31931463 C7.41455366,3.62663171 7.33772439,3.83951707 7.18406585,3.95809024 C7.03047561,4.0766122 6.86141707,4.13583902 6.67707805,4.13583902 L5.76832439,4.13583902 L5.76832439,1.67308537 L6.57170244,1.67308537 Z" id="Fill-1" fill="#D1DCDE" mask="url(#mask-2)"></path>
            </g>
        </g>
    </g>
</svg>