<?xml version="1.0" encoding="UTF-8"?>
<svg width="16px" height="16px" viewBox="0 0 16 16" version="1.1" xmlns="http://www.w3.org/2000/svg" xmlns:xlink="http://www.w3.org/1999/xlink">
    <!-- Generator: Sketch 48.2 (47327) - http://www.bohemiancoding.com/sketch -->
    <title>yifabu</title>
    <desc>Created with Sketch.</desc>
    <defs>
        <polygon id="path-1" points="0.00117216117 0.0177993788 15.9929866 0.0177993788 15.9929866 16.0195625 0.00117216117 16.0195625"></polygon>
    </defs>
    <g id="团操课表" stroke="none" stroke-width="1" fill="none" fill-rule="evenodd" transform="translate(-834.000000, -312.000000)">
        <g id="yifabu" transform="translate(834.000000, 312.000000)">
            <mask id="mask-2" fill="white">
                <use xlink:href="#path-1"></use>
            </mask>
            <g id="Clip-2"></g>
            <path d="M15.9504762,8.47339683 L15.9303346,8.40869353 L14.0470037,2.37059829 C13.9468034,2.05993651 13.6572796,1.84976801 13.3308913,1.8506862 C13.2182466,1.85052991 13.1070672,1.8754188 13.0051868,1.92349695 L13.0031355,1.92142613 C11.6903932,2.47568254 9.93451526,2.01254212 8.34051282,1.05162393 C6.64132845,0.028034188 4.53776801,-0.356278388 2.99008547,0.456908425 L2.98801465,0.456908425 L2.86675458,0.523604396 C2.54585592,0.725079365 2.35104274,1.07733333 2.35096459,1.45615629 C2.35096459,1.53703541 2.36102564,1.61809035 2.377221,1.69494505 L2.43184371,1.86893284 L4.40003907,8.18416606 L4.4385641,8.30345299 C4.54769231,8.57459341 4.81875458,8.76674969 5.13430037,8.76674969 C5.24762882,8.76674969 5.35691331,8.74248596 5.45199512,8.69600977 C5.48633944,8.67571184 5.51869109,8.6574652 5.55510623,8.63937485 C7.10661783,7.80184615 9.06883516,8.09924298 10.8953748,9.2300464 C12.2547302,10.0715409 13.9862662,10.3183394 15.2910574,9.78826862 C15.301138,9.7861978 15.3092259,9.78223199 15.3173919,9.77818803 C15.7158095,9.60832234 15.9929866,9.21584371 15.9929866,8.76071306 C15.9909158,8.66357998 15.9766545,8.56703297 15.9504762,8.47339683 Z M1.53365568,1.13052991 C1.40635897,0.721875458 0.967423687,0.493323565 0.554783883,0.618627595 C0.140112332,0.744009768 -0.0924835165,1.17684982 0.0348717949,1.58550427 L4.36973871,15.4746178 C4.49512088,15.8770989 4.92200244,16.1037363 5.33057875,15.9904274 L5.36888889,15.9782759 C5.76953358,15.8448059 5.99206838,15.4200537 5.8685812,15.019409 L1.53373382,1.13052991 L1.53365568,1.13052991 Z" id="Fill-1" fill="#FF3A52" mask="url(#mask-2)"></path>
        </g>
    </g>
</svg>