<?xml version="1.0" encoding="UTF-8"?>
<svg width="40px" height="40px" viewBox="0 0 40 40" version="1.1" xmlns="http://www.w3.org/2000/svg" xmlns:xlink="http://www.w3.org/1999/xlink">
    <!-- Generator: Sketch 47.1 (45422) - http://www.bohemiancoding.com/sketch -->
    <title>+++</title>
    <desc>Created with Sketch.</desc>
    <defs>
        <linearGradient x1="50%" y1="95.5230931%" x2="50%" y2="3.78147643%" id="linearGradient-1">
            <stop stop-color="#FFD66E" offset="0%"></stop>
            <stop stop-color="#E1E514" offset="100%"></stop>
        </linearGradient>
        <circle id="path-2" cx="20" cy="20" r="20"></circle>
        <filter x="-5.0%" y="-5.0%" width="110.0%" height="110.0%" filterUnits="objectBoundingBox" id="filter-3">
            <feGaussianBlur stdDeviation="1.5" in="SourceAlpha" result="shadowBlurInner1"></feGaussianBlur>
            <feOffset dx="0" dy="1" in="shadowBlurInner1" result="shadowOffsetInner1"></feOffset>
            <feComposite in="shadowOffsetInner1" in2="SourceAlpha" operator="arithmetic" k2="-1" k3="1" result="shadowInnerInner1"></feComposite>
            <feColorMatrix values="0 0 0 0 1   0 0 0 0 0.911789124   0 0 0 0 0.597537879  0 0 0 1 0" type="matrix" in="shadowInnerInner1"></feColorMatrix>
        </filter>
        <polygon id="path-4" points="19.9985989 19.9999299 19.9985989 0.000630472855 0 0.000630472855 0 19.9999299"></polygon>
    </defs>
    <g id="Page-1" stroke="none" stroke-width="1" fill="none" fill-rule="evenodd">
        <g id="新增" transform="translate(-16.000000, -171.000000)">
            <g id="+++" transform="translate(16.000000, 171.000000)">
                <g id="Oval-5-Copy-6">
                    <use fill="url(#linearGradient-1)" fill-rule="evenodd" xlink:href="#path-2"></use>
                    <use fill="black" fill-opacity="1" filter="url(#filter-3)" xlink:href="#path-2"></use>
                </g>
                <g id="新增" transform="translate(10.000000, 10.000000)">
                    <mask id="mask-5" fill="white">
                        <use xlink:href="#path-4"></use>
                    </mask>
                    <g id="Clip-2"></g>
                    <path d="M8.9999708,18 C8.44706724,18 8,17.0346807 8,15.8405548 L8,2.15944516 C8,0.965445375 8.44706724,0 8.9999708,0 C9.55293276,0 10,0.965445375 10,2.15944516 L10,15.8405548 C10,17.0346807 9.55293276,18 8.9999708,18 Z" id="Fill-1" fill="#FFFBEC" mask="url(#mask-5)"></path>
                    <path d="M0,8.9999708 C0,8.44706724 0.965445375,8 2.15944516,8 L15.8405548,8 C17.0346807,8 18,8.44706724 18,8.9999708 C18,9.55293276 17.0346807,10 15.8405548,10 L2.15944516,10 C0.965445375,10 0,9.55293276 0,8.9999708 Z" id="Fill-3" fill="#FFFBEC" mask="url(#mask-5)"></path>
                </g>
            </g>
        </g>
    </g>
</svg>