<?xml version="1.0" encoding="UTF-8"?>
<svg width="40px" height="40px" viewBox="0 0 40 40" version="1.1" xmlns="http://www.w3.org/2000/svg" xmlns:xlink="http://www.w3.org/1999/xlink">
    <!-- Generator: Sketch 47.1 (45422) - http://www.bohemiancoding.com/sketch -->
    <title>btn_shaixuan</title>
    <desc>Created with Sketch.</desc>
    <defs>
        <linearGradient x1="50%" y1="0%" x2="50%" y2="93.6637286%" id="linearGradient-1">
            <stop stop-color="#90BBFF" offset="0%"></stop>
            <stop stop-color="#5A65E5" offset="100%"></stop>
        </linearGradient>
        <circle id="path-2" cx="20" cy="20" r="20"></circle>
        <filter x="-5.0%" y="-5.0%" width="110.0%" height="110.0%" filterUnits="objectBoundingBox" id="filter-3">
            <feGaussianBlur stdDeviation="1.5" in="SourceAlpha" result="shadowBlurInner1"></feGaussianBlur>
            <feOffset dx="0" dy="1" in="shadowBlurInner1" result="shadowOffsetInner1"></feOffset>
            <feComposite in="shadowOffsetInner1" in2="SourceAlpha" operator="arithmetic" k2="-1" k3="1" result="shadowInnerInner1"></feComposite>
            <feColorMatrix values="0 0 0 0 0.840139678   0 0 0 0 0.895053529   0 0 0 0 1  0 0 0 1 0" type="matrix" in="shadowInnerInner1"></feColorMatrix>
        </filter>
    </defs>
    <g id="Page-1" stroke="none" stroke-width="1" fill="none" fill-rule="evenodd">
        <g id="Artboard" transform="translate(-624.000000, -123.000000)">
            <g id="btn_shaixuan" transform="translate(624.000000, 123.000000)">
                <g id="Oval-5-Copy-3">
                    <use fill="url(#linearGradient-1)" fill-rule="evenodd" xlink:href="#path-2"></use>
                    <use fill="black" fill-opacity="1" filter="url(#filter-3)" xlink:href="#path-2"></use>
                </g>
                <path d="M21.1807194,30 C20.983137,30 20.7936864,29.9231038 20.6541626,29.7863038 C20.5146754,29.6494679 20.4363971,29.4640566 20.4366901,29.2706868 L20.4366901,18.344683 C20.4366901,18.1636453 20.5042359,17.9898491 20.6292908,17.8577811 L25.4785949,12.5194981 L12.4066901,12.5194981 L17.2660308,17.860183 C17.3879355,17.9929321 17.4534667,18.1661547 17.4534667,18.344683 L17.4534667,24.9164245 L18.6343824,25.8524075 C18.9538696,26.1044981 19.0032469,26.563366 18.7432469,26.8771887 C18.6192176,27.0274679 18.4392176,27.1231132 18.2430271,27.143117 C18.0467267,27.1633 17.8503897,27.1061566 17.6973128,26.9843057 L16.2406828,25.8291774 C16.0665436,25.6908 15.9653714,25.4828755 15.9656645,25.2633 L15.9656645,18.6225132 L10.1892908,12.2748642 C9.99353992,12.0606302 9.94504175,11.7537981 10.0652249,11.4915264 C10.185408,11.2293623 10.4520015,11.0609075 10.7455912,11.0615887 L27.1502798,11.0615887 C27.4440527,11.0620189 27.7098769,11.2314774 27.8293641,11.4940358 C27.9487048,11.7567377 27.8991809,12.0634264 27.7028806,12.2772302 L21.9246388,18.6249151 L21.9246388,29.2706868 C21.9249319,29.4640566 21.8466535,29.6494679 21.7071297,29.7863038 C21.5676425,29.9231038 21.3781919,30 21.1807194,30 Z M29.2351883,18.7601736 L24.1901333,18.7601736 C23.7728806,18.7601736 23.4346388,19.0912396 23.4346388,19.4995604 C23.4346388,19.907917 23.7728806,20.2389472 24.1901333,20.2389472 L29.2351883,20.2389472 C29.652441,20.2389472 29.9906828,19.907917 29.9906828,19.4995604 C29.9906828,19.0912396 29.652441,18.7601736 29.2351883,18.7601736 Z M29.2351883,22.6195755 L24.1901333,22.6195755 C23.7728806,22.6195755 23.4346388,22.9506057 23.4346388,23.3589623 C23.4346388,23.767283 23.7728806,24.0983491 24.1901333,24.0983491 L29.2351883,24.0983491 C29.652441,24.0983491 29.9906828,23.767283 29.9906828,23.3589623 C29.9906828,22.9506057 29.652441,22.6195755 29.2351883,22.6195755 Z M29.2351883,26.4820245 L24.1901333,26.4820245 C23.7731736,26.4821679 23.4351883,26.8129113 23.4351883,27.2211245 C23.4351883,27.6291943 23.7731736,27.9600811 24.1901333,27.9602245 L29.2351883,27.9602245 C29.652148,27.9600811 29.9902432,27.6291943 29.9902432,27.2211245 C29.9902432,26.8129113 29.652148,26.4821679 29.2351883,26.4820245 Z" id="筛选" fill="#E0ECFF"></path>
            </g>
        </g>
    </g>
</svg>