<?xml version="1.0" encoding="UTF-8"?>
<svg width="42px" height="20px" viewBox="0 0 42 20" version="1.1" xmlns="http://www.w3.org/2000/svg" xmlns:xlink="http://www.w3.org/1999/xlink">
    <!-- Generator: Sketch 49 (51002) - http://www.bohemiancoding.com/sketch -->
    <title>Group 18</title>
    <desc>Created with Sketch.</desc>
    <defs>
        <polygon id="path-1" points="0.00087804878 0.00189878049 0.00087804878 11.2536732 8.99119024 11.2536732 8.99119024 0.00189878049"></polygon>
    </defs>
    <g id="Page-2" stroke="none" stroke-width="1" fill="none" fill-rule="evenodd">
        <g id="Group-18" transform="translate(0.000000, 1.000000)">
            <text id="付款" fill="#D1DCDE" font-family="PingFangSC-Regular, PingFang SC" font-size="13" font-weight="normal">
                <tspan x="16" y="14">付款</tspan>
            </text>
            <g id="huankuan" transform="translate(0.000000, 4.000000)">
                <mask id="mask-2" fill="white">
                    <use xlink:href="#path-1"></use>
                </mask>
                <g id="Clip-2"></g>
                <path d="M8.24193659,6.75806341 L5.24484878,6.75806341 L5.24484878,5.25949756 L8.24193659,5.25949756 C8.65627317,5.25949756 8.99119024,4.92383415 8.99119024,4.5102439 C8.99119024,4.09665366 8.65627317,3.76099024 8.24193659,3.76099024 L5.60304878,3.76099024 L8.02539512,1.33857073 C8.33111707,1.03292195 8.33111707,0.536897561 8.02539512,0.231190244 C7.7196878,-0.0745317073 7.22446829,-0.0745317073 6.918,0.231190244 L4.49559512,2.65353659 L2.07324878,0.231921951 C1.76752683,-0.0737853659 1.27151707,-0.0737853659 0.965795122,0.231921951 C0.660073171,0.537643902 0.660073171,1.03365366 0.965795122,1.33931707 L3.38894634,3.76099024 L0.749253659,3.76099024 C0.335678049,3.76099024 0,4.09665366 0,4.5102439 C0,4.92383415 0.335678049,5.25949756 0.749253659,5.25949756 L3.74634146,5.25949756 L3.74634146,6.75806341 L0.749253659,6.75806341 C0.335678049,6.75806341 0,7.09299512 0,7.50733171 C0,7.92165366 0.335678049,8.25658537 0.749253659,8.25658537 L3.74634146,8.25658537 L3.74634146,10.5044049 C3.74634146,10.9187415 4.08201951,11.2536732 4.49559512,11.2536732 C4.90918537,11.2536732 5.24484878,10.9187415 5.24484878,10.5044049 L5.24484878,8.25658537 L8.24193659,8.25658537 C8.65627317,8.25658537 8.99119024,7.92165366 8.99119024,7.50733171 C8.99119024,7.09299512 8.65627317,6.75806341 8.24193659,6.75806341 Z" id="Fill-1" fill="#D1DCDE" mask="url(#mask-2)"></path>
            </g>
        </g>
    </g>
</svg>