<?xml version="1.0" encoding="UTF-8"?>
<svg width="43px" height="20px" viewBox="0 0 43 20" version="1.1" xmlns="http://www.w3.org/2000/svg" xmlns:xlink="http://www.w3.org/1999/xlink">
    <!-- Generator: Sketch 49 (51002) - http://www.bohemiancoding.com/sketch -->
    <title>Group 24</title>
    <desc>Created with Sketch.</desc>
    <defs></defs>
    <g id="Page-2" stroke="none" stroke-width="1" fill="none" fill-rule="evenodd">
        <g id="Group-24" transform="translate(0.000000, 1.000000)" fill="#D1DCDE">
            <text id="还款" font-family="PingFangSC-Regular, PingFang SC" font-size="13" font-weight="normal">
                <tspan x="17" y="14">还款</tspan>
            </text>
            <g id="还款" transform="translate(0.000000, 3.000000)">
                <path d="M11.2841933,6.23418693 C12.3054782,6.78207123 13,7.85992848 13,9.1 C13,10.8949254 11.5449254,12.35 9.75,12.35 C7.95507456,12.35 6.5,10.8949254 6.5,9.1 C6.5,7.30507456 7.95507456,5.85 9.75,5.85 C9.85325988,5.85 9.955395,5.85481566 10.056193,5.86423464 L10.0647083,5.85 C10.5042555,5.89347801 10.9170971,6.02789752 11.2841933,6.23418693 Z M11.3538909,7.41176838 L11.3538909,7.76992157 L10.5345564,7.76992157 C10.4693333,7.90191299 10.3982635,8.03533824 10.319913,8.15855147 L10.319913,10.1365429 L9.95019363,10.1365429 L9.95019363,8.67918873 C9.69062377,8.99090196 9.4019951,9.26498529 9.09891667,9.47526348 C9.04527574,9.39697672 8.90463358,9.24905392 8.82634681,9.18089951 C9.34692034,8.86190564 9.81676838,8.35433211 10.1198309,7.76992157 L9.02791054,7.76992157 L9.02791054,7.41176838 L11.3538909,7.41176838 Z M11.4336115,9.20697917 L11.1609779,9.46224755 C10.9855417,9.24033946 10.6215576,8.86333946 10.3561887,8.59648897 L10.6157586,8.37462868 C10.8826091,8.63276471 11.2566936,8.99239951 11.4336115,9.20697917 Z M8.64214828,8.07304779 C8.52035294,7.89026716 8.27671446,7.6060674 8.06793382,7.40448775 L8.34778431,7.20292402 C8.55371324,7.39727083 8.81763235,7.66555515 8.94234314,7.84534069 L8.64214828,8.07304779 Z M11.4147647,10.648386 C11.1421789,10.6672488 10.4591213,10.6918946 10.0618407,10.6918946 C9.55570098,10.6918946 9.23527328,10.648386 8.94670833,10.477315 C8.78427206,10.3758162 8.6479951,10.2409571 8.5624277,10.2409571 C8.44056863,10.2409571 8.27093137,10.4932463 8.10414583,10.7499007 L7.83879289,10.3975306 C8.03313971,10.1800355 8.22307353,10.01325 8.39127696,9.93932843 L8.39127696,8.81255025 L7.91421201,8.81255025 L7.91421201,8.46019608 L8.75384314,8.46019608 L8.75384314,9.96832353 C8.82341544,10.0146838 8.90463358,10.0770392 9.02206373,10.1510404 C9.27734804,10.3091115 9.62826838,10.3381066 10.0748407,10.3381066 C10.5244081,10.3381066 11.1392635,10.3033125 11.5278934,10.248174 C11.4844007,10.3496728 11.4220453,10.5396703 11.4147647,10.648386 Z"></path>
                <path d="M6.39244225,11.08534 L5.08409926,11.8455331 L0,8.8916973 L0,2.98252819 L5.08553309,0.0286286765 L10.1725,2.98252819 L10.1725,5.22262018 C10.0337178,5.20766993 9.89275461,5.2 9.75,5.2 C9.63486253,5.2 9.52089039,5.20498936 9.40828799,5.21476366 L9.40828799,3.43203186 L5.08553309,0.926265931 L0.762778186,3.43203186 L0.762778186,8.44362745 L5.08553309,10.9479755 L6.06512473,10.3806182 C6.15100902,10.6277739 6.26105756,10.8636239 6.39244225,11.08534 Z" id="Combined-Shape"></path>
                <path d="M6.81949339,6.52657353 L5.4813799,6.52657353 L5.4813799,5.71886887 L7.39558211,5.71886887 L7.39558211,4.92566176 L6.01073162,4.92566176 L7.48543505,3.45524387 L6.89959069,2.9897451 L5.07831618,4.80966544 L3.25839583,2.9897451 L2.68704902,3.45524387 L4.16181618,4.92566176 L2.77405025,4.92566176 L2.77405025,5.71886887 L4.68817279,5.71886887 L4.68817279,6.52657353 L2.77405025,6.52657353 L2.77405025,7.30384926 L4.68817279,7.30384926 L4.68817279,9.26291422 L5.4813799,9.26291422 L5.4813799,7.30528309 L6.28657801,7.30528309 C6.00762533,7.84250803 5.85,8.45284633 5.85,9.1 C5.85,9.54859222 5.92573814,9.97949484 6.06512473,10.3806182 L5.08553309,10.9479755 L0.762778186,8.44362745 L0.762778186,3.43203186 L5.08553309,0.926265931 L9.40828799,3.43203186 L9.40828799,5.21476366 C8.37878248,5.30412849 7.46377561,5.79347378 6.81949339,6.52657353 Z" id="Combined-Shape"></path>
            </g>
        </g>
    </g>
</svg>