<?xml version="1.0" encoding="UTF-8"?>
<svg width="22px" height="19px" viewBox="0 0 22 19" version="1.1" xmlns="http://www.w3.org/2000/svg" xmlns:xlink="http://www.w3.org/1999/xlink">
    <!-- Generator: Sketch 47.1 (45422) - http://www.bohemiancoding.com/sketch -->
    <title>huifu</title>
    <desc>Created with Sketch.</desc>
    <defs></defs>
    <g id="Page-1" stroke="none" stroke-width="1" fill="none" fill-rule="evenodd">
        <g id="Artboard" transform="translate(-699.000000, -80.000000)">
            <g id="huifu" transform="translate(700.000000, 81.000000)">
                <path d="M4.88816461,14.4091849 C4.70003406,14.4091849 4.54739039,14.2565413 4.54739039,14.0697199 L4.54739039,11.1210229 C4.54739039,10.9328923 4.70003406,10.7802487 4.88816461,10.7802487 L5.49999277,10.7802487 C5.68823474,10.7802487 5.84087842,10.9328923 5.84087842,11.1210229 L5.84087842,14.0697199 C5.84087842,14.2565413 5.68823474,14.4091849 5.49999277,14.4091849 L4.88816461,14.4091849 Z M7.84207044,14.4091849 C7.65393989,14.4091849 7.50129622,14.2565413 7.50129622,14.0697199 L7.50129622,11.1210229 C7.50129622,10.9328923 7.65393989,10.7802487 7.84207044,10.7802487 L8.45401003,10.7802487 C8.64214057,10.7802487 8.79478425,10.9328923 8.79478425,11.1210229 L8.79478425,14.0697199 C8.79478425,14.2565413 8.64214057,14.4091849 8.45401003,14.4091849 L7.84207044,14.4091849 Z M10.7960877,14.4091849 C10.6079571,14.4091849 10.4553135,14.2565413 10.4553135,14.0697199 L10.4553135,11.1210229 C10.4553135,10.9328923 10.6078457,10.7802487 10.7960877,10.7802487 L11.4079159,10.7802487 C11.5974391,10.7802487 11.7499993,10.9328923 11.7499993,11.1210229 L11.7499993,14.0697199 C11.7499993,14.2565413 11.5974391,14.4091849 11.4079159,14.4091849 L10.7960877,14.4091849 Z M16.2947697,3.86379098 L2.96379581,3.85390256 L2.96379581,15.1052178 C2.96379581,15.7881033 3.51710128,16.3407402 4.20007031,16.3407402 L12.8105385,16.3407402 C13.493424,16.3407402 14.0473701,15.7881033 14.0473701,15.1052178 L14.0473701,13.0776196 C14.0473701,12.7143945 14.3447189,12.4210568 14.7131528,12.4210568 C15.0815868,12.4210568 15.3789355,12.7143945 15.3789355,13.0776196 C15.3789355,13.1380921 15.3592423,13.1933836 15.3447857,13.2486473 L15.3789355,16.4381202 C15.3789355,17.1196965 14.8262986,17.6723335 14.143441,17.6723335 L2.88688902,17.6723335 C2.20464421,17.6723335 1.65136659,17.1196965 1.65136659,16.4381202 L1.65136659,3.85259339 L0.438824276,3.85192488 C0.196070692,3.85192488 -0.000639097296,3.65390592 1.56047072e-06,3.41051168 L0.00131073069,2.96907062 C0.00273131965,2.72500787 0.200109621,2.52765742 0.443503863,2.52765742 L4.52698969,2.53024791 L4.53559679,0.881545865 C4.53690596,0.394088869 4.93294388,-0.000639879012 5.4190917,7.78753878e-07 L10.9078796,0.00520960494 C11.3934982,0.00520960494 11.7868342,0.401275378 11.7842159,0.888843793 L11.7763887,2.53679376 L10.6000575,2.53623667 L16.3000064,2.53949566 C16.5420915,2.54016418 16.7394698,2.73743106 16.7394698,2.98157738 L16.7368514,3.42301843 C16.7368514,3.66641268 16.5394731,3.86379098 16.2947697,3.86379098 Z" id="恢复-(1)" stroke="#D2DDDF" stroke-width="0.5" fill="#D1DCDE"></path>
                <path d="M18.6538601,8.08220451 C17.9485795,10.3328631 12.1196523,12.0341716 8,6.94275289 C9.92489804,8.48618102 15.582881,9.20650318 16.8486258,6.54473729 C15.1434177,5.65263528 14.5802238,5.40258377 14.5802238,5.40258377 L20.369653,5 L19.9670693,10.6697377 C19.9670693,10.6696262 19.0827666,8.98681328 18.6538601,8.08220451 Z" id="Path" fill="#D1DCDF"></path>
            </g>
        </g>
    </g>
</svg>