<?xml version="1.0" encoding="UTF-8"?>
<svg width="110px" height="20px" viewBox="0 0 110 20" version="1.1" xmlns="http://www.w3.org/2000/svg" xmlns:xlink="http://www.w3.org/1999/xlink">
    <!-- Generator: Sketch 49 (51002) - http://www.bohemiancoding.com/sketch -->
    <title>Group 11</title>
    <desc>Created with Sketch.</desc>
    <defs></defs>
    <g id="Page-2" stroke="none" stroke-width="1" fill="none" fill-rule="evenodd">
        <g id="Group-50" transform="translate(2.000000, 1.000000)" fill="#D1DCDE">
            <text id="未收款合同删除" font-family="PingFangSC-Regular, PingFang SC" font-size="13" font-weight="normal">
                <tspan x="16" y="14">未收款合同删除</tspan>
            </text>
            <g id="shanchu" transform="translate(0.000000, 3.000000)">
                <path d="M8.77314875,4.02144196 L8.49965166,4.02144196 L8.49965166,10.5669157 L7.60062308,10.5669157 L7.60062308,4.02144196 L6.10020115,4.02144196 L6.10020115,10.5669157 L5.20042193,10.5669157 L5.20042193,4.02144196 L3.70082423,4.02144196 L3.70082423,10.5669157 L2.80029437,10.5669157 L2.80029437,4.02144196 L2.22754301,4.02144196 C1.55009976,4.02144196 1,4.01208845 1,4.02144196 L1,10.8607003 C1,11.4901282 1.54934912,12 2.22754301,12 L8.77314875,12 C9.45065088,12 10,11.4901282 10,10.8607003 L10,4.02144196 C10,3.97319754 9.45065088,4.02144196 8.77314875,4.02144196 Z" id="删除的副本-2"></path>
                <path d="M10.4102885,1.66663759 L7.81587879,1.66663759 L7.81587879,0.853406253 C7.81587879,0.381907109 7.08437748,0 6.65760211,0 L4.34167361,0 C3.91556571,0 3.1840644,0.381907109 3.1840644,0.853406253 L3.1840644,1.66663759 L0.58969731,1.66663759 C0.26395285,1.66663759 0,1.9656921 0,2.33335151 C0,2.70102727 0.26395285,3 0.58969731,3 L10.4102885,3 C10.7360471,3 11,2.70184517 11,2.33335151 C11,1.96479242 10.7353229,1.66663759 10.4102885,1.66663759 Z" id="Path"></path>
                <polygon id="Path" points="5 1.47322581 7 1.47322581 7 1 5 1"></polygon>
            </g>
        </g>
    </g>
</svg>