<?xml version="1.0" encoding="UTF-8"?>
<svg width="41px" height="20px" viewBox="0 0 41 20" version="1.1" xmlns="http://www.w3.org/2000/svg" xmlns:xlink="http://www.w3.org/1999/xlink">
    <!-- Generator: Sketch 49 (51002) - http://www.bohemiancoding.com/sketch -->
    <title>Group 47</title>
    <desc>Created with Sketch.</desc>
    <defs></defs>
    <g id="Page-2" stroke="none" stroke-width="1" fill="none" fill-rule="evenodd">
        <g id="Group-47" transform="translate(0.000000, 1.000000)" fill="#D1DCDE">
            <text id="调场" font-family="PingFangSC-Regular, PingFang SC" font-size="13" font-weight="normal">
                <tspan x="16" y="14">调场</tspan>
            </text>
            <g id="tiaochang" transform="translate(0.000000, 4.000000)" fill-rule="nonzero">
                <path d="M8.195,0.11 L2.805,0.11 C1.32,0.11 0.165,1.265 0.165,2.75 L0.165,8.195 C0.165,9.625 1.32,10.835 2.805,10.835 L8.25,10.835 C9.68,10.835 10.89,9.68 10.89,8.195 L10.89,2.75 C10.835,1.265 9.68,0.11 8.195,0.11 Z M9.735,7.59 C9.735,8.745 8.8,9.68 7.645,9.68 L3.355,9.68 C2.2,9.68 1.265,8.745 1.265,7.59 L1.265,3.3 C1.265,2.145 2.2,1.21 3.355,1.21 L7.645,1.21 C8.8,1.21 9.735,2.145 9.735,3.3 L9.735,7.59 Z" id="Shape"></path>
                <path d="M2.365,3.96 C2.365,3.96 2.255,3.905 2.255,3.74 C2.255,3.575 2.42,3.465 2.42,3.465 C2.42,3.465 4.235,2.2 4.29,2.145 C4.29,2.145 4.4,2.09 4.455,2.09 C4.565,2.145 4.565,2.2 4.565,2.2 L4.565,3.245 L6.325,3.245 C7.81,3.245 7.81,4.895 7.81,4.895 C7.81,4.345 6.38,4.18 6.38,4.18 L4.565,4.18 L4.565,5.17 C4.565,5.17 4.565,5.225 4.455,5.28 C4.345,5.28 4.235,5.28 4.235,5.28 L2.365,3.96 Z" id="Shape"></path>
                <path d="M8.58,7.26 C8.58,7.26 6.765,8.58 6.71,8.58 C6.71,8.58 6.655,8.635 6.545,8.635 C6.435,8.635 6.435,8.58 6.435,8.58 L6.435,7.535 L4.62,7.535 C3.135,7.535 3.135,5.83 3.135,5.83 C3.135,6.38 4.565,6.545 4.565,6.545 L6.38,6.545 L6.38,5.555 C6.38,5.555 6.38,5.5 6.49,5.445 C6.6,5.39 6.655,5.445 6.655,5.445 L8.525,6.71 C8.525,6.71 8.635,6.765 8.635,6.93 C8.745,7.205 8.58,7.26 8.58,7.26 Z" id="Shape"></path>
            </g>
        </g>
    </g>
</svg>