<?xml version="1.0" encoding="UTF-8"?>
<svg width="40px" height="40px" viewBox="0 0 40 40" version="1.1" xmlns="http://www.w3.org/2000/svg" xmlns:xlink="http://www.w3.org/1999/xlink">
    <!-- Generator: Sketch 47.1 (45422) - http://www.bohemiancoding.com/sketch -->
    <title>xinzengkecheng</title>
    <desc>Created with Sketch.</desc>
    <defs>
        <linearGradient x1="50%" y1="5.39777883%" x2="50%" y2="95.5230931%" id="linearGradient-1">
            <stop stop-color="#1CEEE8" offset="0%"></stop>
            <stop stop-color="#1841C9" offset="100%"></stop>
        </linearGradient>
        <circle id="path-2" cx="20" cy="20" r="20"></circle>
        <filter x="-5.0%" y="-5.0%" width="110.0%" height="110.0%" filterUnits="objectBoundingBox" id="filter-3">
            <feGaussianBlur stdDeviation="1.5" in="SourceAlpha" result="shadowBlurInner1"></feGaussianBlur>
            <feOffset dx="0" dy="1" in="shadowBlurInner1" result="shadowOffsetInner1"></feOffset>
            <feComposite in="shadowOffsetInner1" in2="SourceAlpha" operator="arithmetic" k2="-1" k3="1" result="shadowInnerInner1"></feComposite>
            <feColorMatrix values="0 0 0 0 0.877446338   0 0 0 0 1   0 0 0 0 0.880630902  0 0 0 1 0" type="matrix" in="shadowInnerInner1"></feColorMatrix>
        </filter>
        <polygon id="path-4" points="0.00178807947 0.0119205298 0.00178807947 19.8477417 18 19.8477417 18 0.0119205298 0.00178807947 0.0119205298"></polygon>
    </defs>
    <g id="Page-1" stroke="none" stroke-width="1" fill="none" fill-rule="evenodd">
        <g id="新增" transform="translate(-16.000000, -221.000000)">
            <g id="xinzengkecheng" transform="translate(16.000000, 221.000000)">
                <g id="Oval-5-Copy-6">
                    <use fill="url(#linearGradient-1)" fill-rule="evenodd" xlink:href="#path-2"></use>
                    <use fill="black" fill-opacity="1" filter="url(#filter-3)" xlink:href="#path-2"></use>
                </g>
                <g id="发布" transform="translate(12.000000, 11.208609)">
                    <mask id="mask-5" fill="white">
                        <use xlink:href="#path-4"></use>
                    </mask>
                    <g id="Clip-2"></g>
                    <path d="M16.224202,11.3721556 C16.224202,11.0888887 15.9947497,10.8593311 15.7112285,10.8593311 C15.4277508,10.8593311 15.198404,11.0888451 15.198404,11.3721556 L15.198404,17.5589702 C15.198404,18.1181261 14.744662,18.5717947 14.1854305,18.5717947 L2.28877152,18.5717947 C1.73010755,18.5717947 1.27579801,18.1178893 1.27579801,17.5589702 L1.27579801,2.30069205 C1.27579801,1.74224338 1.73032285,1.28771854 2.28877152,1.28771854 L9.50069205,1.28771854 C9.78415798,1.28771854 10.0135166,1.05818658 10.0135166,0.77489404 C10.0135166,0.491467966 9.78417346,0.26192053 9.50069205,0.26192053 L2.28877152,0.26192053 C1.16493543,0.26192053 0.25,1.17685596 0.25,2.30069205 L0.25,17.5589702 C0.25,18.6827302 1.16497858,19.5977417 2.28877152,19.5977417 L14.1854305,19.5977417 C15.3092234,19.5977417 16.224202,18.6827302 16.224202,17.5589702 L16.224202,11.3721556 Z M16.724202,11.3721556 L16.724202,17.5589702 C16.724202,18.9588686 15.5853698,20.0977417 14.1854305,20.0977417 L2.28877152,20.0977417 C0.888832181,20.0977417 -0.25,18.9588686 -0.25,17.5589702 L-0.25,2.30069205 C-0.25,0.900713581 0.888793051,-0.23807947 2.28877152,-0.23807947 L9.50069205,-0.23807947 C10.0604156,-0.23807947 10.5135166,0.215425223 10.5135166,0.77489404 C10.5135166,1.33424441 10.060385,1.78771854 9.50069205,1.78771854 L2.28877152,1.78771854 C2.00646523,1.78771854 1.77579801,2.01838576 1.77579801,2.30069205 L1.77579801,17.5589702 C1.77579801,17.8416473 2.00615037,18.0717947 2.28877152,18.0717947 L14.1854305,18.0717947 C14.4685377,18.0717947 14.698404,17.8419656 14.698404,17.5589702 L14.698404,11.3721556 C14.698404,10.8127843 15.1515268,10.3593311 15.7112285,10.3593311 C16.2709435,10.3593311 16.724202,10.8127976 16.724202,11.3721556 Z M17.2370265,4.00556954 C17.7970703,4.00556954 18.25,4.45856037 18.25,5.01854305 C18.25,5.57852572 17.7970703,6.03151656 17.2370265,6.03151656 L14.006351,6.03151656 L14.006351,9.26219205 C14.006351,9.82164747 13.5531143,10.2751656 12.9933775,10.2751656 C12.4336407,10.2751656 11.980404,9.82164747 11.980404,9.26219205 L11.980404,6.03151656 L8.74972848,6.03151656 C8.19027306,6.03151656 7.73675497,5.57827984 7.73675497,5.01854305 C7.73675497,4.45880625 8.19027306,4.00556954 8.74972848,4.00556954 L11.980404,4.00556954 L11.980404,0.77489404 C11.980404,0.214850227 12.4333948,-0.23807947 12.9933775,-0.23807947 C13.5533602,-0.23807947 14.006351,0.214850227 14.006351,0.77489404 L14.006351,4.00556954 L17.2370265,4.00556954 Z M17.2370265,4.50556954 L13.506351,4.50556954 L13.506351,0.77489404 C13.506351,0.49100771 13.2772329,0.26192053 12.9933775,0.26192053 C12.7095221,0.26192053 12.480404,0.49100771 12.480404,0.77489404 L12.480404,4.50556954 L8.74972848,4.50556954 C8.46634599,4.50556954 8.23675497,4.73501812 8.23675497,5.01854305 C8.23675497,5.30206798 8.46634599,5.53151656 8.74972848,5.53151656 L12.480404,5.53151656 L12.480404,9.26219205 C12.480404,9.54557454 12.7098526,9.77516556 12.9933775,9.77516556 C13.2769024,9.77516556 13.506351,9.54557454 13.506351,9.26219205 L13.506351,5.53151656 L17.2370265,5.53151656 C17.5209128,5.53151656 17.75,5.30239845 17.75,5.01854305 C17.75,4.73468764 17.5209128,4.50556954 17.2370265,4.50556954 Z" id="Fill-1" fill="#B4E3F7" fill-rule="nonzero" mask="url(#mask-5)"></path>
                    <path d="M16.474202,11.3721556 L16.474202,17.5589702 C16.474202,18.8207583 15.4473377,19.8477417 14.1854305,19.8477417 L2.28877152,19.8477417 C1.02686424,19.8477417 0,18.8207583 0,17.5589702 L0,2.30069205 C0,1.03878477 1.02686424,0.0119205298 2.28877152,0.0119205298 L9.50069205,0.0119205298 C9.9225596,0.0119205298 10.2635166,0.353711921 10.2635166,0.77489404 C10.2635166,1.19592715 9.9225596,1.53771854 9.50069205,1.53771854 L2.28877152,1.53771854 C1.86839404,1.53771854 1.52579801,1.88031457 1.52579801,2.30069205 L1.52579801,17.5589702 C1.52579801,17.9800331 1.86839404,18.3217947 2.28877152,18.3217947 L14.1854305,18.3217947 C14.6066126,18.3217947 14.948404,17.9800331 14.948404,17.5589702 L14.948404,11.3721556 C14.948404,10.9510927 15.2893609,10.6093311 15.7112285,10.6093311 C16.133096,10.6093311 16.474202,10.9510927 16.474202,11.3721556 Z M17.2370265,4.25556954 L13.756351,4.25556954 L13.756351,0.77489404 C13.756351,0.352877483 13.415245,0.0119205298 12.9933775,0.0119205298 C12.5715099,0.0119205298 12.230404,0.352877483 12.230404,0.77489404 L12.230404,4.25556954 L8.74972848,4.25556954 C8.32854636,4.25556954 7.98675497,4.5966755 7.98675497,5.01854305 C7.98675497,5.4404106 8.32854636,5.78151656 8.74972848,5.78151656 L12.230404,5.78151656 L12.230404,9.26219205 C12.230404,9.68337417 12.5715099,10.0251656 12.9933775,10.0251656 C13.415245,10.0251656 13.756351,9.68337417 13.756351,9.26219205 L13.756351,5.78151656 L17.2370265,5.78151656 C17.659043,5.78151656 18,5.4404106 18,5.01854305 C18,4.5966755 17.659043,4.25556954 17.2370265,4.25556954 Z" id="Fill-1-Copy" fill="#B4E3F7" mask="url(#mask-5)"></path>
                </g>
            </g>
        </g>
    </g>
</svg>