<?xml version="1.0" encoding="UTF-8"?>
<svg width="41px" height="20px" viewBox="0 0 41 20" version="1.1" xmlns="http://www.w3.org/2000/svg" xmlns:xlink="http://www.w3.org/1999/xlink">
    <!-- Generator: Sketch 49 (51002) - http://www.bohemiancoding.com/sketch -->
    <title>Group 15</title>
    <desc>Created with Sketch.</desc>
    <defs></defs>
    <g id="Page-2" stroke="none" stroke-width="1" fill="none" fill-rule="evenodd">
        <g id="Group-15" fill="#D1DCDE">
            <text id="修改" font-family="PingFangSC-Regular, PingFang SC" font-size="13" font-weight="normal">
                <tspan x="15" y="14">修改</tspan>
            </text>
            <g id="xiugai" transform="translate(0.000000, 4.000000)">
                <path d="M2.15079114,2.8960443 L1.54080696,4.47553797 L1.17594937,5.42609177 L0.27943038,7.74140823 L0.149762658,8.07708861 L0.0885126582,8.23481013 L0.0285601266,8.39545886 C-0.000189873418,8.46455696 -0.00742088608,8.5406962 0.00772151899,8.61393987 L0.213243671,9.65033228 L0.565917722,11.4450475 C0.58625,11.5490032 0.65875,11.6351741 0.757705696,11.6729272 C0.856724684,11.7106329 0.968164557,11.6946361 1.05253165,11.6306013 L3.37408228,9.89688291 C3.43379747,9.85393987 3.48101266,9.79052215 3.50833861,9.71949367 L5.63167722,4.2225 L2.15079114,2.8960443 Z M6.32564873,2.42618671 C6.6321519,1.63251582 6.42045886,0.817832278 5.85764241,0.600933544 L4.4215981,0.0535759494 C3.85716772,-0.159177215 3.15102848,0.30556962 2.84723101,1.09811709 L2.7119462,1.44294304 L2.47403481,2.05892405 L5.95517405,3.38593354 L6.32564873,2.42618671 Z" id="Fill-1"></path>
                <path d="M9.21917722,6.58832278 L5.29303797,8.33686709 C4.99030063,8.4715981 4.94764241,8.88992089 5.08183544,9.19129747 C5.21607595,9.49267405 5.51498418,9.64954114 5.81772152,9.5147943 L9.74386076,7.76625 C10.0465348,7.63151899 10.0284968,7.3493038 9.89424051,7.04822785 C9.75974684,6.74661392 9.52185127,6.45357595 9.21917722,6.58832278 Z" id="Path"></path>
            </g>
        </g>
    </g>
</svg>