<?xml version="1.0" encoding="UTF-8"?>
<svg width="170px" height="220px" viewBox="0 0 170 220" version="1.1" xmlns="http://www.w3.org/2000/svg" xmlns:xlink="http://www.w3.org/1999/xlink">
    <!-- Generator: Sketch 48.2 (47327) - http://www.bohemiancoding.com/sketch -->
    <title>170X220</title>
    <desc>Created with Sketch.</desc>
    <defs></defs>
    <g id="问卷" stroke="none" stroke-width="1" fill="none" fill-rule="evenodd" transform="translate(-315.000000, -457.000000)">
        <g id="170X220" transform="translate(315.000000, 457.000000)">
            <rect id="Rectangle-2" fill="#2A3038" x="0" y="0" width="170" height="220"></rect>
            <path d="M60.4232231,135.279174 C60.8461157,135.279174 60.8461157,135.279174 60.4232231,135.279174 C60.4232231,134.009835 60.4232231,132.740413 60.8461157,131.471074 C61.2693388,129.355289 61.692562,127.239752 62.1158678,125.547107 C62.5387603,123.854545 63.3852066,122.161901 64.6545455,120.469339 C65.5007438,118.776777 66.3471901,117.507355 67.6165289,116.66124 C68.4626446,115.39157 69.7323967,114.122149 71.4246281,113.276033 C72.6943802,112.006694 74.3866116,111.160165 76.0792562,110.736942 L76.5024793,110.736942 C77.7718182,113.276033 79.4644628,115.39157 80.7338017,117.930579 C82.0031405,120.469339 83.6957851,123.008099 84.965124,125.123884 C84.965124,125.547107 84.965124,125.547107 85.3883471,125.123884 L90.4661983,117.507355 C91.312314,116.238017 92.1587603,114.545372 93.004876,113.276033 C93.4280992,112.429587 93.851405,111.583388 94.6975207,110.736942 L95.1207438,110.736942 C96.3900826,111.160165 98.0827273,112.006694 99.3520661,112.85281 C100.621488,113.698926 102.31405,114.968595 103.160165,116.238017 C104.429917,117.930579 105.699256,119.2 106.545372,121.315455 C107.814793,123.854545 108.66124,126.816529 109.507355,129.778512 C109.930579,131.047851 109.930579,132.31719 109.930579,133.586612 L109.930579,137.395041 L109.507355,137.395041 C106.968595,138.66438 104.006612,139.510496 101.044711,139.933802 C98.0827273,140.780248 95.1207438,141.20314 92.1587603,141.626364 C90.8894215,141.626364 89.1967769,142.049587 87.927438,142.049587 L82.8495868,142.049587 C79.887686,142.049587 76.5024793,141.626364 73.5404959,141.20314 C70.5785124,140.780248 67.6165289,139.933802 64.6545455,139.087603 C63.3852066,138.66438 61.692562,138.241157 60.4232231,137.818264 L60,137.818264 C60.4232231,136.548595 60.4232231,136.12562 60.4232231,135.279174 Z M86.2347934,78.5785124 L87.0809917,78.5785124 C88.3503306,78.5785124 89.6196694,79.001405 90.4661983,79.4246281 C91.312314,79.8478512 92.5816529,80.6940496 93.4280992,81.1172727 L95.9668595,83.6560331 C97.236281,84.9257025 98.0827273,86.6179339 98.5059504,88.3105785 C98.928843,89.1570248 98.928843,90.4263636 98.928843,91.272562 L98.928843,93.3883471 C98.928843,95.0809917 98.5059504,96.3503306 97.6595041,98.0429752 C97.236281,99.312314 96.3900826,100.581653 95.5436364,101.428182 L93.004876,103.96686 C92.1587603,104.813058 90.8894215,105.236281 89.6196694,105.659504 C88.3503306,106.082727 87.5042149,106.50562 86.6577686,106.50562 C84.5422314,106.50562 82.8495868,106.50562 80.7338017,106.082727 C79.041157,105.236281 77.3489256,104.390083 76.0792562,103.120413 C74.8098347,101.851074 73.5404959,100.581653 72.6943802,98.8890909 C71.8478512,97.6197521 71.4246281,95.9271074 71.4246281,94.6577686 L71.4246281,92.1190083 C71.4246281,90.4263636 71.8478512,89.1570248 72.2710744,87.4644628 C72.6943802,85.7718182 73.5404959,84.5024793 74.8098347,83.6560331 C75.2330579,82.8098347 76.0792562,81.9633884 76.9257025,81.1172727 C78.6182645,79.8478512 80.3109091,79.4246281 82.0031405,78.5785124 C82.8495868,78.5785124 83.2728926,78.1552893 84.1190083,78.1552893 C84.965124,78.5785124 85.3883471,78.5785124 86.2347934,78.5785124 Z" id="人员" fill="#9FA4AB"></path>
        </g>
    </g>
</svg>