<?xml version="1.0" encoding="UTF-8"?>
<svg width="50px" height="50px" viewBox="0 0 50 50" version="1.1" xmlns="http://www.w3.org/2000/svg" xmlns:xlink="http://www.w3.org/1999/xlink">
    <!-- Generator: Sketch 48.2 (47327) - http://www.bohemiancoding.com/sketch -->
    <title>50X50</title>
    <desc>Created with Sketch.</desc>
    <defs></defs>
    <g id="问卷" stroke="none" stroke-width="1" fill="none" fill-rule="evenodd" transform="translate(-516.000000, -457.000000)">
        <g id="50X50" transform="translate(516.000000, 457.000000)">
            <rect id="Rectangle-2-Copy" fill="#2A3038" x="0" y="0" width="50" height="50"></rect>
            <path d="M13.2116116,37.6395868 C13.4230579,37.6395868 13.4230579,37.6395868 13.2116116,37.6395868 C13.2116116,37.0049174 13.2116116,36.3702066 13.4230579,35.7355372 C13.6346694,34.6776446 13.846281,33.619876 14.0579339,32.7735537 C14.2693802,31.9272727 14.6926033,31.0809504 15.3272727,30.2346694 C15.7503719,29.3883884 16.173595,28.7536777 16.8082645,28.3306198 C17.2313223,27.6957851 17.8661983,27.0610744 18.712314,26.6380165 C19.3471901,26.0033471 20.1933058,25.5800826 21.0396281,25.3684711 L21.2512397,25.3684711 C21.8859091,26.6380165 22.7322314,27.6957851 23.3669008,28.9652893 C24.0015702,30.2346694 24.8478926,31.5040496 25.482562,32.5619421 C25.482562,32.7735537 25.482562,32.7735537 25.6941736,32.5619421 L28.2330992,28.7536777 C28.656157,28.1190083 29.0793802,27.272686 29.502438,26.6380165 C29.7140496,26.2147934 29.9257025,25.7916942 30.3487603,25.3684711 L30.5603719,25.3684711 C31.1950413,25.5800826 32.0413636,26.0033471 32.6760331,26.426405 C33.3107438,26.8494628 34.1570248,27.4842975 34.5800826,28.1190083 C35.2149587,28.9652893 35.8496281,29.6 36.272686,30.6577273 C36.9073967,31.9272727 37.3306198,33.4082645 37.7536777,34.8892562 C37.9652893,35.5239256 37.9652893,36.158595 37.9652893,36.7933058 L37.9652893,38.6975207 L37.7536777,38.6975207 C36.4842975,39.3321901 35.0033058,39.7552479 33.5223554,39.9669008 C32.0413636,40.390124 30.5603719,40.6015702 29.0793802,40.8131818 C28.4447107,40.8131818 27.5983884,41.0247934 26.963719,41.0247934 L24.4247934,41.0247934 C22.943843,41.0247934 21.2512397,40.8131818 19.7702479,40.6015702 C18.2892562,40.390124 16.8082645,39.9669008 15.3272727,39.5438017 C14.6926033,39.3321901 13.846281,39.1205785 13.2116116,38.9091322 L13,38.9091322 C13.2116116,38.2742975 13.2116116,38.0628099 13.2116116,37.6395868 Z M26.1173967,9.2892562 L26.5404959,9.2892562 C27.1751653,9.2892562 27.8098347,9.50070248 28.2330992,9.71231405 C28.656157,9.92392562 29.2908264,10.3470248 29.7140496,10.5586364 L30.9834298,11.8280165 C31.6181405,12.4628512 32.0413636,13.3089669 32.2529752,14.1552893 C32.4644215,14.5785124 32.4644215,15.2131818 32.4644215,15.636281 L32.4644215,16.6941736 C32.4644215,17.5404959 32.2529752,18.1751653 31.8297521,19.0214876 C31.6181405,19.656157 31.1950413,20.2908264 30.7718182,20.7140909 L29.502438,21.9834298 C29.0793802,22.4065289 28.4447107,22.6181405 27.8098347,22.8297521 C27.1751653,23.0413636 26.7521074,23.2528099 26.3288843,23.2528099 C25.2711157,23.2528099 24.4247934,23.2528099 23.3669008,23.0413636 C22.5205785,22.6181405 21.6744628,22.1950413 21.0396281,21.5602066 C20.4049174,20.9255372 19.7702479,20.2908264 19.3471901,19.4445455 C18.9239256,18.809876 18.712314,17.9635537 18.712314,17.3288843 L18.712314,16.0595041 C18.712314,15.2131818 18.9239256,14.5785124 19.1355372,13.7322314 C19.3471901,12.8859091 19.7702479,12.2512397 20.4049174,11.8280165 C20.6165289,11.4049174 21.0396281,10.9816942 21.4628512,10.5586364 C22.3091322,9.92392562 23.1554545,9.71231405 24.0015702,9.2892562 C24.4247934,9.2892562 24.6364463,9.07764463 25.0595041,9.07764463 C25.482562,9.2892562 25.6941736,9.2892562 26.1173967,9.2892562 Z" id="人员-copy" fill="#9FA4AB"></path>
        </g>
    </g>
</svg>