<?xml version="1.0" encoding="UTF-8"?>
<svg width="18px" height="16px" viewBox="0 0 18 16" version="1.1" xmlns="http://www.w3.org/2000/svg" xmlns:xlink="http://www.w3.org/1999/xlink">
    <!-- Generator: Sketch 48.1 (47250) - http://www.bohemiancoding.com/sketch -->
    <title>页面管理</title>
    <desc>Created with Sketch.</desc>
    <defs></defs>
    <g id="设置" stroke="none" stroke-width="1" fill="none" fill-rule="evenodd" transform="translate(-605.000000, -92.000000)">
        <path d="M622.265727,106.344056 L620.826918,106.344056 C620.42965,106.344056 620.107513,106.021977 620.107513,105.624652 C620.107513,105.227307 620.42965,104.905247 620.826918,104.905247 L621.546322,104.905247 L621.546322,94.9009739 L620.826918,94.9009739 C620.42965,94.9009739 620.107513,94.5789141 620.107513,94.1815694 C620.107513,93.7842247 620.42965,93.4621649 620.826918,93.4621649 L622.265727,93.4621649 C622.662092,93.464643 622.982749,93.7852812 622.98515,94.1815694 L622.98515,105.624652 C622.982749,106.02094 622.662092,106.341578 622.265727,106.344056 Z M618.668762,107.771608 L609.316446,107.771608 C609.125477,107.772223 608.942154,107.696649 608.807086,107.561582 C608.672,107.426515 608.596446,107.243192 608.597042,107.052203 L608.597042,92.7539984 C608.596446,92.5630294 608.672,92.379706 608.807086,92.2446388 C608.942154,92.1096291 609.125477,92.0339984 609.316446,92.0345939 L618.668762,92.0345939 C618.85975,92.0339984 619.043074,92.1096291 619.178064,92.2446388 C619.313131,92.379706 619.388704,92.5630294 619.38809,92.7539984 L619.38809,107.052203 C619.388704,107.243192 619.313131,107.426515 619.178064,107.561582 C619.043074,107.696649 618.85975,107.772223 618.668762,107.771608 Z M610.03587,106.344056 L617.949358,106.344056 L617.949358,93.4621649 L610.03587,93.4621649 L610.03587,106.344056 Z M607.158233,104.905247 C607.555558,104.905247 607.877637,105.227307 607.877637,105.624652 C607.877637,106.021977 607.555558,106.344056 607.158233,106.344056 L605.719404,106.344056 C605.323116,106.341578 605.002478,106.02094 605,105.624652 L605,94.1815694 C605.002478,93.7852812 605.323116,93.464643 605.719404,93.4621649 L607.158233,93.4621649 C607.555558,93.4621649 607.877637,93.7842247 607.877637,94.1815694 C607.877637,94.5789141 607.555558,94.9009739 607.158233,94.9009739 L606.438809,94.9009739 L606.438809,104.905247 L607.158233,104.905247 Z" id="页面管理" fill="#D8D8D8"></path>
    </g>
</svg>