<?xml version="1.0" encoding="UTF-8"?>
<svg width="20px" height="15px" viewBox="0 0 20 15" version="1.1" xmlns="http://www.w3.org/2000/svg" xmlns:xlink="http://www.w3.org/1999/xlink">
    <!-- Generator: Sketch 48.2 (47327) - http://www.bohemiancoding.com/sketch -->
    <title>拍照</title>
    <desc>Created with Sketch.</desc>
    <defs>
        <polygon id="path-1" points="0.00167364017 0.0216178522 19.9808089 0.0216178522 19.9808089 14.4770153 0.00167364017 14.4770153"></polygon>
    </defs>
    <g id="Artboard-2" stroke="none" stroke-width="1" fill="none" fill-rule="evenodd" transform="translate(-308.000000, -28.000000)">
        <g id="拍照" transform="translate(308.000000, 28.000000)">
            <g id="Group-3">
                <mask id="mask-2" fill="white">
                    <use xlink:href="#path-1"></use>
                </mask>
                <g id="Clip-2"></g>
                <path d="M19.2067503,1.89824268 L16.695537,1.89824268 L15.2879777,0.0216178522 L9.33729428,0.0216178522 L7.89040446,1.89824268 L5.32175732,1.89824268 L5.32175732,1.86011158 C5.32175732,1.4325523 4.97559275,1.08594142 4.54769874,1.08594142 L3.04797768,1.08594142 C2.62008368,1.08594142 2.27380753,1.43266388 2.27380753,1.86011158 L2.27380753,1.89824268 L0.774058577,1.89824268 C0.346164575,1.89824268 0,2.24485356 0,2.67230126 L0,13.7029568 C0,14.1304324 0.346276151,14.4770153 0.774058577,14.4770153 L19.2067503,14.4770153 C19.6346444,14.4770153 19.9808089,14.1304324 19.9808089,13.7029568 L19.9808089,2.67230126 C19.9808089,2.24485356 19.6346444,1.89824268 19.2067503,1.89824268 Z M5.9023152,5.23191074 C5.9023152,5.45375174 5.44574616,5.63364017 4.88253835,5.63364017 L2.9065272,5.63364017 C2.34343096,5.63364017 1.88677824,5.45375174 1.88677824,5.23191074 L1.88677824,4.7288424 C1.88677824,4.50730823 2.34343096,4.32708508 2.9065272,4.32708508 L4.88253835,4.32708508 C5.44574616,4.32708508 5.9023152,4.50730823 5.9023152,4.7288424 L5.9023152,5.23191074 Z M12.3368759,13.1325523 C9.74471409,13.1325523 7.64404463,11.0314644 7.64404463,8.43972106 C7.64404463,5.84797768 9.74471409,3.74655509 12.3368759,3.74655509 C14.928954,3.74655509 17.029735,5.84797768 17.029735,8.43972106 C17.029735,11.0314644 14.928954,13.1325523 12.3368759,13.1325523 Z" id="Fill-1" fill="#FFFFFF" mask="url(#mask-2)"></path>
            </g>
            <path d="M12.3368759,4.94273361 C10.4054393,4.94273361 8.83988842,6.50828452 8.83988842,8.43972106 C8.83988842,10.3711576 10.4054393,11.9367085 12.3368759,11.9367085 C14.2682287,11.9367085 15.8337796,10.3711576 15.8337796,8.43972106 C15.8337796,6.50828452 14.2682287,4.94273361 12.3368759,4.94273361 Z" id="Fill-4" fill="#FFFFFF"></path>
        </g>
    </g>
</svg>