<?xml version="1.0" encoding="UTF-8"?>
<svg width="20px" height="16px" viewBox="0 0 20 16" version="1.1" xmlns="http://www.w3.org/2000/svg" xmlns:xlink="http://www.w3.org/1999/xlink">
    <!-- Generator: Sketch 47.1 (45422) - http://www.bohemiancoding.com/sketch -->
    <title>club</title>
    <desc>Created with Sketch.</desc>
    <defs></defs>
    <g id="Page-1" stroke="none" stroke-width="1" fill="none" fill-rule="evenodd">
        <g id="列表页" transform="translate(-502.000000, -6.000000)" fill="#FFFFFF">
            <g id="club" transform="translate(502.000000, 6.000000)">
                <path d="M19.9984599,2.87149512 L19.8105695,8.62670422 C19.6897057,12.3335247 16.5436308,15.4359612 12.7695194,15.5916712 L2.94462254,15.9974011 C1.28444225,16.0659543 -0.0522059109,14.7750539 0.00154929768,13.1283505 L0.189349432,7.37326804 C0.310314656,3.66649358 3.45634364,0.564079296 7.23040719,0.408242475 L17.0552767,0.00259874223 C18.7154632,-0.0659491628 20.0520451,1.22484563 19.9984599,2.87149512 Z M18.998989,2.83897039 C19.0334676,1.77945875 18.1818335,0.956936064 17.0965309,1.00174743 L7.27165948,1.40739124 C4.01592825,1.54182533 1.29254007,4.22747821 1.18881738,7.40588424 L1.0010173,13.1609652 C0.966428353,14.2205413 1.81815074,15.0430639 2.90336505,14.9982526 L12.7282585,14.5925228 C15.984078,14.4581962 18.7074662,11.7725218 18.8111006,8.59411577 L18.998989,2.83897039 Z" id="Combined-Shape"></path>
                <path d="M3.64377152,9.07728796 C3.8947014,8.9912742 4.17267113,8.94906215 4.47748206,8.95007181 C4.65234716,8.95359485 4.78805413,8.93883674 4.88497822,8.90560415 C5.14864442,8.79449947 5.23565758,8.58470667 5.14623842,8.27699911 C4.93722585,7.8205075 4.31062958,7.73902644 3.26611853,8.03356556 C1.72228617,8.68943121 1.19208424,9.86498839 1.67493883,11.5594637 C2.38283125,13.1557665 3.54600865,13.7297215 5.16478004,13.2804478 C6.25930931,12.8839553 6.72439485,12.4288171 6.56014703,11.9144101 C6.40554527,11.6082278 6.18033085,11.4951897 5.88362084,11.5754893 C5.80618752,11.6020839 5.69445221,11.682985 5.5475982,11.8175909 C5.30549766,12.0486724 5.05836441,12.2071877 4.80745661,12.2931156 C3.91754732,12.5347017 3.26327107,12.1674246 2.84456164,11.1901674 C2.52838294,10.13637 2.79474209,9.43174026 3.64377152,9.07728796 Z" id="Path"></path>
                <path d="M6.58824641,7.49350914 C6.43960445,7.14315989 6.1880786,7.01779119 5.83335982,7.11798304 C5.49234859,7.25619795 5.37661801,7.50742945 5.48683026,7.87094714 L6.9464307,11.9048507 C7.10162845,12.2747485 7.35701714,12.4092685 7.71149311,12.3085611 L9.56660389,11.6727381 C9.87545424,11.5669395 10.0016917,11.3443864 9.94383749,11.0045418 C9.80190583,10.6725811 9.55720064,10.5662669 9.20936875,10.6854918 L7.90496605,11.1325958 L6.58824641,7.49350914 Z" id="Path"></path>
                <path d="M11.7829892,5.83720723 L12.7015277,8.37603093 C12.9090613,9.12931726 12.67515,9.65343407 11.9998379,9.94814505 C11.2711523,10.1558326 10.7419216,9.89334457 10.4117705,9.16078833 L9.49305548,6.62196463 C9.34439145,6.27163686 9.09288767,6.14626816 8.73814682,6.24654594 C8.39722388,6.38465344 8.28142708,6.63590642 8.39161725,6.99948856 L9.3306839,9.59461647 C9.90942513,10.834018 10.9114229,11.2620675 12.3366331,10.8790872 C13.6745652,10.3151858 14.1703548,9.37376046 13.823472,8.05496159 L12.8844054,5.45976923 C12.7357634,5.10933406 12.4841493,4.98396535 12.1295188,5.08424313 C11.7885959,5.22245805 11.6727991,5.47368954 11.7829892,5.83720723 Z" id="Path"></path>
                <path d="M16.9482946,9.16649455 L16.9089422,9.18091159 L15.1092922,9.79777 L14,6.73192413 L14.9621962,6.40215751 L15.7447838,6.13394684 C16.6999286,5.80669538 17.5926669,6.07451677 17.9773244,6.98773924 L18.0115962,7.08208186 C18.2958886,8.00688978 17.8539896,8.81298888 16.9482946,9.16649455 Z M16.5846952,8.23493912 C17.022189,8.06417904 17.1791968,7.7775238 17.0557405,7.3759186 C16.9001896,7.00662226 16.5712525,6.90784822 16.0689072,7.07996166 L15.2864068,7.34814242 L15.7151155,8.53300129 L16.5846952,8.23493912 Z" id="Combined-Shape"></path>
                <path d="M15.6880421,7.12310694 L14.3532104,7.68521118 L13.212616,4.73196411 L14.7353821,4.20419312 C15.5826722,3.95967316 16.2958664,4.10165273 16.6454275,4.91104126 L16.6454275,4.9888863 C16.9094563,5.86411301 16.5372996,6.78529536 15.6880421,7.12310694 Z M15.4801636,6.12768458 C15.8597149,5.97670938 15.9601178,5.75044927 15.8502808,5.38635157 C15.7398071,5.04473877 15.519928,4.81924438 15.0673218,4.9888863 L14.3846436,5.19244385 L14.8662415,6.36480713 L15.4801636,6.12768458 Z" id="Combined-Shape"></path>
            </g>
        </g>
    </g>
</svg>