<?xml version="1.0" encoding="UTF-8"?>
<svg width="18px" height="18px" viewBox="0 0 18 18" version="1.1" xmlns="http://www.w3.org/2000/svg" xmlns:xlink="http://www.w3.org/1999/xlink">
    <!-- Generator: Sketch 47.1 (45422) - http://www.bohemiancoding.com/sketch -->
    <title>doubt</title>
    <desc>Created with Sketch.</desc>
    <defs>
        <polygon id="path-1" points="0.00154727794 0.0050286533 0.00154727794 17.9999742 17.9949713 17.9999742 17.9949713 0.0050286533"></polygon>
    </defs>
    <g id="Page-1" stroke="none" stroke-width="1" fill="none" fill-rule="evenodd">
        <g id="Artboard" transform="translate(-609.000000, -37.000000)">
            <g id="doubt" transform="translate(609.000000, 37.000000)">
                <mask id="mask-2" fill="white">
                    <use xlink:href="#path-1"></use>
                </mask>
                <g id="Clip-2"></g>
                <path d="M8.99747278,0.505028653 C13.690674,0.505028653 17.4949713,4.30922809 17.4949713,9.00250143 C17.4949713,13.695325 13.6904275,17.4999742 8.99747278,17.4999742 C4.30454004,17.4999742 0.5,13.6953212 0.5,9.00250143 C0.5,4.30923185 4.30429358,0.505028653 8.99747278,0.505028653 Z M8.96312321,13.9889112 C8.171035,13.9889112 7.53455014,13.3343073 7.53455014,12.5340344 C7.53455014,11.7337091 8.17101307,11.0792865 8.96312321,11.0792865 C9.75548751,11.0792865 10.3920057,11.7336279 10.3920057,12.5340344 C10.3920057,13.3343885 9.75546557,13.9889112 8.96312321,13.9889112 Z M12.0006802,7.71925328 L12.0010723,7.71849903 C11.8508448,8.00809154 11.6693028,8.26149094 11.4572498,8.47646021 C11.2779918,8.65888927 10.9648854,8.95690186 10.4944941,9.39372719 C10.3806393,9.50130716 10.2925422,9.5926484 10.2294741,9.66780089 C10.1776938,9.72911553 10.1435317,9.77901509 10.1242562,9.8181854 C10.1025469,9.86132083 10.0858065,9.90510462 10.0740301,9.94859431 C10.0561237,10.0149092 10.0266455,10.141717 9.99176082,10.3010142 C9.88050435,10.9330274 9.45880417,11.3148023 8.83629799,11.3148023 C8.51250185,11.3148023 8.22284742,11.1981447 7.99696311,10.9732775 C7.76055565,10.7385329 7.65162751,10.4168482 7.65162751,10.0349226 C7.65162751,9.65018086 7.71072887,9.30635942 7.83309226,9.00643531 C7.95095855,8.71699271 8.10924046,8.46013011 8.30784676,8.23796036 C8.48121084,8.04408693 8.70879919,7.8190537 8.99097577,7.56207805 C9.22066041,7.35410316 9.38546553,7.19808856 9.48199916,7.0977867 C9.55592622,7.02119949 9.6177549,6.93632827 9.66898051,6.8408916 C9.70176482,6.78008462 9.7177851,6.71536429 9.7177851,6.63967908 C9.7177851,6.46742598 9.66277148,6.33792928 9.54082595,6.22099865 C9.41617695,6.1016851 9.25582725,6.0420659 9.03153868,6.0420659 C8.75334792,6.0420659 8.58785469,6.10089619 8.50017996,6.19808693 C8.36030634,6.35284032 8.22880086,6.60613071 8.11913656,6.94679236 C7.9352599,7.5797199 7.51682112,7.95965903 6.92043266,7.95965903 C6.57431009,7.95965903 6.26666832,7.82614302 6.02973925,7.57347263 C5.80348819,7.33256811 5.67985387,7.04781086 5.67985387,6.73780229 C5.67985387,6.27598496 5.81983993,5.81744568 6.09143322,5.36709955 C6.36403944,4.91573616 6.75824656,4.54503064 7.2639699,4.25870105 C7.77628551,3.96748815 8.36835364,3.82358453 9.03153868,3.82358453 C9.64422941,3.82358453 10.1956362,3.94319925 10.6806227,4.18528303 C11.1717823,4.43043252 11.5597861,4.77174986 11.8346889,5.20476855 C12.109998,5.63908128 12.2494355,6.11701209 12.2494355,6.62789398 C12.2494355,7.0325448 12.1676672,7.39868799 12.0006802,7.71925328 Z" id="Fill-1" stroke="#FFFFFF" mask="url(#mask-2)"></path>
            </g>
        </g>
    </g>
</svg>