<?xml version="1.0" encoding="UTF-8"?>
<svg width="14px" height="14px" viewBox="0 0 14 14" version="1.1" xmlns="http://www.w3.org/2000/svg" xmlns:xlink="http://www.w3.org/1999/xlink">
    <!-- Generator: Sketch 48.1 (47250) - http://www.bohemiancoding.com/sketch -->
    <title>缩起</title>
    <desc>Created with Sketch.</desc>
    <defs></defs>
    <g id="问卷" stroke="none" stroke-width="1" fill="none" fill-rule="evenodd" transform="translate(-285.000000, -371.000000)">
        <path d="M291.9961,385 C295.859987,385 298.992124,381.872016 298.992124,378.013304 C298.992124,374.154535 295.859987,371.026608 291.9961,371.026608 C288.132137,371.026608 285,374.154535 285,378.013304 C285,381.872016 288.132137,385 291.9961,385 Z M288.920791,378.334739 L291.441865,375.817788 C291.59481,375.665048 291.795464,375.589347 291.995873,375.590438 C292.196377,375.589347 292.397314,375.665048 292.550258,375.817788 L295.070522,378.334739 C295.374207,378.63796 295.374207,379.129258 295.070522,379.43246 C294.766913,379.735737 294.274934,379.735737 293.971324,379.43246 L291.995723,377.460116 L290.020724,379.43246 C289.717114,379.735737 289.224401,379.735737 288.920791,379.43246 C288.617917,379.129258 288.617917,378.63796 288.920791,378.334739 Z" id="缩起" fill="#FFFFFF"></path>
    </g>
</svg>