<?xml version="1.0" encoding="UTF-8"?>
<svg width="14px" height="14px" viewBox="0 0 14 14" version="1.1" xmlns="http://www.w3.org/2000/svg" xmlns:xlink="http://www.w3.org/1999/xlink">
    <!-- Generator: Sketch 48.1 (47250) - http://www.bohemiancoding.com/sketch -->
    <title>展开</title>
    <desc>Created with Sketch.</desc>
    <defs></defs>
    <g id="问卷" stroke="none" stroke-width="1" fill="none" fill-rule="evenodd" transform="translate(-285.000000, -86.000000)">
        <path d="M291.9961,100 C295.859987,100 298.992124,96.8720161 298.992124,93.0133038 C298.992124,89.1545349 295.859987,86.0266075 291.9961,86.0266075 C288.132137,86.0266075 285,89.1545349 285,93.0133038 C285,96.8720161 288.132137,100 291.9961,100 Z M288.920791,93.3347392 L291.441865,90.8177876 C291.59481,90.6650484 291.795464,90.5893468 291.995873,90.5904382 C292.196377,90.5893468 292.397314,90.6650484 292.550258,90.8177876 L295.070522,93.3347392 C295.374207,93.6379597 295.374207,94.1292581 295.070522,94.4324597 C294.766913,94.7357366 294.274934,94.7357366 293.971324,94.4324597 L291.995723,92.4601156 L290.020724,94.4324597 C289.717114,94.7357366 289.224401,94.7357366 288.920791,94.4324597 C288.617917,94.1292581 288.617917,93.6379597 288.920791,93.3347392 Z" id="展开" fill="#FFFFFF" transform="translate(292.000000, 93.000000) scale(1, -1) translate(-292.000000, -93.000000) "></path>
    </g>
</svg>