<?xml version="1.0" encoding="UTF-8"?>
<svg width="12px" height="22px" viewBox="0 0 12 22" version="1.1" xmlns="http://www.w3.org/2000/svg" xmlns:xlink="http://www.w3.org/1999/xlink">
    <!-- Generator: Sketch 47.1 (45422) - http://www.bohemiancoding.com/sketch -->
    <title>iphone</title>
    <desc>Created with Sketch.</desc>
    <defs></defs>
    <g id="Page-1" stroke="none" stroke-width="1" fill="none" fill-rule="evenodd">
        <g id="Artboard" transform="translate(-575.000000, -35.000000)" stroke="#FFFFFF">
            <path d="M585.125987,35.5 C585.881328,35.5 586.5,36.105549 586.5,36.8336906 L586.5,55.1633054 C586.5,55.8932026 585.881097,56.5 585.125987,56.5 L576.875534,56.5 C576.118482,56.5 575.5,55.8942988 575.5,55.1633054 L575.5,36.8336906 C575.5,36.1053819 576.118847,35.5 576.875534,35.5 L585.125987,35.5 Z M579.876675,35.9678449 L582.124846,35.9678449 C582.608293,35.9678449 583.000556,36.3524625 583.000556,36.8336906 C583.000556,37.3158779 582.608845,37.7010529 582.124846,37.7010529 L579.876675,37.7010529 C579.394984,37.7010529 579.002487,37.315126 579.002487,36.8336906 C579.002487,36.3530123 579.394205,35.9678449 579.876675,35.9678449 Z M581.000761,56.762359 C580.105842,56.762359 579.375154,56.0486148 579.375154,55.1633054 C579.375154,54.2758562 580.104999,53.564281 581.000761,53.564281 C581.896434,53.564281 582.624846,54.2757875 582.62484,55.1658147 C582.620398,56.050881 581.895443,56.762359 581.000761,56.762359 Z M575.251449,53.8311022 L575.251449,38.165923 L586.751624,38.165923 L586.751624,53.8311022 L575.251449,53.8311022 Z" id="iphone"></path>
        </g>
    </g>
</svg>