<?xml version="1.0" encoding="UTF-8"?>
<svg width="16px" height="19px" viewBox="0 0 16 19" version="1.1" xmlns="http://www.w3.org/2000/svg" xmlns:xlink="http://www.w3.org/1999/xlink">
    <!-- Generator: Sketch 47.1 (45422) - http://www.bohemiancoding.com/sketch -->
    <title>remind</title>
    <desc>Created with Sketch.</desc>
    <defs></defs>
    <g id="Page-1" stroke="none" stroke-width="1" fill="none" fill-rule="evenodd">
        <g id="Artboard" transform="translate(-654.000000, -36.000000)" stroke="#FFFFFF">
            <path d="M663.277738,37.6888458 C663.277738,37.7537019 663.272224,37.817638 663.261333,37.880492 L663.186572,38.3119756 L663.604435,38.4429619 C666.027055,39.2023723 667.722276,41.5410497 667.722276,44.2306763 L667.722276,46.5790918 C667.722276,46.6908325 667.725885,46.8814725 667.736654,47.1252567 C667.754614,47.5318371 667.78698,47.9388935 667.837735,48.3218967 C668.014416,49.6551293 668.323798,50.4333298 669.111285,50.4333298 C669.333002,50.4333298 669.5,50.5915904 669.5,50.7777925 C669.5,50.9631146 669.332901,51.1221756 669.111285,51.1221756 L654.888715,51.1221756 C654.667005,51.1221756 654.5,50.9639196 654.5,50.7777925 C654.5,50.5911903 654.668799,50.4333298 654.911789,50.4333298 C655.694554,50.4072501 655.99155,49.6360354 656.163892,48.3089171 C656.213927,47.9236279 656.245839,47.5140636 656.263548,47.1049663 C656.274166,46.8596707 656.277724,46.6678762 656.277724,46.5555319 L656.277724,44.2303841 C656.277724,41.6073732 658.0411,39.2248745 660.403633,38.4425803 L660.813641,38.3068164 L660.738924,37.8814278 C660.727852,37.8183884 660.722236,37.7540636 660.722236,37.6888458 C660.722236,37.0389561 661.290008,36.5 662.000013,36.5 C662.710455,36.5 663.277738,37.039344 663.277738,37.6888458 Z M664.100336,52.9652306 L659.899948,52.9652306 C660.137447,53.8460952 660.982798,54.5 661.999987,54.5 C663.021108,54.5 663.86384,53.8465114 664.100336,52.9652306 Z" id="remind"></path>
        </g>
    </g>
</svg>