<?xml version="1.0" encoding="UTF-8"?>
<svg width="20px" height="20px" viewBox="0 0 20 20" version="1.1" xmlns="http://www.w3.org/2000/svg" xmlns:xlink="http://www.w3.org/1999/xlink">
    <!-- Generator: Sketch 47.1 (45422) - http://www.bohemiancoding.com/sketch -->
    <title>search</title>
    <desc>Created with Sketch.</desc>
    <defs></defs>
    <g id="Page-1" stroke="none" stroke-width="1" fill="none" fill-rule="evenodd">
        <g id="Artboard" transform="translate(-691.000000, -36.000000)" fill="#FFFFFF">
            <path d="M710.049791,56 C709.939774,56 709.829732,55.9800049 709.729707,55.9500244 C709.629683,55.9200439 709.539675,55.8700684 709.459636,55.8000977 L709.349619,55.7101562 L703.528256,50.0129883 L703.438248,50.0729736 C702.087917,51.0024902 700.55757,51.4722656 698.887178,51.4722656 C698.717132,51.4722656 698.547085,51.4622803 698.377063,51.4522705 C698.207016,51.4422852 698.036969,51.4123047 697.866923,51.3822998 C696.706672,51.2523682 695.576399,50.8525635 694.616172,50.2229004 C693.555922,49.563208 692.685727,48.6736572 692.055577,47.5742188 C691.745486,47.0644775 691.505442,46.5147461 691.335395,45.9550293 C691.165373,45.3853027 691.055331,44.7956055 691.015336,44.1958984 C690.975316,43.6062012 691.015336,43.0064941 691.115361,42.4167969 C691.265373,41.4572754 691.605466,40.5577148 692.125575,39.7381348 C692.635715,38.9085449 693.295867,38.1989014 694.09604,37.6191895 C694.766209,37.0994385 695.526386,36.6996582 696.356586,36.4197998 C697.176768,36.1399414 698.036969,36 698.907164,36 C699.27726,36 699.627346,36.0199951 699.957422,36.0699707 C700.857643,36.1898926 701.717845,36.4597656 702.538027,36.8695557 C703.348217,37.2793701 704.078391,37.8091064 704.688531,38.4687744 C705.398696,39.1984131 705.948831,40.057959 706.32892,41.0474854 C706.698991,42.0369873 706.869038,43.0564697 706.819026,44.0659668 C706.759021,45.7651123 706.148881,47.3143311 705.008615,48.6636719 L704.928576,48.7536133 L710.719936,54.4008057 L710.719936,54.5007568 L710.789958,54.5007568 C710.930002,54.6806641 711,54.8605713 711,55.070459 C711,55.3203369 710.909993,55.5302246 710.729953,55.7101562 C710.559906,55.8800537 710.329855,55.9800049 710.079793,55.9800049 L710.049791,56 Z M698.116984,36.989502 C698.036969,36.989502 697.966947,36.9995117 697.886933,37.0194824 L697.756906,37.0394775 C696.75666,37.1894043 695.776448,37.5692139 694.946249,38.1389404 C694.106057,38.6886475 693.395892,39.4382812 692.895769,40.2978516 C692.315631,41.2273926 691.995548,42.2868652 691.935543,43.4262939 C691.875538,44.575708 692.095572,45.6551758 692.585703,46.6346924 C692.995794,47.5142334 693.615927,48.3138428 694.376104,48.9435303 C695.136281,49.5732178 696.036502,50.0429687 696.996728,50.3028564 C697.626878,50.4727539 698.257028,50.5627197 698.887178,50.5627197 C699.27726,50.5627197 699.667365,50.5327393 700.057447,50.4627686 C700.597565,50.3728027 701.12769,50.2128906 701.627813,50.0030029 C702.127936,49.7931152 702.598032,49.5232422 703.03815,49.2033936 C703.478244,48.8835693 703.868349,48.5237305 704.228428,48.1239502 C704.578514,47.7141357 704.878563,47.2743652 705.118632,46.7946045 C705.568743,45.9450195 705.808787,45.0254883 705.8588,44.0759521 C705.908812,43.1364258 705.748782,42.1769043 705.378686,41.3073486 C705.168645,40.767627 704.898573,40.2578613 704.548487,39.7881104 C704.198426,39.318335 703.78831,38.8885498 703.328207,38.5087402 C702.868103,38.1389404 702.357988,37.8190918 701.81787,37.5791992 C700.917648,37.1694092 699.90741,36.9595215 698.917181,36.9595215 C698.64711,36.9495361 698.387056,36.9595215 698.116984,36.989502 L698.116984,36.989502 Z" id="search"></path>
        </g>
    </g>
</svg>