<?xml version="1.0" encoding="utf-8"?>
<!-- Generator: Adobe Illustrator 20.0.0, SVG Export Plug-In . SVG Version: 6.00 Build 0)  -->
<svg version="1.1" id="图层_1" xmlns="http://www.w3.org/2000/svg" xmlns:xlink="http://www.w3.org/1999/xlink" x="0px" y="0px"
	 viewBox="0 0 20 20" style="enable-background:new 0 0 20 20;" xml:space="preserve">
<style type="text/css">
	.st0{display:none;}
	.st1{display:inline;fill:#FFFFFF;}
	.st2{display:inline;fill:none;}
	.st3{display:inline;fill:#040000;}
	.st4{fill:#FFFFFF;}
</style>
<g class="st0">
	<path class="st1" d="M16.3,0.8H3.7C2.2,0.8,1.1,2,1.1,3.5v12.8c0,1.5,1.2,2.7,2.6,2.7h12.6c1.4,0,2.6-1.2,2.6-2.7V3.5
		C18.9,2,17.8,0.8,16.3,0.8z M17.8,16.2c0,0.8-0.7,1.5-1.5,1.5H3.7c-0.8,0-1.5-0.7-1.5-1.5V3.5c0-0.8,0.7-1.5,1.5-1.5h12.6
		c0.8,0,1.5,0.7,1.5,1.5V16.2z"/>
	<path class="st1" d="M3.7,1.9"/>
	<rect x="1.1" y="0.8" class="st2" width="17.9" height="18.1"/>
	<rect x="1.6" y="4.9" class="st1" width="16.8" height="1.1"/>
	<path class="st1" d="M7,9.2H4.7C4.4,9.2,4.2,9,4.2,8.7c0-0.3,0.3-0.6,0.6-0.6H7c0.3,0,0.6,0.3,0.6,0.6C7.5,9,7.3,9.2,7,9.2L7,9.2z"
		/>
	<path class="st1" d="M15.3,9.2H13c-0.3,0-0.6-0.3-0.6-0.6c0-0.3,0.3-0.6,0.6-0.6h2.2c0.3,0,0.6,0.3,0.6,0.6
		C15.8,9,15.6,9.2,15.3,9.2L15.3,9.2z"/>
	<path class="st3" d="M15.3,9.2"/>
	<path class="st1" d="M10,13.4c-2.6,0-4.7-2.1-4.7-4.8c0-0.3,0.3-0.6,0.6-0.6c0.3,0,0.6,0.3,0.6,0.6c0,2,1.6,3.6,3.6,3.6
		c2,0,3.6-1.6,3.6-3.6c0-0.3,0.3-0.6,0.6-0.6c0.3,0,0.6,0.3,0.6,0.6C14.7,11.3,12.6,13.4,10,13.4L10,13.4z M10,13.4"/>
</g>
<g>
	<g>
		<path class="st4" d="M17.1,1H2.9C1.6,1,0.6,2.3,0.6,4v11.9c0,1.7,1,3,2.3,3h14.3c1.3,0,2.3-1.4,2.3-3V4C19.4,2.3,18.4,1,17.1,1
			L17.1,1z M9.6,12.4c-0.9-0.2-1.5-1.2-1.5-2.4c0-1.2,0.6-2.2,1.5-2.4L9.6,12.4z M10.4,7.5c0.9,0.2,1.5,1.2,1.5,2.4
			c0,1.2-0.6,2.2-1.5,2.4L10.4,7.5z M1.3,6.4h1.6c0.4,0,0.7,0.4,0.7,0.9v5.2c0,0.5-0.3,0.9-0.7,0.9H1.3V6.4z M1.3,15.9v-1.5h1.6
			c0.8,0,1.4-0.9,1.4-1.9V7.4c0-1.1-0.6-1.9-1.4-1.9H1.3V4c0-1.1,0.7-2,1.5-2h6.7v4.5C8.3,6.8,7.4,8.2,7.4,10c0,1.7,1,3.2,2.2,3.5
			l0,4.5H2.9C2,17.9,1.3,17,1.3,15.9C1.3,15.9,1.3,15.9,1.3,15.9L1.3,15.9z M17.1,17.9h-6.8v-4.5c1.3-0.3,2.2-1.7,2.2-3.5
			c0-1.7-1-3.2-2.2-3.5l0-4.5h6.8c0.8,0,1.5,0.9,1.5,2v1.5h-1.5c-0.8,0-1.4,0.9-1.4,1.9v5.2c0,1.1,0.6,1.9,1.4,1.9h1.5v1.5
			C18.6,17,18,17.9,17.1,17.9L17.1,17.9z M18.7,6.4v7h-1.5c-0.4,0-0.7-0.4-0.7-0.9V7.4c0-0.5,0.3-0.9,0.7-0.9L18.7,6.4L18.7,6.4z
			 M18.7,6.4"/>
	</g>
</g>
</svg>
