<?xml version="1.0" encoding="utf-8"?>
<!-- Generator: Adobe Illustrator 20.0.0, SVG Export Plug-In . SVG Version: 6.00 Build 0)  -->
<svg version="1.1" id="图层_1" xmlns="http://www.w3.org/2000/svg" xmlns:xlink="http://www.w3.org/1999/xlink" x="0px" y="0px"
	 viewBox="0 0 20 20" style="enable-background:new 0 0 20 20;" xml:space="preserve">
<style type="text/css">
	.st0{fill:#FFFFFF;}
	.st1{fill:none;}
	.st2{fill:#040000;}
</style>
<g>
	<path class="st0" d="M16.6,0.6H3.4c-1.5,0-2.7,1.2-2.7,2.8v13.3c0,1.5,1.2,2.8,2.7,2.8h13.1c1.5,0,2.7-1.2,2.7-2.8V3.4
		C19.3,1.9,18.1,0.6,16.6,0.6z M18.1,16.7c0,0.9-0.7,1.6-1.6,1.6H3.4c-0.9,0-1.6-0.7-1.6-1.6V3.4c0-0.9,0.7-1.6,1.6-1.6h13.1
		c0.9,0,1.6,0.7,1.6,1.6V16.7z"/>
	<path class="st0" d="M3.4,1.8"/>
	<rect x="0.7" y="0.6" class="st1" width="18.6" height="18.9"/>
	<rect x="1.3" y="4.9" class="st0" width="17.4" height="1.2"/>
	<path class="st0" d="M6.9,9.4H4.5C4.2,9.4,4,9.1,4,8.8c0-0.3,0.3-0.6,0.6-0.6h2.3c0.3,0,0.6,0.3,0.6,0.6C7.4,9.1,7.2,9.4,6.9,9.4
		L6.9,9.4z"/>
	<path class="st0" d="M15.5,9.4h-2.3c-0.3,0-0.6-0.3-0.6-0.6c0-0.3,0.3-0.6,0.6-0.6h2.3c0.3,0,0.6,0.3,0.6,0.6
		C16.1,9.1,15.8,9.4,15.5,9.4L15.5,9.4z"/>
	<path class="st2" d="M15.5,9.4"/>
	<path class="st0" d="M10,13.8c-2.7,0-4.9-2.2-4.9-5c0-0.3,0.3-0.6,0.6-0.6c0.3,0,0.6,0.3,0.6,0.6c0,2.1,1.7,3.8,3.7,3.8
		c2.1,0,3.7-1.7,3.7-3.8c0-0.3,0.3-0.6,0.6-0.6c0.3,0,0.6,0.3,0.6,0.6C14.9,11.6,12.7,13.8,10,13.8L10,13.8z M10,13.8"/>
</g>
</svg>
