<?xml version="1.0" encoding="UTF-8"?>
<svg width="20px" height="20px" viewBox="0 0 20 20" version="1.1" xmlns="http://www.w3.org/2000/svg" xmlns:xlink="http://www.w3.org/1999/xlink">
    <!-- Generator: Sketch 47.1 (45422) - http://www.bohemiancoding.com/sketch -->
    <title>bar_shezhi_on</title>
    <desc>Created with Sketch.</desc>
    <defs></defs>
    <g id="Page-1" stroke="none" stroke-width="1" fill="none" fill-rule="evenodd">
        <g id="Artboard" transform="translate(-362.000000, -81.000000)" stroke="#C8C8C8">
            <path d="M379.4718,92.928115 L381,92.928115 L381,89.070805 L379.4718,89.070805 C377.921618,89.070805 377.552482,88.1754175 378.645623,87.081175 L379.72776,85.999015 L376.99986,83.272195 L375.918803,84.3532525 C374.823458,85.448575 373.92699,85.0772575 373.930252,83.5292575 C373.930252,83.52487 373.928047,83.522665 373.928047,83.51938 L373.928047,82 L370.072448,82 L370.072448,83.53369 C370.06806,85.0783825 369.174877,85.4475175 368.081175,84.3532975 L366.999555,83.27224 L364.272758,85.999015 L365.353815,87.081175 C366.44862,88.175395 366.077257,89.070805 364.52982,89.070805 L363,89.070805 L363,92.928115 L364.529865,92.928115 C366.077302,92.928115 366.44862,93.8235025 365.35386,94.918825 L364.272803,95.9998825 L366.999622,98.727805 L368.081242,97.6456675 C369.174922,96.552505 370.068128,96.92164 370.072515,98.4652525 L370.072515,100 L373.928182,100 L373.928182,98.480575 C373.928182,98.4772675 373.930387,98.4739825 373.930387,98.4706975 C373.92708,96.9227425 374.82357,96.5524825 375.918938,97.6456225 L376.999995,98.72776 L379.727895,95.99986 L378.645758,94.9188025 C377.552505,93.8235025 377.92164,92.928115 379.4718,92.928115 Z M372,94.375 C370.136145,94.375 368.625,92.86327 368.625,91 C368.625,89.13673 370.136145,87.625 372,87.625 C373.86327,87.625 375.375,89.13673 375.375,91 C375.375,92.86327 373.86327,94.375 372,94.375 L372,94.375 Z" id="bar_shezhi_on"></path>
        </g>
    </g>
</svg>