<?xml version="1.0" encoding="UTF-8"?>
<svg width="20px" height="17px" viewBox="0 0 20 17" version="1.1" xmlns="http://www.w3.org/2000/svg" xmlns:xlink="http://www.w3.org/1999/xlink">
    <!-- Generator: Sketch 47.1 (45422) - http://www.bohemiancoding.com/sketch -->
    <title>bar_weixin</title>
    <desc>Created with Sketch.</desc>
    <defs>
        <polygon id="path-1" points="0.00146699267 0.0136919315 0.00146699267 16.4792421 19.992176 16.4792421 19.992176 0.0136919315"></polygon>
    </defs>
    <g id="Page-1" stroke="none" stroke-width="1" fill="none" fill-rule="evenodd">
        <g id="列表页" transform="translate(-61.000000, -14.000000)">
            <g id="bar_weixin" transform="translate(61.000000, 14.000000)">
                <mask id="mask-2" fill="white">
                    <use xlink:href="#path-1"></use>
                </mask>
                <g id="Clip-2"></g>
                <path d="M17.6567237,16.4792421 C17.5765037,16.4792421 17.4963814,16.4576773 17.4239853,16.4186064 L15.7418093,15.4992421 C15.1178484,15.6537897 14.4547433,15.804401 13.787824,15.804401 C12.5280685,15.804401 11.313423,15.4777506 10.2728606,14.8577262 C9.24205379,14.2435208 8.45775061,13.3887286 8.00388753,12.3814181 C7.96674817,12.3950611 7.92567237,12.4029095 7.88459658,12.4068215 C7.65968215,12.4264059 7.43276284,12.4361369 7.21366748,12.4361369 C6.45867971,12.4361369 5.85229829,12.3110269 5.14814181,12.1662347 L4.92129584,12.1212469 L2.71488998,13.2244499 C2.64640587,13.2577017 2.57210269,13.2752567 2.49779951,13.2752567 C2.38242054,13.2752567 2.26897311,13.2342054 2.18090465,13.1579951 C2.03229829,13.0288509 1.97748166,12.8254279 2.03811736,12.6395599 L2.599511,10.9496577 C0.899779951,9.66261614 0,8.02743276 0,6.22586797 C0,2.800978 3.23711491,0.0136919315 7.21757946,0.0136919315 C10.7227139,0.0136919315 13.8405379,2.20051345 14.4782396,5.10317848 C15.9334963,5.24987775 17.296846,5.85425428 18.3217359,6.81075795 C19.3995355,7.81616137 19.992176,9.10322738 19.992176,10.4351589 C19.992176,11.8552567 19.1823716,13.296846 17.7095355,14.4919315 L18.1203178,15.8572127 C18.1770416,16.0449878 18.1164059,16.2465037 17.9618826,16.3716137 C17.8738142,16.4400978 17.7662836,16.4792421 17.6567237,16.4792421 Z M15.8082885,14.4997555 C15.8885086,14.4997555 15.9706357,14.5212469 16.0410269,14.5604156 L16.8528362,15.0044254 L16.6865526,14.4508557 C16.627824,14.2571883 16.698313,14.0479218 16.8586797,13.9266259 C18.2552812,12.8762347 19.023912,11.6361614 19.023912,10.4332518 C19.023912,8.04691932 16.627824,6.03026895 13.7897311,6.03026895 C10.8968215,6.03026895 8.54378973,8.00584352 8.54378973,10.4332518 C8.54378973,12.8625917 10.8968215,14.8381418 13.7897311,14.8381418 C14.4136919,14.8381418 15.0630318,14.6738875 15.6889976,14.5154279 C15.7261369,14.505599 15.7672127,14.4997555 15.8082885,14.4997555 Z M7.21757946,0.98195599 C3.77110024,0.98195599 0.966259169,3.33496333 0.966259169,6.22586797 C0.966259169,7.82792176 1.80347188,9.22251834 3.45430318,10.374621 C3.63031785,10.497824 3.70464548,10.7188264 3.63616137,10.9241565 L3.33100244,11.8416137 L4.64356968,11.1843276 C4.70804401,11.1511002 4.78244499,11.1335208 4.85865526,11.1335208 C4.89188264,11.1335208 4.92520782,11.1374328 4.95645477,11.1432518 L5.3398044,11.221467 C5.99117359,11.3565281 6.55256724,11.4719071 7.21757946,11.4719071 C7.37603912,11.4719071 7.53638142,11.4659658 7.69484108,11.4562347 C7.61662592,11.1100244 7.57755501,10.7677262 7.57755501,10.4371638 C7.57755501,9.01515892 8.21706601,7.67337408 9.37701711,6.66215159 C10.4723716,5.70755501 11.9257213,5.14625917 13.4709291,5.07777506 C12.807824,2.70127139 10.1828851,0.98195599 7.21757946,0.98195599 Z M15.6342543,9.7701467 C15.2,9.7701467 14.7892176,9.35745721 14.7892176,8.92127139 C14.7892176,8.4909291 15.207824,8.06848411 15.6342543,8.06848411 C16.2660391,8.06848411 16.6552323,8.51051345 16.6552323,8.92127139 C16.6552323,9.3300489 16.2640342,9.7701467 15.6342543,9.7701467 Z M11.9315403,9.7701467 C11.4933496,9.7701467 11.0806601,9.35745721 11.0806601,8.92127139 C11.0806601,8.4909291 11.5011736,8.06848411 11.9315403,8.06848411 C12.5594132,8.06848411 12.9487042,8.51051345 12.9487042,8.92127139 C12.9487042,9.3300489 12.5614181,9.7701467 11.9315403,9.7701467 Z M9.74278729,5.22056235 C9.17166259,5.22056235 8.55354523,4.83127139 8.55354523,4.20149144 C8.55354523,3.90809291 8.690489,3.64200489 8.93892421,3.4503423 C9.15792176,3.28215159 9.45132029,3.18635697 9.74278729,3.18635697 C10.3530807,3.18635697 10.7618582,3.59511002 10.7618582,4.20149144 C10.7618582,4.80195599 10.3432518,5.22056235 9.74278729,5.22056235 Z M5.02885086,5.22056235 C4.45569682,5.22056235 3.83567237,4.83127139 3.83567237,4.20149144 C3.83567237,3.57364303 4.45378973,3.18635697 5.02885086,3.18635697 C5.63713936,3.18635697 6.04599022,3.59511002 6.04599022,4.20149144 C6.04599022,4.80195599 5.62738386,5.22056235 5.02885086,5.22056235 Z" id="Fill-1" fill="#FFFFFF" mask="url(#mask-2)"></path>
            </g>
        </g>
    </g>
</svg>