<?xml version="1.0" encoding="UTF-8"?>
<svg width="20px" height="19px" viewBox="0 0 20 19" version="1.1" xmlns="http://www.w3.org/2000/svg" xmlns:xlink="http://www.w3.org/1999/xlink">
    <!-- Generator: Sketch 47.1 (45422) - http://www.bohemiancoding.com/sketch -->
    <title>bar_kehu</title>
    <desc>Created with Sketch.</desc>
    <defs></defs>
    <g id="Page-1" stroke="none" stroke-width="1" fill="none" fill-rule="evenodd">
        <g id="Artboard" transform="translate(-43.000000, -41.000000)" stroke="#FFFFFF">
            <g id="bar_kehu" transform="translate(44.000000, 42.000000)">
                <path d="M3.44862301,4.50009696 C4.06969549,4.50009696 4.59996563,4.28048426 5.03928799,3.8409195 C5.47882851,3.40150018 5.69856241,2.87110884 5.69856241,2.25013332 C5.69856241,1.6290366 5.47882851,1.09869374 5.03928799,0.659250182 C4.59996563,0.219709661 4.06969549,0 3.44862301,0 C2.82742933,0 2.29725615,0.219709661 1.85773987,0.659250182 C1.41841751,1.09869374 1.19856241,1.62893964 1.19856241,2.25013332 C1.19856241,2.8712058 1.41841751,3.40147594 1.85773987,3.8409195 C2.29728039,4.2803873 2.82742933,4.50009696 3.44862301,4.50009696" id="Fill-1"></path>
                <path d="M6.41896527,8.37208519 C7.10253771,9.05555708 7.92730922,9.39740615 8.89355633,9.39740615 C9.85977829,9.39740615 10.6846504,9.05555708 11.3682479,8.37208519 C12.0518204,7.68831165 12.3935438,6.86346472 12.3935438,5.89726789 C12.3935438,4.93112134 12.0517952,4.1064001 11.3682479,3.42270196 C10.6846504,2.73902897 9.85980343,2.3973056 8.89355633,2.3973056 C7.92730922,2.3973056 7.10251257,2.73915466 6.41896527,3.42270196 C5.73539282,4.10617386 5.39354376,4.93102078 5.39354376,5.89726789 C5.39354376,6.86351499 5.73539282,7.6884122 6.41896527,8.37208519" id="Fill-2"></path>
                <path d="M14.2360431,4.50043635 C14.8570897,4.50043635 15.3873756,4.28080709 15.8269492,3.84120917 C16.2663047,3.40175671 16.485934,2.87132537 16.485934,2.25030302 C16.485934,1.62915946 16.2663047,1.09877661 15.8269492,0.659299901 C15.3873756,0.219726231 14.8570897,0 14.2360431,0 C13.6147056,0 13.0844924,0.219726231 12.644943,0.659299901 C12.2056602,1.09877661 11.985934,1.62906249 11.985934,2.25030302 C11.985934,2.87142234 12.2056602,3.40173247 12.644943,3.84120917 C13.0844924,4.28071012 13.6147056,4.50043635 14.2360431,4.50043635" id="Fill-3"></path>
                <path d="M16.8173458,4.79448207 C16.7799254,4.79448207 16.644241,4.86002582 16.4101636,4.99116499 C16.1761894,5.12227834 15.8716356,5.25494118 15.4971994,5.38910187 C15.1227374,5.52326255 14.7512453,5.59038164 14.3829813,5.59038164 C13.9646169,5.59038164 13.5497131,5.51869154 13.1376499,5.37494978 C13.1687432,5.60587661 13.1844189,5.811934 13.1844189,5.99294118 C13.1844189,6.8606858 12.9315151,7.65971019 12.4257331,8.39014347 C13.4370904,8.42134003 14.2641607,8.82090387 14.9072798,9.58886083 L16.162089,9.58886083 C16.6739656,9.58886083 17.104726,9.46218938 17.4541894,9.20951793 C17.8037561,8.95671736 17.9785653,8.5867231 17.9785653,8.09997418 C17.9786686,5.89620086 17.5917073,4.79437877 16.8173458,4.79448207" id="Fill-4"></path>
                <path d="M15.4178651,12.3650445 C15.3522697,11.9997245 15.2694491,11.661056 15.1696356,11.3490129 C15.0697188,11.0368666 14.9354548,10.7326485 14.7671277,10.4361521 C14.5984648,10.139759 14.4049584,9.88675179 14.1863242,9.67756958 C13.9677934,9.46838737 13.7008407,9.30150646 13.3857504,9.17656528 C13.0704534,9.05175323 12.722307,8.98936011 12.3416729,8.98936011 C12.2791506,8.98936011 12.1451191,9.05653085 11.9389584,9.19069154 C11.7329268,9.32485222 11.5052281,9.47489527 11.2555007,9.64020086 C11.0057475,9.80542898 10.6719598,9.95526542 10.2534921,10.0895294 C9.83499857,10.2236901 9.41366428,10.2908867 8.98933429,10.2908867 C8.56497848,10.2908867 8.14343759,10.2236901 7.72527977,10.0895294 C7.30691535,9.95526542 6.97297274,9.80542898 6.72324534,9.64020086 C6.47351793,9.47489527 6.24574175,9.32485222 6.03978766,9.19069154 C5.8336528,9.05653085 5.69959541,8.98936011 5.63707317,8.98936011 C5.25623242,8.98936011 4.90829268,9.05175323 4.5929957,9.17656528 C4.27769871,9.30150646 4.01087518,9.46838737 3.79231851,9.67756958 C3.57376184,9.88664849 3.38035868,10.1397848 3.21174749,10.4361521 C3.04318795,10.7326485 2.90905308,11.0367633 2.80911047,11.3490129 C2.70932281,11.661056 2.6265538,11.9997504 2.56101004,12.3650445 C2.49531133,12.7302611 2.45171879,13.0703501 2.4298967,13.3857762 C2.40802296,13.7009699 2.39702152,14.0240918 2.39702152,14.3549613 C2.39702152,15.1039627 2.62492683,15.6955352 3.08060832,16.1292396 C3.53639311,16.5630732 4.1419627,16.779977 4.89718795,16.779977 L13.0813257,16.779977 C13.8366542,16.779977 14.4420172,16.5630732 14.8980344,16.1292396 C15.3536901,15.695561 15.5814921,15.1039627 15.5814921,14.3549613 C15.5814921,14.0240918 15.5704907,13.701099 15.5489785,13.3857762 C15.5268981,13.0703759 15.4831765,12.7302611 15.4178651,12.3650445" id="Fill-5"></path>
                <path d="M5.55270301,8.39014347 C5.04692109,7.65971019 4.79424964,6.8606858 4.79435294,5.99294118 C4.79435294,5.81190818 4.81000287,5.60600574 4.84112195,5.37494978 C4.42916212,5.51856241 4.01392253,5.59038164 3.59576471,5.59038164 C3.22737159,5.59038164 2.85598278,5.52326255 2.4814175,5.38910187 C2.10698135,5.25494118 1.80255667,5.12230416 1.56855667,4.99116499 C1.3344792,4.86002582 1.19856241,4.79448207 1.16119369,4.79448207 C0.387038737,4.79448207 0,5.89630416 0,8.09997418 C0,8.5867231 0.174809182,8.95671736 0.524246772,9.20951793 C0.873916786,9.46218938 1.30470301,9.58875753 1.81647633,9.58875753 L3.07128551,9.58875753 C3.71437877,8.82090387 4.54134577,8.42134003 5.55270301,8.39014347" id="Fill-6"></path>
            </g>
        </g>
    </g>
</svg>