<?xml version="1.0" encoding="UTF-8"?>
<svg width="18px" height="18px" viewBox="0 0 18 18" version="1.1" xmlns="http://www.w3.org/2000/svg" xmlns:xlink="http://www.w3.org/1999/xlink">
    <!-- Generator: Sketch 47.1 (45422) - http://www.bohemiancoding.com/sketch -->
    <title>bar_shujugailan</title>
    <desc>Created with Sketch.</desc>
    <defs>
        <polygon id="path-1" points="0.00129186603 0.0172302632 0.00129186603 17.6554754 17.9982883 17.6554754 17.9982883 0.0172302632 0.00129186603 0.0172302632"></polygon>
    </defs>
    <g id="Page-1" stroke="none" stroke-width="1" fill="none" fill-rule="evenodd">
        <g id="列表页" transform="translate(-10.000000, -14.000000)">
            <g id="bar_shujugailan" transform="translate(10.000000, 14.000000)">
                <mask id="mask-2" fill="white">
                    <use xlink:href="#path-1"></use>
                </mask>
                <g id="Clip-2"></g>
                <path d="M1.36688038,1.37880861 L1.36688038,13.3720622 L4.27711005,13.3720622 L4.27711005,8.65692344 C4.27711005,8.26716746 4.56795215,7.96127512 4.93936364,7.95337321 C5.12069856,7.94883014 5.29639234,8.01669617 5.42760287,8.14202871 C5.5588134,8.26725359 5.63475359,8.43958852 5.63871531,8.62100957 L5.63871531,13.3707919 L8.19165789,13.3707919 L8.19165789,7.30920574 C8.19165789,6.94881818 8.40268421,6.67774163 8.73523206,6.60707656 C8.92883971,6.56739474 9.13028469,6.61372967 9.28696651,6.73426077 C9.44373445,6.85468421 9.54038756,7.0373756 9.55173445,7.2346866 C9.55393062,7.27723206 9.55300478,7.31979904 9.55300478,7.36236603 L9.55300478,13.3699522 L12.1274785,13.3699522 L12.1274785,8.66439474 C12.1274785,8.31182297 12.3402703,8.04059569 12.6674354,7.96993062 C12.8627225,7.92848325 13.066256,7.97499043 13.2241435,8.09711483 C13.3820096,8.2192177 13.4782105,8.40460048 13.4872105,8.60393541 C13.4925072,8.74901196 13.48889,8.89460526 13.48889,9.04009091 L13.48889,13.3729019 L16.5101555,13.3729019 L16.5101555,13.2633947 C16.5101555,10.8735287 16.5097249,8.48357656 16.5090574,6.09371053 C16.5103923,6.04492105 16.5011555,5.99638995 16.4820574,5.95138995 C16.3588349,5.69353349 16.3741435,5.44633493 16.5485885,5.22144258 C16.7345526,4.98190909 16.9876938,4.89233971 17.2847584,4.95004306 C17.5698086,5.00529187 17.759799,5.17678708 17.8460096,5.4552488 C17.8634928,5.51639713 17.8718254,5.57982775 17.8708995,5.64332297 C17.8719976,8.36295933 17.8719976,11.0825311 17.8708995,13.8020167 C17.8708995,14.3518134 17.4878828,14.739201 16.9347919,14.7393732 C11.6019043,14.7403852 6.26899522,14.7403852 0.936107656,14.7393732 C0.382930622,14.7393732 0,14.3518134 0,13.8018445 L0,0.951803828 C0.000839712919,0.413117225 0.383770335,0.0191626794 0.919700957,0.0187320574 C4.31649043,0.0167296651 7.7133445,0.0167296651 11.1103923,0.0187320574 C11.4024833,0.0187320574 11.6296579,0.159373206 11.7598565,0.424894737 C11.8811196,0.672502392 11.8537105,0.917160287 11.683744,1.13440909 C11.5022368,1.36627751 11.2582464,1.44988278 10.9667368,1.40942584 C10.8589091,1.3920933 10.7499833,1.382189 10.6408206,1.37964833 C7.59483732,1.37906699 4.54894019,1.37880861 1.50330144,1.37880861 L1.36688038,1.37880861 Z" id="Fill-1" fill="#FFFFFF" mask="url(#mask-2)"></path>
                <path d="M16.6332703,2.57421531 C16.4993038,2.67463636 16.3865024,2.75873684 16.2741531,2.84361244 C14.7329139,4.00661483 13.1915885,5.17030622 11.6503493,6.3347512 C11.3118158,6.59008852 11.0510096,6.59749522 10.6978349,6.35862919 L7.2209067,4.00629187 C7.1887823,3.98499761 7.15706699,3.96372488 7.11686842,3.93689713 L6.35966268,4.51873206 L3.95793301,6.36562679 C3.55523684,6.67436124 3.01805742,6.52372967 2.86574641,6.06182297 C2.77044976,5.77334928 2.86574641,5.48864354 3.13167703,5.28401196 C3.62807656,4.90108134 4.12522967,4.51864593 4.62322249,4.13664115 C5.28900718,3.62469617 5.95468421,3.11257895 6.62031818,2.60046172 C6.92728708,2.36402871 7.2083756,2.35401675 7.52916746,2.57085646 C8.70015789,3.36270574 9.87091148,4.15472727 11.0416651,4.94700718 C11.0735526,4.9682799 11.1054187,4.98955263 11.1420861,5.01235407 L15.9265335,1.40010287 C15.6512584,1.40010287 15.3946507,1.40161005 15.1381292,1.40010287 C15.025177,1.40010287 14.9096196,1.4037201 14.7995957,1.38268421 C14.4594689,1.31464593 14.2255766,1.00076555 14.257701,0.65542823 C14.289933,0.310004785 14.5776531,0.0447200957 14.9244976,0.0406076555 C15.5555526,0.0364090909 16.1865,0.0391866029 16.8179856,0.0391866029 C16.9775311,0.0391866029 17.1370766,0.0380885167 17.296622,0.0391866029 C17.6870455,0.0425454545 17.9878995,0.318660287 17.9916675,0.708911483 C18.0004952,1.58436603 18.0004952,2.45999282 17.9916675,3.33570574 C17.9910861,3.51553349 17.9183325,3.68769617 17.7897273,3.81341627 C17.6610574,3.93915789 17.487366,4.00805742 17.3074737,4.00450478 C16.9300981,4.00157656 16.639256,3.7054378 16.63411,3.31484211 C16.6309234,3.078 16.6332703,2.84098565 16.6332703,2.57421531 Z M8.93135885,17.6540598 L0.721636364,17.6540598 C0.355090909,17.6540598 0.0859521531,17.442366 0.0148779904,17.1032512 C-0.0671985646,16.7062608 0.233978469,16.3160957 0.640980861,16.294823 C0.672933014,16.2931435 0.704799043,16.2935526 0.736772727,16.2935526 L17.1349665,16.2935526 C17.5121914,16.2935526 17.784689,16.5002943 17.8563445,16.8394091 C17.9417153,17.2413517 17.6376746,17.6327871 17.2264737,17.6540598 C17.1804833,17.6561483 17.134299,17.6553086 17.0881148,17.6553086 L8.93135885,17.6540598 Z" id="Fill-3" fill="#FFFFFF" mask="url(#mask-2)"></path>
            </g>
        </g>
    </g>
</svg>