<?xml version="1.0" encoding="UTF-8"?>
<svg width="20px" height="19px" viewBox="0 0 20 19" version="1.1" xmlns="http://www.w3.org/2000/svg" xmlns:xlink="http://www.w3.org/1999/xlink">
    <!-- Generator: Sketch 47.1 (45422) - http://www.bohemiancoding.com/sketch -->
    <title>bar_shouye_on</title>
    <desc>Created with Sketch.</desc>
    <defs></defs>
    <g id="Page-1" stroke="none" stroke-width="1" fill="none" fill-rule="evenodd">
        <g id="Artboard" transform="translate(-78.000000, -82.000000)" stroke="#C8C8C8">
            <g id="bar_shouye_on" transform="translate(79.000000, 83.000000)">
                <path d="M2.77490377,10.3323318 L2.77490377,17.0546109 C2.77490377,17.1902014 2.80819606,17.2626504 2.88291458,17.3197849 C2.99070581,17.4021672 3.15917052,17.4497406 3.40315481,17.4497406 L6.4267113,17.4497406 L6.4267113,14.7824435 C6.4267113,13.5411347 7.43314956,12.5347364 8.67451883,12.5347364 L9.321841,12.5347364 C10.5632278,12.5347364 11.5696485,13.5411272 11.5696485,14.7824435 L11.5696485,17.4497851 L14.577088,17.4500504 C14.7877237,17.4426322 14.9301145,17.3850493 15.0326647,17.2793875 C15.1409643,17.1677894 15.1870377,17.0589408 15.1870377,16.9292887 L15.1870377,10.3661962 C14.2597213,9.50605291 13.4181609,8.72629383 12.6673205,8.03143979 C12.3173688,7.71776963 11.9768449,7.40434951 11.6457099,7.09112118 L11.6458272,7.09123215 C11.3159311,6.77937757 11.0200426,6.49848433 10.7642114,6.25420839 L10.0810888,5.62512636 C9.89427077,5.4505917 9.78790376,5.35009841 9.75998599,5.32169419 C9.52139262,5.10017648 9.27440564,5.00415667 8.99339688,5.01616372 C8.69250897,5.0290163 8.44700301,5.1292503 8.25083872,5.30919654 C8.19765693,5.36226673 8.07915343,5.47468247 7.89001697,5.65168197 C7.70491299,5.82492643 7.47449736,6.03736071 7.19614823,6.29145577 C6.88218611,6.57805316 6.58639818,6.84773678 6.28243916,7.12444082 C5.94823788,7.42880315 5.61526998,7.73505233 5.2796734,8.04675905 C4.55543043,8.70584356 3.73491646,9.45460226 2.77490377,10.3323318 Z" id="Path"></path>
                <path d="M17.9789121,8.33939749 C17.9669623,8.05285356 17.8357406,7.79041004 17.5850962,7.55164017 L17.1373305,7.1039749 C16.9105858,6.87715481 16.6301423,6.60559833 16.2957238,6.28933054 C15.9615314,5.97288703 15.594477,5.61778243 15.1945607,5.22386611 C14.7947448,4.82994979 14.3857155,4.43307113 13.9679749,4.03315481 C13.5501088,3.63316318 13.1383431,3.23628452 12.7325523,2.8423682 C12.3264603,2.44842678 11.9595063,2.09334728 11.6310879,1.77697908 C11.3029456,1.4607364 11.0252385,1.19201674 10.7985188,0.971297071 C10.5716736,0.750351464 10.4224268,0.610117155 10.3507531,0.550393305 C9.9807364,0.192251046 9.53317155,0.0162426778 9.00775732,0.0223179916 C8.48261925,0.0281924686 7.9930795,0.251974895 7.53951464,0.693665272 C7.47969038,0.753288703 7.26788285,0.953246862 6.90376569,1.29343933 C6.53964854,1.63370711 6.10395816,2.04253556 5.59666946,2.52012552 C5.08917992,2.99758996 4.54011715,3.51087866 3.94917992,4.06004184 C3.35831799,4.60900418 2.80611715,5.1223682 2.29285356,5.59985774 C1.77948954,6.07732218 1.33779916,6.48918828 0.967807531,6.83535565 C0.597715481,7.1814477 0.376870293,7.39041841 0.305171548,7.46199163 C0.114150628,7.64106276 0.0126527197,7.88279498 0.000878661088,8.18708787 C-0.0111715481,8.49158159 0.102276151,8.75136402 0.34107113,8.96610879 C0.555941423,9.15715481 0.812661088,9.24657741 1.11097908,9.23472803 C1.40939749,9.22275314 1.64816736,9.14517992 1.82723849,9.00200837 C1.88696234,8.954159 2.06299582,8.79607531 2.35551464,8.52748117 C2.64795816,8.25888703 2.99716318,7.93350628 3.40305439,7.55153975 C3.80894561,7.16957322 4.25061088,6.75780753 4.72820084,6.31611715 C5.20566527,5.87432636 5.65933054,5.45068619 6.08904603,5.04469456 C6.51876151,4.63890377 6.89789121,4.28382427 7.22610879,3.97933054 C7.55432636,3.67503766 7.77820921,3.4691046 7.8976569,3.36170711 C8.25577406,3.0392887 8.61989121,2.87216736 8.98980753,2.86021757 C9.36,2.8483431 9.73606695,3.01543933 10.1180335,3.36170711 C10.2015816,3.43330544 10.3985021,3.61825105 10.7089707,3.91666946 C11.019364,4.21516318 11.3894561,4.56733054 11.8191715,4.97312134 C12.248887,5.37911297 12.7055649,5.81176569 13.1889289,6.27140586 C13.6725941,6.7309205 14.1260586,7.16063598 14.5499749,7.5605523 C14.9737155,7.9603682 15.3378326,8.30369874 15.6422259,8.59004184 C15.9466192,8.87668619 16.1285272,9.04378243 16.1883515,9.09155649 C16.3674226,9.24667782 16.6061925,9.33032636 16.9045105,9.34220084 C17.2030293,9.35415063 17.465749,9.25865272 17.6924686,9.05575732 C17.895364,8.8647113 17.990887,8.62594142 17.9789121,8.33939749 Z" id="Path"></path>
            </g>
        </g>
    </g>
</svg>