<?xml version="1.0" encoding="UTF-8"?>
<svg width="20px" height="20px" viewBox="0 0 20 20" version="1.1" xmlns="http://www.w3.org/2000/svg" xmlns:xlink="http://www.w3.org/1999/xlink">
    <!-- Generator: Sketch 47.1 (45422) - http://www.bohemiancoding.com/sketch -->
    <title>bar_changdi</title>
    <desc>Created with Sketch.</desc>
    <defs></defs>
    <g id="Page-1" stroke="none" stroke-width="1" fill="none" fill-rule="evenodd">
        <g id="Artboard" transform="translate(-221.000000, -40.000000)" stroke="#FFFFFF">
            <g id="bar_changdi" transform="translate(222.000000, 41.000000)">
                <path d="M0,18 L8.9652582,18 L8.9652582,0.0699971469 L0,0.0699971469 L0,18 Z M5.53321541,4.52837375 L7.77453638,4.52837375 L7.77453638,2.28715549 L5.53321541,2.28715549 L5.53321541,4.52837375 Z M5.53321541,9.03489586 L7.77453638,9.03489586 L7.77453638,6.7936776 L5.53321541,6.7936776 L5.53321541,9.03489586 Z M5.53321541,13.4934779 L7.77453638,13.4934779 L7.77453638,11.2520285 L5.53321541,11.2520285 L5.53321541,13.4934779 Z M1.12064765,4.52837375 L3.36196862,4.52837375 L3.36196862,2.28715549 L1.12064765,2.28715549 L1.12064765,4.52837375 Z M1.12064765,9.03489586 L3.36196862,9.03489586 L3.36196862,6.7936776 L1.12064765,6.7936776 L1.12064765,9.03489586 Z M1.12064765,13.4934779 L3.36196862,13.4934779 L3.36196862,11.2520285 L1.12064765,11.2520285 L1.12064765,13.4934779 Z" id="酒店-copy"></path>
                <polygon id="Path" points="10.0859058 6.77503566 17.9304394 6.77503566 17.9304394 5.74800856 10.0859058 5.74800856"></polygon>
                <polygon id="Path" points="10.0859058 18 12.3272011 18 12.3272011 14.078388 15.6891698 14.078388 15.6891698 18 17.9304394 18 17.9304394 8.00835663 10.0859058 8.00835663"></polygon>
            </g>
        </g>
    </g>
</svg>