<?xml version="1.0" encoding="UTF-8"?>
<svg width="18px" height="17px" viewBox="0 0 18 17" version="1.1" xmlns="http://www.w3.org/2000/svg" xmlns:xlink="http://www.w3.org/1999/xlink">
    <!-- Generator: Sketch 47.1 (45422) - http://www.bohemiancoding.com/sketch -->
    <title>bar_qiantai_on</title>
    <desc>Created with Sketch.</desc>
    <defs></defs>
    <g id="Page-1" stroke="none" stroke-width="1" fill="none" fill-rule="evenodd">
        <g id="Artboard" transform="translate(-115.000000, -84.000000)" stroke="#C8C8C8">
            <g id="bar_qiantai_on" transform="translate(115.000000, 84.000000)">
                <path d="M11.0115245,14.2796902 L7.06994479,14.2796902 L7.06994479,15.7271166 L5.78967791,15.7271166 C5.30348595,15.7271166 4.88129415,16.0084494 4.67731802,16.4233129 L13.4018954,16.4233129 C13.1962942,16.0106519 12.773533,15.7271166 12.2917638,15.7271166 L11.0115245,15.7271166 L11.0115245,14.2796902 Z" id="Path"></path>
                <path d="M16.1704049,0.551819018 L1.74144479,0.551819018 C1.05640153,0.551819018 0.5,1.10820837 0.5,1.7932362 L0.5,11.1788558 C0.5,11.8638914 1.05640925,12.4203006 1.74144479,12.4203006 L16.1817239,12.4203006 C16.8667518,12.4203006 17.4231411,11.8638991 17.4231411,11.1788558 L17.4231411,1.7932362 C17.4231411,1.11134396 16.8585931,0.551819018 16.1704049,0.551819018 Z M12.1006907,8.44152568 C11.98405,8.50141566 11.8660115,8.52575176 11.7328897,8.53284917 C11.6949986,8.53486934 11.663687,8.5352909 11.6132853,8.53523313 L9.99869939,8.53523313 L9.99869939,10.1837485 C9.99869939,10.6000243 9.77833274,10.9421766 9.38516854,11.1382089 C9.0116939,11.3042258 8.62097642,11.2459115 8.2787857,10.9707209 C8.04048183,10.7522474 7.92444172,10.4726875 7.92444172,10.1498466 L7.92444172,8.53523313 L6.26463497,8.53523313 C5.82284252,8.53523313 5.43218025,8.26239781 5.28978916,7.85464621 C5.13146666,7.44763374 5.26129471,6.96727631 5.57961437,6.71370911 C5.78510438,6.52878817 6.01458026,6.46097546 6.2872454,6.46097546 L7.90183129,6.46097546 L7.90183129,6.38671779 L6.29853681,6.38671779 C5.63044302,6.38671779 5.15257775,5.86849639 5.23670076,5.21651599 C5.30156613,4.67605921 5.74635884,4.30116871 6.29853681,4.30116871 L6.98347131,4.30116871 C6.50794669,3.8278878 6.03129875,3.34866916 5.5605233,2.87051658 C5.20587895,2.51587224 5.12989652,2.03076897 5.37225047,1.56991777 C5.69655905,1.02940347 6.40394,0.897625638 6.89255521,1.28015644 L6.89263334,1.28021505 C6.92868331,1.30726353 6.96145052,1.33494815 6.99485084,1.36595485 C7.03598323,1.40513192 7.03598323,1.40513192 7.07050964,1.43968507 L8.96720578,3.33640545 C9.87632793,2.42692989 10.3250805,1.97589166 10.8865908,1.40575336 C11.1632601,1.129084 11.5172377,1.01846432 11.9041882,1.10461974 C12.692837,1.30180867 12.9507817,2.27103363 12.382892,2.83869058 C12.1622318,3.07097639 11.9300338,3.30318153 11.7067741,3.51506883 L10.9093685,4.31246012 L11.6132853,4.31246012 C12.1394057,4.31246012 12.5623377,4.64346405 12.6696863,5.1590589 C12.7804627,5.7350636 12.3939585,6.30431099 11.846923,6.36574432 C11.7927563,6.37656181 11.7391639,6.38216171 11.6812024,6.38479223 C11.6158456,6.38675855 11.6158456,6.38675855 11.5680644,6.38671779 L9.98740798,6.38671779 L9.98740798,6.47229448 L11.6585337,6.47229448 C12.1470675,6.47229448 12.5338355,6.80382918 12.6650853,7.28618516 C12.7761958,7.75281643 12.5392981,8.24846495 12.1006907,8.44152568 Z" id="Combined-Shape"></path>
            </g>
        </g>
    </g>
</svg>