<?xml version="1.0" encoding="UTF-8"?>
<svg width="18px" height="18px" viewBox="0 0 18 18" version="1.1" xmlns="http://www.w3.org/2000/svg" xmlns:xlink="http://www.w3.org/1999/xlink">
    <!-- Generator: Sketch 47.1 (45422) - http://www.bohemiancoding.com/sketch -->
    <title>bar_guankong_on</title>
    <desc>Created with Sketch.</desc>
    <defs></defs>
    <g id="Page-1" stroke="none" stroke-width="1" fill="none" fill-rule="evenodd">
        <g id="列表页" transform="translate(-35.000000, -55.000000)" fill="#C8C8C8">
            <g id="bar_guankong_on" transform="translate(35.000000, 55.000000)">
                <path d="M14.8793992,5.65815019 C14.8793992,5.54287359 14.8793992,5.54287359 14.7640325,5.42750688 C13.1492365,2.88991239 10.0349662,1.39046058 6.68998498,2.54390238 C5.19044305,3.12055569 4.03702378,4.15869837 3.22961452,5.42750688 C3.22961452,5.54287359 3.11424781,5.54287359 3.11424781,5.65815019 L3.11424781,5.8888836 C3.11424781,6.23489362 3.46037046,6.58092616 3.80638048,6.58092616 C4.03702378,6.58092616 4.15239049,6.46555945 4.2677572,6.35028285 C4.2677572,6.23489362 4.38305632,6.23489362 4.38305632,6.11952691 C4.95979975,5.19675094 5.76720901,4.50473091 6.68998498,4.04333166 C9.57358949,2.77454568 12.3418273,4.04333166 13.72598,6.23489362 C13.8412566,6.46555945 14.0720125,6.58092616 14.3026558,6.58092616 C14.6486658,6.58092616 14.9947885,6.23489362 14.9947885,5.8888836 C14.9947885,5.7735169 14.8793992,5.7735169 14.8793992,5.65815019 Z M7.1513617,7.15766959 C7.1513617,7.15766959 8.65081352,9.81054068 8.99682353,10.1565732 C9.34285607,10.5026733 9.9195995,10.5026733 10.1502653,10.1565732 C10.4963655,9.81054068 10.4963655,9.23388736 10.1502653,9.00313141 C9.9195995,8.6571214 7.1513617,7.15766959 7.1513617,7.15766959 Z" id="Fill-1"></path>
                <path d="M8.99682353,0.00630788486 C4.03702378,0.00630788486 0,4.04333166 0,9.00313141 C0,13.9629537 4.03702378,17.9999775 8.99682353,17.9999775 C13.9566458,17.9999775 17.9936696,13.9629537 17.9936696,9.00313141 C17.9936696,4.04333166 13.9566458,0.00630788486 8.99682353,0.00630788486 Z M8.99682353,16.9619249 C4.61378974,16.9619249 1.03805257,13.3862778 1.03805257,9.00313141 C1.03805257,4.62009762 4.61378974,1.04436045 8.99682353,1.04436045 C13.37997,1.04436045 16.955617,4.62009762 16.955617,9.00313141 C16.955617,13.3862778 13.37997,16.9619249 8.99682353,16.9619249 Z" id="Fill-2"></path>
            </g>
        </g>
    </g>
</svg>