<?xml version="1.0" encoding="UTF-8"?>
<svg width="24px" height="24px" viewBox="0 0 24 24" version="1.1" xmlns="http://www.w3.org/2000/svg" xmlns:xlink="http://www.w3.org/1999/xlink">
    <!-- Generator: Sketch 47.1 (45422) - http://www.bohemiancoding.com/sketch -->
    <title>bar_on</title>
    <desc>Created with Sketch.</desc>
    <defs></defs>
    <g id="Page-1" stroke="none" stroke-width="1" fill="none" fill-rule="evenodd">
        <g id="Artboard" transform="translate(-448.000000, -39.000000)">
            <g id="bar_on" transform="translate(448.000000, 39.000000)">
                <rect id="Rectangle-20-Copy-3" fill="#000000" opacity="0.300000012" x="0" y="0" width="24" height="24" rx="2"></rect>
                <path d="M4,4 L20,4 C20.5522847,4 21,4.44771525 21,5 L21,5 C21,5.55228475 20.5522847,6 20,6 L4,6 C3.44771525,6 3,5.55228475 3,5 L3,5 L3,5 C3,4.44771525 3.44771525,4 4,4 L4,4 Z M4,11 L20,11 C20.5522847,11 21,11.4477153 21,12 C21,12.5522847 20.5522847,13 20,13 L4,13 C3.44771525,13 3,12.5522847 3,12 C3,11.4477153 3.44771525,11 4,11 L4,11 Z M4,18 L20,18 C20.5522847,18 21,18.4477153 21,19 C21,19.5522847 20.5522847,20 20,20 L4,20 C3.44771525,20 3,19.5522847 3,19 C3,18.4477153 3.44771525,18 4,18 L4,18 Z" id="缩icon" fill="#C8C8C8"></path>
            </g>
        </g>
    </g>
</svg>