<?xml version="1.0" encoding="UTF-8"?>
<svg width="12px" height="14px" viewBox="0 0 12 14" version="1.1" xmlns="http://www.w3.org/2000/svg" xmlns:xlink="http://www.w3.org/1999/xlink">
    <!-- Generator: Sketch 47.1 (45422) - http://www.bohemiancoding.com/sketch -->
    <title>icon_xiugai</title>
    <desc>Created with Sketch.</desc>
    <defs>
        <polygon id="path-1" points="0.00110367292 0.00235413845 0.00110367292 13.5935679 11.6099528 13.5935679 11.6099528 0.00235413845"></polygon>
    </defs>
    <g id="Page-1" stroke="none" stroke-width="1" fill="none" fill-rule="evenodd">
        <g id="新增" transform="translate(-218.000000, -198.000000)">
            <g id="icon_xiugai" transform="translate(218.000000, 198.000000)">
                <mask id="mask-2" fill="white">
                    <use xlink:href="#path-1"></use>
                </mask>
                <g id="Clip-2"></g>
                <path d="M2.500371,3.36675425 L1.79124276,5.20297168 L1.36708286,6.30802419 L0.32484773,8.99966171 L0.174104403,9.38990206 L0.102899105,9.57325892 L0.0332021604,9.76001878 C-0.000220734584,9.84034777 -0.00862704334,9.92886234 0.00897653977,10.0140107 L0.247903333,11.2188536 L0.657899429,13.3052737 C0.681536424,13.4261259 0.765820246,13.5263026 0.880859754,13.570192 C0.995972839,13.6140262 1.12552565,13.5954293 1.22360538,13.5209866 L3.92249035,11.5054775 C3.99191138,11.4555547 4.04680071,11.3818293 4.0785681,11.2992562 L6.54702456,4.90880605 L2.500371,3.36675425 Z M7.35379107,2.82052812 C7.71011188,1.89785756 7.46401121,0.950759039 6.80971711,0.698606565 L5.14026466,0.0622839419 C4.48409432,-0.18504916 3.6631824,0.355235524 3.31000707,1.27660007 L3.15273367,1.67747247 L2.87615324,2.39357225 L6.92310111,3.93626787 L7.35379107,2.82052812 Z M10.7176206,7.65915898 L6.15334443,9.69190376 C5.80140153,9.84853335 5.75180983,10.3348484 5.90781399,10.6852094 C6.06387335,11.0355704 6.41136477,11.2179339 6.76330767,11.0612859 L11.3275838,9.02854115 C11.6794531,8.87191157 11.6584834,8.5438264 11.5024056,8.19381493 C11.346052,7.84317804 11.0694899,7.502511 10.7176206,7.65915898 Z" id="Fill-1" fill="#FFFFFF" mask="url(#mask-2)"></path>
            </g>
        </g>
    </g>
</svg>