<?xml version="1.0" encoding="UTF-8"?>
<svg width="14px" height="15px" viewBox="0 0 14 15" version="1.1" xmlns="http://www.w3.org/2000/svg" xmlns:xlink="http://www.w3.org/1999/xlink">
    <!-- Generator: Sketch 47.1 (45422) - http://www.bohemiancoding.com/sketch -->
    <title>icon_shanchu</title>
    <desc>Created with Sketch.</desc>
    <defs></defs>
    <g id="Page-1" stroke="none" stroke-width="1" fill="none" fill-rule="evenodd">
        <g id="新增" transform="translate(-252.000000, -197.000000)" fill="#FFFFFF">
            <path d="M262.668973,201.370828 L262.343778,201.370828 L262.343778,209.514859 L261.274811,209.514859 L261.274811,201.370828 L259.490771,201.370828 L259.490771,209.514859 L258.420911,209.514859 L258.420911,201.370828 L256.637852,201.370828 L256.637852,209.514859 L255.567099,209.514859 L255.567099,201.370828 L254.886083,201.370828 C254.080586,201.370828 253.426504,201.359191 253.426504,201.370828 L253.426504,209.880393 C253.426504,210.663542 254.079693,211.297936 254.886083,211.297936 L262.668973,211.297936 C263.47454,211.297936 264.12773,210.663542 264.12773,209.880393 L264.12773,201.370828 C264.12773,201.310802 263.47454,201.370828 262.668973,201.370828 Z M264.828434,198.814438 L261.631384,198.814438 L261.631384,197.944399 C261.631384,197.439963 260.729966,197.031378 260.204058,197.031378 L257.350176,197.031378 C256.82509,197.031378 255.923672,197.439963 255.923672,197.944399 L255.923672,198.814438 L252.726675,198.814438 C252.325265,198.814438 252,199.134383 252,199.527725 C252,199.921084 252.325265,200.240941 252.726675,200.240941 L264.828434,200.240941 C265.229861,200.240941 265.555126,199.921959 265.555126,199.527725 C265.555126,199.13342 265.228969,198.814438 264.828434,198.814438 Z M257.351068,198.814438 L260.204058,198.814438 L260.204058,198.457864 L257.351068,198.457864 L257.351068,198.814438 Z" id="icon_shanchu"></path>
        </g>
    </g>
</svg>