<?xml version="1.0" encoding="UTF-8"?>
<svg width="16px" height="20px" viewBox="0 0 16 20" version="1.1" xmlns="http://www.w3.org/2000/svg" xmlns:xlink="http://www.w3.org/1999/xlink">
    <!-- Generator: Sketch 49 (51002) - http://www.bohemiancoding.com/sketch -->
    <title>yulan</title>
    <desc>Created with Sketch.</desc>
    <defs>
        <polygon id="path-1" points="0.00117359413 0.00938875306 0.00117359413 9.62347188 15.9984743 9.62347188 15.9984743 0.00938875306"></polygon>
    </defs>
    <g id="Page-2" stroke="none" stroke-width="1" fill="none" fill-rule="evenodd">
        <g id="yulan" transform="translate(0.000000, 5.000000)">
            <mask id="mask-2" fill="white">
                <use xlink:href="#path-1"></use>
            </mask>
            <g id="Clip-2"></g>
            <path d="M7.98669927,3.21408313 C7.57357457,3.21408313 7.16044988,3.38935941 6.86002934,3.67726161 C6.55958924,3.97768215 6.39685086,4.39080685 6.39685086,4.80393154 C6.39685086,5.216978 6.57212714,5.63010269 6.86002934,5.93054279 C7.16044988,6.23096333 7.57357457,6.39370171 7.98669927,6.39370171 C8.39982396,6.39370171 8.81288998,6.21850367 9.11338875,5.93054279 C9.41380929,5.63010269 9.57656724,5.216978 9.57656724,4.80393154 C9.57656724,4.39080685 9.40129095,3.97768215 9.11338875,3.67726161 C8.82540831,3.38935941 8.41228362,3.21408313 7.98669927,3.21408313 Z" id="Fill-1" fill="#D1DCDE" mask="url(#mask-2)"></path>
            <path d="M7.99923716,0.00938875306 C3.19215648,0.00938875306 0,4.81646944 0,4.81646944 C0,4.81646944 3.20469438,9.62347188 7.99923716,9.62347188 C12.7937017,9.62347188 15.9984743,4.81646944 15.9984743,4.81646944 C15.9984743,4.81646944 12.8062396,0.00938875306 7.99923716,0.00938875306 Z M7.99923716,7.98356968 C6.24663081,7.98356968 4.81952078,6.55645966 4.81952078,4.80393154 C4.81952078,3.05134474 6.24663081,1.62423472 7.99923716,1.62423472 C9.75176528,1.62423472 11.1788753,3.05134474 11.1788753,4.80393154 C11.1788753,6.55645966 9.75176528,7.98356968 7.99923716,7.98356968 Z" id="Fill-3" fill="#D1DCDE" mask="url(#mask-2)"></path>
        </g>
    </g>
</svg>