<?xml version="1.0" encoding="UTF-8"?>
<svg width="18px" height="18px" viewBox="0 0 18 18" version="1.1" xmlns="http://www.w3.org/2000/svg" xmlns:xlink="http://www.w3.org/1999/xlink">
    <!-- Generator: Sketch 47.1 (45422) - http://www.bohemiancoding.com/sketch -->
    <title>yue</title>
    <desc>Created with Sketch.</desc>
    <defs></defs>
    <g id="Page-1" stroke="none" stroke-width="1" fill="none" fill-rule="evenodd">
        <g id="新增" transform="translate(-144.000000, -182.000000)" fill="#D1DCDE">
            <g id="yue" transform="translate(144.000000, 182.000000)">
                <path d="M7.0508082,2.22730893 L10.6364451,2.22730893 C10.9350922,2.22730893 11.1738097,1.92855637 11.1738097,1.62980381 C11.1738097,1.27083163 10.9350922,1.03219327 10.6364451,1.03219327 L7.0508082,1.03219327 C6.75195022,1.03219327 6.51333821,1.33094583 6.51333821,1.62980381 C6.51333821,1.98877599 6.75195022,2.22730893 7.0508082,2.22730893 Z M12.4292504,2.88513909 C12.7882225,2.88513909 13.0269663,2.64660615 13.0269663,2.40799414 L13.0269663,0.49472328 C13.0269663,0.195970717 12.7882225,0.0175519766 12.4292504,0.0175519766 C12.0702782,0.0175519766 11.8317452,0.256084919 11.8317452,0.49472328 L11.8317452,2.40562225 C11.8317452,2.7045593 12.1303924,2.88513909 12.4292504,2.88513909 Z M5.25789751,2.88513909 C5.61697511,2.88513909 5.85561347,2.64660615 5.85561347,2.40799414 L5.85561347,0.49472328 C5.85561347,0.195970717 5.55686091,0.0175519766 5.25789751,0.0175519766 C4.89892533,0.0175519766 4.66028697,0.256084919 4.66028697,0.49472328 L4.66028697,2.40562225 C4.66039239,2.7045593 4.95914495,2.88513909 5.25789751,2.88513909 Z" id="Fill-1"></path>
                <path d="M14.5787877,0.971868228 L14.2197892,0.971868228 C13.860817,0.971868228 13.622205,1.27072621 13.622205,1.56958419 C13.622205,1.92855637 13.9209575,2.16708931 14.2197892,2.16708931 L14.5787877,2.16708931 C15.7138682,2.16708931 16.7306706,3.06355783 16.7306706,4.25875256 L16.7306706,14.3554348 C16.7306706,15.4904363 15.7740878,16.4471245 14.5787877,16.4471245 L3.34473206,16.4471245 C2.20975695,16.4471245 1.19284919,15.4904363 1.19284919,14.3554348 L1.19284919,4.31897218 C1.19284919,3.18399707 2.14943192,2.22730893 3.28451245,2.22730893 C3.64348463,2.22730893 3.88212299,1.92855637 3.88212299,1.62980381 C3.88212299,1.27083163 3.64348463,1.03219327 3.28451245,1.03219327 C1.49397365,0.971868228 0,2.46584187 0,4.31897218 L0,14.4157599 C0,16.2687057 1.49405271,17.7627584 3.34699854,17.7627584 L14.6389019,17.7627584 C16.4920322,17.7627584 17.9860059,16.2687057 17.9860059,14.4157599 L17.9860059,4.31897218 C17.9258917,2.46584187 16.431918,0.971868228 14.5787877,0.971868228 Z" id="Fill-2"></path>
                <path d="M5.43866179,13.5793265 L5.73741435,13.8181757 C5.79763397,13.8783953 5.85785359,13.8783953 5.91583309,13.8783953 C5.97605271,13.8783953 6.09412006,13.8181757 6.09412006,13.7579561 C6.75195022,12.9818214 7.1689019,11.965019 7.28934114,10.7094993 L11.4122372,10.7094993 L11.4122372,12.7409429 C11.4122372,12.9193353 11.3520176,12.9193353 11.291798,12.9193353 L9.9784041,12.9193353 C9.85796486,12.9193353 9.79998536,12.9795549 9.73976574,13.0398799 C9.67954612,13.1001259 9.67954612,13.2181933 9.67954612,13.2784129 L9.79998536,13.5771654 C9.86023133,13.6976047 9.9784041,13.7555842 10.0988433,13.7555842 L11.4121318,13.7555842 C12.0098477,13.7555842 12.3086003,13.3965066 12.3086003,12.7990015 L12.3086003,5.33350805 C12.3086003,5.15511567 12.1880556,5.03475549 12.0098477,5.03475549 L6.69410249,5.03475549 C6.51578917,5.03475549 6.39524451,5.15522108 6.39524451,5.33350805 L6.39524451,9.99390044 C6.39524451,11.3072943 6.03627233,12.3240966 5.37844217,13.1603455 C5.31811713,13.2806794 5.31811713,13.4589927 5.43866179,13.5793265 Z M7.40978038,7.42519766 L11.4724568,7.42519766 L11.4724568,5.93111859 L7.40978038,5.93111859 L7.40978038,7.42519766 Z M7.40978038,9.81550805 L11.4724568,9.81550805 L11.4724568,8.32153441 L7.40978038,8.32153441 L7.40978038,9.81550805 Z" id="Fill-3"></path>
            </g>
        </g>
    </g>
</svg>