<?xml version="1.0" encoding="UTF-8"?>
<svg width="18px" height="18px" viewBox="0 0 18 18" version="1.1" xmlns="http://www.w3.org/2000/svg" xmlns:xlink="http://www.w3.org/1999/xlink">
    <!-- Generator: Sketch 47.1 (45422) - http://www.bohemiancoding.com/sketch -->
    <title>zhou</title>
    <desc>Created with Sketch.</desc>
    <defs>
        <polygon id="path-1" points="0.00131707317 0.018 0.00131707317 16.8585366 17.9824171 16.8585366 17.9824171 0.018"></polygon>
    </defs>
    <g id="Page-1" stroke="none" stroke-width="1" fill="none" fill-rule="evenodd">
        <g id="新增" transform="translate(-111.000000, -182.000000)">
            <g id="zhou" transform="translate(111.000000, 182.000000)">
                <path d="M7.55258049,12.132922 L10.4298366,12.132922 C10.6725732,12.132922 10.7894634,11.9531195 10.7894634,11.7733171 L10.7894634,10.2178537 C10.7894634,9.97502927 10.609639,9.85816098 10.4298366,9.85816098 L7.55258049,9.85816098 C7.3098439,9.85816098 7.19297561,10.0379634 7.19297561,10.2178537 L7.19297561,11.7733171 C7.19297561,12.0070537 7.37277805,12.132922 7.55258049,12.132922 Z M7.97522927,11.4676244 L10.1331439,11.4676244 L10.1331439,10.6314146 L7.97522927,10.6314146 L7.97522927,11.4676244 Z" id="Fill-1" fill="#D1DCDE"></path>
                <path d="M12.4707732,2.89892195 C12.8304878,2.89892195 13.0732463,2.65618537 13.0732463,2.42242683 L13.0732463,0.498270732 C13.0732463,0.201578049 12.8304878,0.0217756098 12.4707732,0.0217756098 C12.1111463,0.0217756098 11.8684098,0.264534146 11.8684098,0.498270732 L11.8684098,2.41342683 C11.8684098,2.71911951 12.1651024,2.89892195 12.4707732,2.89892195 Z M5.27781951,2.89892195 C5.6375122,2.89892195 5.88027073,2.65618537 5.88027073,2.42242683 L5.88027073,0.498270732 C5.87127073,0.201578049 5.57457805,0.0217756098 5.27781951,0.0217756098 C4.97212683,0.0217756098 4.67543415,0.264534146 4.67543415,0.498270732 L4.67543415,2.41342683 C4.67543415,2.71911951 4.97212683,2.89892195 5.27781951,2.89892195 Z M7.07608537,2.24262439 L10.6725732,2.24262439 C10.9692659,2.24262439 11.2120244,1.94593171 11.2120244,1.64017317 C11.2120244,1.28054634 10.9692659,1.0377878 10.6725732,1.0377878 L7.07608537,1.0377878 C6.77941463,1.0377878 6.53656829,1.33448049 6.53656829,1.64017317 C6.59059024,1.99986585 6.83334878,2.24262439 7.07608537,2.24262439 Z" id="Fill-2" fill="#D1DCDE"></path>
                <g id="Group-6" transform="translate(0.000000, 0.965854)">
                    <path d="M7.07608537,7.57060244 C6.89628293,7.57060244 6.77941463,7.68747073 6.77941463,7.86727317 L6.77941463,8.11011951 C6.77941463,8.28992195 6.95921707,8.40679024 7.07608537,8.40679024 L10.9692659,8.40679024 C11.1490683,8.40679024 11.2660244,8.2269878 11.2660244,8.11011951 L11.2660244,7.86727317 C11.2660244,7.68747073 11.1490683,7.57060244 10.9692659,7.57060244 L9.46775854,7.57060244 L9.46775854,7.14804146 L10.6635732,7.14804146 C10.8433976,7.14804146 10.9602659,7.03115122 10.9602659,6.85134878 L10.9602659,6.60852439 C10.9602659,6.4287 10.8433976,6.31183171 10.6635732,6.31183171 L9.46775854,6.31183171 L9.46775854,5.83533659 C9.46775854,5.65544634 9.28793415,5.5385561 9.17106585,5.5385561 L8.92830732,5.5385561 C8.74841707,5.5385561 8.63154878,5.65544634 8.63154878,5.83533659 L8.63154878,6.31183171 L7.37277805,6.31183171 C7.19297561,6.31183171 7.07608537,6.4287 7.07608537,6.60852439 L7.07608537,6.85134878 C7.07608537,7.03115122 7.25590976,7.14804146 7.37277805,7.14804146 L8.63154878,7.14804146 L8.63154878,7.57060244 L7.07608537,7.57060244 Z" id="Fill-3" fill="#D1DCDE"></path>
                    <path d="M4.97212683,12.7855537 C5.03506098,12.7855537 5.08899512,12.8484878 5.21486341,12.8484878 L5.27781951,12.8484878 C5.39477561,12.8484878 5.45770976,12.7855537 5.45770976,12.6685976 C6.06007317,11.5266951 6.35676585,10.088122 6.35676585,8.28992195 L6.35676585,5.16992927 L11.8144756,5.16992927 L11.8144756,11.7605415 C11.8144756,11.8774098 11.8144756,11.8774098 11.6976073,11.8774098 L10.5017707,11.8774098 C10.3849024,11.8774098 10.3219683,11.9403439 10.2590122,11.994278 C10.196078,12.0482122 10.196078,12.1740805 10.196078,12.2370366 L10.2590122,12.5337951 C10.3219683,12.6506634 10.4388366,12.7765537 10.5557049,12.7765537 L11.8144756,12.7765537 C12.2909707,12.7765537 12.5966634,12.5337951 12.7136195,12.1740805 L12.7136195,4.56756585 C12.7136195,4.38776341 12.5966634,4.27078537 12.416839,4.27078537 L5.75440244,4.27078537 C5.57457805,4.27078537 5.45770976,4.45069756 5.45770976,4.56756585 L5.45770976,8.3438561 C5.45770976,9.89931951 5.16092927,11.2210244 4.67543415,12.1831024 C4.6125,12.2999707 4.67543415,12.425839 4.73836829,12.5427073 L4.97212683,12.7855537 Z" id="Path" fill="#D1DCDE"></path>
                    <mask id="mask-2" fill="white">
                        <use xlink:href="#path-1"></use>
                    </mask>
                    <g id="Clip-4"></g>
                    <path d="M14.682622,0.018 L14.3229951,0.018 C13.9633683,0.018 13.7206317,0.314692683 13.7206317,0.620385366 C13.7206317,0.917143902 14.0173024,1.22283659 14.3229951,1.22283659 L14.682622,1.22283659 C15.8245244,1.22283659 16.7775805,2.12189268 16.7775805,3.31779512 L16.7775805,13.4418512 C16.7775805,14.5837537 15.8155902,15.5368317 14.682622,15.5368317 L3.35372927,15.5368317 C2.22084878,15.5368317 1.25877073,14.5837537 1.25877073,13.4418512 L1.25877073,3.37172927 C1.25877073,2.22984878 2.22084878,1.27677073 3.35372927,1.27677073 C3.7133561,1.27677073 3.95611463,0.980078049 3.95611463,0.674319512 C3.95611463,0.368626829 3.65942195,0.0719341463 3.35372927,0.0719341463 C1.50150732,0.018 0,1.51050732 0,3.37172927 L0,13.5048073 C0,15.3570073 1.50150732,16.8585366 3.35372927,16.8585366 L14.682622,16.8585366 C16.5438439,16.8585366 17.9824171,15.3570073 17.9824171,13.5048073 L17.9824171,3.37172927 C17.9824171,1.51050732 16.4809098,0.018 14.682622,0.018 Z" id="Fill-5" fill="#D1DCDE" mask="url(#mask-2)"></path>
                </g>
            </g>
        </g>
    </g>
</svg>