<?xml version="1.0" encoding="UTF-8"?>
<svg width="14px" height="14px" viewBox="0 0 14 14" version="1.1" xmlns="http://www.w3.org/2000/svg" xmlns:xlink="http://www.w3.org/1999/xlink">
    <!-- Generator: Sketch 47.1 (45422) - http://www.bohemiancoding.com/sketch -->
    <title>icon_xinzeng</title>
    <desc>Created with Sketch.</desc>
    <defs>
        <polygon id="path-1" points="0.00127351304 0.0204823348 0.00127351304 13.5841391 13.5617465 13.5841391 13.5617465 0.0204823348"></polygon>
    </defs>
    <g id="Page-1" stroke="none" stroke-width="1" fill="none" fill-rule="evenodd">
        <g id="新增" transform="translate(-286.000000, -227.000000)">
            <g id="icon_xinzeng" transform="translate(286.000000, 227.000000)">
                <mask id="mask-2" fill="white">
                    <use xlink:href="#path-1"></use>
                </mask>
                <g id="Clip-2"></g>
                <path d="M6.78088387,13.5841391 C3.03586407,13.5841391 0,10.5476171 0,6.80219399 C0,3.05677091 3.03586407,0.0204823348 6.78088387,0.0204823348 C10.5257976,0.0204823348 13.5617465,3.05677091 13.5617465,6.80219399 C13.5617465,10.5476171 10.5257976,13.5841391 6.78088387,13.5841391 Z M6.78088387,0.868153841 C3.50398624,0.868153841 0.847607831,3.52487185 0.847607831,6.80219399 C0.847607831,10.0794949 3.50398624,12.7362978 6.78088387,12.7362978 C10.0576754,12.7362978 12.714075,10.0794949 12.714075,6.80219399 C12.714075,3.52487185 10.0576754,0.868153841 6.78088387,0.868153841 Z M9.32366492,7.22610403 L7.20470901,7.22610403 L7.20470901,9.34539954 C7.20470901,9.57936511 7.01493434,9.7692459 6.78088387,9.7692459 C6.54681218,9.7692459 6.35712241,9.57936511 6.35712241,9.34539954 L6.35712241,7.22610403 L4.23808161,7.22610403 C4.00403113,7.22610403 3.81423524,7.03632936 3.81423524,6.80219399 C3.81423524,6.56820719 4.00403113,6.37843253 4.23808161,6.37843253 L6.35712241,6.37843253 L6.35712241,4.25905212 C6.35712241,4.02508655 6.54681218,3.83537556 6.78088387,3.83537556 C7.01493434,3.83537556 7.20470901,4.02500165 7.20470901,4.25905212 L7.20470901,6.37843253 L9.32366492,6.37843253 C9.55773661,6.37843253 9.74751128,6.56820719 9.74751128,6.80219399 C9.74751128,7.03632936 9.55773661,7.22610403 9.32366492,7.22610403 Z" id="Fill-1" fill="#FFFFFF" mask="url(#mask-2)"></path>
            </g>
        </g>
    </g>
</svg>