<?xml version="1.0" encoding="UTF-8"?>
<svg width="14px" height="14px" viewBox="0 0 14 14" version="1.1" xmlns="http://www.w3.org/2000/svg" xmlns:xlink="http://www.w3.org/1999/xlink">
    <!-- Generator: Sketch 47.1 (45422) - http://www.bohemiancoding.com/sketch -->
    <title>icon_dengji</title>
    <desc>Created with Sketch.</desc>
    <defs>
        <polygon id="path-1" points="0.00100095306 0.0133460407 0.00100095306 13.6796751 13.5464983 13.6796751 13.5464983 0.0133460407"></polygon>
    </defs>
    <g id="Page-1" stroke="none" stroke-width="1" fill="none" fill-rule="evenodd">
        <g id="新增" transform="translate(-217.000000, -230.000000)">
            <g id="icon_dengji" transform="translate(217.000000, 230.000000)">
                <mask id="mask-2" fill="white">
                    <use xlink:href="#path-1"></use>
                </mask>
                <g id="Clip-2"></g>
                <path d="M3.11690109,1.45188241 L8.47154951,1.45188241 C8.67133974,1.45188241 8.83119194,1.2920302 8.83119194,1.09223997 L8.83119194,0.373005156 C8.83119194,0.173198244 8.67133974,0.0133460407 8.47154951,0.0133460407 L3.11690109,0.0133460407 C2.91709417,0.0133460407 2.75724197,0.173198244 2.75724197,0.373005156 L2.75724197,1.09223997 C2.75724197,1.2920302 2.91709417,1.45188241 3.11690109,1.45188241 Z" id="Fill-1" fill="#FFFFFF" mask="url(#mask-2)"></path>
                <path d="M11.1888368,0.732647589 L9.19085105,0.732647589 L9.19085105,1.53184187 C9.19085105,1.75158444 9.01099647,1.9314557 8.79125391,1.9314557 L2.79719668,1.9314557 C2.57745412,1.9314557 2.39759954,1.75158444 2.39759954,1.53184187 L2.39759954,0.732647589 L0.399597142,0.732647589 C0.179787851,0.732647589 0,0.912452123 0,1.13224473 L0,13.2800779 C0,13.4998872 0.179787851,13.6796751 0.399597142,13.6796751 L11.1888368,13.6796751 C11.4085793,13.6796751 11.5884506,13.4998872 11.5884506,13.2800779 L11.5884506,1.13224473 C11.5884506,0.912452123 11.4085793,0.732647589 11.1888368,0.732647589 Z M10.2297903,12.0812865 L7.91208348,12.0812865 C7.71229325,12.0812865 7.55244104,11.9214343 7.55244104,11.7216274 C7.55244104,11.5218372 7.71229325,11.361985 7.91208348,11.361985 L10.2297903,11.361985 C10.4295972,11.361985 10.5894494,11.5218372 10.5894494,11.7216274 C10.5894494,11.9214343 10.4295972,12.0812865 10.2297903,12.0812865 Z M10.2297903,5.92744381 L1.35864363,5.92744381 C1.1588534,5.92744381 0.999001197,5.7675916 0.999001197,5.56778469 C0.999001197,5.36799446 1.1588534,5.20814226 1.35864363,5.20814226 L10.2297903,5.20814226 C10.4295972,5.20814226 10.5894494,5.36799446 10.5894494,5.56778469 C10.5894494,5.7675916 10.4295972,5.92744381 10.2297903,5.92744381 Z M10.2297903,4.20914106 L1.35864363,4.20914106 C1.1588534,4.20914106 0.999001197,4.04928886 0.999001197,3.84948194 C0.999001197,3.64969171 1.1588534,3.48990624 1.35864363,3.48990624 L10.2297903,3.48990624 C10.4295972,3.48990624 10.5894494,3.64969171 10.5894494,3.84948194 C10.5894494,4.04928886 10.4295972,4.20914106 10.2297903,4.20914106 Z M12.5074756,12.2211363 C12.6673278,12.5168512 12.8671348,12.8205237 13.026987,13.1202257 C13.1868392,12.8245609 13.3866461,12.5168512 13.5464983,12.2211363 C13.2267939,12.2251735 12.82718,12.2251735 12.5074756,12.2211363 Z M12.5074756,12.2211363 L13.5464983,12.2211363 L13.5464983,2.82253747 L12.5074756,2.82253747 L12.5074756,12.2211363 Z M13.026987,1.37198967 C12.7392797,1.37198967 12.5074756,1.61975892 12.5074756,1.92740184 L12.5074756,2.52680589 L13.5464983,2.52680589 L13.5464983,1.92740184 C13.5464983,1.61975892 13.3146942,1.37198967 13.026987,1.37198967 Z" id="Fill-3" fill="#FFFFFF" mask="url(#mask-2)"></path>
            </g>
        </g>
    </g>
</svg>