<?xml version="1.0" encoding="UTF-8"?>
<svg width="13px" height="16px" viewBox="0 0 13 16" version="1.1" xmlns="http://www.w3.org/2000/svg" xmlns:xlink="http://www.w3.org/1999/xlink">
    <!-- Generator: Sketch 47.1 (45422) - http://www.bohemiancoding.com/sketch -->
    <title>icon_fuzhi</title>
    <desc>Created with Sketch.</desc>
    <defs>
        <polygon id="path-1" points="0.00113974066 0.0120622554 0.00113974066 15.1205215 12.5904302 15.1205215 12.5904302 0.0120622554"></polygon>
    </defs>
    <g id="Page-1" stroke="none" stroke-width="1" fill="none" fill-rule="evenodd">
        <g id="新增" transform="translate(-182.000000, -229.000000)">
            <g id="icon_fuzhi" transform="translate(182.000000, 229.000000)">
                <mask id="mask-2" fill="white">
                    <use xlink:href="#path-1"></use>
                </mask>
                <g id="Clip-2"></g>
                <path d="M11.3313587,15.1205215 L3.77710056,15.1205215 C3.0821247,15.1205215 2.51810503,14.5565208 2.51810503,13.861545 L2.51810503,3.78916282 C2.51810503,3.09418695 3.0821247,2.53018628 3.77710056,2.53018628 L11.3313587,2.53018628 C12.0263345,2.53018628 12.5904302,3.09418695 12.5904302,3.78916282 L12.5904302,13.861545 C12.5904302,14.5565208 12.0263345,15.1205215 11.3313587,15.1205215 Z M5.03615308,6.30728685 L10.0723062,6.30728685 L10.0723062,5.04821533 L5.03615308,5.04821533 L5.03615308,6.30728685 Z M5.03615308,8.82539188 L10.0723062,8.82539188 L10.0723062,7.56633936 L5.03615308,7.56633936 L5.03615308,8.82539188 Z M5.03615308,11.3434399 L10.0723062,11.3434399 L10.0723062,10.0843684 L5.03615308,10.0843684 L5.03615308,11.3434399 Z M1.25905252,12.6024924 L0,12.6024924 L0,1.27111477 C0,0.574885191 0.564076651,0.0120622554 1.25905252,0.0120622554 L10.0723062,0.0120622554 L10.0723062,1.27111477 L1.25905252,1.27111477 L1.25905252,12.6024924 Z" id="Fill-1" fill="#FFFFFF" mask="url(#mask-2)"></path>
            </g>
        </g>
    </g>
</svg>