<?xml version="1.0" encoding="UTF-8"?>
<svg width="45px" height="20px" viewBox="0 0 45 20" version="1.1" xmlns="http://www.w3.org/2000/svg" xmlns:xlink="http://www.w3.org/1999/xlink">
    <!-- Generator: Sketch 49 (51002) - http://www.bohemiancoding.com/sketch -->
    <title>Group 10</title>
    <desc>Created with Sketch.</desc>
    <defs></defs>
    <g id="Page-2" stroke="none" stroke-width="1" fill="none" fill-rule="evenodd">
        <g id="Group-10" transform="translate(0.000000, 1.000000)" fill="#D1DCDE">
            <g id="Page-1" transform="translate(0.000000, 4.000000)" fill-rule="nonzero">
                <g id="新增_8_">
                    <path d="M15.663,5.1 C15.663,6.6 12.463,9.701 7.963,9.701 C3.563,9.701 0.263,6.6 0.263,5.1 C0.263,3.6 3.563,0.5 7.963,0.5 C12.563,0.5 15.763,3.6 15.663,5.1 M7.962,1.3 C5.862,1.3 4.262,3 4.262,5.1 C4.262,7.201 5.962,8.901 7.962,8.901 C10.062,8.901 11.662,7.201 11.662,5.1 C11.663,3 10.063,1.3 7.962,1.3 M7.962,2.7 C6.662,2.7 5.562,3.8 5.562,5.099 C5.562,6.4 6.662,7.499 7.962,7.499 C9.262,7.499 10.362,6.399 10.362,5.099 C10.362,3.8 9.263,2.7 7.962,2.7" id="Shape"></path>
                </g>
            </g>
            <text id="查看" font-family="PingFangSC-Regular, PingFang SC" font-size="13" font-weight="normal">
                <tspan x="19" y="14">查看</tspan>
            </text>
        </g>
    </g>
</svg>