<?xml version="1.0" encoding="UTF-8"?>
<svg width="14px" height="14px" viewBox="0 0 14 14" version="1.1" xmlns="http://www.w3.org/2000/svg" xmlns:xlink="http://www.w3.org/1999/xlink">
    <!-- Generator: Sketch 47.1 (45422) - http://www.bohemiancoding.com/sketch -->
    <title>icon_piliangshanchu</title>
    <desc>Created with Sketch.</desc>
    <defs>
        <polygon id="path-1" points="0.00107075636 0.0118675497 0.00107075636 13.9376965 13.5567749 13.9376965 13.5567749 0.0118675497 0.00107075636 0.0118675497"></polygon>
    </defs>
    <g id="Page-1" stroke="none" stroke-width="1" fill="none" fill-rule="evenodd">
        <g id="新增" transform="translate(-252.000000, -230.000000)">
            <g id="icon_piliangshanchu" transform="translate(252.000000, 230.000000)">
                <g id="Group-3">
                    <mask id="mask-2" fill="white">
                        <use xlink:href="#path-1"></use>
                    </mask>
                    <g id="Clip-2"></g>
                    <path d="M0,0.0118675497 L0,12.0855557 L2.25597658,12.0855557 L2.25597658,13.9376965 L13.5567749,13.9376965 L13.5567749,1.86402621 L11.303386,1.86402621 L11.303386,0.0118675497 L0,0.0118675497 Z M6.6896396,7.91219352 L4.84363778,6.06526372 L6.07424022,4.83453635 L7.92031342,6.68060955 L9.76640446,4.83453635 L10.9970069,6.06526372 L9.15098724,7.91128337 L10.9970069,9.75728519 L9.76640446,10.9880304 L7.92031342,9.14202858 L6.07424022,10.9880304 L4.84363778,9.75728519 L6.6896396,7.91219352 Z M0.946120321,0.955346671 L10.359086,0.955346671 L10.359086,1.86402621 L2.25772548,1.86402621 L2.25772548,11.1412556 L0.946120321,11.1412556 L0.946120321,0.955346671 Z" id="Fill-1" fill="#FFFFFF" mask="url(#mask-2)"></path>
                </g>
                <path d="M3.06887696,13.155277 L12.7726065,13.155277 L12.7726065,2.66903869 L3.06887696,2.66903869 L3.06887696,13.155277 Z M6.6896396,7.91219352 L4.84363778,6.06526372 L6.07424022,4.83453635 L7.92031342,6.68060955 L9.76640446,4.83453635 L10.9970069,6.06526372 L9.15098724,7.91128337 L10.9970069,9.75728519 L9.76640446,10.9880304 L7.92031342,9.14202858 L6.07424022,10.9880304 L4.84363778,9.75728519 L6.6896396,7.91219352 Z" id="Fill-4" fill="#FFFFFF"></path>
            </g>
        </g>
    </g>
</svg>