<?xml version="1.0" encoding="UTF-8"?>
<svg width="16px" height="16px" viewBox="0 0 16 16" version="1.1" xmlns="http://www.w3.org/2000/svg" xmlns:xlink="http://www.w3.org/1999/xlink">
    <!-- Generator: Sketch 47.1 (45422) - http://www.bohemiancoding.com/sketch -->
    <title>icon_kaoqin</title>
    <desc>Created with Sketch.</desc>
    <defs></defs>
    <g id="Page-1" stroke="none" stroke-width="1" fill="none" fill-rule="evenodd">
        <g id="新增" transform="translate(-286.000000, -197.000000)" fill="#FFFFFF">
            <path d="M301.32059,209.4491 L300.702468,209.4491 C300.614143,209.4491 300.543475,209.519769 300.543475,209.608029 L300.543475,210.967888 C300.543475,211.303466 300.260953,211.58601 299.925375,211.58601 L298.539063,211.58601 C298.450717,211.58601 298.38007,211.656657 298.38007,211.745003 L298.38007,212.363103 C298.38007,212.451449 298.450717,212.522031 298.539063,212.522031 L299.925375,212.522031 C300.773137,212.522031 301.470744,211.824489 301.470744,210.976727 L301.470744,209.608029 C301.479497,209.519769 301.408936,209.4491 301.32059,209.4491 Z M288.966972,197.042513 L287.554143,197.042513 C286.706468,197.042513 286.008839,197.740142 286.008839,198.587818 L286.008839,200.027184 C286.008839,200.115423 286.079507,200.186091 286.167746,200.186091 L286.785868,200.186091 C286.874214,200.186091 286.944861,200.115423 286.944861,200.027184 L286.944861,198.587818 C286.944861,198.252218 287.227405,197.969696 287.562982,197.969696 L288.975811,197.969696 C289.064157,197.969696 289.134717,197.899049 289.134717,197.810789 L289.134717,197.192667 C289.117126,197.113181 289.046457,197.042513 288.966972,197.042513 Z M299.925375,197.042513 L298.539063,197.042513 C298.450717,197.042513 298.38007,197.113181 298.38007,197.20142 L298.38007,197.819542 C298.38007,197.907888 298.450717,197.978535 298.539063,197.978535 L299.925375,197.978535 C300.260953,197.978535 300.543475,198.261079 300.543475,198.596657 L300.543475,200.036023 C300.543475,200.124262 300.614143,200.19493 300.702468,200.19493 L301.32059,200.19493 C301.408936,200.19493 301.479497,200.124262 301.479497,200.036023 L301.479497,198.587818 C301.479497,197.740142 300.781975,197.042513 299.925375,197.042513 Z M288.966972,211.594849 L287.554143,211.594849 C287.218544,211.594849 286.936022,211.312305 286.936022,210.976727 L286.936022,209.608029 C286.936022,209.519769 286.865375,209.4491 286.777029,209.4491 L286.158907,209.4491 C286.070647,209.4491 286,209.519769 286,209.608029 L286,210.967888 C286,211.81565 286.697608,212.513257 287.545304,212.513257 L288.958133,212.513257 C289.046457,212.513257 289.117126,212.44261 289.117126,212.354264 L289.117126,211.736142 C289.117126,211.656657 289.046457,211.594849 288.966972,211.594849 Z M290.856693,207.612434 C292.622712,207.179758 295.298322,206.526259 295.421938,202.693934 C295.439616,202.252397 295.271784,201.837398 294.962723,201.519498 C294.644909,201.192759 294.203394,201.007314 293.73534,201.007314 C293.276211,201.007314 292.825835,201.201598 292.507935,201.537176 C292.207713,201.86385 292.119388,202.296527 292.066419,202.605588 C291.819166,203.8948 290.997922,204.521761 289.532124,204.539439 C289.320163,204.539439 289.143556,204.716045 289.152417,204.928007 C289.152417,205.139883 289.329001,205.316554 289.540963,205.307715 C291.351199,205.290037 292.516774,204.380532 292.825835,202.746903 C292.878804,202.446681 292.940612,202.208267 293.073088,202.058134 C293.249673,201.872689 293.479248,201.766751 293.744179,201.766751 C293.991432,201.766751 294.238663,201.872689 294.40643,202.049274 C294.565402,202.217127 294.653662,202.429003 294.644909,202.658557 C294.538885,205.908137 292.393158,206.42916 290.671269,206.853019 C290.344509,206.932505 290.035469,207.011926 289.761678,207.100251 C289.558641,207.170919 289.452617,207.391634 289.523286,207.594757 C289.576254,207.753663 289.726409,207.859687 289.894154,207.859687 C289.938284,207.859687 289.97364,207.850849 290.01777,207.84201 C290.247431,207.762502 290.547632,207.691855 290.856693,207.612434 Z M297.929781,205.846329 C297.241012,205.634367 296.62289,205.360684 296.640482,204.274508 C296.640482,204.036115 296.658181,203.868348 296.675859,203.700602 C296.693537,203.462123 296.719989,203.197257 296.71115,202.693934 C296.684698,201.060283 295.36013,199.735801 293.753018,199.735801 C292.278381,199.735801 291.130398,200.733544 290.821337,202.287688 C290.627053,203.197257 290.141407,203.232548 289.69987,203.188418 C289.487994,203.17074 289.29371,203.320895 289.276033,203.53277 C289.258355,203.744732 289.408487,203.939016 289.620471,203.956694 C290.944953,204.089084 291.413007,203.197257 291.563075,202.429003 C291.801467,201.236889 292.631551,200.495152 293.73534,200.495152 C294.927432,200.495152 295.907583,201.484142 295.925283,202.693934 C295.934122,203.161902 295.907583,203.400294 295.889992,203.621117 C295.872314,203.797701 295.854614,203.983146 295.854614,204.256916 C295.836936,206.014096 297.143827,206.411482 297.700141,206.579228 C297.735497,206.588088 297.770788,206.596927 297.814918,206.596927 C297.98275,206.596927 298.132817,206.490989 298.185786,206.323136 C298.247594,206.12012 298.132817,205.908137 297.929781,205.846329 Z M298.062171,204.557138 C298.02688,204.5306 297.876725,204.406984 297.912103,204.062632 C297.965072,203.568148 297.991588,202.746903 297.991588,202.711612 L297.991588,202.702773 C297.991588,200.353923 296.08419,198.446502 293.73534,198.446502 C291.995751,198.446502 290.406338,199.532678 289.770517,201.157468 C289.69987,201.351752 289.638062,201.572467 289.585093,201.77559 C289.558641,201.881528 289.523286,202.005165 289.505586,202.058134 C289.426187,202.261236 289.523286,202.481972 289.726409,202.561458 C289.92951,202.640965 290.150246,202.54378 290.229732,202.340743 C290.265023,202.252397 290.3004,202.128781 290.33567,201.969874 C290.3798,201.793182 290.432855,201.590167 290.485824,201.440012 C291.0156,200.115423 292.32249,199.223617 293.744179,199.223617 C295.660352,199.223617 297.223334,200.7866 297.223334,202.702773 C297.223334,202.782172 297.196796,203.541609 297.143827,203.991985 C297.055567,204.8485 297.603042,205.254746 297.867973,205.316554 C297.894403,205.325306 297.920942,205.325306 297.947394,205.325306 C298.123978,205.325306 298.282972,205.20169 298.327102,205.016245 C298.371232,204.813209 298.256433,204.618946 298.062171,204.557138 Z M289.752839,206.596927 C289.832346,206.579228 289.911832,206.56155 289.991339,206.552797 C291.492428,206.252489 294.00911,205.740391 294.132725,202.693934 C294.141564,202.481972 293.973732,202.296527 293.761856,202.287688 C293.549895,202.278935 293.364449,202.446681 293.35561,202.658557 C293.258511,205.095753 291.28053,205.493138 289.832346,205.784521 C289.752839,205.802199 289.664579,205.819812 289.593932,205.83749 C289.38197,205.88162 289.24958,206.084743 289.29371,206.296705 C289.329001,206.482129 289.496833,206.605766 289.67344,206.605766 C289.69987,206.605766 289.726409,206.596927 289.752839,206.596927 Z M297.682528,207.100251 C297.293981,207.011926 296.949543,206.87945 296.543383,206.711704 C296.225483,206.579228 295.881153,206.314297 295.6339,206.031774 C295.492585,205.872867 295.245353,205.855168 295.08636,205.996483 C294.927432,206.137712 294.909754,206.384965 295.051069,206.543958 C295.377808,206.923666 295.819345,207.250318 296.243183,207.435764 C296.631729,207.603596 297.055567,207.771341 297.523535,207.86844 C297.550073,207.877279 297.576503,207.877279 297.603042,207.877279 C297.779627,207.877279 297.938533,207.753663 297.98275,207.577079 C298.018041,207.356342 297.885564,207.144381 297.682528,207.100251 Z M297.293981,208.336494 C296.578674,208.18634 296.075415,207.921495 295.642652,207.683017 C295.209976,207.453441 294.839107,207.250318 294.397656,207.250318 C294.044401,207.250318 293.638241,207.382795 293.020119,207.577079 C292.36662,207.789041 291.465976,208.071563 290.220893,208.327655 C290.008931,208.371785 289.876455,208.574908 289.920671,208.78687 C289.964801,208.998746 290.167924,209.131201 290.3798,209.087092 C291.66026,208.82214 292.587421,208.530778 293.258511,208.318816 C293.788309,208.15107 294.176855,208.027433 294.40643,208.027433 C294.653662,208.027433 294.936292,208.177501 295.289462,208.362946 C295.748677,208.610178 296.322668,208.910486 297.143827,209.087092 C297.170365,209.095931 297.196796,209.095931 297.223334,209.095931 C297.399919,209.095931 297.558912,208.972294 297.603042,208.78687 C297.629472,208.583747 297.497104,208.380624 297.293981,208.336494 Z M296.569921,209.422584 C296.287313,209.343162 295.9518,209.19303 295.6339,209.042876 C295.148168,208.813301 294.689039,208.601425 294.282793,208.601425 C293.982571,208.601425 293.479248,208.742654 292.675681,208.981068 C292.092936,209.1489 291.439437,209.343162 290.962631,209.422584 C290.750669,209.457961 290.60944,209.661084 290.644731,209.87296 C290.680108,210.084922 290.883145,210.226129 291.095107,210.190859 C291.616043,210.102513 292.295973,209.908315 292.896482,209.731644 C293.452796,209.572738 294.088595,209.387292 294.282793,209.387292 C294.512433,209.387292 294.918593,209.572738 295.307161,209.758161 C295.660352,209.925929 296.022382,210.093761 296.375637,210.182021 C296.410928,210.190859 296.446306,210.199698 296.472736,210.199698 C296.640482,210.199698 296.799475,210.084922 296.843605,209.908315 C296.896574,209.696353 296.772958,209.484391 296.569921,209.422584 Z M295.572092,210.367444 C295.483746,210.332153 295.386647,210.287958 295.280623,210.243828 C294.95397,210.102513 294.583101,209.934767 294.106208,209.934767 C293.885472,209.934767 293.576433,210.005414 293.081927,210.129052 C292.719897,210.217376 292.313651,210.314475 292.022289,210.349766 C291.810328,210.376283 291.66026,210.570567 291.68669,210.782443 C291.713229,210.994405 291.907491,211.144559 292.119388,211.118042 C292.463805,211.073912 292.887643,210.976727 293.267372,210.888467 C293.602863,210.808981 293.973732,210.720635 294.115047,210.720635 C294.432947,210.720635 294.697878,210.835498 294.980401,210.959114 C295.08636,211.003244 295.201223,211.056213 295.316,211.100343 C295.36013,211.118042 295.40426,211.126881 295.448455,211.126881 C295.607383,211.126881 295.757515,211.029696 295.810484,210.870789 C295.872314,210.658827 295.766376,210.438091 295.572092,210.367444 Z" id="icon_kaoqin"></path>
        </g>
    </g>
</svg>