<?xml version="1.0" encoding="UTF-8"?>
<svg width="17px" height="18px" viewBox="0 0 17 18" version="1.1" xmlns="http://www.w3.org/2000/svg" xmlns:xlink="http://www.w3.org/1999/xlink">
    <!-- Generator: Sketch 47.1 (45422) - http://www.bohemiancoding.com/sketch -->
    <title>liebiao</title>
    <desc>Created with Sketch.</desc>
    <defs></defs>
    <g id="Page-1" stroke="none" stroke-width="1" fill="none" fill-rule="evenodd">
        <g id="新增" transform="translate(-78.000000, -182.000000)" fill="#D1DCDE">
            <path d="M94.3375772,185.302591 L88.4561019,185.302591 C88.0946682,185.302591 87.8025988,185.009787 87.8025988,184.648983 C87.8025988,184.288336 88.0946682,183.995559 88.4561019,183.995559 L94.3375772,183.995559 C94.6990108,183.995559 94.9911852,184.288336 94.9911852,184.648983 C94.9911852,185.009787 94.6990108,185.302591 94.3375772,185.302591 Z M94.3375772,188.570106 L88.4561019,188.570106 C88.0946682,188.570106 87.8025988,188.277329 87.8025988,187.916498 C87.8025988,187.555878 88.0946682,187.2631 88.4561019,187.2631 L94.3375772,187.2631 C94.6990108,187.2631 94.9911852,187.555878 94.9911852,187.916498 C94.9911852,188.277329 94.6990108,188.570106 94.3375772,188.570106 Z M94.3375772,193.798184 L88.4561019,193.798184 C88.0946682,193.798184 87.8025988,193.506009 87.8025988,193.144576 C87.8025988,192.783221 88.0946682,192.491151 88.4561019,192.491151 L94.3375772,192.491151 C94.6990108,192.491151 94.9911852,192.783221 94.9911852,193.144576 C94.9911852,193.506009 94.6990108,193.798184 94.3375772,193.798184 Z M94.3375772,197.065699 L88.4561019,197.065699 C88.0946682,197.065699 87.8025988,196.773446 87.8025988,196.412091 C87.8025988,196.050762 88.0946682,195.758693 88.4561019,195.758693 L94.3375772,195.758693 C94.6990108,195.758693 94.9911852,196.050762 94.9911852,196.412091 C94.9911852,196.773446 94.6990108,197.065699 94.3375772,197.065699 Z M83.8814753,189.877034 L79.9605093,189.877034 C78.8795664,189.877034 78,188.997441 78,187.916498 L78,183.995559 C78,182.914616 78.8795664,182.035049 79.9605093,182.035049 L83.8814753,182.035049 C84.9624182,182.035049 85.8419846,182.914616 85.8419846,183.995559 L85.8419846,187.916498 C85.8419846,188.997441 84.9624182,189.877034 83.8814753,189.877034 Z M79.9605093,183.342056 C79.6004136,183.342056 79.3070062,183.635463 79.3070062,183.995559 L79.3070062,187.916498 C79.3070062,188.27662 79.6004136,188.570106 79.9605093,188.570106 L83.8814753,188.570106 C84.241571,188.570106 84.5350833,188.27662 84.5350833,187.916498 L84.5350833,183.995559 C84.5350833,183.635463 84.241571,183.342056 83.8814753,183.342056 L79.9605093,183.342056 Z M83.8814753,199.026235 L79.9605093,199.026235 C78.8795664,199.026235 78,198.146563 78,197.065699 L78,193.144576 C78,192.063711 78.8795664,191.18404 79.9605093,191.18404 L83.8814753,191.18404 C84.9624182,191.18404 85.8419846,192.063711 85.8419846,193.144576 L85.8419846,197.065699 C85.8419846,198.146563 84.9624182,199.026235 83.8814753,199.026235 Z M79.9605093,192.491151 C79.6004136,192.491151 79.3070062,192.783929 79.3070062,193.144576 L79.3070062,197.065699 C79.3070062,197.426319 79.6004136,197.719123 79.9605093,197.719123 L83.8814753,197.719123 C84.241571,197.719123 84.5350833,197.426319 84.5350833,197.065699 L84.5350833,193.144576 C84.5350833,192.783929 84.241571,192.491151 83.8814753,192.491151 L79.9605093,192.491151 Z" id="liebiao"></path>
        </g>
    </g>
</svg>