<?xml version="1.0" encoding="UTF-8"?>
<svg width="16px" height="16px" viewBox="0 0 16 16" version="1.1" xmlns="http://www.w3.org/2000/svg" xmlns:xlink="http://www.w3.org/1999/xlink">
    <!-- Generator: Sketch 47.1 (45422) - http://www.bohemiancoding.com/sketch -->
    <title>+</title>
    <desc>Created with Sketch.</desc>
    <defs></defs>
    <g id="Page-1" stroke="none" stroke-width="1" fill="none" fill-rule="evenodd">
        <path d="M14.943125,9.07022917 L9.03572917,9.07022917 L9.03572917,14.9785833 C9.03572917,15.5543542 8.56877083,16.0208333 7.99291667,16.0208333 C7.41714583,16.0208333 6.9501875,15.5543542 6.9501875,14.9785833 L6.9501875,9.07022917 L1.04272917,9.07022917 C0.466479167,9.07022917 0,8.60366667 0,8.02789583 C0,7.452375 0.4665625,6.98566667 1.04272917,6.98566667 L6.9501875,6.98566667 L6.9501875,1.07722917 C6.9501875,0.501708333 7.41714583,0.0349791667 7.99291667,0.0349791667 C8.5686875,0.0349791667 9.03564583,0.501708333 9.03564583,1.07722917 L9.03564583,6.98566667 L14.943125,6.98566667 C15.519375,6.98566667 15.9858333,7.452375 15.9858333,8.02789583 C15.9858333,8.60366667 15.519375,9.07014583 14.943125,9.07014583 L14.943125,9.07022917 Z" id="+" fill="#D1DCDE"></path>
    </g>
</svg>