<?xml version="1.0" encoding="UTF-8"?>
<svg width="16px" height="16px" viewBox="0 0 16 16" version="1.1" xmlns="http://www.w3.org/2000/svg" xmlns:xlink="http://www.w3.org/1999/xlink">
    <!-- Generator: Sketch 47.1 (45422) - http://www.bohemiancoding.com/sketch -->
    <title>btn_+</title>
    <desc>Created with Sketch.</desc>
    <defs></defs>
    <g id="Page-1" stroke="none" stroke-width="1" fill="none" fill-rule="evenodd">
        <path d="M7.98246041,0.0350791717 C3.57413886,0.0350791717 0,3.60921803 0,8.01753959 C0,12.4258611 3.57413886,16 7.98246041,16 C12.390782,16 15.9649208,12.4258611 15.9649208,8.01753959 C15.9649208,3.60921803 12.390782,0.0350791717 7.98246041,0.0350791717 Z M11.9736906,8.51644336 L8.48136419,8.51644336 L8.48136419,12.0087698 C8.48136419,12.2841608 8.2578514,12.5076736 7.98246041,12.5076736 C7.70706943,12.5076736 7.48355664,12.2841608 7.48355664,12.0087698 L7.48355664,8.51644336 L3.99123021,8.51644336 C3.71583922,8.51644336 3.49232643,8.29293057 3.49232643,8.01753959 C3.49232643,7.7421486 3.71583922,7.51863581 3.99123021,7.51863581 L7.48355664,7.51863581 L7.48355664,4.02630938 C7.48355664,3.75091839 7.70706943,3.5274056 7.98246041,3.5274056 C8.2578514,3.5274056 8.48136419,3.75091839 8.48136419,4.02630938 L8.48136419,7.51863581 L11.9736906,7.51863581 C12.2490816,7.51863581 12.4725944,7.7421486 12.4725944,8.01753959 C12.4725944,8.29293057 12.2490816,8.51644336 11.9736906,8.51644336 L11.9736906,8.51644336 Z" id="btn_+" fill="#FFFFFF"></path>
    </g>
</svg>