<?xml version="1.0" encoding="UTF-8"?>
<svg width="16px" height="17px" viewBox="0 0 16 17" version="1.1" xmlns="http://www.w3.org/2000/svg" xmlns:xlink="http://www.w3.org/1999/xlink">
    <!-- Generator: Sketch 47.1 (45422) - http://www.bohemiancoding.com/sketch -->
    <title>del</title>
    <desc>Created with Sketch.</desc>
    <defs></defs>
    <g id="Page-1" stroke="none" stroke-width="1" fill="none" fill-rule="evenodd">
        <path d="M12.5860542,5.15621161 L12.2024258,5.15621161 L12.2024258,14.7636232 L10.9413781,14.7636232 L10.9413781,5.15621161 L8.83676903,5.15621161 L8.83676903,14.7636232 L7.57466839,14.7636232 L7.57466839,5.15621161 L5.47121548,5.15621161 L5.47121548,14.7636232 L4.20806194,14.7636232 L4.20806194,5.15621161 L3.40467613,5.15621161 C2.45444129,5.15621161 1.68282839,5.14248258 1.68282839,5.15621161 L1.68282839,15.1948387 C1.68282839,16.1187097 2.45338839,16.8670968 3.40467613,16.8670968 L12.5860542,16.8670968 C13.5363716,16.8670968 14.3069316,16.1187097 14.3069316,15.1948387 L14.3069316,5.15621161 C14.3069316,5.08539871 13.5363716,5.15621161 12.5860542,5.15621161 Z M15.1335432,2.14046968 L11.3620232,2.14046968 L11.3620232,1.11409548 C11.3620232,0.519019355 10.2986323,0.0370167742 9.67822452,0.0370167742 L6.31153548,0.0370167742 C5.69209806,0.0370167742 4.6287071,0.519019355 4.6287071,1.11409548 L4.6287071,2.14046968 L0.857249032,2.14046968 C0.383710968,2.14046968 0,2.51790452 0,2.98192516 C0,3.44596645 0.383710968,3.82329806 0.857249032,3.82329806 L15.1335432,3.82329806 C15.6071019,3.82329806 15.9908129,3.44699871 15.9908129,2.98192516 C15.9908129,2.51676903 15.606049,2.14046968 15.1335432,2.14046968 Z M6.31258839,2.14046968 L9.67822452,2.14046968 L9.67822452,1.71982452 L6.31258839,1.71982452 L6.31258839,2.14046968 Z" id="del" fill="#D1DCDE"></path>
    </g>
</svg>