<?xml version="1.0" encoding="UTF-8"?>
<svg width="13px" height="11px" viewBox="0 0 13 11" version="1.1" xmlns="http://www.w3.org/2000/svg" xmlns:xlink="http://www.w3.org/1999/xlink">
    <!-- Generator: Sketch 47.1 (45422) - http://www.bohemiancoding.com/sketch -->
    <title>photo</title>
    <desc>Created with Sketch.</desc>
    <defs></defs>
    <g id="Page-1" stroke="none" stroke-width="1" fill="none" fill-rule="evenodd" opacity="0.900000036">
        <g id="1204新增" transform="translate(-19.000000, -95.000000)" fill-rule="nonzero" fill="#FFFFFF">
            <g id="photo" transform="translate(19.000000, 95.000000)">
                <path d="M12.0427491,10.2324012 L0.629686225,10.2324012 C0.314843113,10.2324012 0,9.99626882 0,9.68142571 L0,1.8103479 C0,1.49550478 0.236132334,1.18066167 0.629686225,1.18066167 L3.14843113,1.18066167 L4.09296046,0.236132334 C4.17167124,0.0787107781 4.40780358,0 4.56522513,0 L8.10721015,0 C8.2646317,0 8.42205326,0.0787107781 8.50076404,0.157421556 L8.50076404,0.157421556 L9.60271493,1.18066167 L12.1214598,1.18066167 C12.4363029,1.18066167 12.7511461,1.41679401 12.7511461,1.8103479 L12.7511461,9.68142571 C12.6724353,9.99626882 12.4363029,10.2324012 12.0427491,10.2324012 Z M6.37557303,1.96776945 C4.40780358,1.96776945 2.83358801,3.54198502 2.83358801,5.50975447 C2.83358801,7.47752392 4.40780358,9.05173949 6.37557303,9.05173949 C8.34334248,9.05173949 9.91755804,7.47752392 9.91755804,5.50975447 C9.91755804,3.54198502 8.34334248,1.96776945 6.37557303,1.96776945 Z M6.37557303,7.87107781 C5.0374898,7.87107781 4.01424968,6.8478377 4.01424968,5.50975447 C4.01424968,4.17167124 5.0374898,3.14843113 6.37557303,3.14843113 C7.71365626,3.14843113 8.73689637,4.17167124 8.73689637,5.50975447 C8.73689637,6.8478377 7.71365626,7.87107781 6.37557303,7.87107781 Z" id="Shape"></path>
            </g>
        </g>
    </g>
</svg>