<?xml version="1.0" encoding="UTF-8"?>
<svg width="18px" height="19px" viewBox="0 0 18 19" version="1.1" xmlns="http://www.w3.org/2000/svg" xmlns:xlink="http://www.w3.org/1999/xlink">
    <!-- Generator: Sketch 47.1 (45422) - http://www.bohemiancoding.com/sketch -->
    <title>shuaxin</title>
    <desc>Created with Sketch.</desc>
    <defs>
        <polygon id="path-1" points="0.00136020151 0.016126876 0.00136020151 18.2493703 17.993539 18.2493703 17.993539 0.016126876"></polygon>
    </defs>
    <g id="Page-1" stroke="none" stroke-width="1" fill="none" fill-rule="evenodd">
        <g id="1204新增" transform="translate(-77.000000, -86.000000)">
            <g id="shuaxin" transform="translate(77.000000, 86.000000)">
                <mask id="mask-2" fill="white">
                    <use xlink:href="#path-1"></use>
                </mask>
                <g id="Clip-2"></g>
                <path d="M12.1443098,4.37975819 L9.4731461,4.37975819 L9.4731461,5.7311864 L12.1443098,5.7311864 C12.7479899,5.7311864 13.3335113,5.85056675 13.8876121,6.08479345 C14.4236222,6.31228715 14.9056322,6.63878086 15.320063,7.05321159 C15.7344937,7.46766499 16.0611008,7.94965239 16.2885945,8.48568514 C16.5228212,9.03756423 16.6421788,9.62537531 16.6421788,10.2289647 L16.6421788,12.4001637 C16.6421788,13.0038438 16.5228212,13.5893652 16.2885945,14.1434433 C16.0611008,14.6794761 15.7344937,15.1614635 15.320063,15.5759169 C14.9057229,15.9903476 14.4237128,16.316932 13.8876121,16.5444257 C13.3358237,16.7786524 12.7479899,16.8980327 12.1443098,16.8980327 L5.84469521,16.8980327 C5.24110579,16.8980327 4.6554937,16.7786524 4.10141562,16.5444257 C3.56538287,16.316932 3.08339547,15.9903476 2.66894207,15.5759169 C2.25451134,15.1615542 1.92792695,14.6795668 1.70043325,14.1434433 C1.49100756,13.6501889 1.37391688,13.1322469 1.35133753,12.5983451 L0,12.5983451 C0.105823678,15.7245869 2.69374307,18.2493703 5.84469521,18.2493703 L12.1443098,18.2493703 C15.3606196,18.2493703 17.993539,15.6164736 17.993539,12.4001637 L17.993539,10.2289647 C17.993539,7.01045592 15.3606196,4.37975819 12.1443098,4.37975819 Z" id="Fill-1" fill="#969DA4" mask="url(#mask-2)"></path>
                <path d="M8.4066801,9.17941058 C8.59035264,9.34848363 8.88780605,9.21731486 8.88780605,8.96946348 L8.88780605,0.304095718 C8.88780605,0.0533198992 8.59035264,-0.0778261965 8.4066801,0.0941486146 L3.7066398,4.42394207 C3.58417632,4.53765491 3.58417632,4.7330932 3.7066398,4.8466927 L8.4066801,9.17941058 Z" id="Fill-3" fill="#969DA4" mask="url(#mask-2)"></path>
            </g>
        </g>
    </g>
</svg>