<?xml version="1.0" encoding="UTF-8"?>
<svg width="10px" height="13px" viewBox="0 0 10 13" version="1.1" xmlns="http://www.w3.org/2000/svg" xmlns:xlink="http://www.w3.org/1999/xlink">
    <!-- Generator: Sketch 47.1 (45422) - http://www.bohemiancoding.com/sketch -->
    <title>up</title>
    <desc>Created with Sketch.</desc>
    <defs>
        <polygon id="path-1" points="0.00109090909 0.0177417814 0.00109090909 13.0363636 9.99163182 13.0363636 9.99163182 0.0177417814"></polygon>
    </defs>
    <g id="Page-1" stroke="none" stroke-width="1" fill="none" fill-rule="evenodd">
        <g id="up">
            <mask id="mask-2" fill="white">
                <use xlink:href="#path-1"></use>
            </mask>
            <g id="Clip-2"></g>
            <path d="M9.94907273,5.28076364 L5.90256364,0.0530545455 C5.72365455,-0.0516363636 5.56505455,0.1098 5.56505455,0.1098 L1.51854545,5.33601818 C1.46178182,5.39276364 1.46178182,5.44801818 1.46178182,5.44801818 C1.46178182,5.50469091 1.46178182,5.56001818 1.51854545,5.56001818 C1.57529091,5.61669091 1.68729091,5.67201818 1.74403636,5.61669091 L4.44069091,4.54907273 C4.55269091,8.65234545 3.99127273,10.5636364 0,13.0363636 C3.42834545,12.3614364 6.576,11.0130727 7.02541818,4.54907273 L9.72365455,5.61669091 C9.83565455,5.67343636 9.89232727,5.61669091 9.94907273,5.56001818 C10.0058182,5.50469091 10.0058182,5.39276364 9.94907273,5.28076364 Z" id="Fill-1" fill="#7ED321" mask="url(#mask-2)"></path>
        </g>
    </g>
</svg>