<?xml version="1.0" encoding="UTF-8"?>
<svg width="10px" height="10px" viewBox="0 0 10 10" version="1.1" xmlns="http://www.w3.org/2000/svg" xmlns:xlink="http://www.w3.org/1999/xlink">
    <!-- Generator: Sketch 47.1 (45422) - http://www.bohemiancoding.com/sketch -->
    <title>X</title>
    <desc>Created with Sketch.</desc>
    <defs></defs>
    <g id="Page-1" stroke="none" stroke-width="1" fill="none" fill-rule="evenodd">
        <g id="Artboard" transform="translate(-414.000000, -84.000000)" fill="#C8C8C8">
            <path d="M418.611111,88.6111111 L412.388889,88.6111111 L412.388889,88.6111111 C412.174111,88.6111111 412,88.7852226 412,89 C412,89.2147774 412.174111,89.3888889 412.388889,89.3888889 L418.611111,89.3888889 L418.611111,95.6111111 C418.611111,95.8258885 418.785223,96 419,96 C419.214777,96 419.388889,95.8258885 419.388889,95.6111111 L419.388889,89.3888889 L425.611111,89.3888889 C425.825889,89.3888889 426,89.2147774 426,89 C426,88.7852226 425.825889,88.6111111 425.611111,88.6111111 L425.611111,88.6111111 L419.388889,88.6111111 L419.388889,82.3888889 C419.388889,82.1741115 419.214777,82 419,82 C418.785223,82 418.611111,82.1741115 418.611111,82.3888889 L418.611111,82.3888889 L418.611111,88.6111111 Z" id="X" transform="translate(419.000000, 89.000000) rotate(-315.000000) translate(-419.000000, -89.000000) "></path>
        </g>
    </g>
</svg>